<svg width="101" height="94" viewBox="0 0 101 94" fill="none" xmlns="http://www.w3.org/2000/svg">
<path d="M9.29516 37.8813L4.38051 51.2734L8.05465 56.1545M14.639 70.679L21.8656 79.2835L54.4698 88.7322L83.7717 72.7769M91.2045 53.2676L95.6763 41.6778L92.6275 36.731M15.7207 20.8188L45.6479 4.79779L77.5051 13.1545L84.8534 22.9167M46.378 11.7441L21.7744 24.2793L12.5096 50.419L25.0091 73.1006L53.6788 81.2071L78.1607 67.5141L85.6713 42.7294L73.0501 18.89L46.378 11.7441Z" stroke="#F7F6F3" stroke-width="2.4"/>
<path d="M49.9076 32.4874L49.829 44.1324M45.4056 47.6258L49.7778 51.7016L54.8337 47.6258M40.3576 50.5371L49.7267 59.2708L59.8424 50.5371" stroke="#F7F6F3" stroke-width="2.4"/>
</svg>
