<svg width="211" height="211" viewBox="0 0 211 211" fill="none" xmlns="http://www.w3.org/2000/svg">
<rect width="211" height="211" rx="105.5" fill="#474C78" fill-opacity="0.68"/>
<path fill-rule="evenodd" clip-rule="evenodd" d="M159.03 91C153.679 91 150.655 91.9588 148.919 94.2058C147.105 96.5527 146.741 100.258 146.741 105.475C146.741 115.718 148.449 120 159.03 120C160.301 120 164.645 119.977 167.182 119.69C168.168 119.538 168.61 118.837 168.61 118.209V117.078C168.61 116.198 167.893 115.534 166.942 115.534H159.03C153.06 115.534 151.983 114.228 151.83 106.803V104.4C151.881 96.8018 152.957 95.4661 159.03 95.4661C164.63 95.4661 165.704 96.6515 165.89 103.341H156.992V107.856H168.695C171 107.856 171 106.36 171 105.869V104.427C170.833 94.0115 168.148 91 159.03 91Z" fill="#F5F5DC"/>
<path fill-rule="evenodd" clip-rule="evenodd" d="M143.62 91.3982L143.493 91.367C142.403 91.1542 139.424 91 137.948 91C132.722 91 129.96 93.0303 129.96 96.8715V118.258C129.96 119.139 130.624 119.754 131.575 119.754H133.434C134.385 119.754 135.049 119.139 135.049 118.258V97.2642C135.049 96.3164 135.308 95.4661 138.426 95.4661L143.043 95.4621C143.495 95.5124 143.926 95.3964 144.258 95.1354C144.621 94.8515 144.82 94.4376 144.82 93.9706V92.8888C144.82 92.1785 144.383 91.6352 143.62 91.3982Z" fill="#F5F5DC"/>
<path fill-rule="evenodd" clip-rule="evenodd" d="M121.302 91.3447H119.443C118.492 91.3447 117.828 91.9596 117.828 92.8399V115.534H110.097C105.315 115.534 103.375 115.252 103.375 108.18V92.8399C103.375 91.9596 102.711 91.3447 101.76 91.3447H99.954C99.0029 91.3447 98.2861 91.9875 98.2861 92.8399V108.18C98.2861 118.231 102.215 120 110.469 120C113.438 120 117.505 120 121.384 119.493L121.473 119.476C122.431 119.254 122.917 118.745 122.917 117.964V92.8399C122.917 91.9596 122.253 91.3447 121.302 91.3447Z" fill="#F5F5DC"/>
<path fill-rule="evenodd" clip-rule="evenodd" d="M92.5529 92.0467C92.3143 91.5761 91.8027 91.2949 91.1841 91.2949H88.7949C88.101 91.2949 87.5819 91.5543 87.3086 92.0213L83.7676 96.8228L86.8677 100.757L92.2803 93.5522C92.8743 92.8825 92.6688 92.2761 92.5529 92.0467Z" fill="#74BB11"/>
<path fill-rule="evenodd" clip-rule="evenodd" d="M73.8816 91.967L73.8783 91.9625C73.3386 91.2949 72.6202 91.2949 72.3839 91.2949H70.047C69.4484 91.2949 68.9581 91.5501 68.7018 91.9946C68.4383 92.4498 68.494 92.997 68.8586 93.5037L77.5163 104.641L67.5608 117.527C67.2129 118.012 67.1642 118.55 67.427 119.005C67.6846 119.45 68.1752 119.704 68.7728 119.704H71.1621C71.7764 119.704 72.3165 119.409 72.5868 118.942L83.73 104.692L73.8816 91.967Z" fill="#009CD9"/>
<path fill-rule="evenodd" clip-rule="evenodd" d="M93.7415 117.64L86.7956 108.794L83.7402 112.703L89.2336 119.506L89.3763 119.564C89.6133 119.659 89.8398 119.705 90.0692 119.705H92.4054C92.9697 119.705 93.4489 119.472 93.7202 119.065C93.9981 118.649 94.0059 118.13 93.7415 117.64Z" fill="#EB2084"/>
<path fill-rule="evenodd" clip-rule="evenodd" d="M58.3735 107.659V115.171C56.0078 115.508 52.4023 115.583 51.1736 115.583C45.7372 115.583 45.1418 114.204 45.1418 111.277C45.1418 108.538 46.2465 107.659 49.6867 107.659H58.3735ZM50.9082 91C49.2285 91 46.9377 91.0403 44.0879 91.3588L43.959 91.3848C43.1286 91.6042 42.7081 92.1103 42.7081 92.8888V93.9706C42.7081 94.8927 43.327 95.4661 44.3233 95.4661H50.9082C56.2107 95.4661 58.3735 96.7988 58.3735 100.067V103.242H49.6867C42.8972 103.242 40 105.645 40 111.277C40 117.554 42.9987 120 50.6958 120C53.8133 120 59.5524 119.775 61.6737 119.175C63.4623 118.714 63.4623 117.446 63.4623 117.029V99.7724C63.4623 93.8694 59.3557 91 50.9082 91Z" fill="#F5F5DC"/>
</svg>
