<svg width="211" height="211" viewBox="0 0 211 211" fill="none" xmlns="http://www.w3.org/2000/svg">
<rect width="211" height="211" rx="105.5" fill="#474C78" fill-opacity="0.68"/>
<path fill-rule="evenodd" clip-rule="evenodd" d="M43.6118 127.959C55.5476 127.959 65.2235 117.904 65.2235 105.5C65.2235 93.0969 55.5476 83.042 43.6118 83.042C31.6759 83.042 22 93.0969 22 105.5C22 117.904 31.6759 127.959 43.6118 127.959ZM50.3539 93.504C50.6821 92.2926 49.5508 91.5763 48.5176 92.3412L34.0951 103.018C32.9747 103.848 33.1509 105.5 34.3599 105.5H38.1577V105.47H45.5595L39.5285 107.681L36.8697 117.497C36.5415 118.708 37.6726 119.424 38.7059 118.659L53.1284 107.983C54.2489 107.153 54.0725 105.5 52.8637 105.5H47.1043L50.3539 93.504Z" fill="#155EEF"/>
<path d="M76.4023 115.615V112.063H79.1136V97.7303H76.4023V94.1778H87.0118C88.2692 94.1778 89.3596 94.4024 90.283 94.8515C91.226 95.2803 91.953 95.903 92.4638 96.7196C92.9943 97.5159 93.2595 98.4755 93.2595 99.5984V99.9046C93.2595 100.885 93.0827 101.691 92.729 102.324C92.3754 102.937 91.953 103.416 91.4618 103.763C90.9903 104.09 90.5384 104.325 90.1062 104.468V105.019C90.5384 105.142 91.0099 105.376 91.5208 105.723C92.0316 106.05 92.4638 106.53 92.8175 107.163C93.1908 107.796 93.3774 108.623 93.3774 109.643V109.95C93.3774 111.134 93.1122 112.155 92.5817 113.012C92.0512 113.849 91.3145 114.492 90.3714 114.942C89.448 115.391 88.3674 115.615 87.1296 115.615H76.4023ZM83.0038 111.94H86.6581C87.5029 111.94 88.1808 111.726 88.6916 111.297C89.222 110.868 89.4873 110.256 89.4873 109.46V109.153C89.4873 108.357 89.2319 107.745 88.721 107.316C88.2102 106.887 87.5226 106.673 86.6581 106.673H83.0038V111.94ZM83.0038 102.998H86.5992C87.4047 102.998 88.0629 102.783 88.5737 102.355C89.1042 101.926 89.3694 101.334 89.3694 100.578V100.272C89.3694 99.4963 89.114 98.9042 88.6032 98.4959C88.0923 98.0671 87.4243 97.8528 86.5992 97.8528H83.0038V102.998Z" fill="white"/>
<path d="M102.161 116.044C100.708 116.044 99.4011 115.738 98.2419 115.125C97.0827 114.513 96.1691 113.625 95.5011 112.461C94.8331 111.297 94.4991 109.899 94.4991 108.265V107.775C94.4991 106.142 94.8331 104.743 95.5011 103.58C96.1691 102.416 97.0827 101.528 98.2419 100.915C99.4011 100.303 100.708 99.9965 102.161 99.9965C103.615 99.9965 104.922 100.303 106.081 100.915C107.24 101.528 108.154 102.416 108.822 103.58C109.49 104.743 109.824 106.142 109.824 107.775V108.265C109.824 109.899 109.49 111.297 108.822 112.461C108.154 113.625 107.24 114.513 106.081 115.125C104.922 115.738 103.615 116.044 102.161 116.044ZM102.161 112.614C103.301 112.614 104.244 112.236 104.991 111.481C105.737 110.705 106.111 109.603 106.111 108.173V107.867C106.111 106.438 105.737 105.346 104.991 104.59C104.264 103.814 103.321 103.427 102.161 103.427C101.022 103.427 100.079 103.814 99.3323 104.59C98.5857 105.346 98.2124 106.438 98.2124 107.867V108.173C98.2124 109.603 98.5857 110.705 99.3323 111.481C100.079 112.236 101.022 112.614 102.161 112.614Z" fill="white"/>
<path d="M111.778 115.615V94.1778H115.491V115.615H111.778Z" fill="white"/>
<path d="M123.732 115.615C122.769 115.615 121.983 115.309 121.374 114.697C120.785 114.064 120.49 113.227 120.49 112.185V103.61H116.836V100.425H120.49V95.709H124.203V100.425H128.211V103.61H124.203V111.512C124.203 112.124 124.478 112.43 125.029 112.43H127.858V115.615H123.732Z" fill="white"/>
<path d="M136.17 116.044C134.264 116.044 132.702 115.615 131.484 114.758C130.266 113.9 129.529 112.675 129.274 111.083L132.693 110.164C132.83 110.879 133.056 111.44 133.37 111.848C133.704 112.257 134.107 112.553 134.579 112.737C135.07 112.9 135.6 112.982 136.17 112.982C137.035 112.982 137.673 112.828 138.086 112.522C138.498 112.195 138.705 111.797 138.705 111.328C138.705 110.858 138.508 110.501 138.115 110.256C137.722 109.99 137.093 109.776 136.229 109.613L135.404 109.46C134.382 109.255 133.449 108.98 132.604 108.633C131.759 108.265 131.081 107.765 130.571 107.132C130.06 106.499 129.804 105.683 129.804 104.682C129.804 103.171 130.335 102.018 131.396 101.222C132.457 100.405 133.852 99.9965 135.581 99.9965C137.211 99.9965 138.567 100.374 139.648 101.13C140.728 101.885 141.435 102.875 141.769 104.1L138.321 105.203C138.164 104.427 137.84 103.876 137.349 103.549C136.877 103.222 136.288 103.059 135.581 103.059C134.873 103.059 134.333 103.192 133.96 103.457C133.586 103.702 133.4 104.049 133.4 104.498C133.4 104.988 133.596 105.356 133.989 105.601C134.382 105.825 134.913 105.999 135.581 106.122L136.406 106.275C137.506 106.479 138.498 106.754 139.382 107.102C140.286 107.428 140.993 107.908 141.504 108.541C142.035 109.153 142.3 109.99 142.3 111.052C142.3 112.645 141.74 113.88 140.62 114.758C139.52 115.615 138.037 116.044 136.17 116.044Z" fill="white"/>
<path d="M144.08 115.615V94.1778H147.794V102.293H148.324C148.481 101.967 148.727 101.64 149.061 101.313C149.395 100.987 149.837 100.721 150.387 100.517C150.957 100.293 151.674 100.18 152.538 100.18C153.678 100.18 154.67 100.456 155.515 101.007C156.379 101.538 157.047 102.283 157.519 103.243C157.991 104.182 158.226 105.284 158.226 106.55V115.615H154.513V106.857C154.513 105.713 154.238 104.856 153.688 104.284C153.157 103.712 152.391 103.427 151.389 103.427C150.25 103.427 149.365 103.825 148.737 104.621C148.108 105.397 147.794 106.489 147.794 107.898V115.615H144.08Z" fill="white"/>
<path d="M160.767 115.615V100.425H164.48V115.615H160.767ZM162.624 98.649C161.956 98.649 161.386 98.4244 160.914 97.9753C160.462 97.5261 160.236 96.934 160.236 96.199C160.236 95.464 160.462 94.8719 160.914 94.4228C161.386 93.9736 161.956 93.749 162.624 93.749C163.311 93.749 163.881 93.9736 164.333 94.4228C164.785 94.8719 165.011 95.464 165.011 96.199C165.011 96.934 164.785 97.5261 164.333 97.9753C163.881 98.4244 163.311 98.649 162.624 98.649Z" fill="white"/>
<path d="M169.538 115.615V103.61H165.825V100.425H169.538V97.6078C169.538 96.5665 169.833 95.7396 170.422 95.1271C171.031 94.4942 171.817 94.1778 172.78 94.1778H176.611V97.3628H174.077C173.526 97.3628 173.251 97.669 173.251 98.2815V100.425H177.083V103.61H173.251V115.615H169.538Z" fill="white"/>
<path d="M183.795 115.615C182.833 115.615 182.047 115.309 181.438 114.697C180.848 114.064 180.554 113.227 180.554 112.185V103.61H176.899V100.425H180.554V95.709H184.267V100.425H188.275V103.61H184.267V111.512C184.267 112.124 184.542 112.43 185.092 112.43H187.921V115.615H183.795Z" fill="white"/>
</svg>
