<svg width="211" height="211" viewBox="0 0 211 211" fill="none" xmlns="http://www.w3.org/2000/svg">
<rect width="211" height="211" rx="105.5" fill="#474C78" fill-opacity="0.68"/>
<path d="M38.7141 115.428C47.3929 115.428 54.4284 108.393 54.4284 99.7141C54.4284 98.7306 54.3381 97.7681 54.1652 96.8345C53.2316 96.6617 52.2692 96.5713 51.2856 96.5713C42.6068 96.5713 35.5713 103.607 35.5713 112.286C35.5713 113.269 35.6617 114.232 35.8345 115.165C36.7681 115.338 37.7306 115.428 38.7141 115.428Z" fill="#175CD3"/>
<path fill-rule="evenodd" clip-rule="evenodd" d="M35.8347 115.165C28.5312 113.813 23 107.409 23 99.7143C23 91.0355 30.0355 84 38.7143 84C46.4095 84 52.8128 89.5312 54.1653 96.8347C53.2318 96.6618 52.2693 96.5714 51.2857 96.5714C42.607 96.5714 35.5714 103.607 35.5714 112.286C35.5714 113.269 35.6618 114.232 35.8347 115.165Z" fill="#1570EF"/>
<path fill-rule="evenodd" clip-rule="evenodd" d="M38.7146 115.429C47.3933 115.429 54.4289 108.393 54.4289 99.7146C54.4289 98.731 54.3385 97.7685 54.1656 96.835C61.4691 98.1875 67.0003 104.591 67.0003 112.286C67.0003 120.965 59.9648 128 51.286 128C43.5908 128 37.1875 122.469 35.835 115.166C36.7685 115.338 37.731 115.429 38.7146 115.429Z" fill="#2E90FA"/>
<path d="M90.5495 116.24C95.9195 116.24 99.7895 113.21 100.18 108.71H95.6795C95.3195 110.87 93.2495 112.34 90.5495 112.34C87.1595 112.34 84.5495 110 84.5495 105.5C84.5495 101 87.1595 98.6296 90.5495 98.6296C93.1895 98.6296 95.2595 100.1 95.5595 102.29H100.27C99.6995 97.7596 95.8295 94.7596 90.5495 94.7596C84.9395 94.7596 80.0195 98.4196 80.0195 105.5C80.0195 112.58 84.8495 116.24 90.5495 116.24Z" fill="white"/>
<path d="M108.531 100.64C104.391 100.64 101.931 103.07 101.751 106.1H105.471C105.531 104.84 106.461 103.7 108.291 103.7C110.001 103.7 110.991 104.57 110.991 105.83C110.991 106.46 110.601 106.94 109.851 106.94H107.301C104.001 106.94 101.781 108.74 101.781 111.71C101.781 114.29 103.791 116.24 106.731 116.24C108.801 116.24 110.481 115.31 110.991 113.9V116H115.131V106.28C115.131 102.86 112.341 100.64 108.531 100.64ZM107.781 113.21C106.611 113.21 105.771 112.52 105.771 111.53C105.771 110.36 106.671 109.58 107.931 109.58H110.991V109.79C110.991 111.71 109.821 113.21 107.781 113.21Z" fill="white"/>
<path d="M117.933 122.12H122.103V114.65C122.913 115.67 124.383 116.24 126.093 116.24C130.443 116.24 133.383 113.15 133.383 108.44C133.383 103.73 130.683 100.64 126.453 100.64C124.503 100.64 123.003 101.36 122.103 102.53V100.88H117.933V122.12ZM125.583 112.64C123.333 112.64 121.863 110.96 121.863 108.44C121.863 105.89 123.333 104.21 125.583 104.21C127.773 104.21 129.273 105.89 129.273 108.44C129.273 110.96 127.773 112.64 125.583 112.64Z" fill="white"/>
<path d="M140.726 116.24C144.266 116.24 146.606 114.35 146.606 111.47C146.606 104.63 138.326 108.14 138.326 105.05C138.326 104.09 139.136 103.58 140.306 103.58C141.446 103.58 142.616 104.27 142.796 105.56H146.426C146.276 102.59 143.816 100.64 140.186 100.64C137.096 100.64 134.786 102.53 134.786 105.2C134.786 111.56 142.916 108.53 142.916 111.62C142.916 112.46 142.016 113.09 140.726 113.09C139.166 113.09 138.116 112.25 137.966 110.9H134.366C134.516 114.17 137.036 116.24 140.726 116.24Z" fill="white"/>
<path d="M163.076 100.88H158.876V109.16C158.876 111.08 157.586 112.52 155.756 112.52C154.046 112.52 152.846 111.2 152.846 109.37V100.88H148.676V110.3C148.676 113.75 150.896 116.24 154.286 116.24C156.356 116.24 158.036 115.34 158.876 113.9V116H163.076V100.88Z" fill="white"/>
<path d="M166.076 116H170.246V94.3096H166.076V116Z" fill="white"/>
<path d="M183.351 110.87C183.021 112.16 181.911 112.82 180.231 112.82C178.131 112.82 176.781 111.5 176.481 109.37H187.341C187.371 109.04 187.401 108.59 187.401 108.02C187.401 104.57 185.271 100.64 179.931 100.64C174.801 100.64 172.461 104.57 172.461 108.41C172.461 112.22 175.101 116.24 180.231 116.24C183.951 116.24 186.831 114.14 187.431 110.87H183.351ZM179.931 103.7C181.941 103.7 183.111 105.05 183.231 106.73H176.541C176.901 104.63 178.041 103.7 179.931 103.7Z" fill="white"/>
</svg>
