<svg width="211" height="211" viewBox="0 0 211 211" fill="none" xmlns="http://www.w3.org/2000/svg">
<rect width="211" height="211" rx="105.5" fill="#474C78" fill-opacity="0.68"/>
<path d="M52.6224 94.0011C52.2579 93.6139 51.8933 93.2267 51.5288 92.8395C50.4351 91.6005 49.2686 90.3614 47.8104 89.587C46.1335 88.6578 44.3107 88.8901 42.488 88.8901C39.7174 88.8901 32.791 88.8901 28.708 88.8901L31.4786 92.8395C36.5094 92.8395 44.3836 92.8395 48.0291 92.8395C49.5602 92.8395 50.8726 93.1492 52.1121 94.0011C52.3308 94.0785 52.5495 94.0785 52.6224 94.0011Z" fill="#66C61C"/>
<path d="M55.6841 100.351C55.3196 99.9635 54.955 99.5763 54.5905 99.1891C53.4968 97.9501 52.3303 96.711 50.8721 95.9366C49.1951 95.0074 47.3724 95.2397 45.5496 95.2397C43.1436 95.2397 37.3837 95.2397 33.3008 95.2397L36.0714 99.1891C41.0292 99.1891 47.8098 99.1891 51.1637 99.1891C52.6948 99.1891 54.0072 99.4988 55.2466 100.351C55.3925 100.428 55.5383 100.428 55.6841 100.351Z" fill="#4CA30D"/>
<path d="M59.1116 106.546C58.7471 106.159 58.3825 105.772 58.018 105.384C56.9243 104.145 55.7578 102.906 54.2996 102.132C52.6226 101.203 50.7999 101.435 48.9771 101.435C46.7169 101.435 41.7591 101.435 37.749 101.435L40.5196 105.384C45.3316 105.384 51.4561 105.384 54.5183 105.384C56.0494 105.384 57.3618 105.694 58.6012 106.546C58.82 106.623 58.9658 106.701 59.1116 106.546Z" fill="#3B7C0F"/>
<path d="M28.416 117C28.7806 117.388 29.1451 117.775 29.5097 118.162C30.6033 119.401 31.7699 120.64 33.2281 121.414C34.905 122.344 36.7277 122.111 38.5505 122.111H52.3305L49.5599 118.162C44.5291 118.162 36.6548 118.162 33.0093 118.162C31.4782 118.162 30.1659 117.852 28.9264 117C28.7077 116.923 28.5618 116.923 28.416 117Z" fill="#66C61C"/>
<path d="M25.3535 110.65C25.7181 111.037 26.0826 111.424 26.4472 111.811C27.5408 113.05 28.7074 114.29 30.1656 115.064C31.8425 115.993 33.6652 115.761 35.488 115.761H47.7368L44.9663 111.811C40.0084 111.811 33.2278 111.811 29.8739 111.811C28.3428 111.811 27.0304 111.502 25.791 110.65C25.6451 110.572 25.4993 110.572 25.3535 110.65Z" fill="#4CA30D"/>
<path d="M22 104.377C22.3645 104.765 22.7291 105.152 23.0936 105.539C24.1873 106.778 25.3539 108.017 26.8121 108.791C28.489 109.721 30.3117 109.488 32.1345 109.488H43.3626L40.592 105.539C35.78 105.539 29.6555 105.539 26.5933 105.539C25.0622 105.539 23.7498 105.229 22.5104 104.377C22.2916 104.3 22.1458 104.3 22 104.377Z" fill="#3B7C0F"/>
<path d="M67.4883 96.5488V114.458H71.196V107.059H78.2573V103.999H71.196V99.8598H79.3436V96.5488H67.4883Z" fill="white"/>
<path d="M88.643 106.582H83.1877C83.2034 106.331 83.2507 106.047 83.3294 105.729C83.4238 105.412 83.5734 105.111 83.7781 104.826C83.9985 104.542 84.2819 104.308 84.6283 104.124C84.9904 103.923 85.4391 103.823 85.9744 103.823C86.7931 103.823 87.3992 104.057 87.7928 104.525C88.2022 104.994 88.4856 105.679 88.643 106.582ZM83.1877 108.84H91.9965C92.0595 107.836 91.9808 106.875 91.7603 105.955C91.5399 105.035 91.1778 104.216 90.674 103.497C90.1859 102.778 89.5562 102.209 88.7847 101.791C88.0132 101.356 87.108 101.139 86.0688 101.139C85.1399 101.139 84.2898 101.315 83.5183 101.666C82.7626 102.017 82.1092 102.502 81.5582 103.121C81.0071 103.723 80.582 104.442 80.2829 105.278C79.9838 106.114 79.8342 107.017 79.8342 107.987C79.8342 108.99 79.9759 109.91 80.2593 110.746C80.5584 111.582 80.9756 112.301 81.5109 112.903C82.0462 113.505 82.6996 113.973 83.4711 114.308C84.2425 114.626 85.1085 114.784 86.0688 114.784C87.4543 114.784 88.6351 114.45 89.6113 113.781C90.5874 113.112 91.3116 112 91.784 110.445H88.8319C88.7217 110.846 88.4226 111.231 87.9345 111.599C87.4465 111.95 86.8639 112.126 86.1869 112.126C85.2423 112.126 84.5181 111.866 84.0142 111.348C83.5104 110.83 83.2349 109.993 83.1877 108.84Z" fill="white"/>
<path d="M93.1353 105.478C93.1825 104.642 93.3793 103.948 93.7257 103.397C94.072 102.845 94.5129 102.402 95.0482 102.067C95.5835 101.733 96.1817 101.499 96.843 101.365C97.52 101.214 98.197 101.139 98.874 101.139C99.488 101.139 100.11 101.189 100.74 101.29C101.369 101.373 101.944 101.549 102.464 101.816C102.983 102.084 103.408 102.46 103.739 102.945C104.07 103.413 104.235 104.04 104.235 104.826V111.574C104.235 112.159 104.266 112.719 104.329 113.254C104.392 113.789 104.502 114.191 104.66 114.458H101.259C101.196 114.258 101.141 114.057 101.094 113.856C101.062 113.639 101.039 113.422 101.023 113.204C100.488 113.789 99.858 114.199 99.1338 114.433C98.4095 114.667 97.6696 114.784 96.9138 114.784C96.3313 114.784 95.7881 114.709 95.2843 114.559C94.7805 114.408 94.3397 114.174 93.9618 113.856C93.584 113.539 93.2848 113.137 93.0644 112.652C92.8597 112.167 92.7574 111.59 92.7574 110.922C92.7574 110.186 92.8755 109.584 93.1116 109.116C93.3635 108.631 93.6784 108.246 94.0563 107.962C94.4499 107.677 94.8907 107.468 95.3788 107.335C95.8826 107.184 96.3864 107.067 96.8902 106.983C97.394 106.9 97.89 106.833 98.378 106.783C98.8661 106.733 99.2991 106.657 99.6769 106.557C100.055 106.457 100.354 106.315 100.574 106.131C100.795 105.93 100.897 105.646 100.881 105.278C100.881 104.893 100.818 104.592 100.692 104.375C100.582 104.141 100.425 103.965 100.22 103.848C100.031 103.714 99.8029 103.631 99.5352 103.597C99.2833 103.547 99.0078 103.522 98.7087 103.522C98.0474 103.522 97.5279 103.672 97.15 103.973C96.7721 104.274 96.5517 104.776 96.4887 105.478H93.1353ZM100.881 108.112C100.74 108.246 100.559 108.355 100.338 108.438C100.134 108.505 99.9052 108.564 99.6533 108.614C99.4171 108.664 99.1652 108.706 98.8976 108.739C98.6299 108.773 98.3623 108.815 98.0946 108.865C97.8427 108.915 97.5908 108.982 97.3389 109.065C97.1028 109.149 96.8902 109.266 96.7013 109.417C96.5281 109.55 96.3864 109.726 96.2762 109.943C96.166 110.161 96.1109 110.437 96.1109 110.771C96.1109 111.089 96.166 111.356 96.2762 111.574C96.3864 111.791 96.536 111.967 96.7249 112.1C96.9138 112.218 97.1343 112.301 97.3862 112.351C97.6381 112.401 97.8978 112.427 98.1655 112.427C98.8267 112.427 99.3384 112.31 99.7005 112.075C100.063 111.841 100.33 111.565 100.503 111.248C100.677 110.913 100.779 110.579 100.811 110.244C100.858 109.91 100.881 109.642 100.881 109.442V108.112Z" fill="white"/>
<path d="M110.38 101.49V97.6023H107.027V101.49H104.996V103.873H107.027V111.524C107.027 112.176 107.129 112.702 107.334 113.104C107.538 113.505 107.814 113.815 108.16 114.032C108.522 114.249 108.932 114.391 109.388 114.458C109.861 114.542 110.357 114.584 110.876 114.584C111.207 114.584 111.545 114.575 111.892 114.559C112.238 114.542 112.553 114.508 112.836 114.458V111.699C112.679 111.733 112.514 111.758 112.34 111.774C112.167 111.791 111.986 111.799 111.797 111.799C111.23 111.799 110.853 111.699 110.664 111.498C110.475 111.298 110.38 110.896 110.38 110.294V103.873H112.836V101.49H110.38Z" fill="white"/>
<path d="M113.723 96.5488V114.458H117.077V107.661C117.077 106.34 117.282 105.395 117.691 104.826C118.1 104.241 118.761 103.948 119.675 103.948C120.478 103.948 121.037 104.216 121.351 104.751C121.666 105.269 121.824 106.064 121.824 107.134V114.458H125.177V106.482C125.177 105.679 125.106 104.952 124.965 104.3C124.839 103.631 124.61 103.07 124.28 102.619C123.949 102.151 123.493 101.791 122.91 101.54C122.343 101.273 121.611 101.139 120.714 101.139C120.084 101.139 119.438 101.315 118.777 101.666C118.116 102 117.573 102.544 117.148 103.296H117.077V96.5488H113.723Z" fill="white"/>
<path d="M135.232 106.582H129.777C129.793 106.331 129.84 106.047 129.919 105.729C130.013 105.412 130.163 105.111 130.367 104.826C130.588 104.542 130.871 104.308 131.218 104.124C131.58 103.923 132.028 103.823 132.564 103.823C133.382 103.823 133.989 104.057 134.382 104.525C134.792 104.994 135.075 105.679 135.232 106.582ZM129.777 108.84H138.586C138.649 107.836 138.57 106.875 138.35 105.955C138.129 105.035 137.767 104.216 137.263 103.497C136.775 102.778 136.146 102.209 135.374 101.791C134.603 101.356 133.697 101.139 132.658 101.139C131.729 101.139 130.879 101.315 130.108 101.666C129.352 102.017 128.699 102.502 128.148 103.121C127.596 103.723 127.171 104.442 126.872 105.278C126.573 106.114 126.424 107.017 126.424 107.987C126.424 108.99 126.565 109.91 126.849 110.746C127.148 111.582 127.565 112.301 128.1 112.903C128.636 113.505 129.289 113.973 130.06 114.308C130.832 114.626 131.698 114.784 132.658 114.784C134.044 114.784 135.224 114.45 136.201 113.781C137.177 113.112 137.901 112 138.373 110.445H135.421C135.311 110.846 135.012 111.231 134.524 111.599C134.036 111.95 133.453 112.126 132.776 112.126C131.832 112.126 131.107 111.866 130.604 111.348C130.1 110.83 129.824 109.993 129.777 108.84Z" fill="white"/>
<path d="M139.866 101.49V114.458H143.22V108.614C143.22 108.029 143.275 107.485 143.385 106.983C143.495 106.482 143.676 106.047 143.928 105.679C144.196 105.295 144.542 104.994 144.967 104.776C145.392 104.559 145.912 104.45 146.526 104.45C146.731 104.45 146.943 104.467 147.164 104.5C147.384 104.517 147.573 104.542 147.73 104.575V101.264C147.463 101.181 147.219 101.139 146.998 101.139C146.573 101.139 146.164 101.206 145.77 101.34C145.377 101.474 145.007 101.666 144.66 101.917C144.314 102.151 144.007 102.443 143.739 102.795C143.472 103.129 143.259 103.497 143.102 103.898H143.054V101.49H139.866Z" fill="white"/>
<path d="M152.399 111.147V99.8598H155.044C155.957 99.8598 156.72 100.002 157.334 100.286C157.964 100.554 158.468 100.947 158.846 101.465C159.224 101.984 159.491 102.611 159.649 103.346C159.822 104.065 159.909 104.876 159.909 105.779C159.909 106.766 159.791 107.602 159.554 108.288C159.318 108.973 159.003 109.534 158.61 109.968C158.216 110.386 157.767 110.687 157.264 110.871C156.76 111.055 156.24 111.147 155.705 111.147H152.399ZM148.691 96.5488V114.458H155.965C157.256 114.458 158.374 114.233 159.318 113.781C160.279 113.313 161.074 112.677 161.703 111.875C162.349 111.072 162.829 110.119 163.144 109.015C163.459 107.912 163.616 106.708 163.616 105.403C163.616 103.915 163.42 102.619 163.026 101.515C162.648 100.412 162.113 99.4919 161.42 98.7562C160.743 98.0204 159.932 97.4686 158.988 97.1007C158.059 96.7328 157.051 96.5488 155.965 96.5488H148.691Z" fill="white"/>
<path d="M173.351 106.582H167.896C167.912 106.331 167.959 106.047 168.038 105.729C168.132 105.412 168.282 105.111 168.486 104.826C168.707 104.542 168.99 104.308 169.336 104.124C169.699 103.923 170.147 103.823 170.683 103.823C171.501 103.823 172.107 104.057 172.501 104.525C172.91 104.994 173.194 105.679 173.351 106.582ZM167.896 108.84H176.705C176.768 107.836 176.689 106.875 176.469 105.955C176.248 105.035 175.886 104.216 175.382 103.497C174.894 102.778 174.264 102.209 173.493 101.791C172.721 101.356 171.816 101.139 170.777 101.139C169.848 101.139 168.998 101.315 168.227 101.666C167.471 102.017 166.817 102.502 166.266 103.121C165.715 103.723 165.29 104.442 164.991 105.278C164.692 106.114 164.542 107.017 164.542 107.987C164.542 108.99 164.684 109.91 164.967 110.746C165.267 111.582 165.684 112.301 166.219 112.903C166.754 113.505 167.408 113.973 168.179 114.308C168.951 114.626 169.817 114.784 170.777 114.784C172.163 114.784 173.343 114.45 174.319 113.781C175.296 113.112 176.02 112 176.492 110.445H173.54C173.43 110.846 173.131 111.231 172.643 111.599C172.155 111.95 171.572 112.126 170.895 112.126C169.951 112.126 169.226 111.866 168.722 111.348C168.219 110.83 167.943 109.993 167.896 108.84Z" fill="white"/>
<path d="M184.739 114.458L188.872 101.49H185.542L182.968 110.345H182.921L180.347 101.49H176.828L181.008 114.458H184.739Z" fill="white"/>
</svg>
