<svg width="270" height="272" viewBox="0 0 270 272" fill="none" xmlns="http://www.w3.org/2000/svg">
<path d="M22.7908 4.63463L32.8244 4.63471L22.7908 14.5654L22.7908 9.52145L22.7908 4.63463Z" fill="#D9D9D9"/>
<path d="M265.933 64.1525L259.121 55.1256V6.80518L35.5425 6.80518L24.3373 17.6905V134.509V227.168L34.176 235.132L34.176 260.62" stroke="white" stroke-width="3"/>
<path d="M124.316 211.137C123.721 209.471 123.748 204.947 124.361 202.836C124.697 201.686 126.296 198.703 127.912 196.207C131.11 191.268 131.246 190.544 130.408 183.02C129.541 175.258 129.435 173.574 129.805 173.574C130.223 173.574 131.339 182.148 131.339 185.38C131.339 186.53 131.62 188.137 131.965 188.955C132.51 190.242 132.674 190.283 133.178 189.234C133.63 188.285 133.609 187.301 133.078 184.692C132.126 180.025 130.38 164.828 130.322 160.707C130.298 158.816 130.12 156.332 129.925 155.181C129.596 153.201 129.562 153.248 129.305 156.017C129.065 158.626 129.459 165.635 130.144 170.859C130.281 171.89 130.192 172.738 129.949 172.738C129.322 172.738 128.278 159.083 128.566 154.659C128.826 150.681 128.477 149.768 127.011 150.568C126.018 151.12 125.474 153.177 125.244 157.268C124.977 162.059 124.471 165.166 123.803 166.127C122.978 167.313 122.933 169.554 123.71 170.9C124.159 171.677 124.114 171.902 123.502 171.902C123.067 171.902 122.574 171.143 122.403 170.218C122.235 169.293 121.892 168.748 121.646 169.015C120.947 169.762 121.119 172.033 121.999 173.717C122.437 174.558 122.557 175.246 122.266 175.246C121.975 175.246 121.43 174.487 121.054 173.562C120.259 171.6 120.701 166.951 122.204 161.449C123.183 157.873 123.919 152.673 123.447 152.673C123.293 152.673 121.783 153.989 120.095 155.596C118.403 157.203 116.048 158.745 114.856 159.029C112.877 159.504 112.555 159.314 111.145 156.871L109.601 154.197L107.437 156.397C104.598 159.272 98.6201 161.875 94.9292 161.84C87.1329 161.763 80.5214 155.833 75.8375 144.728C70.3623 131.748 70.7647 121.259 76.9503 115.751C77.9706 114.838 78.6759 113.871 78.5184 113.598C78.3643 113.326 76.4401 112.3 74.2488 111.315C72.0568 110.331 69.6118 108.95 68.8154 108.244C64.4921 104.408 60.3745 100.281 58.5793 97.9921C57.4638 96.5631 55.6488 94.2708 54.5467 92.8916C51.6018 89.2065 44.2418 75.6199 42.1963 70.0937C38.1482 59.1551 37.2022 53.604 38.6177 49.0906C39.4296 46.5006 41.7995 43.4007 44.4342 41.4825C46.6696 39.8549 47.8957 39.5587 52.1879 39.6103C54.9921 39.6439 58.251 39.9007 59.4298 40.1808C88.0232 46.9753 96.8667 50.9237 115.164 65.0618C120.427 69.1287 122.224 70.9289 125.073 74.9882C127.134 77.9232 129.407 84.0946 129.407 86.7539C129.407 88.6252 130.435 89.9647 131.876 89.9647C133.924 89.9647 133.78 88.1467 131.496 85.1274C130.346 83.6071 129.407 81.7951 129.407 81.1002C129.407 80.4059 128.781 78.8239 128.017 77.5853C126.213 74.6573 125.908 73.4827 124.563 64.2619C123.738 58.6254 123.197 56.4054 122.556 56.0538C122.077 55.7888 121.68 55.2213 121.68 54.7926C121.68 54.3639 120.786 54.0129 119.694 54.0129C117.903 54.0129 117.732 54.1896 117.975 55.7947C118.126 56.7867 117.948 58.0917 117.571 58.7404C116.996 59.736 116.818 59.6375 116.332 58.0633C115.578 55.6304 116.931 51.0761 118.728 49.9916C119.995 49.2261 122.163 50.0307 122.166 51.2688C122.166 51.6281 123.111 52.5952 124.265 53.417C125.422 54.2388 126.617 55.7443 126.925 56.7612C127.528 58.7612 129.411 72.2073 129.609 75.9647C129.746 78.5227 130.373 80.177 130.373 77.9807C130.373 77.2147 130.589 76.5873 130.856 76.5873C131.119 76.5873 131.339 76.8814 131.339 77.2413C131.339 77.6007 131.88 77.9724 132.544 78.0679C133.722 78.2369 134.321 76.2239 133.277 75.6119C133.013 75.4584 132.66 73.5924 132.492 71.4643C132.208 67.8723 132.301 67.408 133.766 64.9847C135.413 62.2566 136.567 61.7917 138.118 63.229C138.857 63.915 139.505 63.5207 141.377 61.2379C144.435 57.5178 147.999 56.4979 149.684 58.8614L150.834 60.4777L152.44 57.535C154.053 54.572 154.792 54.2762 154.231 56.8193C154.063 57.5753 153.621 58.1931 153.252 58.1931C152.868 58.1931 152.58 59.0375 152.58 60.1676C152.58 61.8373 152.772 62.0787 153.823 61.7306C155.477 61.1821 157.196 62.8839 158.045 65.912C158.63 68.0122 158.637 68.9443 158.09 72.1053C157.521 75.3605 157.535 75.8871 158.182 76.3175C158.589 76.5879 159.168 76.3834 159.469 75.8622C159.771 75.3416 160.414 74.9152 160.904 74.9152C162.708 74.9152 163.551 72.295 163.903 65.5954C164.352 57.0642 165.273 54.1179 167.974 52.5756C169.135 51.9109 170.457 51.5344 170.909 51.7384C171.357 51.9424 172.131 51.5973 172.627 50.9711C173.901 49.3577 174.189 49.5172 175.017 52.2993C175.877 55.1745 175.993 59.0292 175.219 59.0292C174.911 59.0292 174.822 58.4143 175.007 57.5664C175.264 56.393 175.209 56.31 174.719 57.1484C173.74 58.8347 173.11 58.3455 174.021 56.6041C175.24 54.2726 174.401 53.9506 170.652 55.3091C168.81 55.9755 167.276 56.521 167.238 56.521C167.201 56.521 167.064 57.7437 166.93 59.2385C166.396 65.3375 165.04 74.5233 164.502 75.692C164.184 76.3786 164.578 76.1515 165.376 75.188C168.844 70.9929 181.797 59.0422 187.104 55.1419C201.083 44.8686 207.373 42.3794 232.405 37.2143C238.404 35.977 241.174 35.7027 241.527 36.3117C241.876 36.9207 241.061 37.1865 238.835 37.1865C237.079 37.1865 235.257 37.5748 234.788 38.0494C234.141 38.7011 234.819 38.9296 237.551 38.983C244.201 39.1127 247.399 39.8026 248.655 41.3778C250.223 43.3406 250.511 47.4601 249.234 49.6683C248.724 50.5523 248.165 52.5766 247.994 54.1675C247.82 55.7578 247.138 58.3281 246.477 59.8787C245.817 61.4298 245.276 63.1689 245.276 63.7441C245.276 64.3186 244.19 66.4087 242.862 68.3892C241.537 70.369 240.448 72.3826 240.448 72.8641C240.448 74.2806 236.863 79.9313 235.963 79.9313C235.477 79.9313 235.138 80.5788 235.138 81.5062C235.138 83.7392 231.542 89.1284 230.053 89.1284C229.331 89.1284 228.704 89.7261 228.519 90.5918C227.817 93.9087 224.633 97.885 222.058 98.6617C221.106 98.9523 219.829 100.103 219.223 101.217C218.162 103.18 215.563 104.852 210.999 106.524C209.051 107.242 208.989 107.331 210.376 107.419C212.262 107.544 219.22 104.799 221.836 102.895C230.392 96.6754 245.365 71.4819 249.963 55.571C251.791 49.2402 251.945 48.2351 251.552 45.2242C251.312 43.3902 250.665 41.2551 250.114 40.4801C249.247 39.264 244.755 37.084 243.006 37.0301C242.684 37.0202 242.502 36.7927 242.598 36.5244C242.756 36.0803 243.44 36.0556 247.251 36.3562C248.744 36.474 251.757 40.2847 252.483 42.974C252.767 44.03 253 45.7235 253 46.7362C253 48.5749 250.357 59.032 249.686 59.8509C249.491 60.0886 248.97 61.6 248.528 63.2099C247.744 66.0702 247.176 67.2798 241.52 78.1028C237.521 85.7511 228.529 98.3534 224.277 102.279C221.997 104.384 216.868 107.236 214.135 107.918C210.297 108.872 210.136 109.258 212.773 111.185C219.062 115.768 220.658 122.717 217.772 132.975C214.128 145.931 207.236 155.969 200.275 158.472C196.81 159.717 190.055 159.812 187.583 158.65C186.522 158.146 185.542 157.813 185.409 157.914C185.279 158.009 184.111 157.019 182.817 155.703C181.057 153.918 180.372 153.58 180.095 154.363C179.619 155.685 174.932 155.667 172.59 154.327C170.529 153.153 170.001 153.758 170.898 156.266C171.261 157.274 171.799 158.774 172.086 159.592C172.484 160.713 172.46 161.253 171.987 161.762C171.186 162.628 172.186 166.885 173.192 166.885C173.716 166.885 173.744 166.518 173.319 165.142C173.021 164.182 172.888 163.209 173.021 162.978C173.37 162.373 174.12 165.19 174.48 168.469C174.788 171.267 174.219 173.574 173.223 173.574C172.956 173.574 173.014 172.999 173.35 172.299C173.685 171.599 173.802 170.751 173.61 170.419C173.418 170.087 172.983 170.473 172.645 171.273C171.741 173.414 171.268 173.064 172.076 170.858C172.696 169.156 172.631 168.54 171.371 164.377C170.604 161.845 169.707 158.744 169.382 157.481C169.053 156.213 168.632 155.181 168.443 155.181C168.258 155.181 167.954 153.971 167.765 152.489C167.262 148.516 166.526 146.838 164.711 145.504C163.818 144.846 162.975 144.312 162.845 144.312C162.712 144.312 162.749 147.04 162.924 150.372C163.15 154.695 162.955 159.752 162.239 167.994C161.602 175.365 161.322 181.816 161.465 185.806C161.674 191.611 161.822 192.317 163.503 195.566C164.499 197.499 165.547 199.219 165.828 199.39C167.824 200.618 169.429 206.18 167.789 206.18C167.379 206.18 167.036 206.998 166.998 208.065C166.937 209.797 166.916 209.779 166.714 207.852C166.598 206.701 165.934 204.727 165.242 203.464C164.55 202.201 164.211 201.163 164.485 201.163C164.759 201.163 165.376 201.916 165.858 202.835C166.338 203.755 166.968 204.496 167.259 204.484C168.122 204.442 165.153 200.327 164.259 200.327C163.438 200.327 162.219 198.483 159.058 192.477C157.121 188.801 157.124 189.144 158.925 174.41C160.181 164.134 160.712 150.627 159.839 151.131C159.5 151.327 158.699 153.9 158.059 156.847C157.418 159.8 156.593 162.794 156.223 163.506C155.854 164.211 155.405 165.812 155.227 167.057C155.046 168.309 154.594 169.761 154.224 170.295C153.851 170.834 153.546 171.611 153.546 172.032C153.546 172.447 153.18 174.191 152.731 175.898C151.834 179.319 151.752 179.829 151.67 182.527C151.639 183.547 151.211 185.053 150.714 185.871C150.218 186.696 149.448 189.31 149.002 191.676C148.366 195.044 147.917 196.106 146.955 196.527C145.544 197.137 144.863 195.951 143.901 191.202C143.565 189.554 142.901 187.455 142.422 186.536C141.946 185.616 141.401 183.423 141.213 181.667C141.025 179.906 140.357 177.41 139.727 176.112C139.094 174.813 138.58 173.366 138.58 172.892C138.58 172.424 138.275 170.971 137.902 169.672C136.228 163.832 135.201 159.492 135.201 158.27C135.201 157.547 134.982 156.717 134.718 156.432C134.451 156.147 134.235 154.884 134.235 153.615C134.235 152.353 133.944 150.633 133.588 149.791C132.985 148.362 132.876 148.433 131.814 151.018L130.681 153.764L131.537 164.294C132.006 170.087 132.955 177.772 133.646 181.371C134.478 185.717 134.728 188.101 134.389 188.474C134.112 188.789 133.732 189.868 133.55 190.882C133.133 193.194 130.02 198.655 129.116 198.655C128.743 198.655 128.442 199.041 128.442 199.509C128.442 199.977 127.891 201.869 127.22 203.707L126.001 207.057L127.1 207.786C128.089 208.451 128.113 208.581 127.336 209.127C126.788 209.506 126.127 209.186 125.525 208.243C124.607 206.802 124.576 206.826 124.576 209.067C124.576 210.81 124.761 211.255 125.326 210.882C125.758 210.591 125.949 210.733 125.782 211.208C125.395 212.293 124.717 212.258 124.316 211.137ZM125.874 203.885C126.039 203.079 126.501 201.763 126.898 200.956C127.299 200.15 127.443 199.492 127.22 199.492C126.552 199.492 124.577 203.043 124.577 204.235C124.577 205.854 125.522 205.593 125.874 203.885ZM130.281 195.365C130.401 194.736 130.219 194.422 129.86 194.635C129.511 194.837 129.131 195.495 129.014 196.094C128.894 196.723 129.076 197.037 129.435 196.829C129.784 196.628 130.165 195.97 130.281 195.365ZM132.058 192.791C131.89 192.323 131.551 192.157 131.305 192.424C130.634 193.141 130.76 193.639 131.606 193.639C132.02 193.639 132.222 193.26 132.058 192.791ZM146.034 189.85C146.182 188.487 146.414 186.334 146.551 185.071C146.777 183.014 146.664 182.765 145.469 182.735L144.131 182.705L145.459 181.454C146.767 180.227 147.25 178.59 146.305 178.59C146.038 178.59 145.822 177.909 145.822 177.078C145.822 176.248 145.517 174.849 145.151 173.977C144.586 172.637 144.357 172.56 143.716 173.473C143.299 174.078 142.679 174.387 142.336 174.167C141.662 173.722 144.846 171.066 146.048 171.066C146.493 171.066 146.784 170.325 146.781 169.186C146.774 167.663 146.681 167.544 146.305 168.558C145.904 169.631 145.836 169.602 145.829 168.35C145.825 167.544 146.051 166.886 146.332 166.886C146.613 166.886 146.709 166.506 146.544 166.05C146.072 164.716 145.343 165.077 145.281 166.678C145.23 168.072 145.216 168.072 145.007 166.678C144.884 165.872 144.562 165.214 144.285 165.214C144.011 165.214 143.932 165.866 144.11 166.678C144.367 167.852 144.309 167.935 143.822 167.093C143.336 166.257 143.097 166.506 142.628 168.35L142.039 170.645L141.998 168.35C141.96 166.056 140.563 164.917 140.464 167.093C140.155 173.728 140.306 175.893 141.059 175.644C141.59 175.466 141.785 175.839 141.655 176.776C141.391 178.685 142.203 183.227 142.771 183.032C143.025 182.943 143.521 184.259 143.87 185.955C145.541 194.06 145.579 194.131 146.034 189.85ZM144.374 185.747C144.374 185.546 144.589 185.148 144.856 184.864C145.12 184.579 145.339 184.745 145.339 185.231C145.339 185.718 145.12 186.115 144.856 186.115C144.589 186.115 144.374 185.949 144.374 185.747ZM142.624 179.871C142.473 179.195 142.443 178.164 142.559 177.571C142.672 176.984 142.881 177.535 143.018 178.798C143.292 181.271 143.066 181.881 142.624 179.871ZM143.682 178.383C143.473 177.12 143.473 175.424 143.682 174.624C144.014 173.337 144.083 173.384 144.25 175.039C144.353 176.07 144.357 177.766 144.254 178.798C144.076 180.571 144.042 180.547 143.682 178.383ZM141.104 170.23C141.104 168.623 141.203 167.959 141.326 168.765C141.446 169.572 141.446 170.888 141.326 171.695C141.203 172.495 141.104 171.837 141.104 170.23ZM160.788 191.967C160.788 191.511 160.449 191.131 160.035 191.131C159.62 191.131 159.418 191.511 159.583 191.967C159.744 192.43 160.083 192.803 160.333 192.803C160.582 192.803 160.788 192.43 160.788 191.967ZM160.562 186.222C160.411 185.012 160.726 178.424 161.26 171.582C162.332 157.927 162.496 150.544 161.753 149.744C161.449 149.418 161.257 151.493 161.233 155.341C161.212 158.703 161.117 162.202 161.021 163.121C160.921 164.046 160.586 167.242 160.278 170.23C159.966 173.218 159.545 176.414 159.34 177.339C159.134 178.258 158.953 179.948 158.939 181.099C158.922 182.249 158.785 184.366 158.631 185.801C158.377 188.178 158.466 188.415 159.596 188.415C160.685 188.415 160.805 188.143 160.562 186.222ZM151.098 178.851C151.146 173.764 150.359 173.699 150.225 178.774C150.164 181.134 150.098 183.275 150.081 183.542C150.064 183.808 150.092 184.401 150.143 184.864C150.342 186.69 151.067 182.136 151.098 178.851ZM152.581 171.505C152.581 169.957 152.447 168.101 152.286 167.372C151.961 165.908 150.167 165.534 150.167 166.933C150.167 167.419 150.383 167.586 150.65 167.301C150.913 167.022 151.17 167.657 151.215 168.718C151.259 169.779 151.345 171.214 151.406 171.902C151.465 172.59 151.537 173.651 151.564 174.25C151.673 176.598 152.581 174.149 152.581 171.505ZM139.864 170.859C139.731 170.283 139.621 170.752 139.621 171.902C139.621 173.052 139.731 173.521 139.864 172.946C139.998 172.371 139.998 171.434 139.864 170.859ZM139.919 167.016C140.652 164.146 142.309 162.706 144.877 162.706C146.678 162.706 146.788 162.563 146.788 160.197C146.788 158.342 146.568 157.707 145.942 157.755C145.439 157.796 145.339 157.992 145.702 158.241C146.031 158.472 146.288 159.29 146.267 160.055C146.243 160.933 146.137 161.063 145.983 160.399C145.849 159.824 145.541 159.563 145.298 159.824C145.055 160.085 144.853 159.8 144.85 159.201C144.843 158.395 144.706 158.436 144.329 159.361C143.942 160.304 143.757 160.358 143.573 159.569C143.158 157.808 141.963 158.413 141.912 160.405C141.864 162.213 141.847 162.202 141.477 160.197C141.114 158.241 141.083 158.3 140.97 161.034C140.861 163.648 140.827 163.714 140.648 161.662C140.536 160.381 140.138 159.361 139.755 159.361C139.375 159.361 139.063 159.047 139.063 158.662C139.063 157.879 144.298 155.181 145.815 155.181C146.349 155.181 146.788 154.837 146.788 154.41C146.788 152.987 146.202 151.001 145.784 151.001C145.555 151.001 145.504 151.606 145.668 152.353C145.928 153.521 145.822 153.568 144.856 152.673C143.891 151.778 143.785 151.819 144.042 152.993C144.209 153.734 144.131 154.345 143.874 154.345C143.617 154.345 143.408 153.782 143.408 153.088C143.408 152.4 143.083 151.837 142.682 151.837C142.285 151.837 141.96 152.471 141.96 153.248C141.96 154.482 141.867 154.458 141.251 153.041C140.58 151.511 140.536 151.582 140.453 154.345C140.378 156.901 140.34 156.984 140.166 154.974C140.053 153.705 139.738 152.673 139.46 152.673C139.166 152.673 139.084 153.533 139.262 154.76C139.638 157.363 139.193 157.494 138.553 154.974C138.18 153.497 138.122 153.989 138.279 157.209C138.389 159.474 138.245 161.988 137.954 162.783C137.574 163.844 137.588 164.769 138.005 166.192C138.533 167.977 138.56 167.894 138.317 165.214C138.098 162.783 138.149 162.546 138.608 163.826C138.909 164.668 139.06 166.269 138.937 167.378C138.632 170.123 139.176 169.922 139.919 167.016ZM154.063 166.05C154.683 166.05 154.625 163.21 153.95 160.654C153.31 158.223 151.595 157.725 151.653 159.99C151.677 160.862 151.79 161.028 151.934 160.405C152.067 159.83 152.389 159.361 152.649 159.361C152.909 159.361 152.995 159.711 152.841 160.138C152.69 160.565 152.786 161.152 153.057 161.443C153.324 161.733 153.546 162.931 153.546 164.111C153.546 165.884 153.426 166.079 152.851 165.255C152.256 164.395 152.238 164.562 152.731 166.394C153.115 167.829 153.355 168.125 153.461 167.295C153.546 166.607 153.817 166.05 154.063 166.05ZM123.539 163.542C123.94 161.561 123.909 161.034 123.392 161.034C122.714 161.034 121.56 165.558 122.029 166.376C122.485 167.159 123.012 166.174 123.539 163.542ZM156.443 159.415C156.443 158.579 156.785 157.399 157.206 156.794C157.682 156.112 157.881 154.903 157.737 153.586C157.583 152.205 157.802 151.019 158.374 150.159C159.288 148.789 159.942 144.236 159.408 142.961C158.33 140.387 153.721 137.405 154.183 139.581C154.3 140.115 154.642 140.453 154.947 140.334C155.255 140.215 155.628 140.678 155.782 141.372C155.936 142.065 156.255 142.421 156.494 142.166C156.731 141.911 156.926 142.314 156.926 143.056C156.926 143.803 157.141 144.176 157.408 143.892C157.676 143.607 157.891 144.117 157.891 145.03C157.891 145.937 158.162 146.85 158.494 147.064C158.946 147.348 158.96 147.704 158.555 148.451C158.134 149.222 157.693 148.908 156.635 147.093C155.457 145.072 155.234 144.941 155.091 146.192C154.912 147.758 156.128 150.432 156.628 149.566C156.792 149.281 156.926 149.697 156.926 150.491C156.926 151.422 156.713 151.713 156.323 151.309C155.912 150.882 155.929 151.131 156.381 152.092C156.744 152.869 156.881 153.509 156.683 153.509C156.487 153.509 156.594 154.072 156.926 154.76C157.412 155.774 157.398 156.017 156.864 156.011C156.501 156.005 155.83 154.879 155.378 153.503C154.926 152.128 154.286 151.001 153.954 151.001C153.488 151.001 153.481 151.22 153.933 152.003C154.252 152.554 154.512 153.705 154.512 154.559C154.512 155.418 154.728 155.881 154.995 155.596C155.498 155.057 155.697 156.735 155.529 160.061C155.467 161.253 155.628 161.81 155.936 161.478C156.214 161.182 156.443 160.251 156.443 159.415ZM137.906 159.711C137.745 158.982 137.615 157.476 137.615 156.367C137.615 153.9 137.088 153.77 136.269 156.035C135.824 157.268 135.8 158.176 136.17 159.379C136.79 161.383 138.344 161.674 137.906 159.711ZM99.4042 159.32C101.092 158.846 103.848 157.381 105.53 156.059C108.228 153.942 108.933 152.845 111.559 146.684C114.504 139.794 123.484 124.502 127.443 119.646C128.569 118.265 130.069 116.255 130.774 115.181L132.061 113.225L130.373 115.122C125.053 121.093 115.623 135.282 113.795 140.067C109.625 150.989 104.29 155.887 95.7372 156.664C92.7242 156.942 91.8579 156.675 89.4612 154.736C87.9307 153.497 85.9175 151.879 84.9896 151.137C84.0583 150.39 82.586 148.552 81.7129 147.046C80.8432 145.54 79.9291 144.313 79.686 144.313C78.9841 144.313 76.9811 139.261 75.8443 134.63C74.8035 130.384 74.7864 126.53 75.7998 124.775C76.0737 124.301 76.2963 123.328 76.2963 122.617C76.2895 120.577 79.7134 115.917 81.9389 114.932C83.0482 114.446 84.0651 113.551 84.1987 112.958C84.8321 110.094 77.0427 116.498 74.6699 120.791C71.8949 125.807 72.5677 134.209 76.512 143.779C79.6141 151.315 82.0039 154.659 86.051 157.144C91.0978 160.251 94.2615 160.767 99.4042 159.32ZM154.995 158.893C154.995 158.176 154.772 157.826 154.505 158.116C154.235 158.401 154.139 158.988 154.289 159.421C154.704 160.577 154.995 160.364 154.995 158.893ZM124.416 156.646C124.282 156.071 124.173 156.539 124.173 157.689C124.173 158.84 124.282 159.308 124.416 158.733C124.549 158.158 124.549 157.221 124.416 156.646ZM170.926 158.626C170.926 158.223 170.601 157.423 170.204 156.853C169.416 155.721 169.317 155.994 169.772 158.039C170.08 159.439 170.926 159.871 170.926 158.626ZM119.694 154.736C121.882 152.673 125.022 148.167 125.097 146.987C125.118 146.667 125.207 145.771 125.292 144.994C125.402 144.016 125.207 143.72 124.652 144.022C124.036 144.348 124.067 144.147 124.792 143.127C125.333 142.362 125.47 141.804 125.118 141.804C124.214 141.804 123.026 139.504 123.608 138.881C124.368 138.069 124.18 135.116 123.372 135.116C122.974 135.116 122.646 135.49 122.646 135.952C122.646 136.409 122.396 136.788 122.091 136.788C121.779 136.788 121.93 136.023 122.43 135.069C123.06 133.865 123.673 133.497 124.477 133.847C125.21 134.167 125.511 134.031 125.313 133.474C125.145 132.999 124.649 132.608 124.21 132.608C123.574 132.608 123.539 132.4 124.032 131.558C124.522 130.722 124.782 130.847 125.351 132.175C125.984 133.657 125.97 133.954 125.227 134.897C124.453 135.875 124.453 135.952 125.21 135.952C126.09 135.952 126.165 136.409 126.035 141.176C125.991 142.901 126.073 144.313 126.22 144.313C127.196 144.313 130.572 126.121 130.041 123.726C129.829 122.765 129.908 122.492 130.284 122.896C130.651 123.287 130.743 123.044 130.555 122.196C130.397 121.478 130.521 120.903 130.836 120.903C131.195 120.903 131.284 120.245 131.075 119.125C130.86 117.945 130.928 117.535 131.277 117.909C131.565 118.217 132.263 118.039 132.832 117.512C133.4 116.99 133.773 116.877 133.66 117.269C131.924 123.388 131.346 126.097 131.616 126.856C131.798 127.36 131.712 128.025 131.425 128.333C130.757 129.05 129.846 135.952 130.425 135.952C130.661 135.952 130.856 136.367 130.856 136.877C130.856 137.387 130.527 137.583 130.13 137.322C129.733 137.055 129.408 137.203 129.408 137.648C129.408 138.093 129.624 138.46 129.891 138.46C130.62 138.46 130.469 140.921 129.651 142.332C129.254 143.02 128.713 143.346 128.446 143.062C128.175 142.777 127.96 143.192 127.96 143.986C127.96 144.781 127.6 146.121 127.158 146.963C126.443 148.333 126.439 148.493 127.124 148.493C128.572 148.493 130.63 142.901 131.507 136.598C132.085 132.406 132.181 130.444 131.815 130.236C131.5 130.052 131.609 129.519 132.085 128.92C132.548 128.333 132.993 126.24 133.14 123.963C133.448 119.261 133.866 118.567 134.725 121.348C135.092 122.528 135.793 123.406 136.369 123.406C137.855 123.4 141.015 121.846 142.823 120.233C144.22 118.982 144.463 118.964 144.867 120.067C145.274 121.176 145.326 121.176 145.339 120.067C145.353 118.947 145.404 118.947 145.822 120.067C146.236 121.182 146.291 121.182 146.305 120.067C146.318 118.947 146.37 118.947 146.788 120.067C147.044 120.755 147.257 120.903 147.263 120.387C147.27 119.332 149.551 119.848 149.962 120.998C150.348 122.089 152.471 121.894 152.69 120.755C152.8 120.174 153.139 120.044 153.505 120.441C154.015 120.986 154.009 121.259 153.478 121.905C152.944 122.552 152.954 122.641 153.533 122.368C153.923 122.184 154.392 121.117 154.57 120.002C154.899 117.974 154.899 117.974 154.947 120.216C154.978 121.68 155.33 122.647 155.96 122.99C157.124 123.631 158.857 122.795 158.857 121.591C158.857 121.111 158.532 120.939 158.134 121.206C157.669 121.514 157.395 121.17 157.374 120.245C157.347 119.047 157.272 119.089 156.926 120.482C156.563 121.941 156.498 121.834 156.419 119.646L156.33 117.138L155.96 119.646C155.594 122.143 155.59 122.143 155.536 119.018C155.474 115.715 156.638 114.452 157.076 117.346C157.241 118.449 157.309 118.342 157.354 116.931C157.408 115.033 157.908 114.517 158.576 115.674C158.775 116.017 159.182 116.302 159.477 116.302C160.435 116.302 161.603 123.797 161.89 131.796C162.185 139.943 163.058 143.566 164.873 144.182C165.626 144.437 165.684 143.975 165.393 140.002C164.982 134.351 163.25 124.935 162.722 125.493C162.507 125.73 162.431 125.226 162.558 124.378C162.959 121.733 160.261 114.66 158.501 113.735C158.155 113.551 159.658 109.211 160.065 109.216C160.959 109.228 161.685 110.468 161.599 111.843C161.548 112.656 163.661 116.338 166.824 120.957C169.745 125.214 171.7 127.835 171.169 126.773C170.06 124.562 165.917 117.589 164.246 115.134C163.435 113.936 163.209 112.976 163.441 111.707C163.702 110.296 163.904 110.141 164.448 110.924C164.825 111.464 165.133 112.567 165.133 113.373C165.133 115.187 166.359 117.061 167.054 116.314C167.338 116.006 167.512 116.142 167.437 116.61C167.29 117.559 175.031 130.1 175.767 130.1C176.024 130.1 176.237 130.456 176.237 130.888C176.237 131.321 177.01 133.106 177.955 134.861C178.9 136.61 180.438 140.008 181.372 142.409C182.872 146.257 187.21 153.509 188.011 153.509C188.703 153.509 188.196 150.349 186.549 144.402C184.598 137.334 182.756 132.762 180.15 128.517C177.041 123.453 169.252 113.634 168.632 113.996C168.3 114.191 168.029 113.942 168.029 113.444C168.029 112.946 167.598 112.537 167.071 112.537C166.543 112.537 165.674 111.891 165.14 111.102C164.075 109.525 163.804 107.882 164.77 108.89C165.181 109.317 165.164 109.062 164.712 108.102C164.349 107.325 163.804 106.691 163.506 106.702C163.205 106.708 163.287 107.076 163.684 107.521C164.212 108.114 164.236 108.339 163.777 108.345C163.431 108.351 163.28 108.736 163.445 109.193C163.78 110.136 163.174 110.278 162.034 109.525C161.613 109.246 161.271 108.493 161.271 107.853C161.271 105.096 159.162 107.034 155.94 112.75C153.211 117.589 152.235 118.81 151.085 118.81C149.924 118.81 149.674 118.49 149.787 117.138C149.89 115.899 150.27 115.49 151.252 115.561C152.105 115.62 152.581 115.229 152.581 114.464C152.581 113.812 152.779 113.492 153.022 113.752C153.266 114.007 153.594 113.747 153.752 113.171C153.909 112.596 153.94 113.065 153.817 114.209C153.611 116.124 153.649 116.178 154.245 114.802C154.601 113.972 154.837 112.656 154.772 111.873C154.704 111.09 154.745 110.924 154.858 111.505C155.21 113.29 155.888 111.819 155.597 109.898C155.412 108.665 155.501 108.286 155.885 108.695C156.227 109.062 156.457 108.707 156.477 107.782C156.508 106.43 156.556 106.447 156.926 107.942C157.282 109.382 157.347 109.264 157.381 107.106C157.415 105.167 157.528 104.882 157.891 105.849C158.282 106.892 158.367 106.827 158.405 105.434C158.429 104.514 158.552 104.188 158.675 104.716C158.942 105.837 160.754 105.19 161.637 103.661C162.027 102.991 162.068 102.427 161.757 102.095C161.49 101.805 161.271 102.018 161.271 102.564C161.271 103.246 160.531 103.435 158.884 103.157C156.666 102.789 156.463 102.914 155.974 104.965C155.241 108.025 151.622 114.719 151.222 113.752C151.04 113.314 150.348 112.875 149.684 112.768C149.02 112.667 148.749 112.792 149.082 113.047C150.02 113.776 149.79 115.045 148.719 115.045C148.137 115.045 147.736 114.47 147.715 113.586C147.691 112.703 147.578 112.537 147.431 113.171C147.031 114.885 146.301 113.456 146.339 111.025C146.366 109.128 146.428 109.027 146.736 110.39C147.092 111.962 147.109 111.962 147.452 110.414C147.75 109.074 147.876 109.015 148.253 110.053C148.578 110.942 148.715 110.349 148.746 107.942C148.767 106.104 148.969 103.844 149.188 102.925C149.431 101.917 149.486 103.222 149.321 106.192C149.123 109.809 149.198 110.966 149.609 110.533C149.955 110.159 150.194 107.034 150.239 102.249C150.28 98.0218 150.396 95.6915 150.502 97.0731C150.845 101.597 151.29 102.261 151.636 98.7452C151.947 95.5492 151.964 95.5196 152.03 98.1166C152.067 99.6108 152.314 100.832 152.581 100.832C153.129 100.832 153.194 98.8459 152.742 95.9109L152.434 93.9115L145.339 94.3473C137.779 94.811 136.136 95.5729 136.215 98.5673C136.259 100.299 136.283 100.287 136.625 98.3242C136.964 96.3793 137.016 96.4623 137.413 99.5812L137.837 102.925L138.135 99.1602L138.433 95.401L138.58 100.417L138.724 105.434L139.022 101.668L139.323 97.9091L139.758 103.34C140.166 108.422 140.217 108.588 140.529 105.849C140.813 103.394 140.878 103.281 140.929 105.119C140.964 106.329 141.323 108.683 141.724 110.349C142.148 112.11 142.251 113.373 141.967 113.373C141.179 113.373 137.872 107.841 137.132 105.285C136.074 101.627 135.119 99.9607 133.345 98.6799C131.945 97.666 131.757 97.2035 132.017 95.4069C132.191 94.1949 132.113 93.3097 131.829 93.3097C131.558 93.3097 131.339 92.8057 131.339 92.1896C131.339 91.5735 130.795 90.6408 130.13 90.1173C129.466 89.5931 128.925 89.4929 128.925 89.8937C128.925 90.2946 129.305 90.8851 129.767 91.2071C130.445 91.6749 130.284 91.9844 128.959 92.7594C126.795 94.0271 126.672 95.0766 128.477 96.8596C130.517 98.8637 130.199 101.277 127.473 104.52L125.303 107.112L127.826 107.278C130.336 107.45 132.904 109.697 133.462 112.205C133.599 112.822 132.821 114.381 131.674 115.804C130.562 117.18 129.288 118.917 128.85 119.664C128.411 120.405 127.34 121.929 126.463 123.05C125.59 124.164 125.131 125.084 125.45 125.084C125.768 125.084 126.025 125.647 126.025 126.335C126.025 127.022 125.689 127.592 125.275 127.592C124.847 127.592 124.666 127.188 124.851 126.667C125.72 124.23 121.957 129.56 118.153 136.154C115.401 140.927 113.483 145.066 112.727 147.888C111.323 153.106 111.282 154.132 112.388 156.243C113.487 158.348 116.524 157.719 119.694 154.736ZM114.921 151.884C114.921 151.398 115.14 151.001 115.404 151.001C115.671 151.001 115.887 151.167 115.887 151.369C115.887 151.57 115.671 151.967 115.404 152.252C115.14 152.537 114.921 152.371 114.921 151.884ZM116.13 150.165C115.966 149.702 116.048 149.329 116.315 149.329C116.578 149.329 116.931 149.702 117.095 150.165C117.26 150.621 117.178 151.001 116.911 151.001C116.644 151.001 116.294 150.621 116.13 150.165ZM119.092 147.236C119.246 146.548 119.557 145.985 119.787 145.985C120.016 145.985 120.078 146.548 119.924 147.236C119.773 147.93 119.461 148.493 119.232 148.493C119.003 148.493 118.941 147.93 119.092 147.236ZM122.163 143.109C122.163 142.901 122.382 142.504 122.646 142.22C122.913 141.935 123.128 142.101 123.128 142.587C123.128 143.079 122.913 143.477 122.646 143.477C122.382 143.477 122.163 143.311 122.163 143.109ZM120.533 140.518C120.067 138.413 120.204 137.873 120.776 139.569C121.057 140.405 121.187 141.271 121.06 141.484C120.937 141.698 120.701 141.265 120.533 140.518ZM163.801 140.832C163.472 140.263 163.202 139.035 163.202 138.105C163.202 136.486 163.236 136.498 163.962 138.294C164.842 140.464 164.715 142.415 163.801 140.832ZM119.749 136.035C119.749 135.164 120.67 133.907 120.941 134.405C121.03 134.565 120.797 135.181 120.427 135.774C120.054 136.367 119.749 136.486 119.749 136.035ZM163.479 135.472C162.486 133.752 162.404 129.442 163.39 130.859C163.941 131.647 164.78 136.788 164.359 136.788C164.291 136.788 163.897 136.195 163.479 135.472ZM130.887 133.231C130.87 131.968 131.072 130.936 131.339 130.936C131.904 130.936 131.904 131.576 131.339 133.859C130.969 135.341 130.918 135.27 130.887 133.231ZM123.611 129.4C123.611 129.015 124.272 128.706 125.08 128.706C126.025 128.706 126.326 128.95 125.926 129.388C125.111 130.284 123.611 130.29 123.611 129.4ZM127.477 129.264C127.477 128.801 127.692 128.428 127.96 128.428C128.223 128.428 128.442 128.801 128.442 129.264C128.442 129.72 128.223 130.1 127.96 130.1C127.692 130.1 127.477 129.72 127.477 129.264ZM126.73 125.86C126.556 125.368 126.515 124.793 126.641 124.574C126.768 124.354 127.001 124.752 127.158 125.463C127.487 126.934 127.206 127.194 126.73 125.86ZM127.477 123.512C127.477 123.157 128.018 121.982 128.682 120.903C129.346 119.818 129.891 119.243 129.891 119.617C129.891 119.984 129.346 121.164 128.682 122.226C128.018 123.293 127.477 123.874 127.477 123.512ZM135.865 120.441C136.033 119.694 135.951 119.362 135.677 119.652C135.413 119.931 135.181 119.86 135.16 119.486C135.139 119.113 135.026 117.684 134.913 116.302C134.739 114.162 134.797 113.99 135.317 115.128C135.65 115.863 136.143 116.527 136.406 116.593C137.207 116.8 137.088 121.739 136.283 121.739C135.845 121.739 135.687 121.247 135.865 120.441ZM137.855 119.231C137.69 118.769 137.786 118.389 138.067 118.389C138.348 118.389 138.58 118.769 138.58 119.231C138.58 119.688 138.485 120.067 138.368 120.067C138.248 120.067 138.019 119.688 137.855 119.231ZM139.536 118.437C136.824 115.952 135.355 112.899 135.064 109.145C134.804 105.783 133.099 102.072 132.239 102.991C132.01 103.24 131.822 102.878 131.822 102.184C131.822 101.496 132.072 100.666 132.376 100.334C132.722 99.9666 132.804 100.109 132.592 100.708C132.373 101.319 132.613 101.668 133.246 101.668C133.938 101.668 134.79 103.151 136.006 106.477C136.971 109.122 138.474 112.501 139.341 113.984C140.21 115.466 141.059 117.441 141.231 118.371C141.6 120.387 141.665 120.387 139.536 118.437ZM136.386 109.975C135.971 108.813 135.684 109.033 135.684 110.497C135.684 111.215 135.903 111.565 136.173 111.28C136.444 110.989 136.54 110.402 136.386 109.975ZM142.289 117.239C142.107 116.415 141.96 115.626 141.96 115.478C141.96 114.855 143.929 116.154 144.22 116.96C144.411 117.5 144.23 117.642 143.761 117.328C143.333 117.043 142.905 117.245 142.802 117.773C142.699 118.3 142.473 118.063 142.289 117.239ZM145.339 116.083C143.662 115.122 142.925 113.112 142.994 109.691L143.062 106.27L143.408 109.614L143.754 112.958L143.874 109.614L143.997 106.27L144.411 109.94C144.641 111.956 144.969 113.835 145.141 114.12C145.312 114.399 145.319 113.503 145.154 112.122C144.99 110.74 145.031 109.145 145.243 108.576C145.48 107.942 145.647 108.683 145.678 110.485C145.706 112.098 145.976 113.942 146.281 114.583C146.911 115.899 146.411 116.693 145.339 116.083ZM134.236 108.914C134.236 108.149 134.016 107.521 133.753 107.521C133.486 107.521 133.27 107.147 133.27 106.685C133.27 106.228 133.472 105.849 133.719 105.849C134.263 105.849 134.924 109.116 134.52 109.815C134.362 110.088 134.236 109.685 134.236 108.914ZM131.822 106.685C131.822 106.228 131.918 105.849 132.034 105.849C132.15 105.849 132.38 106.228 132.544 106.685C132.708 107.147 132.613 107.521 132.332 107.521C132.051 107.521 131.822 107.147 131.822 106.685ZM129.651 105.024C129.466 104.503 129.665 103.4 130.096 102.576C130.531 101.74 130.743 100.465 130.572 99.6998C130.404 98.9349 130.507 98.3242 130.801 98.3242C131.541 98.3242 131.472 101.028 130.664 103.726C130.236 105.149 129.867 105.629 129.651 105.024ZM147.811 101.253C147.77 100.334 147.626 98.6384 147.489 97.4881L147.243 95.401L147.76 97.4525C148.044 98.5791 148.188 100.269 148.082 101.212C147.89 102.878 147.883 102.884 147.811 101.253ZM142.963 99.6524C142.943 98.7689 143.055 98.2767 143.216 98.5495C143.377 98.8282 143.394 99.5516 143.254 100.156C143.1 100.82 142.987 100.625 142.963 99.6524ZM144.411 98.8163C144.391 97.9328 144.504 97.4407 144.665 97.7134C144.826 97.9921 144.843 98.7155 144.702 99.3203C144.548 99.9844 144.435 99.7887 144.411 98.8163ZM148.794 98.3242C148.794 97.1739 148.904 96.7054 149.037 97.2806C149.171 97.8557 149.171 98.7985 149.037 99.3737C148.904 99.9488 148.794 99.4745 148.794 98.3242ZM145.86 97.1442C145.839 96.2607 145.952 95.7686 146.113 96.0413C146.274 96.32 146.291 97.0434 146.151 97.6482C145.997 98.3123 145.884 98.1166 145.86 97.1442ZM201.786 155.857C207.326 153.474 214.461 142.172 217.2 131.452C218.501 126.358 218.508 124.052 217.227 119.474C216.464 116.741 215.697 115.442 214.115 114.197C211.366 112.027 211.345 112.057 213.167 115.401C214.618 118.063 216.31 124.864 216.31 128.03C216.31 128.789 215.539 131.796 214.598 134.713C213.256 138.863 212.578 140.132 211.472 140.553C210.695 140.85 210.078 141.342 210.102 141.656C210.537 147.105 205.887 152.264 199.413 153.509C197.687 153.841 195.078 154.535 193.62 155.039C190.497 156.13 188.765 155.893 187.234 154.155C185.365 152.033 177.425 139.883 176.024 136.996C174.035 132.899 173.552 133.735 175.37 138.134C176.247 140.251 177.664 143.714 178.52 145.825C180.256 150.1 183.574 154.286 186.857 156.361C188.58 157.446 190.124 157.63 194.304 157.268C197.201 157.013 200.57 156.379 201.786 155.857ZM152.701 156.296C152.369 156.065 152.098 154.903 152.098 153.717C152.098 151.357 151.626 151.594 151.406 154.061C151.269 155.608 151.927 156.871 152.82 156.776C153.088 156.747 153.033 156.533 152.701 156.296ZM150.65 153.509C150.65 152.128 150.431 151.001 150.167 151.001C149.9 151.001 149.684 152.128 149.684 153.509C149.684 154.885 149.9 156.017 150.167 156.017C150.431 156.017 150.65 154.885 150.65 153.509ZM97.1376 147.864C98.8119 143.838 100.983 139.03 101.969 137.168C103.205 134.831 103.629 133.432 103.342 132.626C102.811 131.143 101.363 133.023 95.0079 143.441C89.5263 152.436 88.9442 155.181 92.5187 155.181C93.9465 155.181 94.3813 154.493 97.1376 147.864ZM100.65 154.001C101.578 153.331 102.428 151.985 102.626 150.865C102.818 149.791 103.91 145.427 105.054 141.176C106.844 134.511 107.012 133.444 106.266 133.444C104.93 133.444 103.181 136.219 100.068 143.287C97.0828 150.064 96.0933 152.804 96.0933 154.292C96.0933 155.555 98.7297 155.389 100.65 154.001ZM140.464 150.301C141.364 149.768 143.179 149.329 144.497 149.329C146.479 149.329 146.839 149.104 146.596 148.007C146.435 147.277 146.305 146.382 146.305 146.02C146.305 145.653 145.747 145.356 145.069 145.356C144.22 145.356 143.911 145.712 144.09 146.506C144.226 147.141 144.131 147.657 143.874 147.657C143.617 147.657 143.384 146.999 143.36 146.192C143.326 145.214 143.182 145.427 142.925 146.821C142.696 148.066 142.518 148.351 142.491 147.526C142.456 146.53 142.148 146.275 141.402 146.613C140.669 146.939 140.467 146.785 140.717 146.08C140.974 145.368 140.717 145.208 139.827 145.534C139.142 145.777 138.002 146.192 137.297 146.447C135.886 146.963 135.218 145.836 135.208 142.925C135.201 141.538 134.979 141.223 134.236 141.561C133.188 142.036 132.842 146.263 133.766 147.254C134.081 147.592 134.184 146.987 134.04 145.635C133.917 144.443 134.02 143.477 134.266 143.477C134.513 143.477 134.742 144.319 134.77 145.356C134.893 149.768 135.105 152.709 135.389 153.995C135.656 155.199 135.882 155.116 137.255 153.319C138.118 152.199 139.56 150.841 140.464 150.301ZM135.759 152.673C135.759 151.523 135.869 151.054 136.002 151.629C136.136 152.199 136.136 153.142 136.002 153.717C135.869 154.292 135.759 153.823 135.759 152.673ZM136.742 149.744C136.732 148.368 136.834 147.698 136.964 148.268C137.098 148.831 137.105 149.963 136.981 150.776C136.862 151.588 136.752 151.125 136.742 149.744ZM137.69 148.493C137.69 147.343 137.8 146.874 137.933 147.449C138.067 148.018 138.067 148.961 137.933 149.536C137.8 150.112 137.69 149.643 137.69 148.493ZM149.034 151.612C148.904 151.042 148.801 151.713 148.811 153.088C148.821 154.47 148.931 154.932 149.054 154.12C149.174 153.308 149.167 152.175 149.034 151.612ZM178.37 153.835C179.619 153.005 179.277 151.297 176.48 144.384C175.018 140.773 173.823 137.446 173.823 136.984C173.823 136.136 170.193 130.1 169.687 130.1C169.536 130.1 169.878 131.226 170.443 132.608C171.012 133.984 171.244 135.116 170.96 135.116C170.676 135.116 170.443 135.65 170.443 136.296C170.443 136.948 170.173 137.672 169.841 137.903C169.509 138.134 169.724 138.354 170.323 138.395C171.036 138.437 171.395 138.958 171.371 139.919C171.347 140.796 171.234 140.963 171.09 140.34C170.957 139.765 170.532 139.296 170.149 139.296C169.553 139.296 169.556 139.646 170.19 141.763C171.108 144.834 171.193 146.779 170.347 145.315C169.413 143.696 168.916 144.158 169.512 146.091C169.926 147.437 169.919 148.018 169.488 148.481C168.803 149.21 171.012 152.501 172.573 153.082C175.689 154.244 177.421 154.47 178.37 153.835ZM176.521 149.625C176.264 148.481 176.336 148.428 176.952 149.311C177.788 150.515 177.877 151.001 177.253 151.001C177.017 151.001 176.688 150.384 176.521 149.625ZM170.751 148.072C170.906 147.384 171.114 146.821 171.221 146.821C171.323 146.821 171.409 147.384 171.409 148.072C171.409 148.766 171.2 149.329 170.943 149.329C170.686 149.329 170.601 148.766 170.751 148.072ZM172.665 146.317C172.494 145.54 172.46 144.722 172.593 144.49C172.727 144.259 172.977 144.704 173.148 145.481C173.319 146.257 173.35 147.082 173.22 147.307C173.087 147.538 172.837 147.094 172.665 146.317ZM172.659 140.429C172.213 138.425 172.559 138.276 173.244 140.168C173.566 141.069 173.634 141.804 173.398 141.804C173.158 141.804 172.823 141.182 172.659 140.429ZM195.729 152.626C196.092 152.062 194.815 148.356 192.171 142.308C191.771 141.401 190.381 138.656 189.083 136.213C187.131 132.543 186.436 131.772 185.098 131.772C184.207 131.772 183.478 131.92 183.478 132.104C183.478 132.288 184.19 134.268 185.056 136.498C185.926 138.733 187.388 143.459 188.309 146.999C189.675 152.264 190.203 153.491 191.196 153.728C192.712 154.102 195.171 153.503 195.729 152.626ZM169.238 152.673C169.074 152.211 168.844 151.837 168.724 151.837C168.608 151.837 168.512 152.211 168.512 152.673C168.512 153.13 168.742 153.509 169.026 153.509C169.307 153.509 169.402 153.13 169.238 152.673ZM106.605 150.675C108.656 148.392 110.47 145.107 113.398 138.342C114.521 135.745 116.287 132.377 117.321 130.853C118.355 129.329 119.075 127.722 118.917 127.289C118.763 126.851 118.862 126.738 119.14 127.034C119.413 127.331 119.913 126.999 120.245 126.305C120.581 125.611 123.111 121.977 125.871 118.235C128.733 114.351 130.709 111.114 130.469 110.699C129.932 109.768 127.477 111.333 127.477 112.608C127.477 113.13 127.203 113.373 126.871 113.154C126.138 112.667 123.029 115.43 123.464 116.184C123.635 116.48 123.248 116.723 122.608 116.735C121.964 116.741 120.355 118.069 119.027 119.682C117.698 121.301 116.068 123.228 115.404 123.975C109.457 130.651 108.419 132.228 107.009 136.759C105.906 140.292 103.335 150.93 103.335 151.95C103.335 153.266 104.776 152.703 106.605 150.675ZM116.852 123.459C116.852 122.973 117.072 122.575 117.335 122.575C117.602 122.575 117.818 122.741 117.818 122.943C117.818 123.145 117.602 123.542 117.335 123.827C117.072 124.111 116.852 123.945 116.852 123.459ZM93.3062 144.052C95.8673 139.771 99.2809 134.606 100.89 132.572C102.503 130.545 103.818 128.653 103.818 128.374C103.818 127.503 97.4731 130.651 94.0526 133.225C88.9647 137.043 82.093 143.732 82.093 144.87C82.093 146.661 86.2564 151.226 88.3861 151.772C88.5299 151.807 90.7417 148.333 93.3062 144.052ZM125.542 150.533C125.542 149.815 125.327 149.459 125.059 149.744C124.796 150.029 124.577 150.616 124.577 151.048C124.577 151.481 124.796 151.837 125.059 151.837C125.327 151.837 125.542 151.25 125.542 150.533ZM203.402 150.248C204.456 148.374 198.156 139.67 189.929 131.63C187.505 129.258 186.402 129.376 188.104 131.825C189.172 133.361 194.198 144.17 195.835 148.457L197.194 152.015L199.998 151.659C201.543 151.469 203.073 150.835 203.402 150.248ZM131.579 149.507C132.298 148.439 132.558 146.957 132.599 143.714L132.654 139.356L131.757 141.336C131.26 142.427 130.856 143.85 130.856 144.49C130.856 145.137 130.534 146.394 130.147 147.289C128.661 150.687 129.702 152.3 131.579 149.507ZM151.732 147.236C151.858 146.086 151.776 145.149 151.547 145.149C151.321 145.149 151.132 146.086 151.132 147.236C151.132 148.386 151.215 149.329 151.317 149.329C151.42 149.329 151.605 148.386 151.732 147.236ZM152.896 145.759C152.766 145.19 152.666 145.86 152.673 147.236C152.684 148.617 152.793 149.08 152.916 148.268C153.036 147.455 153.029 146.323 152.896 145.759ZM149.037 145.771C148.904 145.202 148.794 145.67 148.794 146.821C148.794 147.971 148.904 148.439 149.037 147.864C149.171 147.289 149.171 146.346 149.037 145.771ZM150.417 146.002C150.455 145.113 150.304 144.579 150.085 144.817C149.862 145.054 149.684 146.038 149.684 147.01C149.684 149.145 150.318 148.279 150.417 146.002ZM161.747 146.518C161.743 145.997 161.551 145.06 161.325 144.437C161.031 143.631 160.85 144.028 160.699 145.813C160.545 147.639 160.658 148.202 161.12 147.9C161.469 147.669 161.75 147.046 161.747 146.518ZM207.658 146.05C210.133 141.763 209.602 140.619 203.032 136.106C198.588 133.047 195.16 131.226 191.846 130.153C189.744 129.471 189.61 129.519 190.48 130.622C191.011 131.298 192.966 133.331 194.825 135.146C196.684 136.954 199.724 140.678 201.584 143.405C203.443 146.139 205.251 148.398 205.603 148.434C205.956 148.463 206.88 147.39 207.658 146.05ZM168.348 144.52C168.18 142.724 168.228 141.864 168.461 142.498C168.786 143.405 168.913 143.388 169.135 142.374C169.31 141.597 169.063 140.974 168.478 140.708C167.968 140.476 167.547 139.854 167.547 139.326C167.547 138.792 167.766 138.591 168.033 138.881C168.341 139.207 168.416 138.312 168.245 136.421C168.029 134.096 168.132 133.444 168.711 133.444C169.18 133.444 169.344 132.97 169.159 132.14C169.002 131.422 168.581 131.031 168.225 131.268C167.868 131.505 167.43 131.28 167.245 130.77C167.06 130.242 167.132 130.07 167.417 130.379C167.701 130.681 168.023 129.975 168.156 128.772C168.32 127.283 168.019 125.866 167.156 124.093C165.999 121.71 165.883 121.645 165.287 123.056C164.938 123.886 164.65 124.336 164.65 124.058C164.65 123.773 164.506 122.89 164.328 122.083C164.092 121.022 164.174 120.808 164.629 121.301C165.054 121.751 165.184 121.585 165.034 120.808C164.91 120.168 164.602 119.646 164.349 119.646C164.095 119.646 163.174 118.33 162.301 116.717L160.716 113.794L161.928 117.553C163.815 123.411 166.064 134.173 166.595 139.877C167.167 146.062 167.485 147.657 168.146 147.657C168.447 147.657 168.526 146.429 168.348 144.52ZM166.098 131.772C166.098 131.309 166.194 130.936 166.311 130.936C166.43 130.936 166.66 131.309 166.824 131.772C166.989 132.228 166.893 132.608 166.609 132.608C166.328 132.608 166.098 132.228 166.098 131.772ZM165.376 127.592C165.212 127.129 165.414 126.756 165.828 126.756C166.242 126.756 166.581 127.129 166.581 127.592C166.581 128.048 166.376 128.428 166.126 128.428C165.876 128.428 165.54 128.048 165.376 127.592ZM167.054 126.317C166.718 125.611 166.537 124.876 166.653 124.68C166.766 124.485 167.126 125.054 167.447 125.955C168.149 127.9 167.916 128.113 167.054 126.317ZM154.512 145.985C154.512 145.522 154.293 145.149 154.029 145.149C153.762 145.149 153.546 145.522 153.546 145.985C153.546 146.441 153.762 146.821 154.029 146.821C154.293 146.821 154.512 146.441 154.512 145.985ZM136.191 143.014C135.773 140.595 135.766 140.589 135.725 142.706C135.701 143.898 135.828 145.119 136.006 145.427C136.564 146.394 136.629 145.558 136.191 143.014ZM137.173 141.716C136.745 139.871 136.708 139.854 136.68 141.455C136.663 142.415 136.793 143.447 136.971 143.755C137.546 144.751 137.646 143.761 137.173 141.716ZM144.035 142.907C146.705 142.415 146.832 142.291 146.692 140.215C146.541 137.956 146.551 137.962 142.319 138.377C141.799 138.425 141.453 139.178 141.419 140.34C141.378 141.757 141.309 141.858 141.145 140.755C140.83 138.686 139.508 138.941 139.176 141.129C138.913 142.884 138.882 142.895 138.533 141.342C138.228 139.99 138.159 140.126 138.132 142.119C138.098 144.39 138.18 144.49 139.666 143.969C140.529 143.666 142.494 143.186 144.035 142.907ZM142.682 140.132C142.518 139.67 142.614 139.296 142.895 139.296C143.179 139.296 143.408 139.67 143.408 140.132C143.408 140.589 143.312 140.968 143.196 140.968C143.076 140.968 142.847 140.589 142.682 140.132ZM82.5004 141.069C85.4587 137.452 95.9289 129.542 100.383 127.568C102.267 126.732 102.424 126.489 101.78 125.374C101.171 124.319 100.712 124.277 98.9386 125.107C96.4836 126.252 95.8228 126.507 92.2311 127.687C85.0718 130.046 77.2653 134.76 77.2653 136.729C77.2653 138.312 79.6586 142.641 80.5385 142.641C80.9117 142.641 81.7951 141.935 82.5004 141.069ZM152.416 139.083C152.283 138.508 152.173 138.982 152.173 140.132C152.173 141.283 152.283 141.751 152.416 141.176C152.55 140.601 152.55 139.658 152.416 139.083ZM153.382 139.083C153.248 138.508 153.139 138.982 153.139 140.132C153.139 141.283 153.248 141.751 153.382 141.176C153.516 140.601 153.516 139.658 153.382 139.083ZM129.891 140.132C129.891 139.67 129.671 139.296 129.408 139.296C129.141 139.296 128.925 139.67 128.925 140.132C128.925 140.589 129.141 140.968 129.408 140.968C129.671 140.968 129.891 140.589 129.891 140.132ZM149.975 138.686C149.814 138.407 149.701 138.899 149.722 139.783C149.746 140.755 149.859 140.957 150.013 140.287C150.153 139.682 150.136 138.964 149.975 138.686ZM178.726 138.668C177.226 135.063 175.685 132.448 175.374 132.987C175.127 133.414 179.044 140.968 179.51 140.968C179.606 140.968 179.253 139.931 178.726 138.668ZM134.568 135.312C134.444 134.511 134.352 135.365 134.355 137.203C134.362 139.041 134.462 139.7 134.574 138.656C134.691 137.618 134.687 136.112 134.568 135.312ZM212.263 138.016C212.934 136.853 213.4 135.46 213.293 134.92C213.043 133.604 205.61 128.629 202.833 127.918C201.614 127.604 199.423 126.661 197.965 125.819C194.407 123.767 192.832 123.797 192.514 125.914C192.206 127.953 192.226 127.977 196.605 130.473C202.176 133.652 206.422 136.563 208.175 138.419C210.263 140.625 210.787 140.571 212.263 138.016ZM133.602 135.324C133.479 134.517 133.38 135.175 133.38 136.788C133.38 138.395 133.479 139.053 133.602 138.247C133.722 137.446 133.722 136.13 133.602 135.324ZM136.167 136.788C136.167 135.407 135.947 134.28 135.684 134.28C135.417 134.28 135.201 135.407 135.201 136.788C135.201 138.164 135.417 139.296 135.684 139.296C135.947 139.296 136.167 138.164 136.167 136.788ZM160.189 134.108C160.069 132.721 160.243 130.224 160.572 128.57C161.082 126.003 161.058 125.416 160.422 124.609C159.939 123.998 159.857 123.471 160.185 123.115C160.784 122.481 160.408 119.231 159.737 119.231C159.483 119.231 159.346 120.073 159.429 121.111C159.535 122.409 159.247 123.245 158.494 123.815C157.378 124.663 156.977 126.08 157.956 125.706C158.614 125.457 159.432 129.898 158.843 130.527C158.617 130.77 158.21 130.301 157.936 129.489C157.48 128.137 157.436 128.167 157.422 129.791C157.415 130.942 157.792 131.76 158.494 132.092C159.381 132.513 159.453 132.75 158.874 133.397C158.419 133.901 157.943 133.865 157.545 133.29C157.083 132.632 156.926 132.75 156.926 133.758C156.926 134.505 157.09 135.069 157.289 135.015C158.333 134.731 158.785 135.33 159.083 137.399C159.384 139.468 159.463 139.539 159.908 138.164C160.178 137.322 160.305 135.496 160.189 134.108ZM132.787 136.687C132.787 136.225 132.568 136.083 132.304 136.367C132.037 136.652 131.822 137.263 131.822 137.719C131.822 138.182 132.037 138.324 132.304 138.039C132.568 137.755 132.787 137.15 132.787 136.687ZM140.751 136.415C146.308 135.389 146.788 135.152 146.788 133.403C146.788 132.507 146.568 131.772 146.305 131.772C146.038 131.772 145.819 132.24 145.815 132.815C145.808 133.58 145.695 133.557 145.391 132.727C145.089 131.896 144.432 131.748 142.984 132.169C141.888 132.489 140.994 132.999 140.991 133.308C140.991 133.61 140.316 133.901 139.491 133.954C138.669 134.007 137.824 134.529 137.612 135.122C137.327 135.917 137.166 135.78 136.995 134.606C136.858 133.681 136.738 134.191 136.704 135.845C136.66 138.004 136.79 138.46 137.252 137.808C137.584 137.334 139.159 136.705 140.751 136.415ZM148.072 132.395C147.938 131.819 147.828 132.294 147.828 133.444C147.828 134.594 147.938 135.063 148.072 134.488C148.205 133.912 148.205 132.97 148.072 132.395ZM156.279 132.395C156.145 131.819 156.036 132.294 156.036 133.444C156.036 134.594 156.145 135.063 156.279 134.488C156.412 133.912 156.412 132.97 156.279 132.395ZM79.7921 131.76C81.1891 130.835 86.1914 128.588 90.9095 126.756C95.6276 124.929 100.072 122.771 100.791 121.959L102.095 120.482L99.7877 120.02C96.9493 119.451 94.9394 119.664 92.7242 120.773C91.7894 121.241 88.256 121.947 84.8732 122.344C79.8503 122.937 78.4808 123.382 77.3919 124.781C76.0874 126.459 75.4643 129.821 76.0053 132.258C76.3511 133.812 76.7757 133.758 79.7921 131.76ZM107.834 130.805C108.412 130.278 108.995 129.62 109.128 129.341C109.392 128.789 113.069 124.408 114.432 123.02C114.901 122.546 116.531 120.72 118.058 118.964C119.581 117.215 122.526 114.411 124.604 112.733C126.679 111.061 128.261 109.371 128.124 108.985C127.983 108.594 127.583 108.689 127.234 109.199C126.881 109.703 126.032 110.29 125.344 110.509C124.036 110.918 120.684 113.93 117.828 117.269C116.904 118.348 115.877 119.231 115.548 119.231C115.216 119.231 113.223 120.731 111.117 122.575C109.012 124.414 106.957 125.92 106.55 125.92C105.557 125.92 103.746 130.462 104.098 132.062C104.393 133.391 105.355 133.07 107.834 130.805ZM140.967 130.533C143.213 129.821 145.219 128.778 145.428 128.208C145.726 127.384 145.808 127.39 145.815 128.214C145.819 128.789 146.257 129.264 146.788 129.264C147.565 129.264 147.743 128.736 147.695 126.542L147.637 123.827L147.27 126.335L146.901 128.843L146.846 126.495C146.812 125.137 146.579 124.366 146.298 124.668C146.027 124.959 145.928 125.54 146.079 125.967C146.229 126.388 146.017 126.513 145.606 126.234C145.192 125.961 144.833 125.309 144.809 124.781C144.781 124.259 144.586 124.769 144.374 125.92C144 127.924 143.983 127.93 143.939 126.127C143.881 123.921 142.949 123.56 142.867 125.706C142.816 127.1 142.802 127.1 142.593 125.706C142.333 124.004 141.665 123.785 141.313 125.291C141.121 126.097 140.964 126.08 140.604 125.19C140.227 124.253 140.046 124.331 139.635 125.605C139.142 127.123 139.115 127.117 138.762 125.528C138.43 124.034 138.341 124.111 137.786 126.364C137.255 128.511 137.173 128.594 137.153 126.987C137.136 125.611 136.927 125.267 136.328 125.665C135.787 126.026 135.639 125.878 135.872 125.226C136.098 124.597 135.865 124.248 135.228 124.248C134.681 124.248 134.236 123.809 134.236 123.269C134.236 122.736 134.133 122.469 134.013 122.676C133.616 123.364 134.331 126.75 134.773 126.275C135.376 125.629 135.29 128.588 134.664 130.1C134.222 131.161 134.184 131.137 134.41 129.916C134.554 129.127 134.468 128.256 134.212 127.983C133.955 127.71 133.753 128.671 133.753 130.159C133.753 132.709 133.818 132.804 135.321 132.323C136.184 132.051 138.724 131.244 140.967 130.533ZM136.242 128.428C136.242 127.277 136.352 126.803 136.485 127.378C136.619 127.953 136.619 128.896 136.485 129.471C136.352 130.046 136.242 129.572 136.242 128.428ZM215.05 129.94C215.735 126.596 215.033 123.512 213.28 122.154C209.383 119.125 195.629 116.705 191.445 118.306L189.997 118.864L191.363 120.441C192.113 121.307 195.917 123.441 199.813 125.178C203.706 126.916 208.414 129.27 210.273 130.408C212.133 131.547 213.872 132.377 214.136 132.264C214.403 132.145 214.814 131.102 215.05 129.94ZM153.878 125.279C153.759 124.479 153.663 125.333 153.666 127.171C153.673 129.009 153.772 129.667 153.889 128.623C154.002 127.586 153.998 126.08 153.878 125.279ZM185.892 128.843C185.892 128.155 185.693 127.592 185.447 127.592C185.204 127.592 183.533 125.884 181.739 123.797C179.945 121.71 177.589 119.261 176.51 118.342C174.528 116.67 174.021 116.16 170.864 112.75C168.286 109.964 168.05 110.468 170.491 113.527C173.843 117.731 181.458 128.333 181.787 129.258C182.29 130.663 185.892 130.301 185.892 128.843ZM150.016 124.443C149.893 123.643 149.801 124.497 149.804 126.335C149.811 128.173 149.91 128.831 150.027 127.787C150.14 126.75 150.136 125.244 150.016 124.443ZM150.941 126.145C150.78 125.866 150.667 126.358 150.687 127.242C150.711 128.214 150.824 128.416 150.978 127.746C151.119 127.141 151.102 126.424 150.941 126.145ZM191.394 127.105C192.041 124.188 191.558 122.86 188.662 119.54C186.159 116.67 185.002 115.929 181.79 115.134C179.664 114.612 177.003 113.865 175.877 113.474C173.491 112.65 173.165 113.539 175.295 115.063C176.103 115.644 179.017 118.674 181.77 121.793C186.262 126.88 187.553 127.864 190.309 128.297C190.744 128.368 191.233 127.829 191.394 127.105ZM154.803 124.473C154.642 124.194 154.529 124.686 154.55 125.57C154.574 126.542 154.686 126.738 154.841 126.074C154.981 125.469 154.964 124.752 154.803 124.473ZM111.032 121.016C114.599 118.354 117.595 115.798 117.684 115.336C117.951 113.942 104.263 119.16 102.756 121.022C102.013 121.935 101.404 122.979 101.404 123.34C101.404 124.04 103.266 125.789 104.061 125.831C104.324 125.848 107.464 123.678 111.032 121.016ZM152.098 124.248C152.098 123.785 151.869 123.411 151.588 123.411C151.304 123.411 151.208 123.785 151.372 124.248C151.536 124.704 151.769 125.084 151.886 125.084C152.002 125.084 152.098 124.704 152.098 124.248ZM85.712 120.897C93.6521 119.652 94.0595 119.344 90.3001 117.47C84.7773 114.719 81.8054 115.193 79.1861 119.243L77.5734 121.739L78.9875 121.733C79.7647 121.733 82.7914 121.36 85.712 120.897ZM213.15 118.034C211.766 114.381 208.774 111.446 204.58 109.632C202.193 108.594 200.7 108.487 197.239 109.098C194.849 109.525 192.699 109.661 192.459 109.4C192.216 109.145 192.178 109.377 192.37 109.916C192.931 111.493 197.256 114.98 200.331 116.35C202.864 117.47 210.828 119.741 213.061 119.972C213.858 120.055 213.865 119.925 213.15 118.034ZM105.108 117.553C106.389 117.091 110.265 115.798 113.716 114.683C117.171 113.569 121.047 111.879 122.327 110.924C123.608 109.975 125.111 109.193 125.666 109.193C126.217 109.193 126.542 108.973 126.381 108.695C126.224 108.422 123.526 108.967 120.386 109.916C113.98 111.843 107.978 112.91 104.886 112.679C102.732 112.519 98.5106 115.116 97.4971 117.227C97.0314 118.2 97.4218 118.389 99.8596 118.389C101.465 118.389 103.828 118.016 105.108 117.553ZM97.6032 115.146C98.942 113.818 99.8596 112.537 99.637 112.3C99.4145 112.063 97.9285 111.594 96.3364 111.262C94.7408 110.93 92.844 110.13 92.1147 109.489C90.4712 108.042 89.0846 108.618 86.9652 111.624L85.3217 113.96L89.1394 115.68C94.2478 117.974 94.7717 117.945 97.6032 115.146ZM195.215 115.087C190.898 110.527 190.189 110.201 184.197 110.047C177.301 109.863 176.141 109.709 175.336 108.843C175 108.487 174.607 108.392 174.466 108.641C174.323 108.884 173.74 108.784 173.169 108.41C172.6 108.037 170.614 107.491 168.755 107.2C165.52 106.696 165.431 106.726 166.715 107.971C167.451 108.683 168.249 109.056 168.492 108.801C168.731 108.541 169.07 108.73 169.245 109.222C169.42 109.709 169.926 110.035 170.365 109.94C170.806 109.851 171.494 110.005 171.892 110.284C172.672 110.829 175.956 111.92 182.571 113.824C184.858 114.482 187.248 115.377 187.881 115.816C188.515 116.255 190.771 116.634 192.894 116.664L196.756 116.711L195.215 115.087ZM83.0585 110.207C83.0585 109.845 82.384 109.46 81.5588 109.353C79.3162 109.056 74.4679 106.05 71.4707 103.091C70.0104 101.651 68.7065 100.518 68.574 100.577C68.0361 100.809 64.9064 98.1463 63.432 96.1955C62.5668 95.0541 60.9257 93.4182 59.7849 92.5608C58.6444 91.704 57.0591 89.7965 56.2627 88.3224C55.466 86.8484 53.7821 83.8309 52.5207 81.6163C51.2597 79.4017 50.2278 77.1811 50.2278 76.6824C50.2278 76.1832 49.3964 74.8224 48.3806 73.6584C47.3647 72.4945 46.0715 70.1174 45.5065 68.3771C44.9416 66.6368 44.0298 64.5076 43.4799 63.6461C42.4079 61.9657 40.7956 53.8406 40.988 51.087C41.0522 50.1673 41.9542 48.0037 42.992 46.2794C44.0302 44.5546 44.7019 43.144 44.4848 43.144C43.7929 43.144 39.74 48.8581 39.4257 50.2764C38.7437 53.355 39.2257 57.3947 41.0583 63.9573C42.7106 69.8743 43.7491 72.1719 48.1643 79.6803C57.4575 95.484 66.691 106.003 74.3688 109.537C77.2106 110.847 83.0585 111.298 83.0585 110.207ZM115.647 109.626C122.221 107.764 127.925 103.702 127.172 101.425C126.987 100.868 127.011 100.684 127.22 101.016C127.85 102 129.398 100.097 129.089 98.7155C128.867 97.6957 127.99 97.494 124.57 97.6779C122.238 97.8083 120.396 98.0989 120.478 98.3242C120.557 98.5554 119.177 98.6681 117.41 98.5732C115.644 98.4783 113.439 98.7511 112.507 99.178C111.58 99.6049 108.104 101.271 104.783 102.872C101.465 104.473 97.1752 106.252 95.251 106.821C93.3268 107.396 91.9264 108.167 92.1421 108.541C93.4637 110.829 108.899 111.541 115.647 109.626ZM150.996 104.39C150.886 103.121 150.794 104.159 150.794 106.685C150.794 109.216 150.886 110.248 150.996 108.985C151.105 107.722 151.105 105.653 150.996 104.39ZM88.3861 106.685C88.5813 105.997 89.3345 103.429 90.0535 100.986C90.7726 98.5436 91.2382 96.326 91.0875 96.071C90.574 95.181 81.8533 95.5966 79.7271 96.6106C76.2963 98.2471 72.3383 101.556 72.6738 102.498C73.0607 103.578 75.8341 105.73 78.7136 107.183C81.6787 108.677 87.9067 108.363 88.3861 106.685ZM195.79 107.58C197.65 107.218 198.735 106.857 198.204 106.774C197.674 106.696 194.958 105.487 192.171 104.099C186.063 101.052 187.275 101.485 179.133 99.4745C171.916 97.6897 164.948 96.7885 164.451 97.5652C163.144 99.6227 171.981 106.779 176.076 106.981C177.49 107.046 178.647 107.367 178.647 107.681C178.654 108.469 191.603 108.386 195.79 107.58ZM169.752 99.7531C169.933 98.929 170.204 98.4665 170.351 98.7214C170.498 98.9764 170.351 99.6523 170.022 100.222C169.543 101.04 169.488 100.945 169.752 99.7531ZM207.017 106.946C206.552 106.738 205.792 106.738 205.326 106.946C204.86 107.159 205.24 107.331 206.172 107.331C207.1 107.331 207.48 107.159 207.017 106.946ZM95.6105 105.042C107.307 100.88 123.611 92.2803 123.611 90.2667C123.611 89.6411 123.18 89.1288 122.646 89.1288C121.413 89.1288 121.41 87.8801 122.646 86.3841C123.173 85.742 123.443 84.9166 123.248 84.5502C123.05 84.1831 123.214 84.0758 123.611 84.3112C124.012 84.5466 124.282 85.1627 124.217 85.6803C124.149 86.1973 124.556 86.6207 125.121 86.6207C125.977 86.6207 126.046 86.4144 125.542 85.3666C125.214 84.6771 125.111 84.1126 125.32 84.1126C126.162 84.1126 123.786 80.6243 121.252 78.1428C118.438 75.3851 109.724 67.4083 106.618 64.743C103.177 61.7925 104.139 63.2476 108.426 67.4818C110.802 69.831 113.076 72.2217 113.473 72.7945C114.521 74.2994 118.729 77.9644 120.824 79.1953C121.814 79.7764 123.224 81.139 123.96 82.2235L125.303 84.1956L124.094 83.6252C123.433 83.3115 122.817 82.7286 122.728 82.3296C122.639 81.9306 122.368 81.6038 122.125 81.6038C121.594 81.6038 121.526 84.6581 122.043 85.1597C122.242 85.353 122.081 85.3311 121.68 85.1111C121.283 84.8917 120.338 84.5288 119.581 84.3053C118.219 83.9021 118.215 83.9163 119.085 85.6773C119.568 86.6563 120.297 87.4805 120.701 87.5095C121.139 87.5415 120.999 87.8694 120.355 88.3189C119.126 89.1727 118.89 90.8009 119.992 90.8009C120.389 90.8009 120.715 91.1775 120.715 91.637C120.715 92.7274 118.448 92.725 118.061 91.6352C117.89 91.1597 116.678 90.9729 115.257 91.2035C113.877 91.4271 111.23 91.8048 109.371 92.0437C106.389 92.4262 100.722 93.4443 95.6105 94.5145C94.6826 94.7096 93.7685 94.894 93.5836 94.9254C93.2343 94.9829 89.8173 105.161 89.8173 106.139C89.8173 106.969 90.6185 106.815 95.6105 105.042ZM152.389 104.408C152.228 104.129 152.115 104.621 152.136 105.505C152.16 106.477 152.273 106.673 152.427 106.009C152.567 105.404 152.55 104.68 152.389 104.408ZM202.902 105.38C203.049 105.125 202.436 103.524 201.536 101.828C200.635 100.133 199.899 98.4012 199.896 97.9862C199.896 97.5711 199.362 96.0176 198.711 94.5424L197.526 91.8552L190.141 91.2747C186.08 90.9557 180.636 90.1285 178.051 89.4366C175.463 88.7446 172.926 88.4078 172.415 88.6889C171.905 88.9693 171.09 89.366 170.604 89.5694C166.174 91.4247 166.259 91.3613 167.547 91.8641C172.159 93.6637 176.61 95.2154 177.325 95.2723C177.788 95.312 178.168 95.5907 178.168 95.905C178.168 96.2133 178.876 96.6995 179.739 96.9841C182.201 97.7905 182.852 98.0751 189.514 101.307C197.085 104.977 202.231 106.542 202.902 105.38ZM214.933 103.809C216.423 103.062 218.008 101.74 218.46 100.88C219.244 99.3737 219.189 99.2136 217.19 97.2094C213.526 93.5208 209.161 91.4472 204.117 90.9978C201.529 90.7665 199.413 90.8377 199.413 91.1555C199.413 92.6047 202.084 99.8895 203.679 102.801L205.446 106.021L208.835 105.594C210.702 105.362 213.444 104.562 214.933 103.809ZM166.947 104.538C166.386 103.56 163.671 103.275 162.846 104.105C162.188 104.769 162.585 104.971 164.609 104.989C166.047 105.001 167.102 104.799 166.947 104.538ZM162.226 98.7748C163.257 96.8655 163.291 96.6461 162.466 97.1739C161.942 97.5059 161.034 98.3123 160.449 98.9586C159.853 99.6168 158.953 99.8955 158.398 99.5931C157.056 98.8578 157.138 100.364 158.494 101.437C159.75 102.433 160.562 101.852 162.226 98.7748ZM163.684 100.37C163.684 100.162 163.469 99.9963 163.202 99.9963C162.938 99.9963 162.719 100.399 162.719 100.886C162.719 101.372 162.938 101.538 163.202 101.253C163.469 100.969 163.684 100.571 163.684 100.37ZM72.239 99.6405C73.5681 98.0277 78.6595 94.9818 80.0256 94.9818C81.5938 94.9818 81.4157 94.1463 78.9574 89.9702L76.7866 86.2821L72.6197 88.176C67.4739 90.5128 63.2639 93.1958 63.2639 94.1374C63.2639 95.5789 68.9938 100.666 70.7605 100.797C71.0334 100.82 71.6987 100.299 72.239 99.6405ZM155.275 95.1887C154.717 94.224 154.433 95.733 154.813 97.6364L155.2 99.5812L155.378 97.6245C155.474 96.5513 155.429 95.4543 155.275 95.1887ZM134.787 95.6678C134.352 95.3535 133.558 95.0849 133.027 95.0683C132.116 95.0393 132.126 95.1312 133.184 96.658C134.075 97.9447 134.438 98.0692 134.944 97.2569C135.468 96.4149 135.441 96.1362 134.787 95.6678ZM156.891 94.7232C156.912 94.3515 156.71 94.2791 156.443 94.5637C156.176 94.8478 155.974 95.905 155.994 96.913C156.025 98.6799 156.042 98.6859 156.443 97.0731C156.672 96.154 156.874 95.095 156.891 94.7232ZM224.846 95.7508C225.989 94.1837 227.379 91.3773 227.396 90.5964C227.414 90.0277 224.716 87.6815 222.346 86.1979C219.843 84.6332 212.163 81.8849 211.814 82.4298C211.599 82.7672 211.492 84.8099 211.575 86.97C211.722 90.894 211.725 90.8976 214.458 92.8158C215.961 93.8718 217.779 95.4781 218.498 96.3853C219.532 97.6897 220.234 97.915 221.894 97.4822C223.041 97.1798 224.373 96.3971 224.846 95.7508ZM160.298 96.4208C160.309 97.7965 161.822 96.7588 162.627 94.8276C163.02 93.8777 163.924 93.2693 165.04 93.2029C166.424 93.1199 166.15 92.9171 163.818 92.2963C161.671 91.7253 160.497 90.9225 159.713 89.4911C159.11 88.3883 158.288 87.5089 157.891 87.5374C157.48 87.5664 157.405 87.7574 157.72 87.9809C158.542 88.5644 157.908 91.637 156.967 91.637C156.518 91.637 155.864 91.1668 155.515 90.5922C155.001 89.7538 154.827 89.7728 154.635 90.6865C154.433 91.6488 154.33 91.6488 153.978 90.6865C153.646 89.7829 153.56 89.7734 153.553 90.6414C153.55 91.2433 153.327 91.5036 153.064 91.219C152.242 90.3396 152.499 88.2922 153.361 88.8638C154.026 89.3067 154.06 89.1176 153.581 87.5664C153.272 86.5673 153.153 85.2878 153.317 84.7221C153.481 84.157 153.276 84.4245 152.858 85.3174C152.44 86.2098 152.098 87.2706 152.098 87.675C152.098 89.1111 149.931 87.8475 149.763 86.3124C149.667 85.4532 149.79 84.964 150.033 85.2249C150.513 85.7372 152.098 82.9492 152.098 81.5944C152.098 81.1402 152.314 80.7678 152.581 80.7678C152.844 80.7678 153.077 79.9217 153.098 78.887C153.129 77.0999 153.149 77.0892 153.526 78.6777C153.882 80.192 153.954 80.1173 154.289 77.8897C154.642 75.5689 154.686 75.5321 155.049 77.2374C155.296 78.3901 155.183 79.8873 154.734 81.3696C154.351 82.648 154.06 84.447 154.087 85.3666C154.139 86.9344 154.156 86.9397 154.375 85.4544C154.563 84.1814 154.693 84.0989 155.036 85.0364C155.34 85.8689 155.474 85.4846 155.505 83.6945C155.539 81.4805 155.597 81.3821 156.001 82.8585C156.378 84.2418 156.422 84.1031 156.255 82.0545C156.125 80.4346 156.33 79.184 156.854 78.4387C157.573 77.4106 157.549 77.337 156.604 77.6827C155.875 77.9507 155.488 77.5944 155.323 76.4903C155.173 75.4983 154.656 74.9155 153.923 74.9155C152.622 74.9155 151.424 77.3602 149.729 83.4852C149.126 85.6696 148.434 87.4568 148.191 87.4568C147.952 87.4568 147.757 88.1149 147.76 88.9201C147.767 90.077 147.856 90.1422 148.188 89.2308C148.458 88.498 148.849 88.3408 149.266 88.7998C149.914 89.5083 150.164 89.6512 151.132 89.8605C151.941 90.0354 151.67 91.4941 150.77 91.8261C150.304 91.9969 151.526 92.4072 153.478 92.7381C156.231 93.2029 157.364 93.0517 158.501 92.0698C160.356 90.4683 160.579 90.4766 159.792 92.119C159.271 93.2089 159.278 93.5611 159.829 94.154C160.199 94.5483 160.73 94.6479 161.007 94.3746C161.291 94.0947 161.336 94.2109 161.11 94.6384C160.887 95.0571 160.473 95.401 160.185 95.401C159.898 95.401 159.572 95.9643 159.463 96.6521C159.288 97.7668 159.322 97.7668 159.778 96.6521C160.11 95.8457 160.291 95.7627 160.298 96.4208ZM176.719 96.9367C176.322 96.7114 175.672 96.3082 175.271 96.0413C173.953 95.1733 173.134 94.9984 169.129 94.7298C166.944 94.5839 165.27 94.6628 165.41 94.9053C165.551 95.1484 167.882 95.7745 170.591 96.3022C176.216 97.3932 177.788 97.5593 176.719 96.9367ZM126.388 93.8783C126.72 93.5113 126.994 92.827 126.994 92.3574C126.994 91.3494 124.423 92.1629 122.676 93.7247C121.571 94.712 121.632 94.7707 123.642 94.6622C124.82 94.5981 126.056 94.2459 126.388 93.8783ZM91.9538 92.055C92.6352 90.4902 92.6831 90.4819 92.6968 91.9246C92.7105 93.2699 93.0049 93.4069 95.0079 92.9984C99.2125 92.1398 104.533 91.3002 105.386 91.3601C105.851 91.3927 106.231 91.1039 106.231 90.7185C106.231 90.3331 106.543 90.2246 106.923 90.4772C107.895 91.1235 117.921 89.286 118.455 88.3634C118.718 87.9068 118.534 86.7778 117.993 85.5374C117.287 83.9157 116.51 83.3655 114.37 82.9777C112.87 82.7061 111.131 82.1405 110.508 81.7201C106.519 79.0406 99.0721 78.5757 93.2378 80.6421C92.3407 80.9593 90.0193 80.8698 88.0779 80.4435C84.6506 79.6904 84.4555 79.7468 81.3637 82.3824C79.6106 83.876 78.2445 85.4188 78.3232 85.8113C78.4054 86.2039 79.3401 88.1967 80.4016 90.24L82.3326 93.9548L86.7803 93.8409C90.615 93.7431 91.3238 93.4982 91.9538 92.055ZM90.8684 86.0628C90.954 85.2961 91.3512 84.5152 91.7484 84.3272C92.3441 84.0462 92.3544 84.1286 91.8066 84.7915C91.4402 85.235 91.2896 86.0159 91.4744 86.527C91.6559 87.0387 91.56 87.4568 91.2587 87.4568C90.9574 87.4568 90.7828 86.8294 90.8684 86.0628ZM139.303 93.3049C140.898 92.8478 143.939 92.4143 146.062 92.342C149.277 92.2323 149.705 92.0663 148.616 91.3553C147.897 90.8857 147.216 89.9103 147.103 89.1881C146.925 88.0455 146.89 88.0533 146.842 89.2463C146.805 90.1564 146.236 90.7298 145.151 90.9492C143.049 91.3737 142.439 90.9942 142.449 89.2682C142.456 88.0633 142.521 88.0444 142.925 89.1288C143.34 90.2436 143.394 90.2436 143.408 89.1288C143.422 88.0141 143.473 88.0141 143.891 89.1288C144.23 90.0402 144.36 90.0841 144.367 89.2889C144.37 88.6865 144.589 88.4268 144.856 88.7108C145.12 88.9948 145.343 88.7351 145.346 88.1333C145.353 87.2474 145.432 87.251 145.76 88.1541C146.322 89.6874 146.77 87.5611 146.846 82.999C146.897 79.7663 146.925 79.6958 147.236 82.0225L147.575 84.5306L147.928 81.1692C148.458 76.1541 149.037 74.8817 149.629 77.4438C150.088 79.4349 150.105 79.4432 150.136 77.659C150.157 76.364 150.386 75.9496 150.889 76.2852C151.29 76.5502 151.615 76.3901 151.615 75.9306C151.615 74.5111 150.561 74.2704 145.637 74.5645C142.624 74.7441 140.505 75.2772 139.851 76.0213C139.252 76.6984 138.101 77.0418 137.129 76.8336L135.441 76.4731L136.598 78.0877C137.231 78.9759 137.608 80.1049 137.433 80.5958C137.259 81.0874 137.581 82.0563 138.152 82.7488C139.132 83.9377 139.145 84.0889 138.365 85.4396C137.752 86.4997 137.581 86.562 137.697 85.6791C137.783 85.0239 137.338 83.3684 136.704 82.0005L135.554 79.5137L135.824 84.9486C135.971 87.9376 135.982 89.7248 135.852 88.9201C135.413 86.2478 134.626 87.3417 134.948 90.1742C135.181 92.1949 135.129 92.5703 134.753 91.637C134.475 90.9474 134.246 90.6343 134.242 90.9421C134.239 91.2492 134.102 92.0953 133.941 92.8229C133.588 94.4208 134.979 94.546 139.303 93.3049ZM136.721 87.4864C136.776 84.6373 136.845 84.3183 137.005 86.2027C137.118 87.5825 137.522 89.012 137.896 89.3797C138.878 90.3402 138.738 91.2788 137.615 91.2788C136.78 91.2788 136.66 90.763 136.721 87.4864ZM140.549 90.4529C140.529 89.5712 140.642 89.0779 140.803 89.3554C140.963 89.6334 140.981 90.3545 140.84 90.9581C140.686 91.6251 140.573 91.4265 140.549 90.4529ZM141.552 89.9649C141.552 88.8152 141.662 88.345 141.796 88.9201C141.929 89.4947 141.929 90.4351 141.796 91.0103C141.662 91.5848 141.552 91.1146 141.552 89.9649ZM142.443 84.5306C141.819 83.3809 141.525 82.4405 141.792 82.4405C142.056 82.4405 142.785 83.3809 143.408 84.5306C144.031 85.6803 144.322 86.6207 144.059 86.6207C143.792 86.6207 143.066 85.6803 142.443 84.5306ZM145.86 83.7639C145.839 82.8828 145.952 82.3889 146.113 82.6664C146.274 82.9445 146.291 83.6655 146.151 84.2691C145.997 84.9362 145.884 84.7381 145.86 83.7639ZM139.587 79.9952C139.005 79.3578 139.015 79.0583 139.649 77.9626C140.316 76.8064 140.388 76.8823 140.388 78.7227C140.388 79.8476 140.364 80.7625 140.33 80.7553C140.296 80.7482 139.964 80.4061 139.587 79.9952ZM147.346 77.4236C147.346 76.2739 147.455 75.8037 147.589 76.3789C147.722 76.9534 147.722 77.8938 147.589 78.469C147.455 79.0435 147.346 78.5733 147.346 77.4236ZM66.4868 89.6791C69.0969 88.1416 72.1007 86.6237 73.1634 86.3047C75.0808 85.7283 82.093 80.0681 82.093 79.0945C82.093 78.8141 80.1722 78.0919 77.8268 77.4894C71.358 75.8298 63.002 78.3077 57.0304 83.6554L55.4406 85.0791L56.524 87.0755C57.3423 88.5839 61.0363 92.4677 61.6574 92.4724C61.7036 92.473 63.8768 91.216 66.4868 89.6791ZM127.364 89.9649C128.576 89.9649 128.59 89.918 127.689 88.7375C126.552 87.2516 125.84 87.0939 126.319 88.4351C126.549 89.0826 126.408 89.2415 125.905 88.9059C125.45 88.6047 125.025 88.9249 124.854 89.6927C124.649 90.6242 124.782 90.8442 125.337 90.476C125.758 90.195 126.672 89.9649 127.364 89.9649ZM163.202 89.9649C163.202 89.5054 162.996 89.1288 162.746 89.1288C162.496 89.1288 162.157 89.5054 161.997 89.9649C161.832 90.425 162.034 90.8009 162.448 90.8009C162.863 90.8009 163.202 90.425 163.202 89.9649ZM168.002 88.3734C168.194 87.838 168.663 87.6097 169.05 87.8653C169.533 88.1879 169.779 87.6833 169.851 86.2217C169.971 83.6803 169.334 83.5273 168.029 85.7847C167.499 86.7043 167.064 87.2884 167.064 87.082C167.064 86.8763 166.413 87.101 165.616 87.5819C164.818 88.0627 164.167 88.7648 164.167 89.1413C164.167 90.1778 167.601 89.4899 168.002 88.3734ZM199.807 87.6661C200.882 85.522 200.913 85.5078 200.255 87.4568L199.553 89.5469L205.035 89.6329L210.517 89.7188V86.5656C210.517 82.0349 210.143 80.8994 208.048 79.0489C206.637 77.8019 205.682 77.5333 204.124 77.9442C202.994 78.2436 201.851 78.7743 201.584 79.1248C201.32 79.4752 199.906 79.4426 198.447 79.0524C195.794 78.3445 192.942 77.6875 189.764 77.053C188.662 76.8336 186.768 77.5956 184.279 79.2576C180.314 81.9051 174.946 86.8508 175.617 87.2386C177.151 88.1232 188.138 89.8018 192.877 89.8754C198.601 89.9643 198.66 89.9453 199.807 87.6661ZM199.896 81.6038C199.896 81.1443 200.098 80.7678 200.348 80.7678C200.598 80.7678 200.937 81.1443 201.101 81.6038C201.265 82.064 201.06 82.4405 200.649 82.4405C200.235 82.4405 199.896 82.064 199.896 81.6038ZM164.893 85.956C166.485 84.766 168.55 82.7956 169.478 81.5783C174.925 74.4417 185.512 62.9861 192.894 56.2396C195.657 53.7137 193.572 54.8658 189.864 57.9123C185.303 61.6597 179.284 67.8245 173.987 74.1773C172.881 75.5031 171.823 76.5876 171.638 76.5876C171.453 76.5876 170.05 78.217 168.519 80.2087C166.989 82.2003 164.407 84.6919 162.781 85.7455C161.154 86.7986 159.822 88.0165 159.822 88.4511C159.822 89.417 161.103 88.7873 164.893 85.956ZM232.83 84.7838C233.563 83.2647 234.107 81.4704 234.042 80.7969C233.977 80.1227 232.303 78.1346 230.324 76.3783C226.835 73.2861 222.103 71.2808 218.309 71.2843C216.522 71.2861 208.127 75.8096 208.11 76.7797C208.092 78.134 212.009 80.6178 216.882 82.3379C221.542 83.9833 226.527 86.7778 227.571 88.3307C228.424 89.5937 231.522 87.5036 232.83 84.7838ZM171.375 86.3717C171.416 87.5415 174.182 87.168 174.918 85.8938C175.226 85.3601 174.576 85.1259 173.045 85.2208C171.094 85.3417 170.676 85.6489 170.577 87.0387C170.454 88.7108 170.454 88.7108 170.895 87.0387C171.142 86.1191 171.357 85.8191 171.375 86.3717ZM127.477 86.3053C127.477 86.1315 127.093 85.4728 126.631 84.8419C125.864 83.8019 125.847 83.8315 126.45 85.1573C127.08 86.5501 127.477 86.9931 127.477 86.3053ZM135.033 81.8001C135.567 79.1058 135.547 78.5123 134.879 77.426C134.184 76.2941 134.133 76.3557 134.366 78.0509C134.509 79.0856 134.431 79.9792 134.188 80.0367C133.948 80.0942 133.479 80.2004 133.147 80.2733C132.815 80.3462 132.404 80.0563 132.233 79.6294C131.87 78.7328 130.373 79.5214 130.373 80.6083C130.373 81.541 133.862 85.87 134.177 85.3263C134.307 85.101 134.691 83.5143 135.033 81.8001ZM132.435 81.9353C132.595 81.6572 133.01 81.6276 133.359 81.8689C133.746 82.1357 133.63 82.3343 133.068 82.3741C132.558 82.4102 132.274 82.2128 132.435 81.9353ZM127.675 82.9777C127.508 82.2223 127.165 81.6038 126.912 81.6038C126.658 81.6038 126.58 81.2499 126.734 80.817C127.121 79.7296 123.348 73.608 121.242 71.9051C120.287 71.1361 117.119 68.5325 114.199 66.1204C109.611 62.3327 103.462 58.3143 93.9191 52.8735C89.3961 50.2924 90.0433 51.5637 94.8847 54.7644C100.281 58.3297 103.325 60.6725 109.649 66.1222C112.117 68.2514 114.322 69.6419 114.805 69.3739C115.408 69.0388 115.469 69.1248 115.031 69.6751C114.565 70.2526 114.716 70.6854 115.633 71.4082C116.373 71.9911 116.852 72.0486 116.852 71.5529C116.852 71.1029 117.095 70.7347 117.387 70.7347C117.681 70.7347 117.808 71.2517 117.667 71.8838C117.517 72.5639 117.938 73.4936 118.701 74.1636C119.41 74.7862 120.858 76.2134 121.92 77.3353C122.981 78.4565 124.108 79.3744 124.429 79.3744C124.748 79.3744 124.964 79.6205 124.912 79.9211C124.813 80.5028 127.624 84.964 127.85 84.5792C127.922 84.4541 127.843 83.7337 127.675 82.9777ZM162.342 83.4852C163.753 80.6854 164.184 78.4696 163.712 76.4411C163.465 75.372 163.25 74.9896 163.233 75.592C163.215 76.1939 162.986 76.4536 162.719 76.1695C162.455 75.8855 162.236 76.0237 162.236 76.4767C162.236 76.9303 162.616 77.4313 163.082 77.5908C163.774 77.8286 163.602 78.4636 162.116 81.1247C161.12 82.9089 160.305 84.4992 160.305 84.6587C160.305 85.5457 161.712 84.7358 162.342 83.4852ZM121.499 81.0554C121.269 80.5537 118.061 80.1452 117.462 80.5419C116.969 80.8704 117.428 81.4888 118.842 82.4049C120.742 83.6364 120.988 83.6441 121.259 82.4808C121.423 81.7687 121.533 81.1271 121.499 81.0554ZM158.617 83.2765C158.453 82.8164 158.71 82.4102 159.189 82.3741C159.696 82.3361 159.812 82.131 159.459 81.8867C158.816 81.436 158.61 79.8647 159.22 80.0308C161.045 80.5306 162.154 78.1885 160.582 77.1455C159.637 76.5182 157.525 82.3652 158.247 83.6127C158.706 84.4079 158.942 84.192 158.617 83.2765ZM60.697 79.0429C62.1196 78.1956 65.6613 76.8698 68.5672 76.0972L73.8492 74.6925L71.6302 70.1915L69.4095 65.6911L66.9405 66.1963C57.1519 68.1992 53.2254 70.2591 51.2193 74.4453C50.4202 76.1126 51.5309 79.2937 53.7147 81.5938C55.1017 83.0548 55.3273 83.0767 56.6637 81.8801C57.4594 81.1674 59.2747 79.8908 60.697 79.0429ZM167.547 80.0207C168.478 78.8224 169.31 77.5594 169.399 77.2149C169.488 76.8698 169.779 76.5876 170.046 76.5876C170.313 76.5876 171.111 75.7972 171.816 74.8313C173.816 72.096 185.683 60.1845 190.24 56.3398C192.497 54.4353 196.951 51.2714 200.135 49.3093C206.302 45.5122 206.788 44.3043 200.806 47.6438C192.75 52.1418 182.41 59.6502 178.486 63.8524C177.462 64.9458 174.966 67.3786 172.932 69.2588C166.947 74.7963 165.807 76.2727 164.708 79.9306L163.664 83.401L164.76 82.8004C165.362 82.4701 166.619 81.219 167.547 80.0207ZM179.869 79.455C182.797 77.4877 185.841 75.6033 186.628 75.2671C187.419 74.9309 190.946 72.2544 194.462 69.3199C200.313 64.4388 200.95 63.6828 201.94 60.4614C203.655 54.8652 203.813 53.2874 202.748 52.3013C201.128 50.8006 195.931 54.226 187.902 62.0872C181.633 68.2212 176.281 74.4725 176.257 75.6816C176.247 76.3332 176.1 76.6255 175.928 76.3308C175.415 75.4432 172.857 78.5158 172.857 80.0195C172.857 80.8063 172.511 81.3673 172.066 81.302C171.628 81.2386 171.186 81.6127 171.077 82.1339C170.666 84.1505 174.723 82.9142 179.869 79.455ZM115.948 80.2952L117.41 78.986L116.335 77.3691C115.743 76.4791 114.986 75.7515 114.658 75.7515C114.329 75.7515 113.928 75.1633 113.771 74.4441C113.61 73.7254 113.285 73.3471 113.045 73.6033C112.805 73.86 112.48 73.4912 112.326 72.7844C112.103 71.7794 111.83 71.6934 111.08 72.3901C110.316 73.0951 110.169 73.0406 110.371 72.1322C110.515 71.4865 110.094 70.3783 109.412 69.6045C107.961 67.9579 107.512 67.8571 107.937 69.2719C108.108 69.8464 107.848 69.5019 107.361 68.5064C106.872 67.5102 104.191 64.7946 101.404 62.4714C96.5898 58.4584 95.1551 56.7934 98.7639 59.4047C99.685 60.0712 100.438 60.4282 100.438 60.1987C100.438 59.2281 96.9082 57.2844 96.4836 58.0208C96.2063 58.5005 95.0319 58.1608 93.4226 57.1338C90.954 55.5589 90.7212 55.5441 89.1325 56.8515L87.4479 58.2337L88.458 61.1954C89.1941 63.3567 90.3309 64.858 92.6591 66.7489C94.4156 68.1743 97.0451 70.89 98.5071 72.7844C101.041 76.0711 104.417 77.9709 113.233 81.0708C113.764 81.2576 114.264 81.4538 114.343 81.5072C114.421 81.5606 115.144 81.0151 115.948 80.2952ZM114.757 78.7204C114.579 77.9104 114.719 77.6632 115.188 77.9739C115.952 78.4814 116.15 79.9318 115.455 79.9318C115.219 79.9318 114.904 79.3868 114.757 78.7204ZM112.025 75.7515C112.025 75.2914 112.121 74.9155 112.237 74.9155C112.357 74.9155 112.586 75.2914 112.751 75.7515C112.915 76.211 112.819 76.5876 112.538 76.5876C112.254 76.5876 112.025 76.211 112.025 75.7515ZM238.733 74.8153C239.986 72.2372 240 72.0955 239.154 70.6315C238.052 68.727 231.207 64.4109 227.263 63.1326C221.747 61.3448 221.637 61.3543 221.127 63.6781C219.823 69.611 219.768 69.464 223.901 71.0009C227.889 72.4856 234.655 77.5718 234.655 79.0844C234.655 80.5306 237.305 77.7574 238.733 74.8153ZM96.1926 78.1262C98.2401 77.5867 99.7877 76.7951 99.6336 76.3664C99.0926 74.8414 92.0908 67.3905 91.204 67.3905C90.5979 67.3905 90.2864 68.0142 90.2624 69.2719C90.2281 71.0021 90.1871 70.9724 89.7488 68.9019C89.3551 67.0371 88.8415 66.5105 86.77 65.8316C85.3902 65.3816 83.5036 64.7543 82.5757 64.4382C74.5433 61.7071 74.4816 61.7012 72.4684 63.4735C70.2377 65.435 70.311 65.9977 73.4853 71.2938C75.4027 74.4903 75.9745 74.9184 80.4016 76.4761C88.7764 79.42 90.5705 79.608 96.1926 78.1262ZM209.308 74.1974C211.434 72.8586 214.434 71.279 215.978 70.686C219.052 69.5067 220.172 67.3247 220.172 62.5224C220.172 60.3119 219.977 60.0149 218.121 59.4012C215.423 58.5094 214.505 58.692 209.068 61.2025C203.374 63.8316 198.673 67.3994 199.529 68.4376C199.92 68.9084 199.755 68.9884 199.081 68.66C197.674 67.9769 189.983 73.9709 190.692 75.1983C191.538 76.6617 195.102 77.3121 200.378 76.9647C204.443 76.6967 206.213 76.1488 209.308 74.1974ZM199.896 74.9647C199.896 74.4779 200.111 74.0794 200.378 74.0794C200.642 74.0794 200.861 74.2455 200.861 74.4482C200.861 74.651 200.642 75.0495 200.378 75.3335C200.111 75.6175 199.896 75.4515 199.896 74.9647ZM136.345 74.957C137.173 74.4115 137.605 74.4536 137.728 75.091C137.851 75.726 138.173 75.7592 138.755 75.1953C139.512 74.4631 139.525 74.2543 138.871 73.3139C138.293 72.485 137.766 72.4672 136.427 73.2327C135.485 73.7693 134.718 74.5562 134.718 74.9801C134.718 75.9419 134.852 75.9401 136.345 74.957ZM156.926 74.0676C156.926 73.4088 154.666 72.3208 152.581 71.9769C152.184 71.911 151.502 71.7925 151.067 71.7142C150.633 71.6353 149.91 70.5989 149.462 69.41C148.715 67.4391 148.708 67.1213 149.403 65.7907C150.218 64.2342 150.461 61.9615 149.729 62.7436C149.489 63.0015 149.397 62.5017 149.53 61.6336C149.66 60.765 149.53 59.8014 149.242 59.4925C148.955 59.1836 148.719 59.32 148.719 59.7955C148.719 60.3801 148.315 60.3944 147.469 59.8388C146.784 59.3876 146.021 59.2346 145.774 59.4996C145.524 59.7647 144.73 60.1631 144.004 60.3855C141.991 61.0009 140.871 63.3259 141.268 66.0617C141.504 67.6905 141.748 68.0907 142.117 67.4515C143.442 65.158 143.288 66.9126 141.902 69.8986C141.049 71.7379 140.494 73.4936 140.672 73.8002C140.847 74.1073 140.994 73.9306 140.994 73.4088C140.994 72.887 141.32 72.6759 141.717 72.941C142.141 73.222 142.446 72.9505 142.449 72.2876C142.456 71.4124 142.562 71.4397 142.925 72.4073C143.264 73.3187 143.394 73.362 143.401 72.5668C143.405 71.965 143.624 71.7047 143.891 71.9893C144.155 72.2733 144.374 72.0854 144.374 71.5713C144.374 71.0566 144.589 70.8687 144.856 71.1533C145.137 71.4527 145.339 70.6339 145.339 69.2013C145.339 67.7735 145.644 66.5295 146.065 66.2497C146.651 65.8607 146.757 66.3724 146.61 68.8776C146.51 70.5888 146.531 71.2398 146.657 70.3237C146.856 68.8704 146.966 68.9766 147.52 71.1598C148.02 73.123 148.167 73.3015 148.205 71.9893C148.243 70.5971 148.328 70.5271 148.719 71.5713C148.975 72.2609 149.191 72.5206 149.195 72.1488C149.198 71.7764 149.472 71.7664 149.804 72.1251C150.756 73.1544 151.718 73.4616 153.687 73.3655C154.889 73.3074 155.608 73.6988 155.789 74.5093C156.066 75.764 156.926 75.4307 156.926 74.0676ZM147.561 65.8577C147.407 65.4255 147.726 64.8711 148.267 64.625C148.869 64.3528 149.188 64.5402 149.078 65.1047C148.835 66.3623 147.907 66.8242 147.561 65.8577ZM142.73 63.5447C142.559 62.7691 142.528 61.9467 142.662 61.7166C142.792 61.4866 143.042 61.933 143.213 62.7086C143.388 63.4836 143.418 64.3066 143.285 64.5366C143.151 64.7661 142.905 64.3202 142.73 63.5447ZM51.8394 71.2979C54.2365 68.4809 57.9329 66.7015 64.1062 65.3923C67.4774 64.6778 70.023 63.6887 70.8198 62.7851L72.1031 61.3288L70.6092 60.2414C67.9252 58.2871 61.9252 57.872 58.4345 59.3994C54.471 61.1338 47.7992 65.5945 46.8473 67.1462C46.2091 68.1868 46.3105 68.619 47.6999 70.7851C49.5995 73.7462 49.7409 73.764 51.8394 71.2979ZM127.864 70.2478C127.987 68.8959 127.925 68.8414 127.48 69.8986C127.083 70.8396 127.032 70.1613 127.268 67.1818C127.466 64.6819 127.401 63.2102 127.093 63.2102C126.823 63.2102 126.713 62.4578 126.854 61.5381C127.001 60.5657 126.867 59.8655 126.539 59.8655C126.224 59.8655 126.07 59.5838 126.189 59.2387C126.309 58.8936 126.104 58.1222 125.727 57.5239C124.628 55.7617 124.419 58.2011 125.231 63.3211C125.621 65.7895 126.076 68.8699 126.244 70.1672C126.576 72.7584 127.627 72.8105 127.864 70.2478ZM140.416 71.4041C141.231 69.9917 141.135 65.9917 140.275 65.4195C139.58 64.9582 139.474 65.3685 138.837 70.944C138.646 72.6214 139.556 72.887 140.416 71.4041ZM137.889 70.6416C138.07 70.1304 138.029 69.4717 137.796 69.1782C137.564 68.8847 137.351 68.1743 137.324 67.5998C137.207 65.1041 137.074 64.8385 136.043 65.0839C134.013 65.5678 132.756 68.2265 134.557 68.2265C134.999 68.2265 135.228 68.4548 135.068 68.7341C134.622 69.5043 135.814 71.5031 136.742 71.5393C137.19 71.5565 137.707 71.1527 137.889 70.6416ZM152.057 64.7454L151.471 62.8539L151.074 64.7044C150.859 65.7219 150.455 66.5544 150.181 66.5544C149.907 66.5544 149.684 66.9529 149.684 67.4397C149.684 67.9271 149.9 68.0931 150.167 67.8085C150.431 67.5245 150.653 67.7842 150.657 68.3866C150.663 69.2719 150.742 69.2677 151.071 68.3653C151.379 67.5251 151.574 67.7314 151.858 69.2013C152.232 71.1438 152.235 71.142 152.437 68.8954C152.55 67.6531 152.375 65.786 152.057 64.7454ZM156.645 64.8082C155.642 62.8853 153.793 62.6054 154.197 64.4376C154.348 65.1124 154.228 65.9229 153.933 66.239C153.587 66.6108 153.536 66.4269 153.786 65.7184C154.046 64.9885 153.988 64.8254 153.611 65.2292C153.303 65.5618 153.173 66.1904 153.331 66.6262C153.485 67.0614 153.813 67.2013 154.063 66.9369C154.31 66.6724 154.512 67.0887 154.512 67.8619C154.512 69.0163 154.642 69.0815 155.234 68.2265C155.83 67.3715 155.96 67.4367 155.96 68.5918C155.96 69.365 156.176 69.7652 156.443 69.4806C156.71 69.1966 156.957 69.4569 156.998 70.0587C157.039 70.6605 157.162 70.0848 157.275 68.7797C157.405 67.2897 157.169 65.8121 156.645 64.8082ZM165.133 68.1281C165.133 67.668 164.917 67.5245 164.65 67.8085C164.386 68.0931 164.167 68.7015 164.167 69.1616C164.167 69.6211 164.386 69.7652 164.65 69.4806C164.917 69.1966 165.133 68.5876 165.133 68.1281ZM241.513 69.0222C242.629 68.1405 245.057 62.5509 244.639 61.8269C244.516 61.6135 242.794 60.7543 240.811 59.917C238.829 59.0792 235.929 57.4243 234.364 56.239C232.799 55.0543 231.194 53.9989 230.793 53.894C230.071 53.7042 225.616 54.6897 223.794 55.4439C223.26 55.6633 221.901 56.1246 220.771 56.4691C219.641 56.813 218.587 57.3164 218.429 57.5874C218.063 58.2206 221.843 60.1596 226.989 61.9763C231.173 63.4533 238.894 67.8055 239.702 69.1402C240.267 70.0747 240.174 70.0806 241.513 69.0222ZM165.616 65.3004C165.616 64.6108 165.434 64.0463 165.215 64.0463C164.992 64.0463 164.811 64.6108 164.811 65.3004C164.811 65.9899 164.992 66.5544 165.215 66.5544C165.434 66.5544 165.616 65.9899 165.616 65.3004ZM48.8537 63.3413C51.4593 61.3194 56.7297 58.6404 61.3308 56.9992C62.0197 56.7537 62.7907 55.6129 63.1263 54.3434L63.7148 52.1175L59.0227 52.6203C52.7063 53.2969 48.4716 54.5764 46.0075 56.5521C44.8817 57.4552 43.6326 58.1934 43.2314 58.1934C42.8301 58.1934 42.5017 58.5568 42.5017 59.0004C42.5017 59.735 45.3014 65.7184 45.6449 65.7184C45.7257 65.7184 47.1695 64.6487 48.8537 63.3413ZM88.369 64.5888C88.369 64.4275 88.1361 63.1462 87.8554 61.7415C87.2322 58.6565 85.9517 57.6603 81.1274 56.5065C79.1347 56.0303 75.4403 55.0727 72.9203 54.379C70.3966 53.6847 67.8167 52.985 67.1863 52.8249C66.3951 52.6233 65.9695 53.0034 65.8113 54.0517C65.685 54.8865 65.2994 55.3816 64.9543 55.1522C64.6088 54.9227 64.187 55.1261 64.0165 55.604C63.846 56.0813 64.2041 56.6482 64.8125 56.8634C65.4206 57.0786 67.7653 57.8904 70.0223 58.6677C90.1391 65.5933 88.369 65.0223 88.369 64.5888ZM165.855 61.5453C166.468 58.2106 166.591 55.6852 166.139 55.6852C165.653 55.6852 165.314 57.1593 164.941 60.9108C164.681 63.5476 165.396 64.0457 165.855 61.5453ZM207.017 60.6167C208.411 59.7931 209.551 59.2613 209.551 59.4344C209.551 59.6075 210.256 59.3816 211.119 58.9322C211.982 58.4827 216.474 56.8136 221.1 55.2221C225.726 53.6313 229.577 52.2201 229.653 52.0861C229.732 51.9521 229.235 50.8 228.554 49.5264C227.366 47.3094 227.177 47.2335 224.106 47.7535C219.46 48.5403 209.109 51.4457 207.137 52.516C205.381 53.4694 204.734 54.6173 202.916 60.0214L201.83 63.2399L203.155 62.6766C203.885 62.3665 205.62 61.4397 207.017 60.6167ZM102.369 61.5381C101.972 61.0923 101.428 60.7276 101.164 60.7276C100.897 60.7276 101.007 61.0923 101.404 61.5381C101.801 61.9834 102.345 62.3487 102.612 62.3487C102.876 62.3487 102.766 61.9834 102.369 61.5381ZM246.248 57.9847C247.615 54.1021 247.495 51.6645 245.882 50.561C245.149 50.0612 244.177 49.3171 243.715 48.9067C243.253 48.4964 242.448 48.1602 241.924 48.1602C241.4 48.1602 239.096 47.403 236.802 46.4781C233.381 45.0971 232.31 44.9637 230.824 45.7357L229.013 46.6761L230.505 49.4285C232.193 52.5391 236.079 55.8068 241.414 58.6025C243.407 59.6461 245.095 60.5456 245.163 60.6013C245.235 60.6564 245.721 59.4789 246.248 57.9847ZM230.584 48.4057C230.32 47.2139 230.375 47.1178 230.855 47.9373C231.183 48.5047 231.33 49.1795 231.183 49.4368C231.036 49.6942 230.766 49.2299 230.584 48.4057ZM117.147 55.0757C116.986 54.7976 116.87 55.2915 116.89 56.1732C116.914 57.1468 117.03 57.3449 117.185 56.6784C117.321 56.0748 117.304 55.3532 117.147 55.0757ZM45.8339 54.8836C47.1538 53.9823 50.5835 52.851 53.4558 52.3689C56.3281 51.8869 59.5469 51.2572 60.609 50.9696C62.3627 50.4952 62.4364 50.3802 61.4095 49.7203C60.7874 49.3206 60.0478 49.2406 59.7657 49.5424C59.4641 49.8649 59.3946 49.6936 59.5973 49.1255C60.0341 47.9017 52.7864 47.7902 49.4077 48.969C48.1334 49.4137 46.064 49.9503 44.8087 50.162C42.0296 50.6298 41.5019 51.1344 41.8474 52.9945C41.994 53.7849 42.1949 54.9014 42.2939 55.4765C42.5363 56.8836 43.0228 56.8023 45.8339 54.8836ZM87.8828 55.7072C88.8689 54.6251 88.1396 53.6538 85.3594 52.36C84.0275 51.7398 83.2023 50.937 83.3838 50.4353C83.5515 49.9616 83.4694 49.8116 83.1989 50.1015C82.925 50.3909 80.203 49.5424 77.1489 48.2148C69.4701 44.8801 65.6976 44.3049 64.4558 46.2788C63.9326 47.1101 63.0985 47.6497 62.6024 47.4772C62.0406 47.2821 61.8238 47.5092 62.0275 48.0802C62.2073 48.5842 62.6832 48.9963 63.0848 48.9963C63.4865 48.9963 64.1278 49.5388 64.5102 50.2011C64.893 50.8634 66.1266 51.5993 67.2521 51.8365C70.1035 52.4365 79.4737 54.8356 82.093 55.6342C85.2121 56.5871 87.0576 56.6102 87.8828 55.7072ZM173.823 52.3411C174.449 51.6426 174.436 51.5287 173.73 51.5175C173.282 51.5103 172.782 51.8809 172.617 52.3411C172.237 53.3989 172.878 53.3989 173.823 52.3411ZM89.3345 50.669C88.9373 50.2231 88.1738 49.8898 87.6431 49.929C86.8488 49.9871 86.8898 50.1175 87.8862 50.669C89.5913 51.6153 90.1802 51.6153 89.3345 50.669ZM215.101 48.6121C218.82 47.4724 223.668 46.1911 225.876 45.7648C229.916 44.985 231.68 43.9907 229.064 43.967C228.098 43.9587 227.859 43.7298 228.304 43.2418C228.783 42.7153 228.626 42.3868 227.701 41.9842C227.013 41.6849 226.448 41.0537 226.448 40.5818C226.448 40.0598 225.739 39.9174 224.637 40.2182C218.289 41.9527 216.145 42.6524 212.797 44.0885C207.052 46.5528 204.788 48.8314 206 50.9322C206.175 51.2305 206.771 51.2969 207.329 51.0799C207.887 50.8629 211.386 49.7523 215.101 48.6121ZM85.4724 48.9963C85.0718 48.551 84.2055 48.2249 83.5413 48.2723C82.4285 48.3517 82.4456 48.4075 83.7809 48.9963C85.8695 49.9159 86.2941 49.9159 85.4724 48.9963ZM202.881 49.2613C202.532 49.02 202.118 49.0496 201.957 49.3277C201.796 49.6052 202.08 49.8027 202.59 49.7665C203.152 49.7268 203.268 49.5281 202.881 49.2613ZM248.799 48.0808C249.066 47.3473 249.142 45.7772 248.97 44.5925C248.56 41.7611 246.659 40.7955 241.438 40.7681C239.195 40.7563 236.326 40.5003 235.063 40.1993C233.799 39.8982 232.091 39.9085 231.265 40.222L229.766 40.7921L231.608 42.3085C232.621 43.1428 235.634 44.5812 238.305 45.5062C240.976 46.4306 243.906 47.7588 244.821 48.4579C246.834 49.9936 248.152 49.8685 248.799 48.0808ZM46.8473 48.1976C50.0836 47.4072 58.8248 46.2688 60.7039 46.3927C61.8967 46.4715 62.5216 45.2862 62.0234 43.8905C61.793 43.2448 61.5629 43.3082 61.262 44.0998C60.9076 45.0325 60.7497 44.9975 60.3759 43.9041C59.7544 42.0867 51.5018 41.8167 47.9033 43.4956C45.1604 44.7751 42.9848 46.8475 42.9848 48.1798C42.9848 49.1587 42.9105 49.1581 46.8473 48.1976ZM51.3131 40.8819C50.7157 40.6826 49.7381 40.6826 49.1407 40.8819C48.5432 41.0812 49.0321 41.2442 50.2271 41.2442C51.422 41.2442 51.9106 41.0812 51.3131 40.8819ZM167.856 208.275C167.705 207.587 167.787 207.018 168.048 207.018C168.304 207.018 168.513 207.587 168.513 208.275C168.513 208.963 168.428 209.526 168.325 209.526C168.219 209.526 168.01 208.963 167.856 208.275ZM137.513 61.0834C136.01 57.9568 134.959 56.5248 134.172 56.5248C133.706 56.5248 133.192 56.1489 133.028 55.6888C132.864 55.2293 131.994 54.8527 131.097 54.8527C129.166 54.8527 128.625 53.8139 129.734 52.2302C130.357 51.3354 130.573 51.3165 130.734 52.1406C130.847 52.7182 131.148 52.966 131.405 52.6909C132.103 51.942 136.972 56.3309 138.034 58.6671C138.544 59.7878 139.201 60.7057 139.496 60.7057C139.79 60.7057 140.03 61.0816 140.03 61.5417C140.03 62.8521 138.205 62.5201 137.513 61.0834ZM154.831 55.3146C154.462 53.6414 157.242 51.5246 159.029 52.1169C160.388 52.5658 160.823 54.8527 159.553 54.8527C159.08 54.8527 158.937 54.4656 159.163 53.8074C159.389 53.1546 159.207 53.2127 158.673 53.9627C157.988 54.9263 157.742 54.9518 157.437 54.0896C157.142 53.2714 156.824 53.4433 156.084 54.8142C155.266 56.3387 155.074 56.4146 154.831 55.3146Z" fill="#CAC8C8"/>
<path d="M4.21433 267.841L4.21435 257.963L12.4051 267.842L4.21433 267.841Z" fill="#D9D9D9"/>
<path d="M264.688 262.992L255.094 263.071L264.782 253.248L264.688 262.992Z" fill="#D9D9D9"/>
<path d="M14.4984 85.6577L5.75287 97.8706V254.514L14.8234 265.93H267.572V165.041L260.953 152.828" stroke="white" stroke-width="3"/>
<path d="M105.215 245.784C105.204 245.909 105.193 246.033 105.181 246.158C105.17 246.283 105.153 246.407 105.13 246.532C105.062 247.031 104.915 247.495 104.688 247.926C104.462 248.345 104.173 248.708 103.821 249.014C103.47 249.32 103.068 249.564 102.614 249.745C102.172 249.915 101.702 250 101.203 250H93.0094C92.5107 250 92.0347 249.915 91.5814 249.745C91.1394 249.564 90.7427 249.32 90.3914 249.014C90.04 248.708 89.751 248.345 89.5244 247.926C89.2977 247.495 89.1504 247.036 89.0824 246.549C88.8897 245.212 88.8897 243.88 89.0824 242.554C89.1504 242.055 89.2977 241.596 89.5244 241.177C89.751 240.758 90.04 240.395 90.3914 240.089C90.7427 239.783 91.1394 239.545 91.5814 239.375C92.0347 239.194 92.5107 239.103 93.0094 239.103H101.203C101.702 239.103 102.172 239.194 102.614 239.375C103.068 239.545 103.47 239.783 103.821 240.089C104.173 240.395 104.462 240.758 104.688 241.177C104.915 241.596 105.062 242.055 105.13 242.554C105.153 242.679 105.17 242.803 105.181 242.928C105.193 243.053 105.204 243.177 105.215 243.302H100.2V243.268C100.132 242.917 99.9624 242.633 99.6904 242.418C99.4184 242.191 99.101 242.078 98.7384 242.078H94.9814C94.6187 242.078 94.3014 242.191 94.0294 242.418C93.7574 242.633 93.5874 242.917 93.5194 243.268C93.3494 244.118 93.3494 244.974 93.5194 245.835C93.5987 246.186 93.7687 246.475 94.0294 246.702C94.3014 246.917 94.6187 247.025 94.9814 247.025H98.7384C99.101 247.025 99.4184 246.917 99.6904 246.702C99.9624 246.475 100.132 246.186 100.2 245.835V245.784H105.215ZM110.907 250V239.103H115.191V250H110.907ZM137.232 245.784C137.221 245.909 137.21 246.033 137.198 246.158C137.187 246.283 137.17 246.407 137.147 246.532C137.079 247.031 136.932 247.495 136.705 247.926C136.479 248.345 136.19 248.708 135.838 249.014C135.487 249.32 135.085 249.564 134.631 249.745C134.189 249.915 133.719 250 133.22 250H125.026C124.528 250 124.052 249.915 123.598 249.745C123.156 249.564 122.76 249.32 122.408 249.014C122.057 248.708 121.768 248.345 121.541 247.926C121.315 247.495 121.167 247.036 121.099 246.549C120.907 245.212 120.907 243.88 121.099 242.554C121.167 242.055 121.315 241.596 121.541 241.177C121.768 240.758 122.057 240.395 122.408 240.089C122.76 239.783 123.156 239.545 123.598 239.375C124.052 239.194 124.528 239.103 125.026 239.103H133.22C133.719 239.103 134.189 239.194 134.631 239.375C135.085 239.545 135.487 239.783 135.838 240.089C136.19 240.395 136.479 240.758 136.705 241.177C136.932 241.596 137.079 242.055 137.147 242.554C137.17 242.679 137.187 242.803 137.198 242.928C137.21 243.053 137.221 243.177 137.232 243.302H132.217V243.268C132.149 242.917 131.979 242.633 131.707 242.418C131.435 242.191 131.118 242.078 130.755 242.078H126.998C126.636 242.078 126.318 242.191 126.046 242.418C125.774 242.633 125.604 242.917 125.536 243.268C125.366 244.118 125.366 244.974 125.536 245.835C125.616 246.186 125.786 246.475 126.046 246.702C126.318 246.917 126.636 247.025 126.998 247.025H130.755C131.118 247.025 131.435 246.917 131.707 246.702C131.979 246.475 132.149 246.186 132.217 245.835V245.784H137.232ZM159.379 250H154.126L153.123 248.147H147.462L146.442 250H141.206L148.159 239.103H152.426L159.379 250ZM151.763 245.682L150.284 242.979L148.822 245.682H151.763ZM180.475 242.554C180.645 243.891 180.645 245.217 180.475 246.532C180.407 247.031 180.259 247.495 180.033 247.926C179.806 248.345 179.517 248.708 179.166 249.014C178.814 249.32 178.412 249.564 177.959 249.745C177.505 249.915 177.029 250 176.531 250H164.461V239.103H176.531C177.029 239.103 177.505 239.194 177.959 239.375C178.412 239.545 178.814 239.783 179.166 240.089C179.517 240.395 179.806 240.758 180.033 241.177C180.259 241.596 180.407 242.055 180.475 242.554ZM176.021 245.835C176.213 244.974 176.213 244.118 176.021 243.268C175.953 242.917 175.783 242.633 175.511 242.418C175.239 242.191 174.927 242.078 174.576 242.078H168.745V247.025H174.576C174.927 247.025 175.239 246.917 175.511 246.702C175.783 246.475 175.953 246.186 176.021 245.835ZM202.735 250H197.482L196.479 248.147H190.818L189.798 250H184.562L191.515 239.103H195.782L202.735 250ZM195.119 245.682L193.64 242.979L192.178 245.682H195.119Z" fill="#F7F6F3"/>
</svg>
