<svg width="516" height="493" viewBox="0 0 516 493" fill="none" xmlns="http://www.w3.org/2000/svg">
<path d="M507.271 451L507.271 432.644L488.569 451L498.068 451L507.271 451Z" fill="#D9D9D9"/>
<path d="M397.067 8L414.067 20.4621H505.067V429.5L484.567 450H264.567H90.0674L75.0674 432H27.0674" stroke="#9F9DFF" stroke-width="3"/>
<path d="M252.75 381.544C251.716 378.732 251.764 371.098 252.827 367.535C253.409 365.594 256.183 360.561 258.987 356.349C264.535 348.014 264.773 346.793 263.317 334.096C261.815 320.998 261.63 318.156 262.272 318.156C262.997 318.156 264.933 332.625 264.933 338.078C264.933 340.019 265.42 342.731 266.02 344.112C266.965 346.283 267.25 346.353 268.123 344.582C268.907 342.981 268.871 341.32 267.951 336.917C266.299 329.043 263.27 303.398 263.169 296.444C263.127 293.252 262.818 289.059 262.48 287.118C261.91 283.776 261.85 283.856 261.405 288.529C260.989 292.932 261.672 304.759 262.86 313.574C263.098 315.315 262.943 316.746 262.521 316.746C261.434 316.746 259.623 293.702 260.122 286.238C260.573 279.524 259.967 277.983 257.425 279.334C255.702 280.264 254.758 283.736 254.36 290.64C253.896 298.725 253.017 303.968 251.859 305.589C250.427 307.59 250.35 311.372 251.699 313.644C252.477 314.955 252.4 315.335 251.336 315.335C250.582 315.335 249.727 314.054 249.43 312.493C249.138 310.932 248.544 310.012 248.117 310.462C246.905 311.723 247.202 315.555 248.729 318.397C249.489 319.817 249.697 320.978 249.192 320.978C248.687 320.978 247.743 319.697 247.089 318.136C245.711 314.825 246.477 306.98 249.085 297.694C250.784 291.661 252.061 282.886 251.241 282.886C250.974 282.886 248.354 285.107 245.426 287.819C242.492 290.53 238.405 293.132 236.338 293.612C232.904 294.413 232.346 294.092 229.899 289.97L227.22 285.457L223.466 289.169C218.541 294.022 208.17 298.415 201.766 298.355C188.241 298.225 176.771 288.219 168.645 269.478C159.146 247.575 159.844 229.875 170.575 220.579C172.345 219.038 173.569 217.407 173.296 216.947C173.028 216.487 169.69 214.756 165.888 213.095C162.086 211.434 157.844 209.103 156.462 207.912C148.962 201.438 141.818 194.474 138.704 190.612C136.768 188.2 133.62 184.332 131.708 182.005C126.598 175.786 113.83 152.859 110.281 143.533C103.258 125.074 101.617 115.707 104.073 108.09C105.481 103.72 109.593 98.4887 114.164 95.2518C118.042 92.5051 120.169 92.0054 127.615 92.0923C132.48 92.1492 138.134 92.5824 140.179 93.0551C189.785 104.521 205.128 111.184 236.872 135.042C246.002 141.905 249.12 144.943 254.062 151.793C257.638 156.745 261.582 167.16 261.582 171.647C261.582 174.805 263.364 177.065 265.865 177.065C269.417 177.065 269.168 173.998 265.206 168.903C263.21 166.337 261.582 163.279 261.582 162.107C261.582 160.935 260.495 158.265 259.171 156.175C256.04 151.234 255.512 149.252 253.177 133.692C251.746 124.18 250.807 120.434 249.696 119.841C248.865 119.394 248.176 118.436 248.176 117.713C248.176 116.989 246.625 116.397 244.73 116.397C241.624 116.397 241.327 116.695 241.748 119.404C242.01 121.078 241.701 123.28 241.048 124.374C240.05 126.054 239.741 125.888 238.897 123.232C237.59 119.126 239.937 111.441 243.055 109.611C245.253 108.319 249.013 109.677 249.019 111.766C249.019 112.372 250.659 114.004 252.66 115.391C254.668 116.778 256.741 119.318 257.276 121.034C258.321 124.409 261.588 147.1 261.933 153.44C262.17 157.757 263.257 160.549 263.257 156.842C263.257 155.55 263.632 154.491 264.095 154.491C264.552 154.491 264.933 154.987 264.933 155.595C264.933 156.201 265.871 156.828 267.023 156.99C269.067 157.275 270.106 153.878 268.295 152.845C267.837 152.586 267.225 149.437 266.934 145.846C266.441 139.784 266.602 139.001 269.144 134.912C272.001 130.308 274.003 129.523 276.694 131.949C277.977 133.107 279.1 132.441 282.349 128.589C287.653 122.311 293.837 120.59 296.759 124.579L298.755 127.306L301.541 122.34C304.339 117.34 305.622 116.841 304.648 121.133C304.357 122.408 303.59 123.451 302.949 123.451C302.284 123.451 301.785 124.876 301.785 126.783C301.785 129.601 302.117 130.008 303.941 129.42C306.81 128.495 309.792 131.367 311.265 136.477C312.281 140.021 312.293 141.594 311.342 146.928C310.356 152.421 310.38 153.309 311.503 154.036C312.21 154.492 313.213 154.147 313.736 153.267C314.259 152.389 315.376 151.669 316.225 151.669C319.355 151.669 320.817 147.248 321.429 135.942C322.207 121.546 323.805 116.574 328.491 113.971C330.505 112.85 332.798 112.214 333.582 112.559C334.36 112.903 335.703 112.32 336.564 111.264C338.774 108.541 339.272 108.81 340.71 113.505C342.201 118.357 342.403 124.862 341.06 124.862C340.526 124.862 340.371 123.824 340.692 122.393C341.138 120.413 341.043 120.273 340.193 121.688C338.494 124.534 337.401 123.708 338.981 120.769C341.096 116.835 339.641 116.292 333.136 118.584C329.941 119.709 327.279 120.629 327.214 120.629C327.149 120.629 326.911 122.692 326.68 125.215C325.753 135.507 323.401 151.008 322.468 152.98C321.916 154.139 322.599 153.756 323.983 152.13C330 145.051 352.471 124.884 361.678 118.302C385.932 100.966 396.844 96.7653 440.271 88.0492C450.678 85.9611 455.484 85.4984 456.096 86.5261C456.702 87.5537 455.288 88.0022 451.427 88.0022C448.38 88.0022 445.22 88.6575 444.406 89.4584C443.283 90.558 444.459 90.9438 449.199 91.0338C460.735 91.2526 466.283 92.4169 468.463 95.075C471.184 98.3872 471.683 105.339 469.467 109.065C468.582 110.557 467.614 113.973 467.317 116.658C467.014 119.341 465.832 123.679 464.685 126.295C463.539 128.913 462.6 131.848 462.6 132.818C462.6 133.788 460.717 137.315 458.412 140.657C456.114 143.998 454.225 147.396 454.225 148.208C454.225 150.599 448.005 160.134 446.443 160.134C445.6 160.134 445.012 161.227 445.012 162.792C445.012 166.56 438.775 175.654 436.191 175.654C434.937 175.654 433.85 176.663 433.53 178.124C432.312 183.721 426.788 190.431 422.321 191.742C420.669 192.232 418.454 194.173 417.402 196.054C415.561 199.366 411.052 202.188 403.134 205.009C399.754 206.22 399.647 206.37 402.053 206.52C405.326 206.73 417.396 202.098 421.934 198.886C436.779 188.39 462.755 145.876 470.732 119.026C473.904 108.343 474.171 106.647 473.488 101.566C473.073 98.471 471.95 94.8681 470.993 93.5601C469.491 91.508 461.697 87.8293 458.662 87.7383C458.104 87.7217 457.789 87.3376 457.955 86.885C458.228 86.1355 459.416 86.0938 466.028 86.6011C468.617 86.7998 473.845 93.2305 475.104 97.7686C475.597 99.5507 476.001 102.408 476.001 104.117C476.001 107.22 471.415 124.867 470.251 126.248C469.912 126.65 469.01 129.2 468.243 131.917C466.883 136.743 465.897 138.785 456.084 157.048C449.146 169.955 433.547 191.221 426.17 197.845C422.214 201.397 413.315 206.21 408.575 207.361C401.916 208.972 401.637 209.622 406.211 212.874C417.123 220.609 419.891 232.336 414.884 249.646C408.563 271.508 396.606 288.448 384.53 292.671C378.519 294.772 366.799 294.932 362.51 292.971C360.669 292.121 358.97 291.56 358.738 291.73C358.512 291.89 356.487 290.219 354.241 287.998C351.188 284.986 350 284.416 349.519 285.737C348.693 287.968 340.561 287.938 336.498 285.677C332.923 283.696 332.008 284.716 333.564 288.949C334.194 290.65 335.126 293.181 335.625 294.562C336.314 296.453 336.273 297.364 335.453 298.224C334.063 299.685 335.798 306.869 337.544 306.869C338.453 306.869 338.5 306.249 337.764 303.928C337.247 302.307 337.015 300.666 337.247 300.275C337.853 299.255 339.154 304.008 339.777 309.541C340.312 314.264 339.326 318.156 337.597 318.156C337.134 318.156 337.235 317.185 337.817 316.005C338.399 314.824 338.601 313.393 338.269 312.833C337.936 312.272 337.182 312.923 336.594 314.274C335.025 317.886 334.206 317.295 335.607 313.573C336.683 310.701 336.57 309.661 334.384 302.637C333.053 298.364 331.497 293.131 330.933 291C330.362 288.859 329.632 287.118 329.305 287.118C328.984 287.118 328.456 285.076 328.129 282.575C327.256 275.871 325.979 273.039 322.83 270.788C321.28 269.677 319.819 268.777 319.593 268.777C319.361 268.777 319.427 273.38 319.73 279.003C320.122 286.297 319.783 294.832 318.542 308.74C317.437 321.178 316.95 332.064 317.199 338.798C317.562 348.594 317.817 349.784 320.734 355.268C322.462 358.53 324.28 361.431 324.767 361.721C328.23 363.793 331.016 373.178 328.171 373.178C327.458 373.178 326.864 374.559 326.798 376.36C326.691 379.282 326.656 379.252 326.305 376C326.103 374.059 324.951 370.727 323.751 368.595C322.551 366.464 321.963 364.713 322.438 364.713C322.914 364.713 323.983 365.984 324.82 367.535C325.652 369.086 326.745 370.336 327.25 370.316C328.747 370.246 323.597 363.302 322.046 363.302C320.621 363.302 318.506 360.191 313.023 350.055C309.661 343.851 309.667 344.431 312.792 319.567C314.972 302.227 315.892 279.433 314.378 280.284C313.79 280.614 312.4 284.956 311.289 289.929C310.178 294.912 308.746 299.965 308.105 301.166C307.463 302.357 306.685 305.058 306.376 307.159C306.062 309.271 305.277 311.722 304.636 312.623C303.988 313.533 303.46 314.844 303.46 315.554C303.46 316.255 302.824 319.196 302.046 322.078C300.49 327.852 300.347 328.712 300.205 333.265C300.151 334.986 299.409 337.527 298.547 338.908C297.686 340.299 296.35 344.711 295.577 348.704C294.472 354.387 293.694 356.178 292.025 356.889C289.578 357.919 288.396 355.918 286.727 347.903C286.145 345.122 284.992 341.58 284.161 340.029C283.335 338.478 282.39 334.776 282.064 331.814C281.737 328.842 280.579 324.63 279.486 322.438C278.387 320.247 277.496 317.806 277.496 317.005C277.496 316.215 276.967 313.763 276.32 311.572C273.415 301.716 271.633 294.392 271.633 292.331C271.633 291.11 271.253 289.709 270.795 289.229C270.332 288.749 269.958 286.617 269.958 284.476C269.958 282.345 269.453 279.443 268.835 278.022C267.79 275.611 267.6 275.731 265.758 280.094L263.792 284.726L265.277 302.497C266.091 312.272 267.736 325.24 268.936 331.314C270.38 338.648 270.813 342.67 270.225 343.301C269.744 343.831 269.085 345.652 268.77 347.363C268.045 351.265 262.646 360.481 261.077 360.481C260.43 360.481 259.907 361.131 259.907 361.922C259.907 362.712 258.951 365.904 257.787 369.006L255.672 374.659L257.579 375.89C259.295 377.01 259.337 377.23 257.989 378.151C257.038 378.791 255.892 378.251 254.846 376.66C253.254 374.229 253.201 374.269 253.201 378.051C253.201 380.993 253.522 381.743 254.502 381.113C255.25 380.622 255.583 380.863 255.292 381.663C254.621 383.494 253.445 383.435 252.75 381.544ZM255.453 369.307C255.738 367.946 256.54 365.724 257.229 364.364C257.924 363.003 258.173 361.892 257.787 361.892C256.629 361.892 253.201 367.886 253.201 369.897C253.201 372.628 254.841 372.188 255.453 369.307ZM263.098 354.928C263.306 353.867 262.991 353.337 262.367 353.697C261.761 354.038 261.102 355.148 260.9 356.159C260.692 357.219 261.007 357.75 261.63 357.399C262.236 357.059 262.896 355.949 263.098 354.928ZM266.181 350.585C265.889 349.795 265.301 349.515 264.874 349.965C263.709 351.176 263.929 352.016 265.396 352.016C266.115 352.016 266.466 351.376 266.181 350.585ZM290.428 345.623C290.683 343.321 291.087 339.689 291.325 337.558C291.717 334.086 291.521 333.666 289.448 333.616L287.125 333.566L289.43 331.454C291.699 329.383 292.537 326.621 290.897 326.621C290.434 326.621 290.06 325.471 290.06 324.07C290.06 322.669 289.531 320.308 288.895 318.837C287.915 316.576 287.517 316.445 286.406 317.986C285.682 319.007 284.607 319.527 284.013 319.157C282.842 318.407 288.367 313.924 290.452 313.924C291.224 313.924 291.729 312.673 291.723 310.752C291.711 308.181 291.551 307.981 290.897 309.692C290.202 311.503 290.083 311.453 290.072 309.341C290.066 307.981 290.458 306.87 290.945 306.87C291.432 306.87 291.598 306.229 291.313 305.459C290.493 303.208 289.228 303.818 289.121 306.52C289.032 308.871 289.008 308.871 288.646 306.52C288.432 305.159 287.874 304.048 287.393 304.048C286.917 304.048 286.781 305.149 287.09 306.52C287.535 308.501 287.434 308.641 286.591 307.22C285.747 305.809 285.331 306.229 284.518 309.341L283.496 313.214L283.425 309.341C283.359 305.469 280.936 303.548 280.763 307.22C280.229 318.417 280.49 322.069 281.797 321.649C282.718 321.348 283.056 321.979 282.831 323.56C282.373 326.782 283.781 334.446 284.767 334.116C285.207 333.966 286.068 336.187 286.674 339.049C289.573 352.727 289.638 352.847 290.428 345.623ZM287.547 338.699C287.547 338.358 287.921 337.688 288.385 337.208C288.842 336.727 289.222 337.008 289.222 337.828C289.222 338.648 288.842 339.319 288.385 339.319C287.921 339.319 287.547 339.039 287.547 338.699ZM284.512 328.783C284.25 327.642 284.197 325.901 284.399 324.9C284.595 323.91 284.957 324.84 285.195 326.972C285.67 331.144 285.278 332.175 284.512 328.783ZM286.347 326.271C285.985 324.14 285.985 321.278 286.347 319.928C286.923 317.756 287.042 317.836 287.333 320.628C287.511 322.369 287.517 325.231 287.339 326.972C287.03 329.963 286.971 329.923 286.347 326.271ZM281.874 312.513C281.874 309.802 282.046 308.681 282.26 310.042C282.468 311.403 282.468 313.624 282.26 314.985C282.046 316.335 281.874 315.225 281.874 312.513ZM316.024 349.195C316.024 348.424 315.436 347.784 314.717 347.784C313.998 347.784 313.648 348.424 313.933 349.195C314.212 349.975 314.8 350.606 315.234 350.606C315.667 350.606 316.024 349.975 316.024 349.195ZM315.632 339.499C315.37 337.458 315.917 326.341 316.843 314.795C318.703 291.751 318.988 279.294 317.699 277.943C317.17 277.393 316.837 280.895 316.796 287.388C316.76 293.062 316.594 298.965 316.428 300.516C316.255 302.077 315.673 307.47 315.139 312.513C314.598 317.556 313.867 322.949 313.511 324.51C313.155 326.061 312.84 328.913 312.816 330.854C312.786 332.795 312.549 336.367 312.281 338.789C311.842 342.801 311.996 343.201 313.957 343.201C315.845 343.201 316.053 342.741 315.632 339.499ZM299.213 327.062C299.296 318.477 297.93 318.367 297.699 326.932C297.592 330.914 297.479 334.526 297.449 334.976C297.419 335.427 297.467 336.427 297.556 337.208C297.901 340.289 299.16 332.605 299.213 327.062ZM301.785 314.664C301.785 312.053 301.554 308.921 301.274 307.69C300.71 305.219 297.598 304.589 297.598 306.95C297.598 307.77 297.972 308.051 298.435 307.57C298.893 307.1 299.338 308.171 299.415 309.962C299.492 311.753 299.641 314.174 299.748 315.335C299.849 316.495 299.974 318.287 300.021 319.297C300.211 323.259 301.785 319.127 301.785 314.664ZM279.724 313.574C279.492 312.603 279.302 313.394 279.302 315.335C279.302 317.276 279.492 318.066 279.724 317.096C279.956 316.125 279.956 314.544 279.724 313.574ZM279.819 307.09C281.09 302.247 283.965 299.816 288.42 299.816C291.545 299.816 291.735 299.576 291.735 295.583C291.735 292.451 291.355 291.381 290.268 291.461C289.394 291.531 289.222 291.861 289.852 292.281C290.422 292.672 290.867 294.052 290.832 295.343C290.79 296.824 290.606 297.044 290.339 295.923C290.107 294.953 289.573 294.513 289.151 294.953C288.729 295.393 288.379 294.913 288.373 293.902C288.361 292.541 288.123 292.611 287.47 294.172C286.799 295.763 286.478 295.853 286.157 294.523C285.438 291.551 283.365 292.571 283.276 295.933C283.193 298.985 283.163 298.965 282.522 295.583C281.892 292.281 281.839 292.381 281.643 296.994C281.452 301.407 281.393 301.517 281.084 298.055C280.888 295.893 280.199 294.172 279.534 294.172C278.874 294.172 278.334 293.642 278.334 292.992C278.334 291.671 287.416 287.118 290.048 287.118C290.974 287.118 291.735 286.538 291.735 285.818C291.735 283.416 290.719 280.064 289.994 280.064C289.596 280.064 289.507 281.085 289.792 282.345C290.244 284.317 290.06 284.397 288.385 282.886C286.709 281.375 286.525 281.445 286.971 283.426C287.262 284.677 287.125 285.707 286.68 285.707C286.234 285.707 285.872 284.757 285.872 283.586C285.872 282.426 285.308 281.475 284.613 281.475C283.924 281.475 283.359 282.546 283.359 283.856C283.359 285.938 283.199 285.898 282.13 283.506C280.965 280.925 280.888 281.045 280.746 285.707C280.615 290.02 280.55 290.16 280.247 286.768C280.051 284.627 279.504 282.886 279.023 282.886C278.512 282.886 278.37 284.337 278.678 286.408C279.332 290.8 278.56 291.021 277.449 286.768C276.801 284.277 276.7 285.107 276.974 290.54C277.164 294.363 276.914 298.605 276.409 299.946C275.75 301.737 275.774 303.298 276.498 305.699C277.413 308.711 277.461 308.571 277.039 304.048C276.659 299.946 276.748 299.546 277.544 301.707C278.067 303.128 278.328 305.829 278.114 307.7C277.585 312.333 278.53 311.993 279.819 307.09ZM304.357 305.459C305.433 305.459 305.332 300.666 304.161 296.354C303.051 292.251 300.075 291.411 300.176 295.233C300.217 296.704 300.413 296.984 300.663 295.933C300.894 294.963 301.453 294.172 301.904 294.172C302.356 294.172 302.504 294.763 302.237 295.483C301.975 296.204 302.142 297.194 302.611 297.684C303.074 298.175 303.46 300.196 303.46 302.187C303.46 305.179 303.253 305.509 302.255 304.118C301.221 302.667 301.191 302.948 302.047 306.039C302.712 308.461 303.128 308.961 303.312 307.56C303.46 306.4 303.93 305.459 304.357 305.459ZM251.402 301.227C252.097 297.885 252.043 296.994 251.146 296.994C249.97 296.994 247.968 304.629 248.782 306.009C249.572 307.33 250.487 305.669 251.402 301.227ZM308.486 294.262C308.486 292.852 309.08 290.86 309.81 289.84C310.636 288.689 310.981 286.648 310.731 284.427C310.464 282.095 310.844 280.094 311.836 278.643C313.422 276.332 314.556 268.647 313.63 266.496C311.759 262.154 303.763 257.121 304.565 260.793C304.767 261.693 305.361 262.264 305.89 262.064C306.424 261.863 307.072 262.644 307.339 263.815C307.607 264.985 308.159 265.586 308.575 265.155C308.985 264.725 309.323 265.406 309.323 266.656C309.323 267.917 309.697 268.547 310.161 268.067C310.624 267.587 310.998 268.447 310.998 269.988C310.998 271.519 311.468 273.06 312.044 273.42C312.828 273.901 312.852 274.501 312.151 275.762C311.42 277.062 310.654 276.532 308.818 273.47C306.775 270.058 306.389 269.838 306.139 271.949C305.831 274.591 307.939 279.104 308.806 277.643C309.092 277.162 309.323 277.863 309.323 279.204C309.323 280.775 308.955 281.265 308.278 280.584C307.565 279.864 307.595 280.284 308.379 281.905C309.008 283.216 309.246 284.297 308.902 284.297C308.563 284.297 308.747 285.247 309.323 286.408C310.167 288.119 310.143 288.529 309.216 288.519C308.587 288.509 307.422 286.608 306.638 284.287C305.854 281.965 304.743 280.064 304.167 280.064C303.359 280.064 303.348 280.434 304.132 281.755C304.684 282.686 305.136 284.627 305.136 286.068C305.136 287.519 305.51 288.299 305.973 287.819C306.846 286.908 307.191 289.74 306.9 295.353C306.793 297.364 307.072 298.305 307.607 297.745C308.088 297.244 308.486 295.673 308.486 294.262ZM276.326 294.763C276.047 293.532 275.821 290.991 275.821 289.119C275.821 284.957 274.907 284.737 273.487 288.559C272.715 290.64 272.673 292.171 273.315 294.202C274.39 297.584 277.087 298.075 276.326 294.763ZM209.53 294.102C212.459 293.302 217.24 290.83 220.157 288.599C224.838 285.027 226.061 283.176 230.617 272.78C235.726 261.153 251.307 235.348 258.173 227.153C260.128 224.822 262.729 221.43 263.953 219.619L266.186 216.317L263.258 219.519C254.027 229.595 237.668 253.539 234.496 261.613C227.261 280.044 218.007 288.309 203.168 289.62C197.941 290.09 196.438 289.64 192.28 286.368C189.625 284.277 186.132 281.545 184.522 280.294C182.907 279.034 180.353 275.932 178.838 273.39C177.329 270.849 175.743 268.778 175.321 268.778C174.104 268.778 170.629 260.253 168.657 252.438C166.851 245.274 166.821 238.77 168.579 235.808C169.054 235.008 169.441 233.367 169.441 232.166C169.429 228.724 175.369 220.859 179.23 219.198C181.154 218.378 182.919 216.867 183.15 215.866C184.249 211.034 170.736 221.84 166.619 229.084C161.805 237.549 162.972 251.728 169.815 267.877C175.197 280.594 179.343 286.238 186.364 290.43C195.12 295.673 200.608 296.544 209.53 294.102ZM305.973 293.382C305.973 292.171 305.587 291.581 305.124 292.071C304.654 292.551 304.488 293.542 304.749 294.272C305.468 296.224 305.973 295.863 305.973 293.382ZM252.922 289.59C252.691 288.619 252.501 289.41 252.501 291.351C252.501 293.292 252.691 294.082 252.922 293.112C253.154 292.141 253.154 290.56 252.922 289.59ZM333.612 292.932C333.612 292.251 333.048 290.9 332.359 289.94C330.993 288.029 330.82 288.489 331.61 291.941C332.145 294.302 333.612 295.033 333.612 292.932ZM244.731 286.368C248.527 282.886 253.974 275.281 254.104 273.29C254.14 272.75 254.294 271.239 254.443 269.928C254.633 268.277 254.294 267.777 253.332 268.287C252.263 268.838 252.316 268.497 253.576 266.776C254.514 265.486 254.752 264.545 254.14 264.545C252.572 264.545 250.511 260.663 251.52 259.612C252.839 258.241 252.512 253.258 251.111 253.258C250.422 253.258 249.851 253.889 249.851 254.669C249.851 255.44 249.418 256.08 248.889 256.08C248.348 256.08 248.61 254.789 249.477 253.178C250.57 251.147 251.633 250.527 253.029 251.117C254.3 251.657 254.823 251.427 254.479 250.487C254.188 249.686 253.326 249.026 252.566 249.026C251.461 249.026 251.402 248.676 252.257 247.255C253.106 245.844 253.558 246.054 254.544 248.296C255.643 250.797 255.619 251.297 254.33 252.888C252.988 254.539 252.988 254.669 254.3 254.669C255.827 254.669 255.958 255.44 255.732 263.484C255.655 266.396 255.797 268.778 256.053 268.778C257.746 268.778 263.603 238.08 262.682 234.037C262.314 232.416 262.45 231.956 263.104 232.636C263.739 233.297 263.9 232.886 263.573 231.456C263.3 230.245 263.513 229.274 264.06 229.274C264.684 229.274 264.838 228.164 264.476 226.273C264.102 224.281 264.22 223.591 264.826 224.221C265.325 224.742 266.537 224.442 267.523 223.551C268.509 222.67 269.157 222.48 268.961 223.141C265.949 233.467 264.945 238.04 265.414 239.32C265.729 240.171 265.581 241.291 265.082 241.812C263.923 243.022 262.343 254.669 263.347 254.669C263.757 254.669 264.096 255.37 264.096 256.23C264.096 257.091 263.525 257.421 262.836 256.981C262.147 256.53 261.583 256.78 261.583 257.531C261.583 258.281 261.957 258.902 262.42 258.902C263.686 258.902 263.424 263.054 262.005 265.436C261.316 266.596 260.377 267.147 259.914 266.666C259.445 266.186 259.07 266.886 259.07 268.227C259.07 269.568 258.447 271.829 257.68 273.25C256.439 275.562 256.433 275.832 257.621 275.832C260.134 275.832 263.704 266.396 265.224 255.76C266.228 248.686 266.394 245.374 265.759 245.024C265.212 244.713 265.402 243.813 266.228 242.802C267.03 241.812 267.802 238.28 268.058 234.437C268.592 226.503 269.317 225.332 270.808 230.025C271.443 232.016 272.661 233.497 273.659 233.497C276.237 233.487 281.72 230.865 284.856 228.144C287.28 226.032 287.701 226.002 288.402 227.864C289.109 229.735 289.198 229.735 289.222 227.864C289.246 225.972 289.335 225.972 290.06 227.864C290.778 229.745 290.873 229.745 290.897 227.864C290.921 225.972 291.01 225.972 291.735 227.864C292.18 229.024 292.549 229.274 292.56 228.404C292.572 226.623 296.528 227.493 297.241 229.434C297.912 231.276 301.595 230.945 301.975 229.024C302.165 228.044 302.754 227.824 303.389 228.494C304.274 229.414 304.262 229.875 303.342 230.965C302.415 232.056 302.433 232.206 303.437 231.746C304.114 231.436 304.928 229.635 305.236 227.753C305.807 224.331 305.807 224.331 305.89 228.114C305.943 230.585 306.555 232.216 307.648 232.796C309.668 233.877 312.673 232.466 312.673 230.435C312.673 229.625 312.109 229.334 311.42 229.785C310.612 230.305 310.137 229.725 310.101 228.164C310.054 226.143 309.923 226.213 309.323 228.564C308.694 231.025 308.581 230.845 308.444 227.153L308.29 222.921L307.648 227.153C307.013 231.366 307.007 231.366 306.912 226.092C306.805 220.519 308.824 218.388 309.585 223.271C309.87 225.132 309.989 224.952 310.066 222.57C310.161 219.369 311.028 218.498 312.186 220.449C312.531 221.03 313.238 221.51 313.749 221.51C315.412 221.51 317.437 234.157 317.936 247.655C318.447 261.403 319.962 267.517 323.11 268.557C324.417 268.988 324.518 268.207 324.013 261.503C323.3 251.968 320.295 236.078 319.38 237.019C319.006 237.419 318.875 236.569 319.095 235.138C319.79 230.675 315.109 218.738 312.056 217.177C311.456 216.867 314.063 209.543 314.77 209.553C316.321 209.573 317.58 211.664 317.431 213.985C317.342 215.356 321.007 221.57 326.496 229.364C331.563 236.549 334.955 240.971 334.034 239.18C332.109 235.448 324.922 223.681 322.023 219.539C320.615 217.517 320.223 215.897 320.627 213.755C321.079 211.374 321.429 211.114 322.374 212.434C323.027 213.345 323.562 215.206 323.562 216.567C323.562 219.629 325.688 222.791 326.894 221.53C327.387 221.01 327.69 221.24 327.559 222.03C327.304 223.631 340.734 244.793 342.011 244.793C342.457 244.793 342.825 245.394 342.825 246.124C342.825 246.855 344.168 249.866 345.807 252.828C347.447 255.78 350.114 261.513 351.735 265.566C354.337 272.059 361.863 284.297 363.253 284.297C364.453 284.297 363.574 278.964 360.717 268.928C357.331 257.001 354.135 249.286 349.615 242.122C344.221 233.577 330.708 217.007 329.632 217.618C329.056 217.948 328.587 217.527 328.587 216.687C328.587 215.846 327.838 215.156 326.924 215.156C326.009 215.156 324.5 214.065 323.573 212.735C321.726 210.073 321.257 207.301 322.932 209.002C323.645 209.723 323.615 209.293 322.831 207.672C322.201 206.361 321.257 205.29 320.74 205.31C320.217 205.32 320.36 205.941 321.049 206.691C321.964 207.692 322.005 208.072 321.209 208.082C320.609 208.092 320.348 208.742 320.633 209.513C321.215 211.104 320.164 211.344 318.186 210.073C317.455 209.603 316.861 208.332 316.861 207.251C316.861 202.599 313.202 205.871 307.613 215.516C302.878 223.681 301.185 225.742 299.189 225.742C297.176 225.742 296.742 225.202 296.938 222.921C297.116 220.829 297.776 220.139 299.481 220.259C300.96 220.359 301.785 219.699 301.785 218.408C301.785 217.307 302.13 216.767 302.552 217.207C302.973 217.638 303.544 217.197 303.817 216.227C304.09 215.256 304.144 216.047 303.93 217.978C303.573 221.21 303.639 221.3 304.672 218.978C305.29 217.577 305.7 215.356 305.587 214.035C305.468 212.715 305.539 212.434 305.735 213.415C306.347 216.427 307.523 213.945 307.019 210.703C306.698 208.622 306.852 207.982 307.517 208.672C308.111 209.293 308.509 208.692 308.545 207.131C308.599 204.85 308.682 204.88 309.323 207.402C309.941 209.833 310.054 209.633 310.113 205.991C310.173 202.719 310.369 202.239 310.998 203.869C311.676 205.631 311.824 205.52 311.889 203.169C311.931 201.618 312.145 201.068 312.359 201.958C312.822 203.849 315.964 202.759 317.497 200.177C318.174 199.047 318.245 198.096 317.705 197.536C317.241 197.045 316.861 197.406 316.861 198.326C316.861 199.477 315.578 199.797 312.721 199.327C308.872 198.706 308.521 198.917 307.672 202.379C306.401 207.542 300.122 218.838 299.427 217.207C299.112 216.467 297.912 215.726 296.76 215.546C295.608 215.376 295.138 215.586 295.715 216.017C297.342 217.247 296.944 219.389 295.085 219.389C294.075 219.389 293.38 218.418 293.344 216.927C293.303 215.436 293.107 215.156 292.851 216.227C292.156 219.118 290.891 216.707 290.957 212.605C291.004 209.403 291.111 209.233 291.646 211.534C292.263 214.186 292.293 214.186 292.887 211.574C293.404 209.313 293.624 209.213 294.277 210.964C294.841 212.465 295.079 211.464 295.132 207.402C295.168 204.3 295.519 200.487 295.899 198.937C296.32 197.236 296.416 199.437 296.13 204.45C295.786 210.553 295.917 212.505 296.629 211.774C297.229 211.144 297.645 205.871 297.722 197.796C297.794 190.662 297.996 186.729 298.18 189.061C298.774 196.695 299.546 197.816 300.146 191.882C300.686 186.489 300.716 186.439 300.829 190.822C300.894 193.343 301.322 195.405 301.785 195.405C302.736 195.405 302.849 192.053 302.064 187.1L301.53 183.726L289.222 184.461C276.106 185.244 273.255 186.529 273.392 191.582C273.469 194.504 273.511 194.484 274.105 191.172C274.693 187.89 274.782 188.03 275.471 193.293L276.207 198.937L276.724 192.583L277.241 186.239L277.496 194.704L277.746 203.169L278.263 196.815L278.785 190.472L279.54 199.637C280.247 208.212 280.336 208.492 280.876 203.869C281.369 199.727 281.482 199.537 281.571 202.639C281.631 204.68 282.254 208.652 282.949 211.464C283.686 214.436 283.864 216.567 283.371 216.567C282.005 216.567 276.267 207.231 274.984 202.919C273.148 196.745 271.491 193.934 268.414 191.772C265.985 190.061 265.658 189.281 266.109 186.249C266.412 184.204 266.276 182.71 265.783 182.71C265.313 182.71 264.933 181.86 264.933 180.82C264.933 179.78 263.989 178.206 262.836 177.323C261.684 176.438 260.745 176.269 260.745 176.946C260.745 177.622 261.405 178.619 262.207 179.162C263.383 179.951 263.104 180.474 260.805 181.782C257.051 183.921 256.837 185.692 259.967 188.701C263.508 192.083 262.955 196.155 258.227 201.628L254.461 206.001L258.839 206.281C263.193 206.571 267.648 210.363 268.616 214.596C268.854 215.636 267.505 218.268 265.515 220.669C263.585 222.991 261.375 225.922 260.615 227.183C259.854 228.434 257.995 231.005 256.474 232.896C254.96 234.778 254.164 236.329 254.716 236.329C255.269 236.329 255.714 237.279 255.714 238.44C255.714 239.6 255.132 240.561 254.413 240.561C253.671 240.561 253.356 239.881 253.677 239C255.185 234.888 248.657 243.883 242.058 255.009C237.282 263.064 233.956 270.048 232.643 274.811C230.207 283.616 230.136 285.347 232.055 288.909C233.962 292.461 239.23 291.401 244.731 286.368ZM236.451 281.555C236.451 280.735 236.831 280.064 237.288 280.064C237.751 280.064 238.126 280.344 238.126 280.685C238.126 281.025 237.751 281.695 237.288 282.175C236.831 282.656 236.451 282.376 236.451 281.555ZM238.547 278.653C238.262 277.873 238.405 277.242 238.868 277.242C239.326 277.242 239.937 277.873 240.222 278.653C240.508 279.424 240.365 280.064 239.902 280.064C239.438 280.064 238.832 279.424 238.547 278.653ZM243.686 273.71C243.953 272.55 244.493 271.599 244.891 271.599C245.289 271.599 245.396 272.55 245.129 273.71C244.868 274.881 244.327 275.832 243.929 275.832C243.531 275.832 243.424 274.881 243.686 273.71ZM249.014 266.746C249.014 266.396 249.394 265.726 249.851 265.245C250.315 264.765 250.689 265.045 250.689 265.866C250.689 266.696 250.315 267.367 249.851 267.367C249.394 267.367 249.014 267.087 249.014 266.746ZM246.186 262.374C245.378 258.822 245.616 257.911 246.608 260.773C247.095 262.184 247.321 263.645 247.101 264.005C246.887 264.365 246.477 263.635 246.186 262.374ZM321.251 262.904C320.681 261.944 320.211 259.872 320.211 258.301C320.211 255.57 320.271 255.59 321.53 258.622C323.057 262.284 322.837 265.576 321.251 262.904ZM244.826 254.809C244.826 253.338 246.424 251.217 246.893 252.058C247.048 252.328 246.644 253.368 246.002 254.369C245.355 255.37 244.826 255.57 244.826 254.809ZM320.693 253.859C318.97 250.957 318.827 243.683 320.538 246.074C321.494 247.405 322.95 256.08 322.219 256.08C322.1 256.08 321.417 255.079 320.693 253.859ZM264.149 250.077C264.119 247.945 264.47 246.204 264.933 246.204C265.913 246.204 265.913 247.285 264.933 251.137C264.292 253.639 264.203 253.519 264.149 250.077ZM251.526 243.613C251.526 242.962 252.673 242.442 254.075 242.442C255.714 242.442 256.237 242.852 255.542 243.593C254.128 245.104 251.526 245.114 251.526 243.613ZM258.233 243.383C258.233 242.602 258.607 241.972 259.07 241.972C259.528 241.972 259.908 242.602 259.908 243.383C259.908 244.153 259.528 244.793 259.07 244.793C258.607 244.793 258.233 244.153 258.233 243.383ZM256.938 237.639C256.635 236.809 256.564 235.838 256.783 235.468C257.003 235.098 257.407 235.768 257.68 236.969C258.251 239.45 257.763 239.891 256.938 237.639ZM258.233 233.677C258.233 233.077 259.171 231.095 260.324 229.274C261.476 227.443 262.42 226.473 262.42 227.103C262.42 227.723 261.476 229.715 260.324 231.506C259.171 233.307 258.233 234.287 258.233 233.677ZM272.786 228.494C273.077 227.233 272.934 226.673 272.459 227.163C272.002 227.633 271.598 227.513 271.562 226.883C271.527 226.253 271.331 223.841 271.135 221.51C270.832 217.898 270.933 217.608 271.835 219.529C272.412 220.769 273.267 221.89 273.724 222C275.114 222.35 274.906 230.685 273.511 230.685C272.75 230.685 272.477 229.855 272.786 228.494ZM276.237 226.453C275.952 225.672 276.118 225.032 276.605 225.032C277.092 225.032 277.496 225.672 277.496 226.453C277.496 227.223 277.33 227.864 277.128 227.864C276.92 227.864 276.522 227.223 276.237 226.453ZM279.154 225.112C274.449 220.919 271.901 215.766 271.396 209.433C270.944 203.759 267.986 197.496 266.495 199.047C266.097 199.467 265.771 198.857 265.771 197.686C265.771 196.525 266.204 195.124 266.733 194.564C267.333 193.944 267.475 194.184 267.107 195.194C266.727 196.225 267.143 196.815 268.242 196.815C269.442 196.815 270.921 199.317 273.029 204.93C274.705 209.393 277.312 215.096 278.815 217.598C280.324 220.099 281.797 223.431 282.094 225.002C282.736 228.404 282.848 228.404 279.154 225.112ZM273.689 210.834C272.97 208.872 272.471 209.243 272.471 211.714C272.471 212.925 272.851 213.515 273.321 213.035C273.79 212.545 273.956 211.554 273.689 210.834ZM283.929 223.091C283.615 221.7 283.359 220.369 283.359 220.119C283.359 219.068 286.775 221.26 287.28 222.62C287.612 223.531 287.298 223.771 286.484 223.241C285.741 222.761 284.999 223.101 284.82 223.991C284.642 224.882 284.25 224.482 283.929 223.091ZM289.222 221.14C286.311 219.519 285.034 216.127 285.153 210.353L285.272 204.58L285.872 210.223L286.472 215.866L286.68 210.223L286.894 204.58L287.612 210.774C288.01 214.176 288.581 217.347 288.878 217.828C289.175 218.298 289.186 216.787 288.901 214.456C288.616 212.124 288.687 209.433 289.056 208.472C289.466 207.402 289.757 208.652 289.81 211.694C289.858 214.416 290.327 217.527 290.856 218.608C291.949 220.829 291.081 222.17 289.222 221.14ZM269.958 209.043C269.958 207.752 269.578 206.691 269.121 206.691C268.658 206.691 268.283 206.061 268.283 205.28C268.283 204.51 268.634 203.869 269.061 203.869C270.006 203.869 271.152 209.383 270.451 210.563C270.178 211.024 269.958 210.343 269.958 209.043ZM265.771 205.28C265.771 204.51 265.937 203.869 266.139 203.869C266.341 203.869 266.739 204.51 267.024 205.28C267.309 206.061 267.143 206.691 266.656 206.691C266.169 206.691 265.771 206.061 265.771 205.28ZM262.005 202.479C261.684 201.598 262.028 199.737 262.777 198.346C263.531 196.935 263.9 194.784 263.603 193.493C263.311 192.203 263.49 191.172 264.001 191.172C265.284 191.172 265.165 195.735 263.763 200.287C263.02 202.689 262.379 203.499 262.005 202.479ZM293.511 196.115C293.44 194.564 293.19 191.702 292.952 189.761L292.525 186.239L293.422 189.701C293.915 191.602 294.164 194.454 293.98 196.045C293.647 198.857 293.636 198.867 293.511 196.115ZM285.1 193.413C285.064 191.922 285.26 191.092 285.539 191.552C285.818 192.023 285.848 193.243 285.605 194.264C285.337 195.384 285.141 195.054 285.1 193.413ZM287.612 192.003C287.577 190.512 287.773 189.681 288.052 190.141C288.331 190.612 288.361 191.832 288.117 192.853C287.85 193.974 287.654 193.643 287.612 192.003ZM295.216 191.172C295.216 189.231 295.406 188.44 295.637 189.411C295.869 190.382 295.869 191.972 295.637 192.943C295.406 193.914 295.216 193.113 295.216 191.172ZM290.125 189.181C290.089 187.69 290.285 186.859 290.565 187.32C290.844 187.79 290.873 189.011 290.63 190.031C290.363 191.152 290.167 190.822 290.125 189.181ZM387.15 288.259C396.761 284.237 409.14 265.165 413.892 247.075C416.149 238.48 416.161 234.587 413.94 226.863C412.615 222.25 411.285 220.059 408.54 217.958C403.77 214.296 403.735 214.346 406.895 219.989C409.413 224.482 412.348 235.958 412.348 241.301C412.348 242.582 411.011 247.655 409.378 252.578C407.049 259.582 405.873 261.723 403.954 262.434C402.606 262.934 401.537 263.765 401.578 264.295C402.333 273.49 394.266 282.195 383.034 284.297C380.04 284.857 375.513 286.028 372.983 286.878C367.566 288.719 364.56 288.319 361.905 285.387C358.661 281.805 344.886 261.303 342.457 256.43C339.006 249.516 338.168 250.927 341.322 258.351C342.843 261.923 345.302 267.767 346.787 271.329C349.799 278.543 355.555 285.607 361.251 289.109C364.239 290.941 366.918 291.251 374.171 290.64C379.196 290.21 385.041 289.139 387.15 288.259ZM301.993 288.999C301.417 288.609 300.948 286.648 300.948 284.647C300.948 280.664 300.128 281.065 299.748 285.227C299.51 287.839 300.651 289.97 302.201 289.81C302.664 289.76 302.569 289.4 301.993 288.999ZM298.435 284.297C298.435 281.965 298.055 280.064 297.598 280.064C297.134 280.064 296.76 281.965 296.76 284.297C296.76 286.618 297.134 288.529 297.598 288.529C298.055 288.529 298.435 286.618 298.435 284.297ZM205.598 274.771C208.502 267.977 212.268 259.862 213.979 256.72C216.124 252.778 216.86 250.417 216.361 249.056C215.44 246.555 212.928 249.726 201.903 267.307C192.393 282.486 191.383 287.118 197.585 287.118C200.062 287.118 200.816 285.958 205.598 274.771ZM211.692 285.127C213.302 283.996 214.775 281.725 215.12 279.834C215.452 278.023 217.347 270.659 219.331 263.484C222.438 252.238 222.729 250.437 221.434 250.437C219.117 250.437 216.082 255.12 210.682 267.047C205.503 278.483 203.786 283.106 203.786 285.617C203.786 287.749 208.36 287.468 211.692 285.127ZM280.763 278.883C282.326 277.983 285.474 277.242 287.761 277.242C291.2 277.242 291.824 276.862 291.402 275.011C291.123 273.78 290.897 272.27 290.897 271.659C290.897 271.039 289.929 270.539 288.753 270.539C287.28 270.539 286.745 271.139 287.054 272.48C287.292 273.55 287.125 274.421 286.68 274.421C286.234 274.421 285.83 273.31 285.789 271.949C285.729 270.298 285.48 270.659 285.034 273.01C284.636 275.111 284.327 275.592 284.28 274.201C284.221 272.52 283.686 272.089 282.391 272.66C281.12 273.21 280.769 272.95 281.203 271.759C281.648 270.559 281.203 270.288 279.659 270.839C278.471 271.249 276.493 271.949 275.269 272.38C272.822 273.25 271.663 271.349 271.645 266.436C271.634 264.095 271.247 263.564 269.958 264.135C268.141 264.935 267.541 272.069 269.145 273.74C269.691 274.311 269.869 273.29 269.62 271.009C269.406 268.998 269.584 267.367 270.012 267.367C270.44 267.367 270.838 268.788 270.885 270.539C271.099 277.983 271.467 282.946 271.96 285.117C272.424 287.148 272.816 287.008 275.198 283.976C276.694 282.085 279.195 279.794 280.763 278.883ZM272.602 282.886C272.602 280.945 272.792 280.154 273.024 281.125C273.255 282.085 273.255 283.676 273.024 284.647C272.792 285.617 272.602 284.827 272.602 282.886ZM274.307 277.943C274.289 275.622 274.467 274.491 274.693 275.451C274.924 276.402 274.936 278.313 274.722 279.684C274.514 281.055 274.324 280.274 274.307 277.943ZM275.952 275.832C275.952 273.891 276.142 273.1 276.374 274.071C276.605 275.031 276.605 276.622 276.374 277.593C276.142 278.563 275.952 277.773 275.952 275.832ZM295.631 281.095C295.406 280.134 295.227 281.265 295.245 283.586C295.263 285.918 295.453 286.698 295.667 285.327C295.875 283.956 295.863 282.045 295.631 281.095ZM346.526 284.847C348.694 283.446 348.1 280.564 343.247 268.898C340.711 262.804 338.637 257.191 338.637 256.41C338.637 254.979 332.341 244.793 331.462 244.793C331.201 244.793 331.795 246.695 332.775 249.026C333.761 251.347 334.165 253.258 333.672 253.258C333.179 253.258 332.775 254.159 332.775 255.25C332.775 256.35 332.305 257.571 331.729 257.961C331.153 258.351 331.527 258.722 332.567 258.792C333.802 258.862 334.426 259.742 334.384 261.363C334.343 262.844 334.147 263.124 333.897 262.074C333.666 261.103 332.929 260.313 332.264 260.313C331.23 260.313 331.236 260.903 332.335 264.475C333.927 269.658 334.076 272.94 332.608 270.469C330.987 267.737 330.125 268.517 331.159 271.779C331.878 274.051 331.866 275.031 331.117 275.812C329.929 277.042 333.761 282.596 336.469 283.576C341.875 285.537 344.88 285.918 346.526 284.847ZM343.318 277.743C342.873 275.812 342.997 275.722 344.067 277.212C345.516 279.244 345.671 280.064 344.589 280.064C344.18 280.064 343.609 279.024 343.318 277.743ZM333.309 275.121C333.577 273.961 333.939 273.01 334.123 273.01C334.301 273.01 334.45 273.961 334.45 275.121C334.45 276.292 334.087 277.242 333.642 277.242C333.196 277.242 333.048 276.292 333.309 275.121ZM336.63 272.16C336.333 270.849 336.273 269.468 336.505 269.078C336.737 268.687 337.17 269.438 337.467 270.749C337.764 272.059 337.818 273.45 337.592 273.83C337.36 274.221 336.927 273.47 336.63 272.16ZM336.618 262.224C335.846 258.842 336.446 258.592 337.634 261.783C338.192 263.304 338.311 264.545 337.901 264.545C337.485 264.545 336.903 263.494 336.618 262.224ZM376.642 282.806C377.272 281.855 375.056 275.602 370.47 265.396C369.775 263.865 367.364 259.232 365.112 255.11C361.727 248.916 360.521 247.615 358.198 247.615C356.654 247.615 355.389 247.865 355.389 248.175C355.389 248.486 356.624 251.828 358.127 255.59C359.636 259.362 362.172 267.337 363.77 273.31C366.14 282.195 367.055 284.267 368.777 284.667C371.409 285.297 375.674 284.287 376.642 282.806ZM330.684 282.886C330.399 282.105 330.001 281.475 329.793 281.475C329.591 281.475 329.424 282.105 329.424 282.886C329.424 283.656 329.822 284.297 330.315 284.297C330.803 284.297 330.969 283.656 330.684 282.886ZM222.022 279.514C225.58 275.662 228.728 270.118 233.807 258.702C235.756 254.319 238.821 248.636 240.615 246.064C242.408 243.493 243.656 240.781 243.383 240.051C243.115 239.31 243.288 239.12 243.769 239.62C244.244 240.121 245.111 239.56 245.687 238.39C246.269 237.219 250.659 231.085 255.447 224.772C260.413 218.218 263.84 212.755 263.424 212.054C262.492 210.483 258.233 213.125 258.233 215.276C258.233 216.157 257.758 216.567 257.181 216.197C255.91 215.376 250.517 220.039 251.271 221.31C251.568 221.81 250.897 222.22 249.786 222.24C248.669 222.25 245.877 224.492 243.573 227.213C241.268 229.945 238.44 233.197 237.288 234.457C226.97 245.724 225.17 248.386 222.723 256.03C220.81 261.994 216.349 279.944 216.349 281.665C216.349 283.886 218.85 282.936 222.022 279.514ZM239.801 233.587C239.801 232.766 240.181 232.096 240.638 232.096C241.102 232.096 241.476 232.376 241.476 232.716C241.476 233.057 241.102 233.727 240.638 234.207C240.181 234.688 239.801 234.407 239.801 233.587ZM198.951 268.337C203.394 261.113 209.316 252.398 212.108 248.966C214.906 245.544 217.187 242.352 217.187 241.882C217.187 240.411 206.18 245.724 200.246 250.067C191.419 256.51 179.497 267.797 179.497 269.718C179.497 272.74 186.72 280.444 190.415 281.365C190.664 281.425 194.502 275.561 198.951 268.337ZM254.877 279.274C254.877 278.063 254.502 277.463 254.039 277.943C253.582 278.423 253.201 279.414 253.201 280.144C253.201 280.875 253.582 281.475 254.039 281.475C254.502 281.475 254.877 280.484 254.877 279.274ZM389.954 278.793C391.783 275.632 380.854 260.943 366.58 247.375C362.374 243.373 360.461 243.573 363.414 247.705C365.267 250.297 373.987 268.537 376.826 275.772L379.184 281.775L384.049 281.175C386.728 280.855 389.383 279.784 389.954 278.793ZM265.349 277.543C266.596 275.742 267.048 273.24 267.119 267.767L267.214 260.413L265.658 263.755C264.797 265.596 264.096 267.997 264.096 269.078C264.096 270.168 263.537 272.29 262.866 273.8C260.288 279.534 262.094 282.255 265.349 277.543ZM300.312 273.71C300.532 271.769 300.389 270.188 299.991 270.188C299.599 270.188 299.273 271.769 299.273 273.71C299.273 275.652 299.415 277.242 299.593 277.242C299.772 277.242 300.092 275.652 300.312 273.71ZM302.332 271.219C302.106 270.258 301.934 271.389 301.946 273.71C301.964 276.042 302.154 276.822 302.367 275.451C302.575 274.081 302.563 272.17 302.332 271.219ZM295.637 271.239C295.406 270.278 295.216 271.069 295.216 273.01C295.216 274.951 295.406 275.742 295.637 274.771C295.869 273.8 295.869 272.21 295.637 271.239ZM298.031 271.629C298.097 270.128 297.835 269.228 297.455 269.628C297.069 270.028 296.76 271.689 296.76 273.33C296.76 276.932 297.859 275.471 298.031 271.629ZM317.687 272.5C317.681 271.619 317.348 270.038 316.956 268.988C316.445 267.627 316.131 268.297 315.869 271.309C315.602 274.391 315.798 275.341 316.6 274.831C317.206 274.441 317.693 273.39 317.687 272.5ZM397.337 271.709C401.632 264.475 400.711 262.544 389.312 254.929C381.602 249.766 375.656 246.695 369.906 244.883C366.259 243.733 366.027 243.813 367.536 245.674C368.457 246.815 371.848 250.247 375.074 253.308C378.299 256.36 383.574 262.644 386.8 267.247C390.025 271.859 393.161 275.672 393.773 275.732C394.385 275.782 395.989 273.971 397.337 271.709ZM329.139 269.128C328.848 266.096 328.931 264.645 329.335 265.716C329.9 267.247 330.119 267.217 330.506 265.506C330.808 264.195 330.381 263.144 329.365 262.694C328.48 262.304 327.749 261.253 327.749 260.363C327.749 259.462 328.13 259.122 328.593 259.612C329.127 260.162 329.258 258.652 328.961 255.46C328.587 251.537 328.765 250.437 329.769 250.437C330.583 250.437 330.868 249.636 330.547 248.235C330.274 247.025 329.543 246.364 328.925 246.765C328.308 247.165 327.547 246.785 327.227 245.924C326.906 245.034 327.031 244.743 327.524 245.264C328.017 245.774 328.575 244.583 328.807 242.552C329.092 240.041 328.569 237.649 327.072 234.658C325.064 230.635 324.862 230.525 323.829 232.906C323.223 234.307 322.724 235.068 322.724 234.597C322.724 234.117 322.475 232.626 322.166 231.266C321.756 229.474 321.898 229.114 322.688 229.945C323.425 230.705 323.651 230.425 323.389 229.114C323.175 228.034 322.641 227.153 322.201 227.153C321.762 227.153 320.164 224.932 318.649 222.21L315.899 217.277L318.002 223.621C321.275 233.507 325.177 251.667 326.098 261.293C327.09 271.729 327.642 274.421 328.789 274.421C329.312 274.421 329.448 272.35 329.139 269.128ZM325.237 247.615C325.237 246.835 325.403 246.204 325.605 246.204C325.813 246.204 326.211 246.835 326.496 247.615C326.781 248.386 326.615 249.026 326.122 249.026C325.635 249.026 325.237 248.386 325.237 247.615ZM323.983 240.561C323.698 239.781 324.049 239.15 324.767 239.15C325.486 239.15 326.074 239.781 326.074 240.561C326.074 241.331 325.718 241.972 325.284 241.972C324.851 241.972 324.268 241.331 323.983 240.561ZM326.894 238.41C326.312 237.219 325.997 235.978 326.199 235.648C326.395 235.318 327.019 236.278 327.577 237.799C328.795 241.081 328.391 241.441 326.894 238.41ZM305.136 271.599C305.136 270.819 304.755 270.188 304.298 270.188C303.835 270.188 303.46 270.819 303.46 271.599C303.46 272.37 303.835 273.01 304.298 273.01C304.755 273.01 305.136 272.37 305.136 271.599ZM273.35 266.586C272.626 262.504 272.614 262.494 272.542 266.066C272.501 268.077 272.721 270.138 273.029 270.659C273.998 272.29 274.111 270.879 273.35 266.586ZM275.055 264.395C274.312 261.283 274.247 261.253 274.2 263.955C274.17 265.576 274.396 267.317 274.705 267.837C275.702 269.518 275.875 267.847 275.055 264.395ZM286.959 266.406C291.592 265.576 291.812 265.366 291.568 261.863C291.307 258.051 291.325 258.061 283.983 258.762C283.08 258.842 282.48 260.112 282.421 262.074C282.349 264.465 282.231 264.635 281.945 262.774C281.399 259.282 279.106 259.712 278.53 263.404C278.073 266.366 278.019 266.386 277.413 263.765C276.885 261.483 276.766 261.713 276.718 265.075C276.659 268.908 276.801 269.078 279.379 268.197C280.876 267.687 284.286 266.876 286.959 266.406ZM284.613 261.723C284.327 260.943 284.494 260.313 284.981 260.313C285.474 260.313 285.872 260.943 285.872 261.723C285.872 262.494 285.706 263.134 285.504 263.134C285.296 263.134 284.898 262.494 284.613 261.723ZM180.204 263.304C185.336 257.201 203.501 243.853 211.229 240.521C214.496 239.11 214.769 238.7 213.653 236.819C212.595 235.038 211.799 234.968 208.722 236.369C204.463 238.3 203.317 238.73 197.086 240.721C184.665 244.703 171.122 252.658 171.122 255.98C171.122 258.652 175.274 265.956 176.8 265.956C177.448 265.956 178.98 264.765 180.204 263.304ZM301.5 259.952C301.269 258.982 301.078 259.782 301.078 261.723C301.078 263.665 301.269 264.455 301.5 263.484C301.732 262.514 301.732 260.923 301.5 259.952ZM303.175 259.952C302.944 258.982 302.754 259.782 302.754 261.723C302.754 263.665 302.944 264.455 303.175 263.484C303.407 262.514 303.407 260.923 303.175 259.952ZM262.42 261.723C262.42 260.943 262.04 260.313 261.583 260.313C261.12 260.313 260.745 260.943 260.745 261.723C260.745 262.494 261.12 263.134 261.583 263.134C262.04 263.134 262.42 262.494 262.42 261.723ZM297.265 259.282C296.986 258.812 296.79 259.642 296.825 261.133C296.867 262.774 297.063 263.114 297.33 261.984C297.574 260.963 297.544 259.752 297.265 259.282ZM347.144 259.252C344.542 253.168 341.869 248.756 341.328 249.666C340.901 250.387 347.696 263.134 348.504 263.134C348.67 263.134 348.058 261.383 347.144 259.252ZM270.535 253.589C270.321 252.238 270.16 253.679 270.166 256.78C270.178 259.882 270.35 260.993 270.546 259.232C270.748 257.481 270.743 254.939 270.535 253.589ZM405.327 258.151C406.491 256.19 407.299 253.839 407.115 252.928C406.681 250.707 393.785 242.312 388.968 241.111C386.853 240.581 383.051 238.99 380.521 237.569C374.349 234.107 371.617 234.157 371.064 237.729C370.53 241.171 370.565 241.211 378.163 245.424C387.827 250.787 395.193 255.7 398.234 258.832C401.858 262.554 402.766 262.464 405.327 258.151ZM268.86 253.609C268.646 252.248 268.473 253.358 268.473 256.08C268.473 258.792 268.646 259.902 268.86 258.542C269.067 257.191 269.067 254.969 268.86 253.609ZM273.309 256.08C273.309 253.749 272.928 251.848 272.471 251.848C272.008 251.848 271.634 253.749 271.634 256.08C271.634 258.401 272.008 260.313 272.471 260.313C272.928 260.313 273.309 258.401 273.309 256.08ZM314.984 251.557C314.776 249.216 315.079 245.004 315.649 242.212C316.535 237.879 316.493 236.889 315.388 235.528C314.551 234.497 314.408 233.607 314.978 233.007C316.018 231.936 315.364 226.453 314.2 226.453C313.76 226.453 313.523 227.874 313.665 229.625C313.85 231.816 313.351 233.227 312.044 234.187C310.107 235.618 309.412 238.009 311.111 237.379C312.252 236.959 313.671 244.453 312.65 245.514C312.258 245.924 311.551 245.134 311.076 243.763C310.286 241.482 310.208 241.532 310.185 244.273C310.173 246.214 310.826 247.595 312.044 248.155C313.582 248.866 313.707 249.266 312.703 250.357C311.913 251.207 311.087 251.147 310.398 250.177C309.597 249.066 309.323 249.266 309.323 250.967C309.323 252.228 309.608 253.178 309.953 253.088C311.765 252.608 312.549 253.619 313.066 257.111C313.588 260.603 313.725 260.723 314.497 258.401C314.966 256.981 315.186 253.899 314.984 251.557ZM267.446 255.91C267.446 255.13 267.066 254.889 266.608 255.37C266.145 255.85 265.771 256.881 265.771 257.651C265.771 258.431 266.145 258.672 266.608 258.191C267.066 257.711 267.446 256.69 267.446 255.91ZM281.262 255.45C290.903 253.719 291.735 253.318 291.735 250.367C291.735 248.856 291.355 247.615 290.897 247.615C290.434 247.615 290.054 248.406 290.048 249.376C290.036 250.667 289.84 250.627 289.311 249.226C288.788 247.825 287.648 247.575 285.135 248.286C283.234 248.826 281.684 249.686 281.678 250.207C281.678 250.717 280.508 251.207 279.076 251.297C277.651 251.387 276.184 252.268 275.815 253.268C275.322 254.609 275.043 254.379 274.746 252.398C274.509 250.837 274.301 251.698 274.241 254.489C274.164 258.131 274.39 258.902 275.192 257.801C275.768 257.001 278.5 255.94 281.262 255.45ZM293.962 248.666C293.731 247.695 293.54 248.496 293.54 250.437C293.54 252.378 293.731 253.168 293.962 252.198C294.194 251.227 294.194 249.636 293.962 248.666ZM308.201 248.666C307.969 247.695 307.779 248.496 307.779 250.437C307.779 252.378 307.969 253.168 308.201 252.198C308.432 251.227 308.432 249.636 308.201 248.666ZM175.505 247.595C177.929 246.034 186.607 242.242 194.793 239.15C202.978 236.068 210.688 232.426 211.936 231.055L214.199 228.564L210.195 227.783C205.271 226.823 201.784 227.183 197.941 229.054C196.319 229.845 190.189 231.035 184.32 231.706C175.606 232.706 173.23 233.457 171.341 235.818C169.078 238.65 167.997 244.323 168.936 248.436C169.536 251.057 170.272 250.967 175.505 247.595ZM224.155 245.984C225.158 245.094 226.168 243.983 226.4 243.513C226.857 242.582 233.237 235.188 235.601 232.846C236.415 232.046 239.242 228.964 241.892 226.002C244.535 223.051 249.643 218.318 253.249 215.486C256.849 212.665 259.593 209.813 259.355 209.163C259.112 208.502 258.417 208.662 257.811 209.523C257.199 210.373 255.726 211.364 254.532 211.734C252.263 212.424 246.448 217.507 241.494 223.141C239.89 224.962 238.108 226.453 237.538 226.453C236.961 226.453 233.504 228.984 229.851 232.096C226.198 235.198 222.634 237.739 221.927 237.739C220.204 237.739 217.062 245.404 217.674 248.105C218.185 250.347 219.854 249.806 224.155 245.984ZM281.637 245.524C285.533 244.323 289.014 242.562 289.377 241.602C289.893 240.211 290.036 240.221 290.048 241.612C290.054 242.582 290.814 243.383 291.735 243.383C293.083 243.383 293.392 242.492 293.309 238.79L293.208 234.207L292.572 238.44L291.931 242.672L291.836 238.71C291.776 236.419 291.372 235.118 290.885 235.628C290.416 236.118 290.244 237.099 290.505 237.819C290.766 238.53 290.398 238.74 289.685 238.27C288.967 237.809 288.343 236.709 288.301 235.818C288.254 234.938 287.915 235.798 287.547 237.739C286.9 241.121 286.87 241.131 286.793 238.09C286.692 234.367 285.076 233.757 284.933 237.379C284.844 239.73 284.82 239.73 284.458 237.379C284.007 234.507 282.848 234.137 282.237 236.679C281.904 238.039 281.631 238.009 281.007 236.509C280.354 234.928 280.039 235.058 279.326 237.209C278.471 239.771 278.423 239.76 277.811 237.079C277.235 234.557 277.081 234.688 276.118 238.49C275.198 242.112 275.055 242.252 275.019 239.54C274.99 237.219 274.627 236.639 273.588 237.309C272.649 237.919 272.394 237.669 272.798 236.569C273.19 235.508 272.786 234.918 271.681 234.918C270.731 234.918 269.958 234.177 269.958 233.267C269.958 232.366 269.78 231.916 269.572 232.266C268.883 233.427 270.125 239.14 270.891 238.34C271.936 237.249 271.788 242.242 270.701 244.793C269.935 246.585 269.869 246.544 270.261 244.483C270.511 243.152 270.362 241.682 269.917 241.221C269.471 240.761 269.121 242.382 269.121 244.894C269.121 249.196 269.234 249.356 271.841 248.546C273.338 248.085 277.746 246.725 281.637 245.524ZM273.439 241.972C273.439 240.031 273.629 239.23 273.861 240.201C274.093 241.171 274.093 242.762 273.861 243.733C273.629 244.703 273.439 243.903 273.439 241.972ZM410.162 244.523C411.35 238.88 410.132 233.677 407.091 231.386C400.331 226.273 376.47 222.19 369.211 224.892L366.698 225.832L369.068 228.494C370.369 229.955 376.969 233.557 383.729 236.489C390.482 239.42 398.65 243.393 401.875 245.314C405.101 247.235 408.118 248.636 408.576 248.446C409.039 248.245 409.752 246.484 410.162 244.523ZM304.037 236.659C303.829 235.308 303.662 236.749 303.668 239.851C303.68 242.952 303.852 244.063 304.054 242.302C304.25 240.551 304.245 238.009 304.037 236.659ZM359.576 242.672C359.576 241.512 359.232 240.561 358.804 240.561C358.382 240.561 355.484 237.679 352.371 234.157C349.258 230.635 345.172 226.503 343.3 224.952C339.861 222.13 338.982 221.27 333.505 215.516C329.032 210.814 328.623 211.664 332.858 216.827C338.673 223.921 351.884 241.812 352.454 243.373C353.327 245.744 359.576 245.134 359.576 242.672ZM297.336 235.248C297.122 233.897 296.962 235.338 296.968 238.44C296.98 241.542 297.152 242.652 297.354 240.891C297.55 239.14 297.544 236.599 297.336 235.248ZM298.94 238.12C298.661 237.649 298.465 238.48 298.5 239.971C298.542 241.612 298.738 241.952 299.005 240.821C299.249 239.801 299.219 238.59 298.94 238.12ZM369.122 239.74C370.245 234.818 369.407 232.576 364.382 226.973C360.04 222.13 358.032 220.879 352.46 219.539C348.771 218.658 344.156 217.397 342.202 216.737C338.061 215.346 337.497 216.847 341.192 219.419C342.594 220.399 347.649 225.512 352.424 230.775C360.218 239.36 362.457 241.021 367.239 241.752C367.993 241.872 368.843 240.961 369.122 239.74ZM305.64 235.298C305.361 234.828 305.165 235.658 305.201 237.149C305.242 238.79 305.438 239.12 305.706 237.999C305.949 236.979 305.92 235.768 305.64 235.298ZM229.703 229.464C235.892 224.972 241.09 220.659 241.244 219.879C241.707 217.527 217.959 226.333 215.345 229.474C214.056 231.015 212.999 232.776 212.999 233.387C212.999 234.567 216.231 237.519 217.609 237.589C218.066 237.619 223.513 233.957 229.703 229.464ZM300.948 234.918C300.948 234.137 300.55 233.507 300.063 233.507C299.57 233.507 299.403 234.137 299.688 234.918C299.974 235.688 300.378 236.329 300.579 236.329C300.781 236.329 300.948 235.688 300.948 234.918ZM185.776 229.264C199.551 227.163 200.258 226.643 193.735 223.481C184.154 218.838 178.998 219.639 174.454 226.473L171.656 230.685L174.109 230.675C175.458 230.675 180.709 230.045 185.776 229.264ZM406.865 224.432C404.465 218.268 399.274 213.315 391.997 210.253C387.857 208.502 385.267 208.322 379.262 209.353C375.115 210.073 371.385 210.303 370.969 209.863C370.548 209.433 370.482 209.823 370.815 210.733C371.789 213.395 379.291 219.278 384.626 221.59C389.021 223.481 402.838 227.313 406.711 227.703C408.095 227.844 408.107 227.623 406.865 224.432ZM219.426 223.621C221.648 222.841 228.372 220.659 234.36 218.778C240.353 216.897 247.077 214.045 249.299 212.434C251.52 210.834 254.128 209.513 255.09 209.513C256.047 209.513 256.611 209.143 256.332 208.672C256.059 208.212 251.378 209.133 245.931 210.733C234.817 213.985 224.404 215.786 219.04 215.396C215.304 215.126 207.98 219.509 206.222 223.071C205.414 224.712 206.091 225.032 210.32 225.032C213.106 225.032 217.205 224.401 219.426 223.621ZM206.406 219.559C208.728 217.317 210.32 215.156 209.934 214.756C209.548 214.356 206.97 213.565 204.208 213.005C201.44 212.445 198.149 211.094 196.884 210.013C194.032 207.572 191.627 208.542 187.95 213.615L185.099 217.557L191.722 220.459C200.584 224.331 201.493 224.281 206.406 219.559ZM375.751 219.459C368.261 211.764 367.031 211.214 356.636 210.954C344.673 210.643 342.659 210.383 341.263 208.922C340.681 208.322 339.998 208.162 339.754 208.582C339.505 208.992 338.495 208.822 337.503 208.192C336.517 207.562 333.072 206.641 329.846 206.151C324.233 205.3 324.078 205.35 326.306 207.452C327.583 208.652 328.967 209.283 329.389 208.852C329.805 208.412 330.393 208.732 330.696 209.563C330.999 210.383 331.878 210.934 332.638 210.774C333.404 210.623 334.598 210.884 335.287 211.354C336.642 212.274 342.338 214.115 353.814 217.327C357.782 218.438 361.928 219.949 363.027 220.689C364.126 221.43 368.041 222.07 371.724 222.12L378.424 222.2L375.751 219.459ZM181.172 211.224C181.172 210.613 180.002 209.963 178.57 209.783C174.68 209.283 166.269 204.21 161.069 199.217C158.535 196.785 156.273 194.874 156.043 194.974C155.11 195.364 149.68 190.872 147.123 187.58C145.622 185.654 142.774 182.893 140.795 181.446C138.817 180 136.066 176.782 134.685 174.294C133.302 171.807 130.381 166.715 128.193 162.977C126.005 159.24 124.215 155.493 124.215 154.652C124.215 153.809 122.772 151.513 121.01 149.549C119.248 147.584 117.004 143.573 116.024 140.636C115.044 137.7 113.462 134.107 112.508 132.653C110.648 129.817 107.851 116.106 108.185 111.459C108.296 109.907 109.861 106.256 111.662 103.347C113.463 100.436 114.628 98.0554 114.251 98.0554C113.051 98.0554 106.02 107.698 105.474 110.091C104.291 115.287 105.127 122.104 108.307 133.178C111.173 143.163 112.975 147.04 120.635 159.711C136.757 186.379 152.777 204.13 166.097 210.093C171.027 212.304 181.172 213.065 181.172 211.224ZM237.71 210.243C249.115 207.101 259.011 200.247 257.704 196.405C257.383 195.465 257.425 195.154 257.787 195.715C258.88 197.376 261.565 194.164 261.031 191.832C260.644 190.111 259.124 189.771 253.19 190.081C249.144 190.302 245.949 190.792 246.091 191.172C246.228 191.562 243.834 191.752 240.769 191.592C237.704 191.432 233.878 191.892 232.263 192.613C230.653 193.333 224.624 196.145 218.862 198.847C213.106 201.548 205.663 204.55 202.325 205.51C198.987 206.481 196.557 207.782 196.931 208.412C199.224 212.274 226.002 213.475 237.71 210.243ZM299.035 201.408C298.845 199.267 298.685 201.018 298.685 205.28C298.685 209.553 298.845 211.294 299.035 209.163C299.225 207.031 299.225 203.539 299.035 201.408ZM190.415 205.28C190.754 204.12 192.06 199.787 193.308 195.665C194.555 191.542 195.363 187.8 195.102 187.37C194.211 185.868 179.081 186.569 175.393 188.28C169.441 191.042 162.574 196.625 163.156 198.216C163.827 200.037 168.639 203.669 173.634 206.121C178.778 208.642 189.583 208.112 190.415 205.28ZM376.749 206.791C379.974 206.181 381.857 205.57 380.937 205.43C380.016 205.3 375.306 203.259 370.47 200.918C359.873 195.775 361.976 196.505 347.851 193.113C335.329 190.101 323.241 188.581 322.38 189.891C320.11 193.363 335.442 205.44 342.546 205.781C344.999 205.891 347.007 206.431 347.007 206.961C347.019 208.292 369.484 208.152 376.749 206.791ZM331.575 193.583C331.89 192.193 332.359 191.412 332.614 191.842C332.87 192.273 332.614 193.413 332.044 194.374C331.212 195.755 331.117 195.595 331.575 193.583ZM396.226 205.721C395.419 205.37 394.1 205.37 393.292 205.721C392.484 206.081 393.144 206.371 394.759 206.371C396.369 206.371 397.028 206.081 396.226 205.721ZM202.949 202.509C223.24 195.485 251.526 180.973 251.526 177.575C251.526 176.519 250.778 175.655 249.851 175.655C247.713 175.655 247.707 173.548 249.851 171.023C250.766 169.94 251.235 168.547 250.897 167.928C250.552 167.309 250.837 167.128 251.526 167.525C252.221 167.922 252.691 168.962 252.578 169.836C252.459 170.708 253.166 171.422 254.146 171.422C255.631 171.422 255.75 171.074 254.877 169.306C254.306 168.143 254.128 167.19 254.49 167.19C255.952 167.19 251.829 161.304 247.434 157.116C242.551 152.462 227.433 139.001 222.046 134.504C216.076 129.525 217.745 131.98 225.182 139.126C229.305 143.09 233.249 147.124 233.938 148.091C235.756 150.63 243.056 156.815 246.691 158.892C248.408 159.873 250.855 162.172 252.132 164.002L254.461 167.33L252.364 166.367C251.218 165.838 250.148 164.855 249.994 164.181C249.839 163.508 249.37 162.956 248.948 162.956C248.028 162.956 247.909 168.111 248.806 168.957C249.15 169.283 248.871 169.246 248.176 168.875C247.487 168.505 245.848 167.892 244.535 167.515C242.171 166.835 242.165 166.859 243.674 169.831C244.511 171.482 245.776 172.873 246.477 172.922C247.238 172.976 246.994 173.53 245.877 174.288C243.745 175.729 243.335 178.477 245.248 178.477C245.937 178.477 246.501 179.112 246.501 179.887C246.501 181.727 242.569 181.723 241.898 179.884C241.601 179.082 239.498 178.767 237.033 179.156C234.639 179.533 230.047 180.171 226.822 180.574C221.648 181.219 211.817 182.937 202.949 184.743C201.339 185.072 199.753 185.384 199.432 185.437C198.826 185.534 192.898 202.709 192.898 204.36C192.898 205.761 194.288 205.5 202.949 202.509ZM301.453 201.438C301.173 200.968 300.977 201.798 301.013 203.289C301.055 204.93 301.251 205.26 301.518 204.14C301.762 203.119 301.732 201.898 301.453 201.438ZM389.086 203.079C389.342 202.649 388.279 199.947 386.716 197.085C385.154 194.224 383.877 191.302 383.871 190.602C383.871 189.901 382.944 187.28 381.816 184.79L379.761 180.256L366.948 179.276C359.903 178.738 350.458 177.342 345.973 176.174C341.483 175.007 337.081 174.438 336.196 174.912C335.311 175.386 333.897 176.055 333.054 176.398C325.367 179.529 325.516 179.422 327.749 180.271C335.751 183.307 343.473 185.926 344.714 186.022C345.516 186.089 346.175 186.559 346.175 187.09C346.175 187.61 347.405 188.43 348.902 188.911C353.173 190.271 354.301 190.752 365.861 196.205C378.994 202.399 387.922 205.04 389.086 203.079ZM409.96 200.427C412.544 199.167 415.294 196.935 416.078 195.485C417.438 192.943 417.343 192.673 413.874 189.291C407.519 183.066 399.945 179.567 391.195 178.809C386.705 178.419 383.034 178.539 383.034 179.075C383.034 181.52 387.667 193.814 390.435 198.726L393.5 204.16L399.381 203.439C402.618 203.049 407.376 201.698 409.96 200.427ZM326.71 201.658C325.736 200.007 321.025 199.527 319.594 200.928C318.453 202.048 319.142 202.389 322.653 202.419C325.148 202.439 326.977 202.098 326.71 201.658ZM318.518 191.932C320.306 188.711 320.366 188.34 318.934 189.231C318.025 189.791 316.451 191.152 315.436 192.243C314.402 193.353 312.84 193.824 311.878 193.313C309.549 192.073 309.692 194.614 312.044 196.425C314.224 198.106 315.632 197.126 318.518 191.932ZM321.049 194.624C321.049 194.274 320.675 193.994 320.211 193.994C319.754 193.994 319.374 194.674 319.374 195.495C319.374 196.315 319.754 196.595 320.211 196.115C320.675 195.635 321.049 194.964 321.049 194.624ZM162.402 193.393C164.708 190.672 173.54 185.532 175.911 185.532C178.631 185.532 178.322 184.122 174.057 177.075L170.291 170.851L163.062 174.047C154.135 177.99 146.831 182.518 146.831 184.107C146.831 186.539 156.772 195.124 159.837 195.344C160.31 195.384 161.464 194.504 162.402 193.393ZM306.46 185.881C305.492 184.253 304.999 186.799 305.658 190.011L306.329 193.293L306.638 189.991C306.805 188.18 306.727 186.329 306.46 185.881ZM270.915 186.689C270.16 186.159 268.782 185.706 267.862 185.678C266.282 185.629 266.299 185.784 268.135 188.36C269.679 190.532 270.309 190.742 271.188 189.371C272.097 187.95 272.049 187.48 270.915 186.689ZM309.264 185.095C309.299 184.468 308.949 184.346 308.486 184.826C308.022 185.306 307.672 187.09 307.708 188.791C307.761 191.772 307.791 191.782 308.486 189.061C308.884 187.51 309.234 185.723 309.264 185.095ZM427.156 186.829C429.14 184.185 431.552 179.449 431.582 178.131C431.611 177.172 426.931 173.212 422.82 170.709C418.478 168.068 405.154 163.431 404.548 164.35C404.174 164.92 403.99 168.367 404.133 172.012C404.388 178.634 404.394 178.64 409.134 181.877C411.742 183.659 414.896 186.369 416.143 187.9C417.937 190.101 419.155 190.482 422.036 189.751C424.026 189.241 426.337 187.92 427.156 186.829ZM315.174 187.96C315.192 190.282 317.818 188.53 319.213 185.272C319.897 183.669 321.465 182.642 323.401 182.53C325.801 182.39 325.326 182.048 321.281 181C317.556 180.036 315.519 178.682 314.158 176.266C313.113 174.405 311.687 172.921 310.998 172.969C310.286 173.018 310.155 173.341 310.701 173.718C312.127 174.702 311.028 179.887 309.395 179.887C308.616 179.887 307.482 179.094 306.876 178.124C305.985 176.71 305.682 176.742 305.349 178.283C304.999 179.907 304.821 179.907 304.209 178.283C303.633 176.759 303.484 176.743 303.472 178.207C303.466 179.223 303.08 179.662 302.623 179.182C301.197 177.698 301.643 174.243 303.14 175.208C304.292 175.955 304.351 175.636 303.52 173.018C302.985 171.332 302.777 169.173 303.062 168.219C303.348 167.265 302.991 167.716 302.266 169.223C301.542 170.729 300.948 172.519 300.948 173.201C300.948 175.625 297.188 173.493 296.897 170.902C296.73 169.452 296.944 168.627 297.366 169.067C298.198 169.932 300.948 165.227 300.948 162.94C300.948 162.174 301.322 161.546 301.785 161.546C302.243 161.546 302.647 160.118 302.682 158.372C302.736 155.356 302.771 155.338 303.425 158.019C304.043 160.574 304.167 160.448 304.749 156.689C305.361 152.773 305.438 152.71 306.068 155.588C306.496 157.533 306.3 160.06 305.522 162.561C304.856 164.719 304.351 167.754 304.399 169.306C304.488 171.952 304.518 171.961 304.898 169.454C305.225 167.306 305.45 167.167 306.044 168.749C306.573 170.154 306.805 169.505 306.858 166.485C306.918 162.748 307.019 162.582 307.719 165.074C308.373 167.408 308.45 167.174 308.159 163.717C307.933 160.983 308.29 158.873 309.199 157.615C310.446 155.88 310.404 155.756 308.765 156.34C307.5 156.792 306.828 156.191 306.543 154.327C306.282 152.653 305.385 151.67 304.114 151.67C301.857 151.67 299.778 155.795 296.837 166.131C295.792 169.818 294.592 172.833 294.17 172.833C293.754 172.833 293.416 173.944 293.422 175.303C293.434 177.255 293.588 177.365 294.164 175.827C294.633 174.59 295.311 174.325 296.035 175.1C297.158 176.295 297.592 176.536 299.273 176.89C300.675 177.185 300.205 179.646 298.643 180.207C297.835 180.495 299.956 181.187 303.342 181.745C308.117 182.53 310.084 182.275 312.056 180.618C315.275 177.915 315.661 177.929 314.295 180.701C313.392 182.54 313.404 183.134 314.36 184.135C315.002 184.8 315.923 184.968 316.404 184.507C316.897 184.035 316.974 184.231 316.582 184.952C316.196 185.659 315.477 186.239 314.978 186.239C314.479 186.239 313.915 187.19 313.725 188.35C313.422 190.231 313.481 190.231 314.271 188.35C314.848 186.99 315.162 186.849 315.174 187.96ZM343.663 188.831C342.974 188.45 341.845 187.77 341.15 187.32C338.863 185.855 337.444 185.56 330.494 185.106C326.704 184.86 323.799 184.993 324.043 185.403C324.286 185.813 328.331 186.869 333.03 187.76C342.79 189.601 345.516 189.881 343.663 188.831ZM256.344 183.67C256.92 183.05 257.395 181.896 257.395 181.103C257.395 179.402 252.934 180.775 249.905 183.41C247.986 185.076 248.093 185.176 251.58 184.992C253.623 184.884 255.768 184.29 256.344 183.67ZM196.605 180.593C197.787 177.952 197.87 177.938 197.894 180.373C197.917 182.643 198.428 182.874 201.903 182.185C209.197 180.736 218.428 179.319 219.907 179.42C220.715 179.475 221.375 178.988 221.375 178.338C221.375 177.687 221.915 177.504 222.575 177.93C224.261 179.021 241.654 175.92 242.581 174.363C243.038 173.593 242.717 171.688 241.779 169.594C240.555 166.858 239.207 165.929 235.494 165.275C232.892 164.817 229.875 163.862 228.794 163.153C221.874 158.631 208.954 157.846 198.832 161.334C197.276 161.869 193.248 161.718 189.88 160.998C183.934 159.728 183.596 159.823 178.232 164.27C175.191 166.791 172.821 169.394 172.957 170.057C173.1 170.719 174.721 174.082 176.563 177.53L179.913 183.799L187.629 183.607C194.282 183.441 195.512 183.028 196.605 180.593ZM194.722 170.481C194.87 169.187 195.559 167.869 196.248 167.552C197.282 167.078 197.3 167.217 196.349 168.336C195.714 169.084 195.452 170.402 195.773 171.264C196.088 172.128 195.921 172.833 195.399 172.833C194.876 172.833 194.573 171.775 194.722 170.481ZM278.75 182.702C281.518 181.931 286.793 181.199 290.475 181.077C296.053 180.892 296.796 180.612 294.907 179.412C293.659 178.62 292.477 176.974 292.281 175.755C291.972 173.827 291.913 173.84 291.83 175.853C291.764 177.389 290.778 178.357 288.895 178.727C285.248 179.443 284.191 178.803 284.209 175.89C284.221 173.857 284.333 173.825 285.034 175.655C285.753 177.536 285.848 177.536 285.872 175.655C285.896 173.774 285.985 173.774 286.709 175.655C287.297 177.193 287.523 177.267 287.535 175.925C287.541 174.908 287.921 174.47 288.385 174.95C288.842 175.429 289.228 174.991 289.234 173.975C289.246 172.48 289.382 172.486 289.953 174.01C290.927 176.597 291.705 173.009 291.836 165.311C291.925 159.856 291.972 159.737 292.513 163.663L293.101 167.895L293.713 162.223C294.633 153.76 295.637 151.613 296.665 155.936C297.461 159.296 297.491 159.31 297.544 156.3C297.58 154.114 297.978 153.415 298.851 153.981C299.546 154.428 300.11 154.158 300.11 153.383C300.11 150.987 298.281 150.581 289.739 151.078C284.512 151.381 280.835 152.28 279.7 153.536C278.661 154.679 276.665 155.258 274.978 154.907L272.049 154.298L274.057 157.023C275.156 158.522 275.809 160.427 275.506 161.255C275.204 162.085 275.762 163.72 276.754 164.889C278.453 166.895 278.477 167.15 277.122 169.429C276.059 171.218 275.762 171.323 275.964 169.834C276.112 168.728 275.34 165.934 274.241 163.626L272.245 159.429L272.715 168.601C272.97 173.645 272.988 176.661 272.762 175.303C272.002 170.793 270.636 172.639 271.194 177.419C271.598 180.829 271.509 181.462 270.855 179.887C270.374 178.724 269.976 178.195 269.97 178.715C269.964 179.233 269.727 180.661 269.448 181.889C268.836 184.585 271.247 184.796 278.75 182.702ZM274.271 172.883C274.366 168.075 274.485 167.537 274.764 170.717C274.96 173.045 275.661 175.458 276.308 176.078C278.013 177.699 277.77 179.283 275.821 179.283C274.372 179.283 274.164 178.413 274.271 172.883ZM280.912 177.889C280.876 176.401 281.072 175.569 281.351 176.037C281.631 176.506 281.66 177.723 281.417 178.742C281.15 179.867 280.954 179.532 280.912 177.889ZM282.652 177.066C282.652 175.126 282.842 174.332 283.074 175.303C283.306 176.272 283.306 177.859 283.074 178.83C282.842 179.799 282.652 179.006 282.652 177.066ZM284.197 167.895C283.116 165.955 282.605 164.368 283.068 164.368C283.526 164.368 284.791 165.955 285.872 167.895C286.953 169.836 287.458 171.422 287.001 171.422C286.537 171.422 285.278 169.836 284.197 167.895ZM290.125 166.602C290.089 165.115 290.285 164.281 290.565 164.75C290.844 165.219 290.873 166.436 290.63 167.454C290.363 168.58 290.167 168.246 290.125 166.602ZM279.243 160.242C278.233 159.166 278.251 158.661 279.35 156.812C280.508 154.861 280.633 154.989 280.633 158.095C280.633 159.993 280.591 161.537 280.532 161.525C280.472 161.513 279.896 160.935 279.243 160.242ZM292.703 155.902C292.703 153.962 292.893 153.169 293.125 154.139C293.356 155.109 293.356 156.696 293.125 157.666C292.893 158.636 292.703 157.842 292.703 155.902ZM152.422 176.583C156.95 173.989 162.162 171.427 164.005 170.889C167.332 169.917 179.497 160.365 179.497 158.722C179.497 158.249 176.165 157.03 172.096 156.013C160.873 153.213 146.377 157.394 136.016 166.419L133.258 168.821L135.138 172.19C136.558 174.735 142.966 181.289 144.044 181.297C144.124 181.298 147.894 179.177 152.422 176.583ZM258.037 177.066C260.139 177.066 260.163 176.987 258.601 174.995C256.629 172.487 255.393 172.221 256.225 174.484C256.623 175.577 256.379 175.845 255.506 175.279C254.716 174.77 253.98 175.311 253.683 176.606C253.326 178.178 253.558 178.55 254.52 177.928C255.251 177.454 256.837 177.066 258.037 177.066ZM320.211 177.066C320.211 176.29 319.855 175.655 319.421 175.655C318.988 175.655 318.4 176.29 318.12 177.066C317.835 177.842 318.186 178.477 318.905 178.477C319.623 178.477 320.211 177.842 320.211 177.066ZM328.539 174.38C328.872 173.477 329.686 173.091 330.357 173.523C331.195 174.067 331.622 173.215 331.747 170.749C331.955 166.461 330.85 166.202 328.587 170.012C327.666 171.564 326.912 172.549 326.912 172.201C326.912 171.854 325.783 172.233 324.399 173.044C323.015 173.856 321.887 175.041 321.887 175.676C321.887 177.425 327.844 176.264 328.539 174.38ZM383.717 173.186C385.582 169.568 385.635 169.544 384.495 172.833L383.277 176.36L392.787 176.505L402.297 176.651V171.329C402.297 163.684 401.65 161.768 398.014 158.645C395.567 156.541 393.91 156.087 391.207 156.781C389.247 157.286 387.263 158.182 386.8 158.773C386.342 159.364 383.889 159.309 381.358 158.651C376.755 157.456 371.807 156.348 366.294 155.277C364.382 154.907 361.097 156.193 356.778 158.997C349.9 163.465 340.586 171.811 341.75 172.465C344.411 173.958 363.473 176.791 371.694 176.915C381.626 177.065 381.727 177.033 383.717 173.186ZM383.871 162.956C383.871 162.181 384.222 161.546 384.655 161.546C385.089 161.546 385.677 162.181 385.962 162.956C386.247 163.733 385.891 164.368 385.178 164.368C384.459 164.368 383.871 163.733 383.871 162.956ZM323.146 170.301C325.908 168.293 329.49 164.968 331.1 162.913C340.55 150.87 358.917 131.539 371.724 120.154C376.517 115.892 372.9 117.836 366.467 122.977C358.555 129.301 348.112 139.704 338.923 150.424C337.004 152.661 335.169 154.492 334.848 154.492C334.527 154.492 332.092 157.241 329.436 160.602C326.781 163.963 322.302 168.168 319.481 169.946C316.659 171.723 314.349 173.778 314.349 174.511C314.349 176.141 316.57 175.079 323.146 170.301ZM441.009 168.323C442.28 165.759 443.224 162.731 443.111 161.595C442.999 160.457 440.094 157.102 436.661 154.138C430.608 148.92 422.398 145.536 415.817 145.542C412.716 145.545 398.151 153.179 398.121 154.816C398.092 157.101 404.887 161.293 413.34 164.195C421.424 166.972 430.073 171.688 431.885 174.308C433.364 176.439 438.74 172.912 441.009 168.323ZM334.39 171.002C334.462 172.976 339.261 172.346 340.538 170.196C341.073 169.295 339.944 168.9 337.289 169.06C333.903 169.264 333.179 169.782 333.006 172.128C332.792 174.95 332.792 174.95 333.559 172.128C333.986 170.576 334.361 170.07 334.39 171.002ZM258.233 170.89C258.233 170.597 257.567 169.485 256.766 168.421C255.435 166.666 255.405 166.716 256.451 168.953C257.544 171.303 258.233 172.051 258.233 170.89ZM271.342 163.288C272.269 158.741 272.233 157.739 271.075 155.906C269.869 153.996 269.78 154.1 270.184 156.961C270.434 158.707 270.297 160.215 269.875 160.312C269.459 160.409 268.646 160.588 268.069 160.711C267.493 160.834 266.781 160.345 266.483 159.625C265.854 158.112 263.258 159.442 263.258 161.276C263.258 162.85 269.311 170.156 269.857 169.238C270.083 168.858 270.748 166.18 271.342 163.288ZM266.834 163.516C267.113 163.047 267.832 162.997 268.438 163.404C269.109 163.854 268.907 164.189 267.933 164.256C267.048 164.317 266.555 163.984 266.834 163.516ZM258.577 165.275C258.286 164 257.692 162.956 257.253 162.956C256.813 162.956 256.676 162.359 256.944 161.629C257.615 159.794 251.069 149.464 247.416 146.59C245.759 145.292 240.264 140.899 235.197 136.828C227.237 130.436 216.569 123.655 200.014 114.474C192.167 110.118 193.29 112.264 201.689 117.665C211.051 123.681 216.331 127.635 227.303 136.831C231.586 140.424 235.411 142.771 236.249 142.318C237.294 141.753 237.401 141.898 236.641 142.827C235.833 143.801 236.094 144.532 237.686 145.751C238.969 146.735 239.801 146.832 239.801 145.996C239.801 145.236 240.222 144.615 240.727 144.615C241.238 144.615 241.458 145.487 241.214 146.554C240.953 147.702 241.684 149.27 243.008 150.401C244.238 151.452 246.751 153.86 248.592 155.753C250.433 157.645 252.388 159.194 252.946 159.194C253.499 159.194 253.873 159.61 253.784 160.117C253.611 161.098 258.488 168.627 258.88 167.977C259.005 167.766 258.868 166.551 258.577 165.275ZM318.72 166.131C321.168 161.407 321.916 157.667 321.096 154.244C320.669 152.44 320.295 151.795 320.265 152.812C320.235 153.827 319.837 154.265 319.374 153.786C318.916 153.307 318.536 153.54 318.536 154.304C318.536 155.07 319.196 155.915 320.004 156.185C321.203 156.586 320.906 157.657 318.328 162.148C316.6 165.159 315.186 167.842 315.186 168.112C315.186 169.608 317.627 168.242 318.72 166.131ZM247.861 162.031C247.463 161.184 241.898 160.495 240.858 161.164C240.003 161.719 240.799 162.762 243.252 164.308C246.549 166.386 246.976 166.4 247.446 164.436C247.731 163.235 247.921 162.152 247.861 162.031ZM312.258 165.779C311.973 165.003 312.418 164.317 313.25 164.256C314.129 164.192 314.331 163.846 313.719 163.434C312.602 162.673 312.246 160.022 313.303 160.302C316.469 161.145 318.394 157.193 315.667 155.433C314.028 154.374 310.363 164.241 311.616 166.346C312.412 167.688 312.822 167.324 312.258 165.779ZM142.378 158.635C144.846 157.205 150.99 154.968 156.031 153.664L165.195 151.294L161.345 143.698L157.493 136.104L153.209 136.956C136.227 140.336 129.415 143.812 125.935 150.876C124.549 153.69 126.476 159.058 130.264 162.939C132.67 165.405 133.062 165.442 135.38 163.423C136.761 162.22 139.91 160.066 142.378 158.635ZM327.749 160.285C329.365 158.263 330.808 156.131 330.963 155.55C331.117 154.968 331.622 154.492 332.086 154.492C332.549 154.492 333.933 153.158 335.157 151.528C338.626 146.912 359.214 126.811 367.12 120.323C371.035 117.11 378.763 111.77 384.287 108.46C394.985 102.052 395.828 100.014 385.451 105.649C371.474 113.239 353.535 125.91 346.728 133.001C344.952 134.846 340.621 138.951 337.093 142.124C326.71 151.469 324.732 153.96 322.825 160.133L321.013 165.989L322.914 164.976C323.96 164.418 326.14 162.307 327.749 160.285ZM349.128 159.33C354.206 156.01 359.487 152.831 360.853 152.263C362.225 151.696 368.344 147.179 374.444 142.227C384.596 133.99 385.701 132.715 387.417 127.279C390.393 117.835 390.667 115.172 388.819 113.508C386.01 110.976 376.993 116.756 363.063 130.022C352.187 140.373 342.902 150.922 342.861 152.963C342.843 154.062 342.588 154.556 342.291 154.058C341.4 152.56 336.962 157.745 336.962 160.283C336.962 161.611 336.362 162.557 335.59 162.447C334.83 162.34 334.064 162.971 333.874 163.851C333.161 167.254 340.2 165.168 349.128 159.33ZM238.233 160.748L240.769 158.539L238.904 155.81C237.876 154.308 236.563 153.081 235.993 153.081C235.423 153.081 234.728 152.088 234.455 150.874C234.175 149.662 233.611 149.023 233.195 149.456C232.78 149.889 232.215 149.266 231.948 148.074C231.562 146.378 231.087 146.233 229.786 147.408C228.461 148.598 228.206 148.506 228.556 146.973C228.806 145.883 228.075 144.013 226.893 142.708C224.374 139.929 223.596 139.759 224.333 142.146C224.63 143.116 224.178 142.535 223.335 140.855C222.485 139.174 217.834 134.591 212.999 130.671C204.647 123.899 202.159 121.089 208.419 125.496C210.017 126.62 211.324 127.223 211.324 126.835C211.324 125.197 205.2 121.917 204.463 123.16C203.982 123.97 201.945 123.396 199.153 121.663C194.87 119.006 194.466 118.981 191.71 121.187L188.787 123.519L190.54 128.517C191.817 132.164 193.789 134.698 197.828 137.889C200.875 140.294 205.437 144.877 207.974 148.074C212.369 153.62 218.226 156.826 233.522 162.057C234.443 162.372 235.31 162.703 235.447 162.793C235.583 162.883 236.837 161.963 238.233 160.748ZM236.165 158.091C235.856 156.724 236.1 156.307 236.914 156.831C238.238 157.687 238.583 160.135 237.377 160.135C236.967 160.135 236.421 159.215 236.165 158.091ZM231.425 153.081C231.425 152.304 231.592 151.67 231.794 151.67C232.001 151.67 232.399 152.304 232.685 153.081C232.97 153.856 232.803 154.492 232.316 154.492C231.823 154.492 231.425 153.856 231.425 153.081ZM451.249 151.501C453.423 147.15 453.447 146.911 451.98 144.441C450.067 141.227 438.193 133.943 431.35 131.786C421.781 128.769 421.591 128.785 420.705 132.707C418.442 142.719 418.347 142.47 425.517 145.064C432.437 147.569 444.175 156.152 444.175 158.705C444.175 161.145 448.772 156.466 451.249 151.501ZM203.958 157.088C207.511 156.178 210.195 154.842 209.928 154.118C208.99 151.545 196.842 138.971 195.304 138.971C194.252 138.971 193.712 140.024 193.67 142.146C193.611 145.066 193.539 145.016 192.779 141.522C192.096 138.375 191.205 137.487 187.611 136.341C185.217 135.581 181.944 134.523 180.335 133.989C166.399 129.381 166.292 129.371 162.8 132.362C158.93 135.671 159.057 136.621 164.564 145.558C167.89 150.952 168.882 151.675 176.563 154.303C191.092 159.271 194.205 159.589 203.958 157.088ZM400.2 150.458C403.889 148.199 409.093 145.533 411.772 144.533C417.106 142.543 419.048 138.86 419.048 130.757C419.048 127.026 418.71 126.525 415.49 125.49C410.809 123.985 409.217 124.293 399.785 128.529C389.906 132.966 381.75 138.986 383.236 140.738C383.913 141.533 383.628 141.668 382.457 141.114C380.016 139.961 366.675 150.076 367.904 152.147C369.371 154.617 375.555 155.714 384.709 155.128C391.76 154.676 394.831 153.751 400.2 150.458ZM383.871 151.753C383.871 150.931 384.245 150.259 384.709 150.259C385.166 150.259 385.546 150.539 385.546 150.881C385.546 151.224 385.166 151.896 384.709 152.375C384.245 152.855 383.871 152.574 383.871 151.753ZM273.618 151.74C275.055 150.819 275.803 150.89 276.017 151.966C276.231 153.038 276.79 153.094 277.799 152.142C279.112 150.906 279.136 150.554 278.001 148.967C276.997 147.568 276.083 147.538 273.76 148.83C272.127 149.736 270.796 151.064 270.796 151.779C270.796 153.402 271.028 153.399 273.618 151.74ZM309.323 150.239C309.323 149.127 305.403 147.291 301.785 146.711C301.096 146.6 299.914 146.4 299.16 146.268C298.405 146.135 297.152 144.386 296.374 142.379C295.079 139.053 295.067 138.517 296.273 136.272C297.687 133.645 298.108 129.81 296.837 131.13C296.421 131.565 296.261 130.722 296.493 129.257C296.718 127.791 296.493 126.165 295.994 125.644C295.495 125.122 295.085 125.352 295.085 126.155C295.085 127.141 294.384 127.165 292.917 126.228C291.729 125.466 290.404 125.208 289.976 125.656C289.543 126.103 288.165 126.775 286.905 127.15C283.413 128.189 281.47 132.112 282.159 136.729C282.569 139.478 282.991 140.153 283.632 139.074C285.931 135.204 285.664 138.165 283.258 143.204C281.779 146.308 280.817 149.27 281.126 149.788C281.429 150.306 281.684 150.008 281.684 149.127C281.684 148.247 282.248 147.891 282.937 148.338C283.674 148.812 284.203 148.354 284.209 147.235C284.221 145.758 284.405 145.804 285.034 147.437C285.622 148.975 285.848 149.048 285.86 147.707C285.866 146.691 286.246 146.252 286.709 146.732C287.167 147.211 287.547 146.894 287.547 146.027C287.547 145.158 287.921 144.841 288.385 145.321C288.872 145.826 289.222 144.445 289.222 142.027C289.222 139.618 289.751 137.519 290.481 137.046C291.497 136.39 291.681 137.253 291.426 141.481C291.254 144.369 291.289 145.467 291.509 143.921C291.854 141.469 292.044 141.648 293.006 145.332C293.873 148.645 294.129 148.946 294.194 146.732C294.259 144.383 294.408 144.265 295.085 146.027C295.53 147.19 295.905 147.628 295.911 147.001C295.917 146.373 296.392 146.356 296.968 146.961C298.619 148.698 300.288 149.216 303.704 149.054C305.789 148.956 307.036 149.617 307.351 150.984C307.832 153.102 309.323 152.539 309.323 150.239ZM293.077 136.385C292.81 135.655 293.362 134.72 294.301 134.305C295.346 133.845 295.899 134.162 295.709 135.114C295.287 137.236 293.677 138.016 293.077 136.385ZM284.696 132.482C284.399 131.173 284.345 129.785 284.577 129.397C284.803 129.009 285.236 129.762 285.533 131.071C285.836 132.379 285.89 133.767 285.658 134.156C285.426 134.543 284.999 133.79 284.696 132.482ZM127.011 145.565C131.169 140.811 137.582 137.809 148.292 135.599C154.141 134.394 158.557 132.725 159.939 131.2L162.166 128.742L159.574 126.907C154.918 123.609 144.508 122.909 138.452 125.487C131.576 128.413 120.001 135.941 118.35 138.559C117.243 140.315 117.419 141.045 119.829 144.7C123.125 149.697 123.37 149.727 127.011 145.565ZM258.904 143.793C259.118 141.512 259.011 141.42 258.239 143.204C257.55 144.792 257.461 143.647 257.87 138.619C258.215 134.401 258.102 131.917 257.567 131.917C257.098 131.917 256.908 130.648 257.152 129.096C257.407 127.455 257.175 126.273 256.605 126.273C256.059 126.273 255.791 125.798 255.999 125.215C256.207 124.633 255.851 123.331 255.197 122.322C253.291 119.348 252.928 123.464 254.336 132.104C255.013 136.27 255.803 141.468 256.094 143.657C256.671 148.03 258.494 148.118 258.904 143.793ZM280.68 145.744C282.094 143.361 281.928 136.611 280.437 135.645C279.231 134.867 279.047 135.559 277.942 144.968C277.609 147.799 279.189 148.247 280.68 145.744ZM276.296 144.458C276.611 143.595 276.54 142.483 276.136 141.988C275.732 141.493 275.364 140.294 275.316 139.325C275.114 135.113 274.883 134.665 273.095 135.079C269.572 135.896 267.392 140.382 270.517 140.382C271.283 140.382 271.681 140.767 271.402 141.239C270.63 142.539 272.697 145.911 274.307 145.973C275.085 146.002 275.982 145.32 276.296 144.458ZM300.876 134.508L299.861 131.316L299.172 134.439C298.797 136.156 298.097 137.561 297.621 137.561C297.146 137.561 296.76 138.233 296.76 139.054C296.76 139.877 297.134 140.157 297.598 139.677C298.055 139.198 298.441 139.636 298.447 140.652C298.459 142.146 298.595 142.139 299.166 140.616C299.7 139.199 300.039 139.547 300.532 142.027C301.179 145.305 301.185 145.302 301.536 141.511C301.732 139.415 301.429 136.264 300.876 134.508ZM308.836 134.614C307.096 131.369 303.888 130.897 304.589 133.988C304.85 135.127 304.642 136.495 304.132 137.028C303.532 137.656 303.443 137.345 303.876 136.15C304.328 134.918 304.227 134.643 303.573 135.324C303.039 135.886 302.813 136.946 303.086 137.682C303.353 138.416 303.924 138.652 304.357 138.206C304.785 137.76 305.136 138.462 305.136 139.767C305.136 141.715 305.361 141.825 306.389 140.382C307.422 138.939 307.648 139.049 307.648 140.999C307.648 142.303 308.022 142.979 308.486 142.498C308.949 142.019 309.377 142.458 309.448 143.474C309.519 144.49 309.733 143.518 309.929 141.316C310.155 138.801 309.745 136.308 308.836 134.614ZM323.562 140.216C323.562 139.44 323.187 139.198 322.724 139.677C322.267 140.157 321.887 141.184 321.887 141.96C321.887 142.736 322.267 142.979 322.724 142.498C323.187 142.019 323.562 140.992 323.562 140.216ZM456.073 141.725C458.009 140.237 462.221 130.805 461.496 129.583C461.282 129.223 458.294 127.773 454.855 126.36C451.416 124.946 446.384 122.154 443.67 120.153C440.955 118.154 438.169 116.373 437.474 116.196C436.221 115.876 428.493 117.539 425.333 118.812C424.406 119.182 422.048 119.96 420.088 120.542C418.128 121.122 416.298 121.971 416.025 122.429C415.389 123.497 421.947 126.769 430.875 129.835C438.134 132.328 451.528 139.672 452.93 141.924C453.91 143.501 453.75 143.511 456.073 141.725ZM324.399 135.444C324.399 134.281 324.084 133.328 323.704 133.328C323.318 133.328 323.003 134.281 323.003 135.444C323.003 136.608 323.318 137.561 323.704 137.561C324.084 137.561 324.399 136.608 324.399 135.444ZM121.831 132.138C126.351 128.726 135.495 124.206 143.477 121.436C144.672 121.022 146.01 119.097 146.592 116.955L147.613 113.198L139.473 114.047C128.515 115.188 121.168 117.348 116.893 120.682C114.94 122.206 112.773 123.451 112.077 123.451C111.381 123.451 110.811 124.065 110.811 124.813C110.811 126.053 115.668 136.15 116.264 136.15C116.404 136.15 118.909 134.345 121.831 132.138ZM190.385 134.244C190.385 133.971 189.981 131.809 189.494 129.439C188.413 124.233 186.192 122.552 177.822 120.605C174.365 119.801 167.956 118.185 163.584 117.015C159.205 115.843 154.729 114.662 153.636 114.392C152.263 114.052 151.525 114.693 151.25 116.462C151.031 117.871 150.362 118.707 149.764 118.319C149.164 117.932 148.432 118.275 148.137 119.082C147.841 119.887 148.462 120.844 149.518 121.207C150.573 121.57 154.64 122.94 158.556 124.252C193.456 135.939 190.385 134.975 190.385 134.244ZM324.815 129.108C325.878 123.48 326.092 119.219 325.308 119.219C324.464 119.219 323.876 121.706 323.229 128.037C322.778 132.487 324.019 133.327 324.815 129.108ZM396.226 127.541C398.644 126.151 400.622 125.253 400.622 125.546C400.622 125.838 401.846 125.456 403.343 124.698C404.84 123.94 412.633 121.123 420.658 118.437C428.683 115.753 435.366 113.371 435.496 113.145C435.633 112.919 434.772 110.975 433.589 108.826C431.528 105.085 431.202 104.956 425.873 105.834C417.813 107.162 399.856 112.065 396.434 113.871C393.387 115.48 392.264 117.417 389.11 126.536L387.227 131.967L389.526 131.017C390.791 130.493 393.803 128.93 396.226 127.541ZM214.674 129.096C213.985 128.343 213.041 127.728 212.583 127.728C212.12 127.728 212.31 128.343 212.999 129.096C213.688 129.847 214.633 130.463 215.096 130.463C215.553 130.463 215.363 129.847 214.674 129.096ZM464.288 123.099C466.658 116.547 466.45 112.434 463.652 110.572C462.381 109.728 460.694 108.473 459.892 107.78C459.09 107.088 457.694 106.52 456.785 106.52C455.877 106.52 451.879 105.243 447.899 103.682C441.965 101.351 440.106 101.126 437.528 102.429L434.385 104.016L436.975 108.661C439.904 113.91 446.646 119.424 455.9 124.142C459.357 125.903 462.286 127.421 462.405 127.515C462.53 127.608 463.373 125.621 464.288 123.099ZM437.112 106.935C436.655 104.923 436.75 104.761 437.581 106.144C438.151 107.102 438.407 108.24 438.151 108.675C437.896 109.109 437.427 108.325 437.112 106.935ZM240.312 118.19C240.032 117.721 239.83 118.554 239.866 120.042C239.908 121.685 240.11 122.019 240.377 120.895C240.615 119.876 240.585 118.659 240.312 118.19ZM116.592 117.866C118.882 116.345 124.832 114.436 129.815 113.623C134.798 112.809 140.382 111.746 142.225 111.261C145.267 110.461 145.395 110.267 143.614 109.153C142.534 108.479 141.251 108.343 140.762 108.853C140.239 109.397 140.118 109.108 140.47 108.149C141.228 106.084 128.654 105.896 122.792 107.885C120.581 108.636 116.991 109.541 114.813 109.898C109.992 110.688 109.076 111.539 109.676 114.678C109.93 116.012 110.279 117.896 110.45 118.867C110.871 121.241 111.715 121.104 116.592 117.866ZM189.542 119.256C191.253 117.43 189.987 115.791 185.164 113.608C182.853 112.561 181.422 111.206 181.737 110.36C182.028 109.56 181.885 109.307 181.416 109.796C180.941 110.285 176.218 108.853 170.92 106.612C157.598 100.985 151.053 100.015 148.899 103.346C147.991 104.748 146.544 105.659 145.683 105.368C144.709 105.039 144.333 105.422 144.686 106.385C144.998 107.236 145.823 107.931 146.52 107.931C147.217 107.931 148.33 108.847 148.993 109.964C149.657 111.082 151.797 112.324 153.75 112.724C158.697 113.737 174.953 117.785 179.497 119.133C184.909 120.741 188.11 120.78 189.542 119.256ZM338.637 113.576C339.725 112.397 339.701 112.205 338.477 112.186C337.699 112.174 336.832 112.799 336.547 113.576C335.887 115.361 336.998 115.361 338.637 113.576ZM192.06 110.754C191.371 110.001 190.047 109.439 189.126 109.505C187.748 109.603 187.819 109.823 189.548 110.754C192.506 112.351 193.528 112.351 192.06 110.754ZM410.251 107.283C416.702 105.36 425.113 103.197 428.944 102.478C435.954 101.162 439.013 99.4843 434.475 99.4442C432.799 99.4302 432.384 99.044 433.156 98.2205C433.987 97.332 433.714 96.7777 432.11 96.0983C430.916 95.5933 429.936 94.5282 429.936 93.7318C429.936 92.8509 428.707 92.6106 426.794 93.1182C415.781 96.0452 412.063 97.2259 406.253 99.6494C396.286 103.808 392.359 107.653 394.462 111.198C394.765 111.701 395.799 111.813 396.767 111.447C397.735 111.081 403.806 109.207 410.251 107.283ZM185.36 107.931C184.665 107.18 183.162 106.629 182.01 106.709C180.079 106.844 180.109 106.938 182.426 107.931C186.049 109.483 186.786 109.483 185.36 107.931ZM389.051 108.378C388.445 107.971 387.726 108.021 387.447 108.491C387.168 108.959 387.661 109.292 388.546 109.231C389.52 109.164 389.722 108.829 389.051 108.378ZM468.713 106.386C469.176 105.149 469.307 102.499 469.01 100.5C468.297 95.7219 465.001 94.0924 455.942 94.0462C452.051 94.0263 447.073 93.5943 444.882 93.0863C442.69 92.5782 439.726 92.5955 438.294 93.1246L435.692 94.0867L438.888 96.6456C440.646 98.0534 445.874 100.481 450.507 102.042C455.14 103.602 460.225 105.843 461.811 107.023C465.303 109.614 467.59 109.403 468.713 106.386ZM118.35 106.583C123.965 105.25 139.13 103.329 142.39 103.538C144.459 103.671 145.543 101.671 144.679 99.3152C144.279 98.2255 143.88 98.3326 143.358 99.6684C142.743 101.242 142.469 101.183 141.82 99.3382C140.742 96.2714 126.425 95.8156 120.182 98.6488C115.423 100.808 111.649 104.305 111.649 106.553C111.649 108.205 111.52 108.204 118.35 106.583ZM126.098 94.2382C125.061 93.9019 123.365 93.9019 122.329 94.2382C121.292 94.5745 122.14 94.8496 124.214 94.8496C126.287 94.8496 127.134 94.5745 126.098 94.2382ZM328.286 376.714C328.024 375.553 328.167 374.593 328.618 374.593C329.064 374.593 329.426 375.553 329.426 376.714C329.426 377.875 329.278 378.825 329.1 378.825C328.915 378.825 328.553 377.875 328.286 376.714ZM275.645 128.328C273.037 123.052 271.214 120.636 269.847 120.636C269.039 120.636 268.148 120.001 267.863 119.225C267.578 118.449 266.069 117.814 264.513 117.814C261.163 117.814 260.224 116.061 262.149 113.388C263.23 111.879 263.604 111.847 263.884 113.237C264.08 114.212 264.602 114.63 265.048 114.166C266.26 112.902 274.706 120.308 276.548 124.251C277.433 126.142 278.573 127.691 279.084 127.691C279.595 127.691 280.011 128.325 280.011 129.102C280.011 131.313 276.845 130.753 275.645 128.328ZM305.69 118.593C305.048 115.77 309.872 112.198 312.972 113.197C315.33 113.955 316.085 117.814 313.881 117.814C313.061 117.814 312.812 117.161 313.204 116.05C313.596 114.948 313.281 115.046 312.354 116.312C311.166 117.938 310.739 117.981 310.21 116.526C309.699 115.145 309.147 115.436 307.864 117.749C306.444 120.321 306.111 120.45 305.69 118.593Z" fill="#CAC8C8"/>
<path d="M15.3518 484.985L33.9553 484.985L15.3509 470L15.3518 484.985Z" fill="#D9D9D9"/>
<path d="M20.7167 8.44867L20.5674 26L39.0678 8.27549L20.7167 8.44867Z" fill="#D9D9D9"/>
<path d="M356.567 468L333.567 484H38.5674L17.0674 467.405V5H207.067L230.067 17.1096" stroke="#9F9DFF" stroke-width="3"/>
<path d="M74.3019 129.072C74.2779 129.336 74.2539 129.6 74.2299 129.864C74.2059 130.128 74.1699 130.392 74.1219 130.656C73.9779 131.712 73.6659 132.696 73.1859 133.608C72.7059 134.496 72.0939 135.264 71.3499 135.912C70.6059 136.56 69.7539 137.076 68.7939 137.46C67.8579 137.82 66.8619 138 65.8059 138H48.4539C47.3979 138 46.3899 137.82 45.4299 137.46C44.4939 137.076 43.6539 136.56 42.9099 135.912C42.1659 135.264 41.5539 134.496 41.0739 133.608C40.5939 132.696 40.2819 131.724 40.1379 130.692C39.7299 127.86 39.7299 125.04 40.1379 122.232C40.2819 121.176 40.5939 120.204 41.0739 119.316C41.5539 118.428 42.1659 117.66 42.9099 117.012C43.6539 116.364 44.4939 115.86 45.4299 115.5C46.3899 115.116 47.3979 114.924 48.4539 114.924H65.8059C66.8619 114.924 67.8579 115.116 68.7939 115.5C69.7539 115.86 70.6059 116.364 71.3499 117.012C72.0939 117.66 72.7059 118.428 73.1859 119.316C73.6659 120.204 73.9779 121.176 74.1219 122.232C74.1699 122.496 74.2059 122.76 74.2299 123.024C74.2539 123.288 74.2779 123.552 74.3019 123.816H63.6819V123.744C63.5379 123 63.1779 122.4 62.6019 121.944C62.0259 121.464 61.3539 121.224 60.5859 121.224H52.6299C51.8619 121.224 51.1899 121.464 50.6139 121.944C50.0379 122.4 49.6779 123 49.5339 123.744C49.1739 125.544 49.1739 127.356 49.5339 129.18C49.7019 129.924 50.0619 130.536 50.6139 131.016C51.1899 131.472 51.8619 131.7 52.6299 131.7H60.5859C61.3539 131.7 62.0259 131.472 62.6019 131.016C63.1779 130.536 63.5379 129.924 63.6819 129.18V129.072H74.3019ZM52.4536 179V155.924H61.5256V179H52.4536ZM74.3019 211.072C74.2779 211.336 74.2539 211.6 74.2299 211.864C74.2059 212.128 74.1699 212.392 74.1219 212.656C73.9779 213.712 73.6659 214.696 73.1859 215.608C72.7059 216.496 72.0939 217.264 71.3499 217.912C70.6059 218.56 69.7539 219.076 68.7939 219.46C67.8579 219.82 66.8619 220 65.8059 220H48.4539C47.3979 220 46.3899 219.82 45.4299 219.46C44.4939 219.076 43.6539 218.56 42.9099 217.912C42.1659 217.264 41.5539 216.496 41.0739 215.608C40.5939 214.696 40.2819 213.724 40.1379 212.692C39.7299 209.86 39.7299 207.04 40.1379 204.232C40.2819 203.176 40.5939 202.204 41.0739 201.316C41.5539 200.428 42.1659 199.66 42.9099 199.012C43.6539 198.364 44.4939 197.86 45.4299 197.5C46.3899 197.116 47.3979 196.924 48.4539 196.924H65.8059C66.8619 196.924 67.8579 197.116 68.7939 197.5C69.7539 197.86 70.6059 198.364 71.3499 199.012C72.0939 199.66 72.7059 200.428 73.1859 201.316C73.6659 202.204 73.9779 203.176 74.1219 204.232C74.1699 204.496 74.2059 204.76 74.2299 205.024C74.2539 205.288 74.2779 205.552 74.3019 205.816H63.6819V205.744C63.5379 205 63.1779 204.4 62.6019 203.944C62.0259 203.464 61.3539 203.224 60.5859 203.224H52.6299C51.8619 203.224 51.1899 203.464 50.6139 203.944C50.0379 204.4 49.6779 205 49.5339 205.744C49.1739 207.544 49.1739 209.356 49.5339 211.18C49.7019 211.924 50.0619 212.536 50.6139 213.016C51.1899 213.472 51.8619 213.7 52.6299 213.7H60.5859C61.3539 213.7 62.0259 213.472 62.6019 213.016C63.1779 212.536 63.5379 211.924 63.6819 211.18V211.072H74.3019ZM76.2435 261H65.1195L62.9955 257.076H51.0075L48.8475 261H37.7595L52.4835 237.924H61.5195L76.2435 261ZM60.1155 251.856L56.9835 246.132L53.8875 251.856H60.1155ZM74.184 286.232C74.544 289.064 74.544 291.872 74.184 294.656C74.04 295.712 73.728 296.696 73.248 297.608C72.768 298.496 72.156 299.264 71.412 299.912C70.668 300.56 69.816 301.076 68.856 301.46C67.896 301.82 66.888 302 65.832 302H40.272V278.924H65.832C66.888 278.924 67.896 279.116 68.856 279.5C69.816 279.86 70.668 280.364 71.412 281.012C72.156 281.66 72.768 282.428 73.248 283.316C73.728 284.204 74.04 285.176 74.184 286.232ZM64.752 293.18C65.16 291.356 65.16 289.544 64.752 287.744C64.608 287 64.248 286.4 63.672 285.944C63.096 285.464 62.436 285.224 61.692 285.224H49.344V295.7H61.692C62.436 295.7 63.096 295.472 63.672 295.016C64.248 294.536 64.608 293.924 64.752 293.18ZM76.2435 343H65.1195L62.9955 339.076H51.0075L48.8475 343H37.7595L52.4835 319.924H61.5195L76.2435 343ZM60.1155 333.856L56.9835 328.132L53.8875 333.856H60.1155Z" fill="white"/>
</svg>
