<svg width="607" height="136" viewBox="0 0 607 136" fill="none" xmlns="http://www.w3.org/2000/svg">
<path d="M203.766 61.6H218.516C218.466 62.35 218.416 63.1 218.316 63.8C217.566 69.65 212.616 74 206.716 74H182.616C176.766 74 171.816 69.65 171.066 63.85C170.516 59.95 170.516 56 171.066 52.1C171.816 46.3 176.766 41.95 182.616 41.95H206.716C212.566 41.95 217.516 46.3 218.266 52.1C218.366 52.85 218.466 53.6 218.516 54.3H203.766C203.766 54.3 203.766 54.25 203.766 54.2C203.366 52.15 201.566 50.7 199.466 50.7C195.666 50.7 192.216 50.7 188.366 50.7C186.316 50.7 184.516 52.15 184.116 54.2C183.566 56.7 183.616 59.25 184.116 61.75C184.516 63.8 186.316 65.25 188.416 65.25C192.216 65.25 195.666 65.25 199.466 65.25C201.566 65.25 203.366 63.8 203.766 61.75C203.766 61.7 203.766 61.65 203.766 61.6ZM236.855 74H224.255V41.95H236.855V74ZM275.934 61.6H290.684C290.634 62.35 290.584 63.1 290.484 63.8C289.734 69.65 284.784 74 278.884 74H254.784C248.934 74 243.984 69.65 243.234 63.85C242.684 59.95 242.684 56 243.234 52.1C243.984 46.3 248.934 41.95 254.784 41.95H278.884C284.734 41.95 289.684 46.3 290.434 52.1C290.534 52.85 290.634 53.6 290.684 54.3H275.934C275.934 54.3 275.934 54.25 275.934 54.2C275.534 52.15 273.734 50.7 271.634 50.7C267.834 50.7 264.384 50.7 260.534 50.7C258.484 50.7 256.684 52.15 256.284 54.2C255.734 56.7 255.784 59.25 256.284 61.75C256.684 63.8 258.484 65.25 260.584 65.25C264.384 65.25 267.834 65.25 271.634 65.25C273.734 65.25 275.534 63.8 275.934 61.75C275.934 61.7 275.934 61.65 275.934 61.6ZM324.371 41.95L344.821 74H329.371L326.421 68.55H309.771L306.771 74H291.371L311.821 41.95H324.371ZM313.771 61.3H322.421L318.071 53.35L313.771 61.3ZM395.867 52.1C396.367 56 396.367 59.95 395.867 63.8C395.117 69.65 390.167 74 384.267 74H348.767V41.95H384.267C390.167 41.95 395.117 46.3 395.867 52.1ZM382.767 61.75C383.317 59.25 383.317 56.7 382.767 54.2C382.367 52.15 380.567 50.7 378.517 50.7C376.167 50.7 366.817 50.7 361.367 50.7V65.25H378.517C380.567 65.25 382.367 63.8 382.767 61.75ZM429.888 41.95L450.338 74H434.888L431.938 68.55H415.288L412.288 74H396.888L417.338 41.95H429.888ZM419.288 61.3H427.938L423.588 53.35L419.288 61.3Z" fill="white"/>
<g filter="url(#filter0_d_317_136)">
<g filter="url(#filter1_d_317_136)">
<path d="M272 13.4437L484.929 13.4437H593.908V88.5L569.358 106.727H305.893H96.9174H42.5L24 85" stroke="#7839EE" stroke-width="3"/>
</g>
<g filter="url(#filter2_d_317_136)">
<path d="M416.07 110.637L399 123H34.5L9.49591 92.5V52.75V13.5L235.5 13L272 13.5" stroke="#7839EE" stroke-width="3"/>
</g>
</g>
<defs>
<filter id="filter0_d_317_136" x="3.99609" y="11.5" width="595.412" height="121" filterUnits="userSpaceOnUse" color-interpolation-filters="sRGB">
<feFlood flood-opacity="0" result="BackgroundImageFix"/>
<feColorMatrix in="SourceAlpha" type="matrix" values="0 0 0 0 0 0 0 0 0 0 0 0 0 0 0 0 0 0 127 0" result="hardAlpha"/>
<feOffset dy="4"/>
<feGaussianBlur stdDeviation="2"/>
<feComposite in2="hardAlpha" operator="out"/>
<feColorMatrix type="matrix" values="0 0 0 0 0 0 0 0 0 0 0 0 0 0 0 0 0 0 0.25 0"/>
<feBlend mode="normal" in2="BackgroundImageFix" result="effect1_dropShadow_317_136"/>
<feBlend mode="normal" in="SourceGraphic" in2="effect1_dropShadow_317_136" result="shape"/>
</filter>
<filter id="filter1_d_317_136" x="11.8574" y="4.94366" width="594.551" height="118.284" filterUnits="userSpaceOnUse" color-interpolation-filters="sRGB">
<feFlood flood-opacity="0" result="BackgroundImageFix"/>
<feColorMatrix in="SourceAlpha" type="matrix" values="0 0 0 0 0 0 0 0 0 0 0 0 0 0 0 0 0 0 127 0" result="hardAlpha"/>
<feOffset dy="4"/>
<feGaussianBlur stdDeviation="5.5"/>
<feComposite in2="hardAlpha" operator="out"/>
<feColorMatrix type="matrix" values="0 0 0 0 0.407843 0 0 0 0 0.184314 0 0 0 0 0.929412 0 0 0 1 0"/>
<feBlend mode="normal" in2="BackgroundImageFix" result="effect1_dropShadow_317_136"/>
<feBlend mode="normal" in="SourceGraphic" in2="effect1_dropShadow_317_136" result="shape"/>
</filter>
<filter id="filter2_d_317_136" x="0.996094" y="0.499969" width="430.954" height="135" filterUnits="userSpaceOnUse" color-interpolation-filters="sRGB">
<feFlood flood-opacity="0" result="BackgroundImageFix"/>
<feColorMatrix in="SourceAlpha" type="matrix" values="0 0 0 0 0 0 0 0 0 0 0 0 0 0 0 0 0 0 127 0" result="hardAlpha"/>
<feOffset dx="4"/>
<feGaussianBlur stdDeviation="5.5"/>
<feComposite in2="hardAlpha" operator="out"/>
<feColorMatrix type="matrix" values="0 0 0 0 0.407843 0 0 0 0 0.184314 0 0 0 0 0.929412 0 0 0 1 0"/>
<feBlend mode="normal" in2="BackgroundImageFix" result="effect1_dropShadow_317_136"/>
<feBlend mode="normal" in="SourceGraphic" in2="effect1_dropShadow_317_136" result="shape"/>
</filter>
</defs>
</svg>
