<svg width="211" height="211" viewBox="0 0 211 211" fill="none" xmlns="http://www.w3.org/2000/svg">
<rect width="211" height="211" rx="105.5" fill="#474C78" fill-opacity="0.68"/>
<circle cx="40" cy="100" r="14" stroke="#7839EE" stroke-width="4"/>
<circle cx="48" cy="112" r="14" stroke="#7839EE" stroke-width="4"/>
<path d="M75.9502 115.909H80.4802V94.9088H75.9502V115.909Z" fill="white"/>
<path d="M82.4677 115.909H86.6677V107.629C86.6677 105.679 87.9577 104.269 89.7877 104.269C91.5277 104.269 92.6977 105.589 92.6977 107.419V115.909H96.8977V106.489C96.8977 103.009 94.6777 100.549 91.2577 100.549C89.1877 100.549 87.5077 101.419 86.6677 102.889V100.789H82.4677V115.909Z" fill="white"/>
<path d="M99.9392 96.3187V100.789H97.0292V104.269H99.9392V110.419C99.9392 113.929 102.189 115.909 105.669 115.909H108.159V112.399H106.239C104.889 112.399 104.109 111.709 104.109 110.239V104.269H108.159V100.789H104.109V96.3187H99.9392Z" fill="white"/>
<path d="M118.757 110.779C118.427 112.069 117.317 112.729 115.637 112.729C113.537 112.729 112.187 111.409 111.887 109.279H122.747C122.777 108.949 122.807 108.499 122.807 107.929C122.807 104.479 120.677 100.549 115.337 100.549C110.207 100.549 107.867 104.479 107.867 108.319C107.867 112.129 110.507 116.149 115.637 116.149C119.357 116.149 122.237 114.049 122.837 110.779H118.757ZM115.337 103.609C117.347 103.609 118.517 104.959 118.637 106.639H111.947C112.307 104.539 113.447 103.609 115.337 103.609Z" fill="white"/>
<path d="M133.302 104.269V100.789H131.592C129.762 100.789 128.622 101.419 127.812 103.309V100.789H123.612V115.909H127.812V108.559C127.812 105.979 128.742 104.269 130.812 104.269H133.302Z" fill="white"/>
<path d="M133.983 115.909H138.153V94.2188H133.983V115.909Z" fill="white"/>
<path d="M147.148 116.149C151.798 116.149 155.128 112.849 155.128 108.349C155.128 103.849 151.798 100.549 147.148 100.549C142.498 100.549 139.168 103.849 139.168 108.349C139.168 112.849 142.498 116.149 147.148 116.149ZM147.148 112.549C144.898 112.549 143.368 110.839 143.368 108.349C143.368 105.829 144.898 104.119 147.148 104.119C149.398 104.119 150.928 105.829 150.928 108.349C150.928 110.839 149.398 112.549 147.148 112.549Z" fill="white"/>
<path d="M162.929 116.149C166.859 116.149 169.979 113.629 170.429 110.269H166.169C165.869 111.619 164.639 112.549 163.109 112.549C160.829 112.549 159.479 110.809 159.479 108.349C159.479 105.889 160.799 104.119 163.049 104.119C164.579 104.119 165.869 105.109 166.109 106.459H170.309C170.039 102.949 166.889 100.549 162.929 100.549C158.249 100.549 155.129 103.939 155.129 108.349C155.129 112.759 158.249 116.149 162.929 116.149Z" fill="white"/>
<path d="M181.46 115.909H186.5L179.99 106.729L186.02 100.789H180.74L175.49 105.949V94.2188H171.29V115.909H175.49V111.169L177.17 109.519L181.46 115.909Z" fill="white"/>
</svg>
