<svg width="578" height="68" viewBox="0 0 578 68" fill="none" xmlns="http://www.w3.org/2000/svg">
<path d="M576 23.6369L548.331 2L2 2.00002L2.28538 46.044L30.8069 66H576V23.6369Z" stroke="#9A9DFF" stroke-width="3"/>
<mask id="path-2-outside-1_226_306" maskUnits="userSpaceOnUse" x="130" y="25" width="319" height="19" fill="black">
<rect fill="white" x="130" y="25" width="319" height="19"/>
<path d="M153.934 43H146.959L143.934 39.075H137.359V43H131.059V26.975H147.359C148.092 26.975 148.784 27.1083 149.434 27.375C150.1 27.625 150.692 27.975 151.209 28.425C151.725 28.875 152.15 29.4083 152.484 30.025C152.817 30.6417 153.034 31.3167 153.134 32.05C153.217 32.7 153.217 33.3417 153.134 33.975C153.017 34.925 152.692 35.7917 152.159 36.575C151.625 37.3417 150.942 37.9417 150.109 38.375L153.934 43ZM144.984 34.7C145.45 34.6833 145.842 34.5167 146.159 34.2C146.475 33.8667 146.634 33.475 146.634 33.025C146.634 32.5583 146.475 32.1667 146.159 31.85C145.842 31.5167 145.45 31.35 144.984 31.35H137.359V34.7H144.984ZM166.225 31.125V33.025H180.8V36.95H166.225V38.85H180.8V43H159.925V26.975H180.8V31.125H166.225ZM211.867 33.9V43H207.942V41.55C206.842 42.5167 205.558 43 204.092 43H193.167C192.433 43 191.733 42.875 191.067 42.625C190.417 42.3583 189.833 42 189.317 41.55C188.8 41.1 188.375 40.5667 188.042 39.95C187.708 39.3167 187.492 38.6417 187.392 37.925C187.108 35.9583 187.108 34 187.392 32.05C187.492 31.3167 187.708 30.6417 188.042 30.025C188.375 29.4083 188.8 28.875 189.317 28.425C189.833 27.975 190.417 27.625 191.067 27.375C191.733 27.1083 192.433 26.975 193.167 26.975H205.942C206.675 26.975 207.367 27.1083 208.017 27.375C208.683 27.625 209.275 27.975 209.792 28.425C210.308 28.875 210.733 29.4083 211.067 30.025C211.4 30.6417 211.617 31.3167 211.717 32.05C211.75 32.1833 211.767 32.3083 211.767 32.425C211.783 32.5417 211.8 32.6667 211.817 32.8H205.117C204.95 32.3667 204.675 32.0167 204.292 31.75C203.925 31.4833 203.508 31.35 203.042 31.35H196.042C195.525 31.35 195.067 31.5167 194.667 31.85C194.267 32.1667 194.017 32.5833 193.917 33.1C193.783 33.7333 193.717 34.3667 193.717 35C193.717 35.6167 193.783 36.2417 193.917 36.875C194.017 37.3917 194.267 37.8167 194.667 38.15C195.067 38.4667 195.533 38.625 196.067 38.625H203.042C203.575 38.625 204.042 38.4667 204.442 38.15C204.842 37.8167 205.092 37.3917 205.192 36.875C205.192 36.8417 205.2 36.8167 205.217 36.8H199.492V33.9H211.867ZM218.609 43V26.975H224.909V43H218.609ZM248.324 33.225C249.057 33.225 249.757 33.3167 250.424 33.5C251.107 33.6833 251.707 33.975 252.224 34.375C252.757 34.775 253.174 35.3 253.474 35.95C253.79 36.5833 253.949 37.3583 253.949 38.275C253.949 39.175 253.79 39.9333 253.474 40.55C253.174 41.15 252.757 41.6333 252.224 42C251.707 42.3667 251.107 42.625 250.424 42.775C249.757 42.925 249.057 43 248.324 43H237.024C236.29 43 235.59 42.875 234.924 42.625C234.274 42.3583 233.69 42 233.174 41.55C232.657 41.1 232.232 40.5667 231.899 39.95C231.565 39.3167 231.349 38.6333 231.249 37.9H237.674C237.857 38.2667 238.124 38.5583 238.474 38.775C238.824 38.975 239.207 39.0667 239.624 39.05L245.799 39.075C245.915 39.075 246.065 39.0667 246.249 39.05C246.449 39.0333 246.632 38.9833 246.799 38.9C246.982 38.8167 247.14 38.7 247.274 38.55C247.407 38.3833 247.474 38.1667 247.474 37.9C247.474 37.6167 247.407 37.4 247.274 37.25C247.14 37.1 246.982 36.9833 246.799 36.9C246.615 36.8167 246.432 36.7667 246.249 36.75C246.065 36.7333 245.915 36.725 245.799 36.725H237.224C236.49 36.725 235.782 36.6333 235.099 36.45C234.415 36.2667 233.807 35.975 233.274 35.575C232.757 35.175 232.34 34.6583 232.024 34.025C231.724 33.3917 231.574 32.6167 231.574 31.7C231.574 30.8 231.724 30.05 232.024 29.45C232.34 28.8333 232.757 28.3417 233.274 27.975C233.807 27.6083 234.407 27.35 235.074 27.2C235.757 27.05 236.465 26.975 237.199 26.975H247.949C248.682 26.975 249.382 27.1083 250.049 27.375C250.715 27.625 251.307 27.975 251.824 28.425C252.34 28.875 252.765 29.4083 253.099 30.025C253.432 30.6417 253.649 31.3167 253.749 32.05L247.324 32.075C247.14 31.6917 246.865 31.4 246.499 31.2C246.149 30.9833 245.765 30.8833 245.349 30.9H239.724C239.607 30.9 239.449 30.9083 239.249 30.925C239.065 30.9417 238.882 30.9917 238.699 31.075C238.532 31.1583 238.382 31.275 238.249 31.425C238.115 31.575 238.049 31.7917 238.049 32.075C238.049 32.3417 238.115 32.5583 238.249 32.725C238.382 32.875 238.54 32.9917 238.724 33.075C238.907 33.1417 239.09 33.1833 239.274 33.2C239.474 33.2167 239.624 33.225 239.724 33.225H248.324ZM280.403 26.975V31.35H272.878V43H266.578V31.35H259.078V26.975H280.403ZM292.538 31.125V33.025H307.113V36.95H292.538V38.85H307.113V43H286.238V26.975H307.113V31.125H292.538ZM336.905 43H329.93L326.905 39.075H320.33V43H314.03V26.975H330.33C331.064 26.975 331.755 27.1083 332.405 27.375C333.072 27.625 333.664 27.975 334.18 28.425C334.697 28.875 335.122 29.4083 335.455 30.025C335.789 30.6417 336.005 31.3167 336.105 32.05C336.189 32.7 336.189 33.3417 336.105 33.975C335.989 34.925 335.664 35.7917 335.13 36.575C334.597 37.3417 333.914 37.9417 333.08 38.375L336.905 43ZM327.955 34.7C328.255 34.7 328.539 34.625 328.805 34.475C329.072 34.325 329.28 34.1167 329.43 33.85C329.597 33.6 329.68 33.325 329.68 33.025C329.68 32.725 329.597 32.4417 329.43 32.175C329.28 31.9083 329.072 31.7 328.805 31.55C328.539 31.4 328.255 31.3333 327.955 31.35H320.33V34.7H327.955ZM380.128 26.975V43H372.578L363.903 33.45V43H357.603V26.975H365.153L373.828 36.525V26.975H380.128ZM411.128 32.05C411.395 33.9833 411.403 35.9333 411.153 37.9C411.053 38.6333 410.836 39.3167 410.503 39.95C410.17 40.5667 409.745 41.1 409.228 41.55C408.711 42 408.12 42.3583 407.453 42.625C406.786 42.875 406.086 43 405.353 43H392.578C391.845 43 391.145 42.875 390.478 42.625C389.828 42.3583 389.245 42 388.728 41.55C388.211 41.1 387.786 40.5667 387.453 39.95C387.12 39.3167 386.903 38.6417 386.803 37.925C386.52 35.9583 386.52 34 386.803 32.05C386.903 31.3167 387.12 30.6417 387.453 30.025C387.786 29.4083 388.211 28.875 388.728 28.425C389.245 27.975 389.828 27.625 390.478 27.375C391.145 27.1083 391.845 26.975 392.578 26.975H405.353C406.086 26.975 406.778 27.1083 407.428 27.375C408.095 27.625 408.686 27.975 409.203 28.425C409.72 28.875 410.145 29.4083 410.478 30.025C410.811 30.6417 411.028 31.3167 411.128 32.05ZM404.603 36.875C404.853 35.6083 404.853 34.35 404.603 33.1C404.503 32.5833 404.253 32.1667 403.853 31.85C403.453 31.5167 402.986 31.35 402.453 31.35H395.453C394.936 31.35 394.478 31.5167 394.078 31.85C393.678 32.1667 393.428 32.5833 393.328 33.1C393.195 33.7333 393.128 34.3667 393.128 35C393.128 35.6167 393.195 36.2417 393.328 36.875C393.428 37.3917 393.678 37.8167 394.078 38.15C394.478 38.4667 394.945 38.625 395.478 38.625H402.453C402.986 38.625 403.453 38.4667 403.853 38.15C404.253 37.8167 404.503 37.3917 404.603 36.875ZM447.419 26.975L440.269 43H434.569L431.494 35.4L428.419 43H422.719L415.569 26.975H422.394L425.869 36.1L429.194 26.975H433.794L437.119 36.1L440.594 26.975H447.419Z"/>
</mask>
<path d="M153.934 43H146.959L143.934 39.075H137.359V43H131.059V26.975H147.359C148.092 26.975 148.784 27.1083 149.434 27.375C150.1 27.625 150.692 27.975 151.209 28.425C151.725 28.875 152.15 29.4083 152.484 30.025C152.817 30.6417 153.034 31.3167 153.134 32.05C153.217 32.7 153.217 33.3417 153.134 33.975C153.017 34.925 152.692 35.7917 152.159 36.575C151.625 37.3417 150.942 37.9417 150.109 38.375L153.934 43ZM144.984 34.7C145.45 34.6833 145.842 34.5167 146.159 34.2C146.475 33.8667 146.634 33.475 146.634 33.025C146.634 32.5583 146.475 32.1667 146.159 31.85C145.842 31.5167 145.45 31.35 144.984 31.35H137.359V34.7H144.984ZM166.225 31.125V33.025H180.8V36.95H166.225V38.85H180.8V43H159.925V26.975H180.8V31.125H166.225ZM211.867 33.9V43H207.942V41.55C206.842 42.5167 205.558 43 204.092 43H193.167C192.433 43 191.733 42.875 191.067 42.625C190.417 42.3583 189.833 42 189.317 41.55C188.8 41.1 188.375 40.5667 188.042 39.95C187.708 39.3167 187.492 38.6417 187.392 37.925C187.108 35.9583 187.108 34 187.392 32.05C187.492 31.3167 187.708 30.6417 188.042 30.025C188.375 29.4083 188.8 28.875 189.317 28.425C189.833 27.975 190.417 27.625 191.067 27.375C191.733 27.1083 192.433 26.975 193.167 26.975H205.942C206.675 26.975 207.367 27.1083 208.017 27.375C208.683 27.625 209.275 27.975 209.792 28.425C210.308 28.875 210.733 29.4083 211.067 30.025C211.4 30.6417 211.617 31.3167 211.717 32.05C211.75 32.1833 211.767 32.3083 211.767 32.425C211.783 32.5417 211.8 32.6667 211.817 32.8H205.117C204.95 32.3667 204.675 32.0167 204.292 31.75C203.925 31.4833 203.508 31.35 203.042 31.35H196.042C195.525 31.35 195.067 31.5167 194.667 31.85C194.267 32.1667 194.017 32.5833 193.917 33.1C193.783 33.7333 193.717 34.3667 193.717 35C193.717 35.6167 193.783 36.2417 193.917 36.875C194.017 37.3917 194.267 37.8167 194.667 38.15C195.067 38.4667 195.533 38.625 196.067 38.625H203.042C203.575 38.625 204.042 38.4667 204.442 38.15C204.842 37.8167 205.092 37.3917 205.192 36.875C205.192 36.8417 205.2 36.8167 205.217 36.8H199.492V33.9H211.867ZM218.609 43V26.975H224.909V43H218.609ZM248.324 33.225C249.057 33.225 249.757 33.3167 250.424 33.5C251.107 33.6833 251.707 33.975 252.224 34.375C252.757 34.775 253.174 35.3 253.474 35.95C253.79 36.5833 253.949 37.3583 253.949 38.275C253.949 39.175 253.79 39.9333 253.474 40.55C253.174 41.15 252.757 41.6333 252.224 42C251.707 42.3667 251.107 42.625 250.424 42.775C249.757 42.925 249.057 43 248.324 43H237.024C236.29 43 235.59 42.875 234.924 42.625C234.274 42.3583 233.69 42 233.174 41.55C232.657 41.1 232.232 40.5667 231.899 39.95C231.565 39.3167 231.349 38.6333 231.249 37.9H237.674C237.857 38.2667 238.124 38.5583 238.474 38.775C238.824 38.975 239.207 39.0667 239.624 39.05L245.799 39.075C245.915 39.075 246.065 39.0667 246.249 39.05C246.449 39.0333 246.632 38.9833 246.799 38.9C246.982 38.8167 247.14 38.7 247.274 38.55C247.407 38.3833 247.474 38.1667 247.474 37.9C247.474 37.6167 247.407 37.4 247.274 37.25C247.14 37.1 246.982 36.9833 246.799 36.9C246.615 36.8167 246.432 36.7667 246.249 36.75C246.065 36.7333 245.915 36.725 245.799 36.725H237.224C236.49 36.725 235.782 36.6333 235.099 36.45C234.415 36.2667 233.807 35.975 233.274 35.575C232.757 35.175 232.34 34.6583 232.024 34.025C231.724 33.3917 231.574 32.6167 231.574 31.7C231.574 30.8 231.724 30.05 232.024 29.45C232.34 28.8333 232.757 28.3417 233.274 27.975C233.807 27.6083 234.407 27.35 235.074 27.2C235.757 27.05 236.465 26.975 237.199 26.975H247.949C248.682 26.975 249.382 27.1083 250.049 27.375C250.715 27.625 251.307 27.975 251.824 28.425C252.34 28.875 252.765 29.4083 253.099 30.025C253.432 30.6417 253.649 31.3167 253.749 32.05L247.324 32.075C247.14 31.6917 246.865 31.4 246.499 31.2C246.149 30.9833 245.765 30.8833 245.349 30.9H239.724C239.607 30.9 239.449 30.9083 239.249 30.925C239.065 30.9417 238.882 30.9917 238.699 31.075C238.532 31.1583 238.382 31.275 238.249 31.425C238.115 31.575 238.049 31.7917 238.049 32.075C238.049 32.3417 238.115 32.5583 238.249 32.725C238.382 32.875 238.54 32.9917 238.724 33.075C238.907 33.1417 239.09 33.1833 239.274 33.2C239.474 33.2167 239.624 33.225 239.724 33.225H248.324ZM280.403 26.975V31.35H272.878V43H266.578V31.35H259.078V26.975H280.403ZM292.538 31.125V33.025H307.113V36.95H292.538V38.85H307.113V43H286.238V26.975H307.113V31.125H292.538ZM336.905 43H329.93L326.905 39.075H320.33V43H314.03V26.975H330.33C331.064 26.975 331.755 27.1083 332.405 27.375C333.072 27.625 333.664 27.975 334.18 28.425C334.697 28.875 335.122 29.4083 335.455 30.025C335.789 30.6417 336.005 31.3167 336.105 32.05C336.189 32.7 336.189 33.3417 336.105 33.975C335.989 34.925 335.664 35.7917 335.13 36.575C334.597 37.3417 333.914 37.9417 333.08 38.375L336.905 43ZM327.955 34.7C328.255 34.7 328.539 34.625 328.805 34.475C329.072 34.325 329.28 34.1167 329.43 33.85C329.597 33.6 329.68 33.325 329.68 33.025C329.68 32.725 329.597 32.4417 329.43 32.175C329.28 31.9083 329.072 31.7 328.805 31.55C328.539 31.4 328.255 31.3333 327.955 31.35H320.33V34.7H327.955ZM380.128 26.975V43H372.578L363.903 33.45V43H357.603V26.975H365.153L373.828 36.525V26.975H380.128ZM411.128 32.05C411.395 33.9833 411.403 35.9333 411.153 37.9C411.053 38.6333 410.836 39.3167 410.503 39.95C410.17 40.5667 409.745 41.1 409.228 41.55C408.711 42 408.12 42.3583 407.453 42.625C406.786 42.875 406.086 43 405.353 43H392.578C391.845 43 391.145 42.875 390.478 42.625C389.828 42.3583 389.245 42 388.728 41.55C388.211 41.1 387.786 40.5667 387.453 39.95C387.12 39.3167 386.903 38.6417 386.803 37.925C386.52 35.9583 386.52 34 386.803 32.05C386.903 31.3167 387.12 30.6417 387.453 30.025C387.786 29.4083 388.211 28.875 388.728 28.425C389.245 27.975 389.828 27.625 390.478 27.375C391.145 27.1083 391.845 26.975 392.578 26.975H405.353C406.086 26.975 406.778 27.1083 407.428 27.375C408.095 27.625 408.686 27.975 409.203 28.425C409.72 28.875 410.145 29.4083 410.478 30.025C410.811 30.6417 411.028 31.3167 411.128 32.05ZM404.603 36.875C404.853 35.6083 404.853 34.35 404.603 33.1C404.503 32.5833 404.253 32.1667 403.853 31.85C403.453 31.5167 402.986 31.35 402.453 31.35H395.453C394.936 31.35 394.478 31.5167 394.078 31.85C393.678 32.1667 393.428 32.5833 393.328 33.1C393.195 33.7333 393.128 34.3667 393.128 35C393.128 35.6167 393.195 36.2417 393.328 36.875C393.428 37.3917 393.678 37.8167 394.078 38.15C394.478 38.4667 394.945 38.625 395.478 38.625H402.453C402.986 38.625 403.453 38.4667 403.853 38.15C404.253 37.8167 404.503 37.3917 404.603 36.875ZM447.419 26.975L440.269 43H434.569L431.494 35.4L428.419 43H422.719L415.569 26.975H422.394L425.869 36.1L429.194 26.975H433.794L437.119 36.1L440.594 26.975H447.419Z" fill="white"/>
<path d="M153.934 43V44H156.058L154.704 42.3627L153.934 43ZM146.959 43L146.167 43.6104L146.467 44H146.959V43ZM143.934 39.075L144.726 38.4646L144.425 38.075H143.934V39.075ZM137.359 39.075V38.075H136.359V39.075H137.359ZM137.359 43V44H138.359V43H137.359ZM131.059 43H130.059V44H131.059V43ZM131.059 26.975V25.975H130.059V26.975H131.059ZM149.434 27.375L149.054 28.3002L149.068 28.306L149.082 28.3113L149.434 27.375ZM151.209 28.425L150.552 29.1791L151.209 28.425ZM152.484 30.025L153.363 29.5495L152.484 30.025ZM153.134 32.05L154.126 31.9228L154.124 31.9149L153.134 32.05ZM153.134 33.975L152.142 33.8445L152.141 33.8531L153.134 33.975ZM152.159 36.575L152.98 37.1461L152.985 37.1378L152.159 36.575ZM150.109 38.375L149.647 37.4878L148.549 38.0587L149.338 39.0123L150.109 38.375ZM144.984 34.7V35.7H145.001L145.019 35.6994L144.984 34.7ZM146.159 34.2L146.866 34.9071L146.875 34.898L146.884 34.8887L146.159 34.2ZM146.159 31.85L145.434 32.5387L145.442 32.548L145.451 32.5571L146.159 31.85ZM137.359 31.35V30.35H136.359V31.35H137.359ZM137.359 34.7H136.359V35.7H137.359V34.7ZM153.934 42H146.959V44H153.934V42ZM147.751 42.3896L144.726 38.4646L143.142 39.6854L146.167 43.6104L147.751 42.3896ZM143.934 38.075H137.359V40.075H143.934V38.075ZM136.359 39.075V43H138.359V39.075H136.359ZM137.359 42H131.059V44H137.359V42ZM132.059 43V26.975H130.059V43H132.059ZM131.059 27.975H147.359V25.975H131.059V27.975ZM147.359 27.975C147.968 27.975 148.53 28.0851 149.054 28.3002L149.813 26.4498C149.037 26.1316 148.216 25.975 147.359 25.975V27.975ZM149.082 28.3113C149.642 28.521 150.129 28.8107 150.552 29.1791L151.865 27.6709C151.255 27.1393 150.559 26.729 149.785 26.4387L149.082 28.3113ZM150.552 29.1791C150.976 29.5485 151.326 29.9868 151.604 30.5005L153.363 29.5495C152.974 28.8298 152.475 28.2015 151.865 27.6709L150.552 29.1791ZM151.604 30.5005C151.877 31.0055 152.058 31.5643 152.143 32.1851L154.124 31.9149C154.009 31.069 153.757 30.2778 153.363 29.5495L151.604 30.5005ZM152.142 32.1772C152.214 32.7439 152.214 33.2989 152.142 33.8445L154.125 34.1055C154.22 33.3844 154.219 32.6561 154.125 31.9228L152.142 32.1772ZM152.141 33.8531C152.044 34.6467 151.775 35.3619 151.332 36.0122L152.985 37.1378C153.609 36.2214 153.99 35.2033 154.126 34.0969L152.141 33.8531ZM151.338 36.0039C150.897 36.6369 150.338 37.1287 149.647 37.4878L150.57 39.2622C151.546 38.7546 152.353 38.0465 152.979 37.1461L151.338 36.0039ZM149.338 39.0123L153.163 43.6373L154.704 42.3627L150.879 37.7377L149.338 39.0123ZM145.019 35.6994C145.727 35.6741 146.362 35.4108 146.866 34.9071L145.451 33.4929C145.322 33.6225 145.174 33.6926 144.948 33.7006L145.019 35.6994ZM146.884 34.8887C147.373 34.3741 147.634 33.7375 147.634 33.025H145.634C145.634 33.2125 145.578 33.3593 145.434 33.5112L146.884 34.8887ZM147.634 33.025C147.634 32.3056 147.379 31.6557 146.866 31.1429L145.451 32.5571C145.572 32.6776 145.634 32.8111 145.634 33.025H147.634ZM146.884 31.1613C146.375 30.6258 145.72 30.35 144.984 30.35V32.35C145.181 32.35 145.309 32.4075 145.434 32.5387L146.884 31.1613ZM144.984 30.35H137.359V32.35H144.984V30.35ZM136.359 31.35V34.7H138.359V31.35H136.359ZM137.359 35.7H144.984V33.7H137.359V35.7ZM166.225 31.125V30.125H165.225V31.125H166.225ZM166.225 33.025H165.225V34.025H166.225V33.025ZM180.8 33.025H181.8V32.025H180.8V33.025ZM180.8 36.95V37.95H181.8V36.95H180.8ZM166.225 36.95V35.95H165.225V36.95H166.225ZM166.225 38.85H165.225V39.85H166.225V38.85ZM180.8 38.85H181.8V37.85H180.8V38.85ZM180.8 43V44H181.8V43H180.8ZM159.925 43H158.925V44H159.925V43ZM159.925 26.975V25.975H158.925V26.975H159.925ZM180.8 26.975H181.8V25.975H180.8V26.975ZM180.8 31.125V32.125H181.8V31.125H180.8ZM165.225 31.125V33.025H167.225V31.125H165.225ZM166.225 34.025H180.8V32.025H166.225V34.025ZM179.8 33.025V36.95H181.8V33.025H179.8ZM180.8 35.95H166.225V37.95H180.8V35.95ZM165.225 36.95V38.85H167.225V36.95H165.225ZM166.225 39.85H180.8V37.85H166.225V39.85ZM179.8 38.85V43H181.8V38.85H179.8ZM180.8 42H159.925V44H180.8V42ZM160.925 43V26.975H158.925V43H160.925ZM159.925 27.975H180.8V25.975H159.925V27.975ZM179.8 26.975V31.125H181.8V26.975H179.8ZM180.8 30.125H166.225V32.125H180.8V30.125ZM211.867 33.9H212.867V32.9H211.867V33.9ZM211.867 43V44H212.867V43H211.867ZM207.942 43H206.942V44H207.942V43ZM207.942 41.55H208.942V39.3399L207.282 40.7988L207.942 41.55ZM191.067 42.625L190.687 43.5502L190.701 43.556L190.716 43.5613L191.067 42.625ZM189.317 41.55L188.66 42.3041L189.317 41.55ZM188.042 39.95L187.157 40.4158L187.162 40.4255L188.042 39.95ZM187.392 37.925L188.382 37.7868L188.382 37.7824L187.392 37.925ZM187.392 32.05L188.381 32.1938L188.383 32.1851L187.392 32.05ZM188.042 30.025L187.162 29.5495V29.5495L188.042 30.025ZM189.317 28.425L189.974 29.1791L189.974 29.1791L189.317 28.425ZM191.067 27.375L191.426 28.3084L191.438 28.3035L191.067 27.375ZM208.017 27.375L207.637 28.3002L207.651 28.306L207.666 28.3113L208.017 27.375ZM209.792 28.425L209.135 29.1791L209.792 28.425ZM211.067 30.025L211.947 29.5495V29.5495L211.067 30.025ZM211.717 32.05L210.726 32.1851L210.733 32.2394L210.747 32.2925L211.717 32.05ZM211.767 32.425H210.767V32.4961L210.777 32.5664L211.767 32.425ZM211.817 32.8V33.8H212.95L212.809 32.676L211.817 32.8ZM205.117 32.8L204.183 33.159L204.43 33.8H205.117V32.8ZM204.292 31.75L203.704 32.5587L203.712 32.5649L203.721 32.5709L204.292 31.75ZM194.667 31.85L195.287 32.634L195.297 32.6263L195.307 32.6182L194.667 31.85ZM193.917 33.1L194.895 33.306L194.897 33.298L194.899 33.29L193.917 33.1ZM193.917 36.875L194.899 36.685L194.897 36.677L194.895 36.669L193.917 36.875ZM194.667 38.15L194.027 38.9182L194.036 38.9263L194.046 38.934L194.667 38.15ZM204.442 38.15L205.062 38.934L205.072 38.9263L205.082 38.9182L204.442 38.15ZM205.192 36.875L206.174 37.065L206.192 36.9709V36.875H205.192ZM205.217 36.8L205.924 37.5071L207.631 35.8H205.217V36.8ZM199.492 36.8H198.492V37.8H199.492V36.8ZM199.492 33.9V32.9H198.492V33.9H199.492ZM210.867 33.9V43H212.867V33.9H210.867ZM211.867 42H207.942V44H211.867V42ZM208.942 43V41.55H206.942V43H208.942ZM207.282 40.7988C206.365 41.6048 205.316 42 204.092 42V44C205.801 44 207.319 43.4285 208.602 42.3012L207.282 40.7988ZM204.092 42H193.167V44H204.092V42ZM193.167 42C192.55 42 191.969 41.8953 191.418 41.6887L190.716 43.5613C191.498 43.8547 192.317 44 193.167 44V42ZM191.446 41.6998C190.895 41.4736 190.406 41.1723 189.974 40.7959L188.66 42.3041C189.261 42.8277 189.939 43.2431 190.687 43.5502L191.446 41.6998ZM189.974 40.7959C189.549 40.4265 189.199 39.9882 188.922 39.4745L187.162 40.4255C187.551 41.1452 188.051 41.7735 188.66 42.3041L189.974 40.7959ZM188.927 39.4843C188.648 38.9543 188.466 38.3903 188.382 37.7868L186.401 38.0632C186.517 38.893 186.769 39.679 187.157 40.4157L188.927 39.4843ZM188.382 37.7824C188.112 35.9099 188.112 34.048 188.381 32.1938L186.402 31.9062C186.105 33.952 186.105 36.0068 186.402 38.0676L188.382 37.7824ZM188.383 32.1851C188.467 31.5643 188.649 31.0055 188.922 30.5005L187.162 29.5495C186.768 30.2778 186.516 31.069 186.401 31.9149L188.383 32.1851ZM188.922 30.5005C189.199 29.9868 189.549 29.5485 189.974 29.1791L188.66 27.6709C188.051 28.2015 187.551 28.8298 187.162 29.5495L188.922 30.5005ZM189.974 29.1791C190.401 28.807 190.883 28.5171 191.426 28.3083L190.708 26.4417C189.951 26.7329 189.266 27.143 188.66 27.6709L189.974 29.1791ZM191.438 28.3035C191.984 28.0851 192.558 27.975 193.167 27.975V25.975C192.309 25.975 191.483 26.1316 190.695 26.4465L191.438 28.3035ZM193.167 27.975H205.942V25.975H193.167V27.975ZM205.942 27.975C206.551 27.975 207.113 28.0851 207.637 28.3002L208.396 26.4498C207.621 26.1316 206.8 25.975 205.942 25.975V27.975ZM207.666 28.3113C208.225 28.521 208.712 28.8107 209.135 29.1791L210.449 27.6709C209.838 27.1393 209.142 26.729 208.368 26.4387L207.666 28.3113ZM209.135 29.1791C209.559 29.5485 209.909 29.9868 210.187 30.5005L211.947 29.5495C211.558 28.8298 211.058 28.2015 210.449 27.6709L209.135 29.1791ZM210.187 30.5005C210.46 31.0055 210.641 31.5643 210.726 32.1851L212.708 31.9149C212.592 31.069 212.34 30.2778 211.947 29.5495L210.187 30.5005ZM210.747 32.2925C210.764 32.3602 210.767 32.4031 210.767 32.425H212.767C212.767 32.2136 212.737 32.0065 212.687 31.8075L210.747 32.2925ZM210.777 32.5664C210.793 32.6766 210.808 32.7957 210.825 32.924L212.809 32.676C212.792 32.5376 212.774 32.4068 212.757 32.2836L210.777 32.5664ZM211.817 31.8H205.117V33.8H211.817V31.8ZM206.05 32.441C205.811 31.8198 205.409 31.3093 204.863 30.9291L203.721 32.5709C203.941 32.724 204.089 32.9135 204.183 33.159L206.05 32.441ZM204.88 30.9413C204.337 30.5464 203.713 30.35 203.042 30.35V32.35C203.304 32.35 203.513 32.4202 203.704 32.5587L204.88 30.9413ZM203.042 30.35H196.042V32.35H203.042V30.35ZM196.042 30.35C195.289 30.35 194.605 30.6 194.027 31.0818L195.307 32.6182C195.529 32.4334 195.761 32.35 196.042 32.35V30.35ZM194.046 31.066C193.452 31.5361 193.079 32.1666 192.935 32.91L194.899 33.29C194.955 33.0001 195.081 32.7972 195.287 32.634L194.046 31.066ZM192.938 32.894C192.791 33.5936 192.717 34.2959 192.717 35H194.717C194.717 34.4374 194.776 33.8731 194.895 33.306L192.938 32.894ZM192.717 35C192.717 35.6892 192.791 36.3833 192.938 37.081L194.895 36.669C194.776 36.1001 194.717 35.5441 194.717 35H192.717ZM192.935 37.065C193.078 37.8054 193.447 38.4356 194.027 38.9182L195.307 37.3818C195.086 37.1978 194.955 36.9779 194.899 36.685L192.935 37.065ZM194.046 38.934C194.631 39.3973 195.319 39.625 196.067 39.625V37.625C195.748 37.625 195.502 37.5361 195.287 37.366L194.046 38.934ZM196.067 39.625H203.042V37.625H196.067V39.625ZM203.042 39.625C203.789 39.625 204.477 39.3973 205.062 38.934L203.821 37.366C203.606 37.5361 203.361 37.625 203.042 37.625V39.625ZM205.082 38.9182C205.661 38.4356 206.03 37.8054 206.174 37.065L204.21 36.685C204.153 36.9779 204.022 37.1978 203.802 37.3818L205.082 38.9182ZM206.192 36.875C206.192 36.9958 206.161 37.2701 205.924 37.5071L204.51 36.0929C204.239 36.3632 204.192 36.6875 204.192 36.875H206.192ZM205.217 35.8H199.492V37.8H205.217V35.8ZM200.492 36.8V33.9H198.492V36.8H200.492ZM199.492 34.9H211.867V32.9H199.492V34.9ZM218.609 43H217.609V44H218.609V43ZM218.609 26.975V25.975H217.609V26.975H218.609ZM224.909 26.975H225.909V25.975H224.909V26.975ZM224.909 43V44H225.909V43H224.909ZM219.609 43V26.975H217.609V43H219.609ZM218.609 27.975H224.909V25.975H218.609V27.975ZM223.909 26.975V43H225.909V26.975H223.909ZM224.909 42H218.609V44H224.909V42ZM250.424 33.5L250.159 34.4642L250.165 34.4658L250.424 33.5ZM252.224 34.375L251.612 35.1657L251.618 35.1704L251.624 35.175L252.224 34.375ZM253.474 35.95L252.566 36.3691L252.572 36.3832L252.579 36.3972L253.474 35.95ZM253.474 40.55L252.584 40.0932L252.579 40.1028L253.474 40.55ZM252.224 42L251.657 41.176L251.651 41.1802L251.645 41.1845L252.224 42ZM250.424 42.775L250.209 41.7982L250.204 41.7994L250.424 42.775ZM234.924 42.625L234.544 43.5502L234.558 43.556L234.573 43.5613L234.924 42.625ZM233.174 41.55L233.831 40.7959L233.174 41.55ZM231.899 39.95L231.014 40.4158L231.019 40.4255L231.899 39.95ZM231.249 37.9V36.9H230.103L230.258 38.0351L231.249 37.9ZM237.674 37.9L238.568 37.4528L238.292 36.9H237.674V37.9ZM238.474 38.775L237.947 39.6253L237.962 39.6345L237.978 39.6432L238.474 38.775ZM239.624 39.05L239.628 38.05L239.606 38.0499L239.584 38.0508L239.624 39.05ZM245.799 39.075L245.795 40.075H245.799V39.075ZM246.249 39.05L246.166 38.0534L246.158 38.0541L246.249 39.05ZM246.799 38.9L246.385 37.9896L246.368 37.9973L246.352 38.0056L246.799 38.9ZM247.274 38.55L248.021 39.2144L248.038 39.195L248.055 39.1747L247.274 38.55ZM247.274 37.25L246.526 37.9144V37.9144L247.274 37.25ZM246.799 36.9L246.385 37.8104L246.799 36.9ZM246.249 36.75L246.158 37.7459H246.158L246.249 36.75ZM235.099 36.45L235.358 35.4842L235.099 36.45ZM233.274 35.575L232.662 36.3657L232.668 36.3704L232.674 36.375L233.274 35.575ZM232.024 34.025L231.12 34.4531L231.125 34.4627L231.129 34.4722L232.024 34.025ZM232.024 29.45L231.134 28.9932L231.129 29.0028L232.024 29.45ZM233.274 27.975L232.707 27.151L232.701 27.1552L232.695 27.1595L233.274 27.975ZM235.074 27.2L234.859 26.2232L234.854 26.2244L235.074 27.2ZM250.049 27.375L249.677 28.3035L249.688 28.3075L249.698 28.3113L250.049 27.375ZM251.824 28.425L251.167 29.1791L251.824 28.425ZM253.099 30.025L253.979 29.5495V29.5495L253.099 30.025ZM253.749 32.05L253.753 33.05L254.894 33.0456L254.74 31.9149L253.749 32.05ZM247.324 32.075L246.422 32.5065L246.695 33.0775L247.328 33.075L247.324 32.075ZM246.499 31.2L245.972 32.0503L245.996 32.0647L246.02 32.0779L246.499 31.2ZM245.349 30.9V31.9H245.369L245.389 31.8992L245.349 30.9ZM239.249 30.925L239.166 29.9284L239.158 29.9291L239.249 30.925ZM238.699 31.075L238.285 30.1646L238.268 30.1723L238.252 30.1806L238.699 31.075ZM238.249 31.425L237.501 30.7606V30.7606L238.249 31.425ZM238.249 32.725L237.468 33.3497L237.484 33.37L237.501 33.3894L238.249 32.725ZM238.724 33.075L238.31 33.9854L238.345 34.0015L238.382 34.0148L238.724 33.075ZM239.274 33.2L239.183 34.1959L239.191 34.1965L239.274 33.2ZM248.324 34.225C248.973 34.225 249.583 34.306 250.159 34.4642L250.689 32.5358C249.931 32.3273 249.141 32.225 248.324 32.225V34.225ZM250.165 34.4658C250.731 34.6177 251.208 34.8535 251.612 35.1657L252.836 33.5843C252.206 33.0965 251.484 32.749 250.683 32.5342L250.165 34.4658ZM251.624 35.175C252.015 35.4682 252.33 35.8582 252.566 36.3691L254.382 35.5309C254.018 34.7418 253.5 34.0818 252.824 33.575L251.624 35.175ZM252.579 36.3972C252.809 36.857 252.949 37.4694 252.949 38.275H254.949C254.949 37.2472 254.772 36.3097 254.368 35.5028L252.579 36.3972ZM252.949 38.275C252.949 39.0619 252.81 39.6536 252.584 40.0932L254.363 41.0068C254.771 40.213 254.949 39.2881 254.949 38.275H252.949ZM252.579 40.1028C252.352 40.5572 252.046 40.9087 251.657 41.176L252.79 42.824C253.468 42.358 253.995 41.7428 254.368 40.9972L252.579 40.1028ZM251.645 41.1845C251.249 41.4658 250.775 41.674 250.209 41.7983L250.638 43.7517C251.439 43.576 252.166 43.2675 252.803 42.8155L251.645 41.1845ZM250.204 41.7994C249.615 41.932 248.989 42 248.324 42V44C249.126 44 249.9 43.918 250.643 43.7506L250.204 41.7994ZM248.324 42H237.024V44H248.324V42ZM237.024 42C236.407 42 235.826 41.8953 235.275 41.6887L234.573 43.5613C235.355 43.8547 236.174 44 237.024 44V42ZM235.303 41.6998C234.752 41.4736 234.263 41.1723 233.831 40.7959L232.517 42.3041C233.118 42.8277 233.796 43.2431 234.544 43.5502L235.303 41.6998ZM233.831 40.7959C233.406 40.4265 233.056 39.9882 232.779 39.4745L231.019 40.4255C231.408 41.1452 231.908 41.7735 232.517 42.3041L233.831 40.7959ZM232.784 39.4843C232.507 38.9576 232.324 38.3867 232.24 37.7649L230.258 38.0351C230.373 38.88 230.624 39.6757 231.014 40.4157L232.784 39.4843ZM231.249 38.9H237.674V36.9H231.249V38.9ZM236.779 38.3472C237.046 38.8805 237.44 39.3114 237.947 39.6253L239 37.9247C238.807 37.8053 238.668 37.6528 238.568 37.4528L236.779 38.3472ZM237.978 39.6432C238.496 39.9396 239.066 40.0731 239.664 40.0492L239.584 38.0508C239.348 38.0602 239.151 38.0104 238.97 37.9068L237.978 39.6432ZM239.62 40.05L245.795 40.075L245.803 38.075L239.628 38.05L239.62 40.05ZM245.799 40.075C245.958 40.075 246.141 40.0639 246.339 40.0459L246.158 38.0541C245.99 38.0694 245.873 38.075 245.799 38.075V40.075ZM246.332 40.0465C246.649 40.0201 246.957 39.9389 247.246 39.7944L246.352 38.0056C246.307 38.0278 246.249 38.0465 246.166 38.0535L246.332 40.0465ZM247.213 39.8104C247.523 39.6694 247.795 39.4691 248.021 39.2144L246.526 37.8856C246.486 37.9309 246.442 37.9639 246.385 37.9896L247.213 39.8104ZM248.055 39.1747C248.362 38.7902 248.474 38.3358 248.474 37.9H246.474C246.474 37.9507 246.467 37.9704 246.468 37.9684C246.468 37.9672 246.47 37.9616 246.475 37.9531C246.479 37.9444 246.485 37.9348 246.493 37.9253L248.055 39.1747ZM248.474 37.9C248.474 37.472 248.373 36.9819 248.021 36.5856L246.526 37.9144C246.507 37.8929 246.493 37.8719 246.483 37.8539C246.474 37.8361 246.469 37.8236 246.468 37.8191C246.466 37.8118 246.474 37.8343 246.474 37.9H248.474ZM248.021 36.5856C247.795 36.3309 247.523 36.1306 247.213 35.9896L246.385 37.8104C246.442 37.8361 246.486 37.8691 246.526 37.9144L248.021 36.5856ZM247.213 35.9896C246.937 35.8642 246.645 35.7818 246.339 35.7541L246.158 37.7459C246.22 37.7515 246.294 37.7691 246.385 37.8104L247.213 35.9896ZM246.339 35.7541C246.141 35.7361 245.958 35.725 245.799 35.725V37.725C245.873 37.725 245.99 37.7306 246.158 37.7459L246.339 35.7541ZM245.799 35.725H237.224V37.725H245.799V35.725ZM237.224 35.725C236.575 35.725 235.954 35.644 235.358 35.4842L234.84 37.4158C235.611 37.6227 236.406 37.725 237.224 37.725V35.725ZM235.358 35.4842C234.79 35.3318 234.299 35.0939 233.874 34.775L232.674 36.375C233.315 36.8561 234.041 37.2015 234.84 37.4158L235.358 35.4842ZM233.886 34.7843C233.498 34.4837 233.174 34.0883 232.918 33.5778L231.129 34.4722C231.507 35.2284 232.017 35.8663 232.662 36.3657L233.886 34.7843ZM232.928 33.5969C232.707 33.132 232.574 32.5123 232.574 31.7H230.574C230.574 32.721 230.74 33.6514 231.12 34.4531L232.928 33.5969ZM232.574 31.7C232.574 30.9046 232.707 30.3193 232.918 29.8972L231.129 29.0028C230.74 29.7807 230.574 30.6953 230.574 31.7H232.574ZM232.913 29.9068C233.164 29.4192 233.479 29.0558 233.853 28.7905L232.695 27.1595C232.035 27.6276 231.517 28.2475 231.134 28.9932L232.913 29.9068ZM233.84 28.799C234.263 28.5085 234.744 28.2992 235.293 28.1756L234.854 26.2244C234.07 26.4008 233.351 26.7082 232.707 27.151L233.84 28.799ZM235.288 28.1767C235.898 28.0429 236.534 27.975 237.199 27.975V25.975C236.397 25.975 235.616 26.0571 234.859 26.2233L235.288 28.1767ZM237.199 27.975H247.949V25.975H237.199V27.975ZM247.949 27.975C248.558 27.975 249.131 28.0851 249.677 28.3035L250.42 26.4465C249.633 26.1316 248.807 25.975 247.949 25.975V27.975ZM249.698 28.3113C250.257 28.521 250.744 28.8107 251.167 29.1791L252.481 27.6709C251.87 27.1393 251.174 26.729 250.4 26.4387L249.698 28.3113ZM251.167 29.1791C251.591 29.5485 251.941 29.9868 252.219 30.5005L253.979 29.5495C253.59 28.8298 253.09 28.2015 252.481 27.6709L251.167 29.1791ZM252.219 30.5005C252.492 31.0055 252.673 31.5643 252.758 32.1851L254.74 31.9149C254.624 31.069 254.372 30.2778 253.979 29.5495L252.219 30.5005ZM253.745 31.05L247.32 31.075L247.328 33.075L253.753 33.05L253.745 31.05ZM248.226 31.6435C247.954 31.0741 247.532 30.6246 246.978 30.3221L246.02 32.0779C246.199 32.1754 246.327 32.3092 246.422 32.5065L248.226 31.6435ZM247.025 30.3497C246.503 30.0266 245.922 29.8763 245.309 29.9008L245.389 31.8992C245.609 31.8904 245.795 31.9401 245.972 32.0503L247.025 30.3497ZM245.349 29.9H239.724V31.9H245.349V29.9ZM239.724 29.9C239.567 29.9 239.377 29.9109 239.166 29.9285L239.332 31.9215C239.521 31.9058 239.648 31.9 239.724 31.9V29.9ZM239.158 29.9291C238.853 29.9568 238.561 30.0392 238.285 30.1646L239.113 31.9854C239.203 31.9441 239.278 31.9265 239.339 31.9209L239.158 29.9291ZM238.252 30.1806C237.963 30.3251 237.713 30.5229 237.501 30.7606L238.996 32.0894C239.052 32.0271 239.102 31.9916 239.146 31.9694L238.252 30.1806ZM237.501 30.7606C237.149 31.1569 237.049 31.647 237.049 32.075H239.049C239.049 32.0093 239.057 31.9868 239.055 31.9941C239.053 31.9986 239.049 32.0111 239.039 32.0289C239.029 32.0469 239.015 32.0679 238.996 32.0894L237.501 30.7606ZM237.049 32.075C237.049 32.5108 237.16 32.9652 237.468 33.3497L239.03 32.1003C239.037 32.1098 239.043 32.1194 239.048 32.1281C239.052 32.1366 239.054 32.1422 239.055 32.1434C239.055 32.1454 239.049 32.1257 239.049 32.075H237.049ZM237.501 33.3894C237.728 33.6441 238 33.8444 238.31 33.9854L239.138 32.1646C239.081 32.1389 239.036 32.1059 238.996 32.0606L237.501 33.3894ZM238.382 34.0148C238.642 34.1091 238.909 34.171 239.183 34.1959L239.364 32.2041C239.272 32.1957 239.173 32.1742 239.066 32.1352L238.382 34.0148ZM239.191 34.1965C239.397 34.2137 239.581 34.225 239.724 34.225V32.225C239.667 32.225 239.551 32.2196 239.357 32.2035L239.191 34.1965ZM239.724 34.225H248.324V32.225H239.724V34.225ZM280.403 26.975H281.403V25.975H280.403V26.975ZM280.403 31.35V32.35H281.403V31.35H280.403ZM272.878 31.35V30.35H271.878V31.35H272.878ZM272.878 43V44H273.878V43H272.878ZM266.578 43H265.578V44H266.578V43ZM266.578 31.35H267.578V30.35H266.578V31.35ZM259.078 31.35H258.078V32.35H259.078V31.35ZM259.078 26.975V25.975H258.078V26.975H259.078ZM279.403 26.975V31.35H281.403V26.975H279.403ZM280.403 30.35H272.878V32.35H280.403V30.35ZM271.878 31.35V43H273.878V31.35H271.878ZM272.878 42H266.578V44H272.878V42ZM267.578 43V31.35H265.578V43H267.578ZM266.578 30.35H259.078V32.35H266.578V30.35ZM260.078 31.35V26.975H258.078V31.35H260.078ZM259.078 27.975H280.403V25.975H259.078V27.975ZM292.538 31.125V30.125H291.538V31.125H292.538ZM292.538 33.025H291.538V34.025H292.538V33.025ZM307.113 33.025H308.113V32.025H307.113V33.025ZM307.113 36.95V37.95H308.113V36.95H307.113ZM292.538 36.95V35.95H291.538V36.95H292.538ZM292.538 38.85H291.538V39.85H292.538V38.85ZM307.113 38.85H308.113V37.85H307.113V38.85ZM307.113 43V44H308.113V43H307.113ZM286.238 43H285.238V44H286.238V43ZM286.238 26.975V25.975H285.238V26.975H286.238ZM307.113 26.975H308.113V25.975H307.113V26.975ZM307.113 31.125V32.125H308.113V31.125H307.113ZM291.538 31.125V33.025H293.538V31.125H291.538ZM292.538 34.025H307.113V32.025H292.538V34.025ZM306.113 33.025V36.95H308.113V33.025H306.113ZM307.113 35.95H292.538V37.95H307.113V35.95ZM291.538 36.95V38.85H293.538V36.95H291.538ZM292.538 39.85H307.113V37.85H292.538V39.85ZM306.113 38.85V43H308.113V38.85H306.113ZM307.113 42H286.238V44H307.113V42ZM287.238 43V26.975H285.238V43H287.238ZM286.238 27.975H307.113V25.975H286.238V27.975ZM306.113 26.975V31.125H308.113V26.975H306.113ZM307.113 30.125H292.538V32.125H307.113V30.125ZM336.905 43V44H339.03L337.676 42.3627L336.905 43ZM329.93 43L329.138 43.6104L329.438 44H329.93V43ZM326.905 39.075L327.697 38.4646L327.397 38.075H326.905V39.075ZM320.33 39.075V38.075H319.33V39.075H320.33ZM320.33 43V44H321.33V43H320.33ZM314.03 43H313.03V44H314.03V43ZM314.03 26.975V25.975H313.03V26.975H314.03ZM332.405 27.375L332.026 28.3002L332.04 28.306L332.054 28.3113L332.405 27.375ZM334.18 28.425L333.523 29.1791L334.18 28.425ZM335.455 30.025L336.335 29.5495L335.455 30.025ZM336.105 32.05L337.097 31.9228L337.096 31.9149L336.105 32.05ZM336.105 33.975L335.114 33.8445L335.113 33.8531L336.105 33.975ZM335.13 36.575L335.951 37.1461L335.957 37.1378L335.13 36.575ZM333.08 38.375L332.619 37.4878L331.521 38.0587L332.31 39.0123L333.08 38.375ZM328.805 34.475L328.315 33.6034L328.805 34.475ZM329.43 33.85L328.598 33.2953L328.577 33.3268L328.559 33.3597L329.43 33.85ZM329.43 32.175L328.559 32.6653L328.57 32.6854L328.582 32.705L329.43 32.175ZM328.805 31.55L328.315 32.4216L328.805 31.55ZM327.955 31.35V32.35H327.983L328.011 32.3485L327.955 31.35ZM320.33 31.35V30.35H319.33V31.35H320.33ZM320.33 34.7H319.33V35.7H320.33V34.7ZM336.905 42H329.93V44H336.905V42ZM330.722 42.3896L327.697 38.4646L326.113 39.6854L329.138 43.6104L330.722 42.3896ZM326.905 38.075H320.33V40.075H326.905V38.075ZM319.33 39.075V43H321.33V39.075H319.33ZM320.33 42H314.03V44H320.33V42ZM315.03 43V26.975H313.03V43H315.03ZM314.03 27.975H330.33V25.975H314.03V27.975ZM330.33 27.975C330.939 27.975 331.501 28.0851 332.026 28.3002L332.785 26.4498C332.009 26.1316 331.188 25.975 330.33 25.975V27.975ZM332.054 28.3113C332.613 28.521 333.101 28.8107 333.523 29.1791L334.837 27.6709C334.227 27.1393 333.531 26.729 332.756 26.4387L332.054 28.3113ZM333.523 29.1791C333.948 29.5485 334.298 29.9868 334.576 30.5005L336.335 29.5495C335.946 28.8298 335.446 28.2015 334.837 27.6709L333.523 29.1791ZM334.576 30.5005C334.849 31.0055 335.03 31.5643 335.114 32.1851L337.096 31.9149C336.981 31.069 336.729 30.2778 336.335 29.5495L334.576 30.5005ZM335.113 32.1772C335.186 32.7439 335.186 33.2989 335.114 33.8445L337.097 34.1055C337.192 33.3844 337.191 32.6561 337.097 31.9228L335.113 32.1772ZM335.113 33.8531C335.015 34.6467 334.746 35.3619 334.304 36.0122L335.957 37.1378C336.581 36.2214 336.962 35.2033 337.098 34.0969L335.113 33.8531ZM334.309 36.0039C333.869 36.6369 333.309 37.1287 332.619 37.4878L333.542 39.2622C334.518 38.7546 335.325 38.0465 335.951 37.1461L334.309 36.0039ZM332.31 39.0123L336.135 43.6373L337.676 42.3627L333.851 37.7377L332.31 39.0123ZM327.955 35.7C328.431 35.7 328.882 35.579 329.296 35.3466L328.315 33.6034C328.195 33.671 328.08 33.7 327.955 33.7V35.7ZM329.296 35.3466C329.722 35.1068 330.062 34.7666 330.302 34.3403L328.559 33.3597C328.498 33.4668 328.422 33.5432 328.315 33.6034L329.296 35.3466ZM330.262 34.4047C330.538 33.9907 330.68 33.5227 330.68 33.025H328.68C328.68 33.1272 328.656 33.2093 328.598 33.2953L330.262 34.4047ZM330.68 33.025C330.68 32.5283 330.539 32.0626 330.278 31.645L328.582 32.705C328.655 32.8208 328.68 32.9217 328.68 33.025H330.68ZM330.302 31.6847C330.062 31.2584 329.722 30.9182 329.296 30.6784L328.315 32.4216C328.422 32.4818 328.498 32.5582 328.559 32.6653L330.302 31.6847ZM329.296 30.6784C328.866 30.4368 328.394 30.3241 327.9 30.3515L328.011 32.3485C328.117 32.3426 328.211 32.3632 328.315 32.4216L329.296 30.6784ZM327.955 30.35H320.33V32.35H327.955V30.35ZM319.33 31.35V34.7H321.33V31.35H319.33ZM320.33 35.7H327.955V33.7H320.33V35.7ZM380.128 26.975H381.128V25.975H380.128V26.975ZM380.128 43V44H381.128V43H380.128ZM372.578 43L371.837 43.6724L372.135 44H372.578V43ZM363.903 33.45L364.643 32.7776L362.903 30.8619V33.45H363.903ZM363.903 43V44H364.903V43H363.903ZM357.603 43H356.603V44H357.603V43ZM357.603 26.975V25.975H356.603V26.975H357.603ZM365.153 26.975L365.893 26.3026L365.595 25.975H365.153V26.975ZM373.828 36.525L373.087 37.1974L374.828 39.1131V36.525H373.828ZM373.828 26.975V25.975H372.828V26.975H373.828ZM379.128 26.975V43H381.128V26.975H379.128ZM380.128 42H372.578V44H380.128V42ZM373.318 42.3276L364.643 32.7776L363.162 34.1224L371.837 43.6724L373.318 42.3276ZM362.903 33.45V43H364.903V33.45H362.903ZM363.903 42H357.603V44H363.903V42ZM358.603 43V26.975H356.603V43H358.603ZM357.603 27.975H365.153V25.975H357.603V27.975ZM364.412 27.6474L373.087 37.1974L374.568 35.8526L365.893 26.3026L364.412 27.6474ZM374.828 36.525V26.975H372.828V36.525H374.828ZM373.828 27.975H380.128V25.975H373.828V27.975ZM411.128 32.05L410.137 32.1851L410.137 32.1866L411.128 32.05ZM411.153 37.9L412.144 38.0351L412.145 38.0261L411.153 37.9ZM410.503 39.95L411.383 40.4255L411.388 40.4157L410.503 39.95ZM409.228 41.55L408.571 40.7959L409.228 41.55ZM407.453 42.625L407.804 43.5613L407.814 43.5575L407.824 43.5535L407.453 42.625ZM390.478 42.625L390.098 43.5502L390.113 43.556L390.127 43.5613L390.478 42.625ZM388.728 41.55L388.071 42.3041L388.728 41.55ZM387.453 39.95L386.568 40.4158L386.573 40.4255L387.453 39.95ZM386.803 37.925L387.793 37.7868L387.793 37.7824L386.803 37.925ZM386.803 32.05L387.793 32.1938L387.794 32.1851L386.803 32.05ZM387.453 30.025L386.573 29.5495V29.5495L387.453 30.025ZM388.728 28.425L389.385 29.1791V29.1791L388.728 28.425ZM390.478 27.375L390.837 28.3084L390.849 28.3035L390.478 27.375ZM407.428 27.375L407.048 28.3002L407.062 28.306L407.077 28.3113L407.428 27.375ZM409.203 28.425L408.546 29.1791L409.203 28.425ZM410.478 30.025L411.358 29.5495V29.5495L410.478 30.025ZM404.603 36.875L403.622 36.6814L403.621 36.685L404.603 36.875ZM404.603 33.1L403.621 33.29L403.622 33.2961L404.603 33.1ZM403.853 31.85L403.213 32.6182L403.222 32.6263L403.232 32.634L403.853 31.85ZM394.078 31.85L394.699 32.634L394.708 32.6263L394.718 32.6182L394.078 31.85ZM393.328 33.1L394.306 33.306L394.308 33.298L394.31 33.29L393.328 33.1ZM393.328 36.875L394.31 36.685L394.308 36.677L394.306 36.669L393.328 36.875ZM394.078 38.15L393.438 38.9182L393.447 38.9263L393.457 38.934L394.078 38.15ZM403.853 38.15L404.474 38.934L404.483 38.9263L404.493 38.9182L403.853 38.15ZM410.137 32.1866C410.392 34.0315 410.4 35.8931 410.161 37.7739L412.145 38.0261C412.406 35.9736 412.397 33.9352 412.119 31.9134L410.137 32.1866ZM410.162 37.7649C410.077 38.3867 409.895 38.9576 409.618 39.4843L411.388 40.4157C411.777 39.6757 412.029 38.88 412.144 38.0351L410.162 37.7649ZM409.623 39.4745C409.346 39.9882 408.995 40.4265 408.571 40.7959L409.885 42.3041C410.494 41.7735 410.994 41.1452 411.383 40.4255L409.623 39.4745ZM408.571 40.7959C408.143 41.1687 407.649 41.4695 407.082 41.6965L407.824 43.5535C408.59 43.2471 409.279 42.8313 409.885 42.3041L408.571 40.7959ZM407.102 41.6887C406.551 41.8953 405.97 42 405.353 42V44C406.203 44 407.022 43.8547 407.804 43.5613L407.102 41.6887ZM405.353 42H392.578V44H405.353V42ZM392.578 42C391.961 42 391.38 41.8953 390.829 41.6887L390.127 43.5613C390.909 43.8547 391.728 44 392.578 44V42ZM390.857 41.6998C390.306 41.4736 389.817 41.1723 389.385 40.7959L388.071 42.3041C388.672 42.8277 389.35 43.2431 390.098 43.5502L390.857 41.6998ZM389.385 40.7959C388.961 40.4265 388.61 39.9882 388.333 39.4745L386.573 40.4255C386.962 41.1452 387.462 41.7735 388.071 42.3041L389.385 40.7959ZM388.338 39.4843C388.059 38.9543 387.878 38.3903 387.793 37.7868L385.813 38.0632C385.928 38.893 386.18 39.679 386.568 40.4157L388.338 39.4843ZM387.793 37.7824C387.523 35.9099 387.523 34.048 387.793 32.1938L385.813 31.9062C385.516 33.952 385.516 36.0068 385.813 38.0676L387.793 37.7824ZM387.794 32.1851C387.878 31.5643 388.06 31.0055 388.333 30.5005L386.573 29.5495C386.18 30.2778 385.927 31.069 385.812 31.9149L387.794 32.1851ZM388.333 30.5005C388.61 29.9868 388.961 29.5485 389.385 29.1791L388.071 27.6709C387.462 28.2015 386.962 28.8298 386.573 29.5495L388.333 30.5005ZM389.385 29.1791C389.812 28.807 390.294 28.5171 390.837 28.3083L390.119 26.4417C389.362 26.7329 388.677 27.143 388.071 27.6709L389.385 29.1791ZM390.849 28.3035C391.395 28.0851 391.969 27.975 392.578 27.975V25.975C391.72 25.975 390.894 26.1316 390.107 26.4465L390.849 28.3035ZM392.578 27.975H405.353V25.975H392.578V27.975ZM405.353 27.975C405.962 27.975 406.524 28.0851 407.048 28.3002L407.807 26.4498C407.032 26.1316 406.211 25.975 405.353 25.975V27.975ZM407.077 28.3113C407.636 28.521 408.123 28.8107 408.546 29.1791L409.86 27.6709C409.249 27.1393 408.553 26.729 407.779 26.4387L407.077 28.3113ZM408.546 29.1791C408.97 29.5485 409.321 29.9868 409.598 30.5005L411.358 29.5495C410.969 28.8298 410.469 28.2015 409.86 27.6709L408.546 29.1791ZM409.598 30.5005C409.871 31.0055 410.052 31.5643 410.137 32.1851L412.119 31.9149C412.003 31.069 411.751 30.2778 411.358 29.5495L409.598 30.5005ZM405.584 37.0686C405.859 35.675 405.86 34.2842 405.584 32.9039L403.622 33.2961C403.846 34.4158 403.847 35.5417 403.622 36.6814L405.584 37.0686ZM405.585 32.91C405.441 32.1666 405.068 31.5361 404.474 31.066L403.232 32.634C403.438 32.7972 403.565 33.0001 403.621 33.29L405.585 32.91ZM404.493 31.0818C403.909 30.5948 403.214 30.35 402.453 30.35V32.35C402.759 32.35 402.997 32.4386 403.213 32.6182L404.493 31.0818ZM402.453 30.35H395.453V32.35H402.453V30.35ZM395.453 30.35C394.7 30.35 394.016 30.6 393.438 31.0818L394.718 32.6182C394.94 32.4334 395.172 32.35 395.453 32.35V30.35ZM393.457 31.066C392.863 31.5361 392.49 32.1666 392.346 32.91L394.31 33.29C394.366 33.0001 394.493 32.7972 394.699 32.634L393.457 31.066ZM392.349 32.894C392.202 33.5936 392.128 34.2959 392.128 35H394.128C394.128 34.4374 394.187 33.8731 394.306 33.306L392.349 32.894ZM392.128 35C392.128 35.6892 392.202 36.3833 392.349 37.081L394.306 36.669C394.187 36.1001 394.128 35.5441 394.128 35H392.128ZM392.346 37.065C392.489 37.8054 392.859 38.4356 393.438 38.9182L394.718 37.3818C394.497 37.1978 394.366 36.9779 394.31 36.685L392.346 37.065ZM393.457 38.934C394.042 39.3973 394.73 39.625 395.478 39.625V37.625C395.159 37.625 394.914 37.5361 394.699 37.366L393.457 38.934ZM395.478 39.625H402.453V37.625H395.478V39.625ZM402.453 39.625C403.201 39.625 403.889 39.3973 404.474 38.934L403.232 37.366C403.017 37.5361 402.772 37.625 402.453 37.625V39.625ZM404.493 38.9182C405.072 38.4356 405.441 37.8054 405.585 37.065L403.621 36.685C403.564 36.9779 403.434 37.1978 403.213 37.3818L404.493 38.9182ZM447.419 26.975L448.332 27.3825L448.96 25.975H447.419V26.975ZM440.269 43V44H440.918L441.182 43.4075L440.269 43ZM434.569 43L433.642 43.3751L433.895 44H434.569V43ZM431.494 35.4L432.421 35.0249L431.494 32.7338L430.567 35.0249L431.494 35.4ZM428.419 43V44H429.093L429.346 43.3751L428.419 43ZM422.719 43L421.806 43.4075L422.07 44H422.719V43ZM415.569 26.975V25.975H414.028L414.656 27.3825L415.569 26.975ZM422.394 26.975L423.328 26.6191L423.083 25.975H422.394V26.975ZM425.869 36.1L424.934 36.4559L425.89 38.9641L426.809 36.4424L425.869 36.1ZM429.194 26.975V25.975H428.494L428.254 26.6326L429.194 26.975ZM433.794 26.975L434.734 26.6326L434.494 25.975H433.794V26.975ZM437.119 36.1L436.179 36.4424L437.098 38.9641L438.053 36.4559L437.119 36.1ZM440.594 26.975V25.975H439.905L439.659 26.6191L440.594 26.975ZM446.506 26.5675L439.356 42.5925L441.182 43.4075L448.332 27.3825L446.506 26.5675ZM440.269 42H434.569V44H440.269V42ZM435.496 42.6249L432.421 35.0249L430.567 35.7751L433.642 43.3751L435.496 42.6249ZM430.567 35.0249L427.492 42.6249L429.346 43.3751L432.421 35.7751L430.567 35.0249ZM428.419 42H422.719V44H428.419V42ZM423.632 42.5925L416.482 26.5675L414.656 27.3825L421.806 43.4075L423.632 42.5925ZM415.569 27.975H422.394V25.975H415.569V27.975ZM421.459 27.3309L424.934 36.4559L426.803 35.7441L423.328 26.6191L421.459 27.3309ZM426.809 36.4424L430.134 27.3174L428.254 26.6326L424.929 35.7576L426.809 36.4424ZM429.194 27.975H433.794V25.975H429.194V27.975ZM432.854 27.3174L436.179 36.4424L438.059 35.7576L434.734 26.6326L432.854 27.3174ZM438.053 36.4559L441.528 27.3309L439.659 26.6191L436.184 35.7441L438.053 36.4559ZM440.594 27.975H447.419V25.975H440.594V27.975Z" fill="#9A9DFF" mask="url(#path-2-outside-1_226_306)"/>
</svg>
