<svg width="556" height="556" viewBox="0 0 556 556" fill="none" xmlns="http://www.w3.org/2000/svg">
<rect x="102" y="103" width="340" height="340" rx="170" fill="#9F9DFF"/>
<path d="M165.755 258.28V256.165H179.3V258.28L175.52 258.685C175.49 260.545 175.46 262.435 175.43 264.355C175.43 266.245 175.43 268.165 175.43 270.115V272.05C175.43 273.94 175.43 275.845 175.43 277.765C175.46 279.655 175.49 281.56 175.52 283.48L179.3 283.885V286H165.755V283.885L169.535 283.48C169.595 281.62 169.625 279.73 169.625 277.81C169.625 275.89 169.625 273.97 169.625 272.05V270.115C169.625 268.225 169.625 266.335 169.625 264.445C169.625 262.525 169.595 260.605 169.535 258.685L165.755 258.28ZM181.951 264.355L182.221 256.165H207.736L207.961 264.355H204.856L203.911 258.55H197.971C197.941 260.44 197.911 262.36 197.881 264.31C197.881 266.23 197.881 268.165 197.881 270.115V272.05C197.881 273.94 197.881 275.845 197.881 277.765C197.911 279.655 197.941 281.545 197.971 283.435L202.201 283.885V286H187.711V283.885L191.941 283.435C192.001 281.575 192.031 279.7 192.031 277.81C192.031 275.89 192.031 273.97 192.031 272.05V270.115C192.031 268.195 192.031 266.275 192.031 264.355C192.031 262.405 192.001 260.47 191.941 258.55H186.046L185.101 264.355H181.951ZM220.115 258.28V256.165H233.84V258.28L229.88 258.73C229.85 260.59 229.82 262.48 229.79 264.4C229.79 266.29 229.79 268.195 229.79 270.115V272.86C229.79 274.45 229.79 276.16 229.79 277.99C229.82 279.82 229.85 281.68 229.88 283.57H238.97L240.23 277.36H243.38L242.93 286H220.115V283.885L223.895 283.48C223.955 281.59 223.985 279.73 223.985 277.9C223.985 276.04 223.985 274.255 223.985 272.545V270.115C223.985 268.165 223.985 266.245 223.985 264.355C223.985 262.435 223.955 260.545 223.895 258.685L220.115 258.28ZM257.144 265.975C256.424 265.975 255.704 266.215 254.984 266.695C254.294 267.145 253.694 267.895 253.184 268.945C252.704 269.995 252.404 271.42 252.284 273.22H258.449C259.529 273.22 260.249 272.995 260.609 272.545C260.969 272.095 261.149 271.465 261.149 270.655C261.149 269.275 260.759 268.15 259.979 267.28C259.199 266.41 258.254 265.975 257.144 265.975ZM257.144 286.63C255.044 286.63 253.199 286.18 251.609 285.28C250.019 284.38 248.774 283.09 247.874 281.41C246.974 279.7 246.524 277.675 246.524 275.335C246.524 272.935 247.034 270.88 248.054 269.17C249.104 267.43 250.454 266.11 252.104 265.21C253.784 264.28 255.569 263.815 257.459 263.815C259.229 263.815 260.774 264.19 262.094 264.94C263.414 265.69 264.434 266.74 265.154 268.09C265.904 269.44 266.279 271.03 266.279 272.86C266.279 273.82 266.189 274.645 266.009 275.335H252.239C252.359 277.915 253.034 279.85 254.264 281.14C255.524 282.43 257.099 283.075 258.989 283.075C260.309 283.075 261.419 282.82 262.319 282.31C263.249 281.77 264.089 281.08 264.839 280.24L266.144 281.41C265.274 283.06 264.074 284.35 262.544 285.28C261.044 286.18 259.244 286.63 257.144 286.63ZM286.43 286.54C285.23 286.54 284.255 286.24 283.505 285.64C282.755 285.04 282.245 284.215 281.975 283.165C280.865 284.305 279.86 285.175 278.96 285.775C278.06 286.345 276.89 286.63 275.45 286.63C273.77 286.63 272.345 286.15 271.175 285.19C270.035 284.2 269.465 282.79 269.465 280.96C269.465 280 269.69 279.115 270.14 278.305C270.59 277.465 271.385 276.685 272.525 275.965C273.695 275.245 275.36 274.54 277.52 273.85C278.12 273.64 278.795 273.43 279.545 273.22C280.295 273.01 281.06 272.8 281.84 272.59V271.33C281.84 269.23 281.54 267.82 280.94 267.1C280.37 266.35 279.35 265.975 277.88 265.975C277.61 265.975 277.31 265.99 276.98 266.02C276.68 266.05 276.365 266.095 276.035 266.155L275.495 268.63C275.375 269.71 275.06 270.505 274.55 271.015C274.04 271.525 273.41 271.78 272.66 271.78C271.22 271.78 270.38 271.105 270.14 269.755C270.41 267.955 271.37 266.515 273.02 265.435C274.7 264.355 276.905 263.815 279.635 263.815C282.245 263.815 284.15 264.445 285.35 265.705C286.55 266.935 287.15 269.02 287.15 271.96V281.77C287.15 283.12 287.585 283.795 288.455 283.795C289.025 283.795 289.55 283.465 290.03 282.805L291.065 283.705C290.525 284.725 289.88 285.46 289.13 285.91C288.41 286.33 287.51 286.54 286.43 286.54ZM274.73 280.015C274.73 281.185 275.03 282.04 275.63 282.58C276.26 283.09 277.025 283.345 277.925 283.345C278.435 283.345 278.945 283.225 279.455 282.985C279.965 282.745 280.76 282.25 281.84 281.5V274.39C281.21 274.6 280.61 274.795 280.04 274.975C279.5 275.155 279.035 275.32 278.645 275.47C277.145 276.07 276.11 276.76 275.54 277.54C275 278.32 274.73 279.145 274.73 280.015ZM298.559 275.335C298.559 278.065 299.069 280.105 300.089 281.455C301.139 282.775 302.459 283.435 304.049 283.435C304.829 283.435 305.534 283.285 306.164 282.985C306.824 282.655 307.439 282.19 308.009 281.59V268.675C306.689 267.535 305.384 266.965 304.094 266.965C302.594 266.965 301.289 267.64 300.179 268.99C299.099 270.34 298.559 272.455 298.559 275.335ZM308.549 286.495L308.189 283.66C307.349 284.62 306.419 285.355 305.399 285.865C304.379 286.375 303.209 286.63 301.889 286.63C300.119 286.63 298.544 286.18 297.164 285.28C295.814 284.38 294.749 283.09 293.969 281.41C293.189 279.73 292.799 277.735 292.799 275.425C292.799 273.055 293.234 271 294.104 269.26C295.004 267.52 296.189 266.185 297.659 265.255C299.159 264.295 300.794 263.815 302.564 263.815C303.704 263.815 304.724 264.025 305.624 264.445C306.554 264.865 307.424 265.555 308.234 266.515V257.245L304.724 256.795V255.04L312.959 253.015L313.634 253.42L313.454 259.765V283.66L316.379 284.155V286L308.549 286.495ZM329.522 265.975C328.802 265.975 328.082 266.215 327.362 266.695C326.672 267.145 326.072 267.895 325.562 268.945C325.082 269.995 324.782 271.42 324.662 273.22H330.827C331.907 273.22 332.627 272.995 332.987 272.545C333.347 272.095 333.527 271.465 333.527 270.655C333.527 269.275 333.137 268.15 332.357 267.28C331.577 266.41 330.632 265.975 329.522 265.975ZM329.522 286.63C327.422 286.63 325.577 286.18 323.987 285.28C322.397 284.38 321.152 283.09 320.252 281.41C319.352 279.7 318.902 277.675 318.902 275.335C318.902 272.935 319.412 270.88 320.432 269.17C321.482 267.43 322.832 266.11 324.482 265.21C326.162 264.28 327.947 263.815 329.837 263.815C331.607 263.815 333.152 264.19 334.472 264.94C335.792 265.69 336.812 266.74 337.532 268.09C338.282 269.44 338.657 271.03 338.657 272.86C338.657 273.82 338.567 274.645 338.387 275.335H324.617C324.737 277.915 325.412 279.85 326.642 281.14C327.902 282.43 329.477 283.075 331.367 283.075C332.687 283.075 333.797 282.82 334.697 282.31C335.627 281.77 336.467 281.08 337.217 280.24L338.522 281.41C337.652 283.06 336.452 284.35 334.922 285.28C333.422 286.18 331.622 286.63 329.522 286.63ZM341.971 286V284.155L344.851 283.615C344.881 282.475 344.896 281.26 344.896 279.97C344.896 278.65 344.896 277.51 344.896 276.55V274.165C344.896 272.935 344.881 271.96 344.851 271.24C344.851 270.49 344.821 269.665 344.761 268.765L341.611 268.36V266.65L349.126 263.815L349.846 264.265L350.296 269.575C350.986 267.715 351.916 266.29 353.086 265.3C354.256 264.31 355.426 263.815 356.596 263.815C357.406 263.815 358.141 264.025 358.801 264.445C359.491 264.865 359.941 265.465 360.151 266.245C360.121 267.355 359.851 268.225 359.341 268.855C358.831 269.455 358.126 269.755 357.226 269.755C356.146 269.755 355.126 269.215 354.166 268.135L353.761 267.685C352.171 269.005 351.031 270.865 350.341 273.265V276.55C350.341 277.48 350.341 278.59 350.341 279.88C350.341 281.14 350.356 282.325 350.386 283.435L354.076 284.155V286H341.971ZM368.998 286.63C367.618 286.63 366.343 286.465 365.173 286.135C364.033 285.835 362.893 285.37 361.753 284.74L361.708 279.52H364.723L365.533 283.705C366.613 284.155 367.783 284.38 369.043 284.38C370.573 284.38 371.713 284.11 372.463 283.57C373.213 283.03 373.588 282.28 373.588 281.32C373.588 280.48 373.288 279.805 372.688 279.295C372.088 278.755 371.068 278.245 369.628 277.765L367.378 277C365.698 276.46 364.363 275.665 363.373 274.615C362.413 273.565 361.933 272.245 361.933 270.655C361.933 269.395 362.263 268.255 362.923 267.235C363.583 266.185 364.543 265.36 365.803 264.76C367.093 264.13 368.653 263.815 370.483 263.815C371.773 263.815 372.943 263.98 373.993 264.31C375.073 264.61 376.138 265.06 377.188 265.66L376.963 270.385H373.993L373.183 266.605C372.343 266.245 371.413 266.065 370.393 266.065C369.193 266.065 368.263 266.32 367.603 266.83C366.943 267.34 366.613 268.03 366.613 268.9C366.613 269.71 366.883 270.37 367.423 270.88C367.993 271.36 369.043 271.855 370.573 272.365L372.373 272.905C374.563 273.655 376.123 274.585 377.053 275.695C377.983 276.805 378.448 278.14 378.448 279.7C378.448 281.71 377.623 283.375 375.973 284.695C374.353 285.985 372.028 286.63 368.998 286.63Z" fill="#01061B"/>
<mask id="path-3-inside-1_214_110" fill="white">
<path fill-rule="evenodd" clip-rule="evenodd" d="M397.338 132.937C315.805 63.8017 195.525 71.1833 128.112 149.685C64.3321 223.957 70.634 335.387 139.81 406.589C140.302 402.392 140.915 398.162 141.647 393.903C80.9209 326.082 77.1722 224.354 135.699 156.2C197.531 84.1967 306.911 75.241 384.236 135.183C388.632 134.283 393.002 133.534 397.338 132.937Z"/>
</mask>
<path d="M397.338 132.937L398.02 137.89L409.11 136.363L400.572 129.123L397.338 132.937ZM139.81 406.589L136.224 410.074L143.552 417.616L144.776 407.171L139.81 406.589ZM141.647 393.903L146.575 394.751L146.985 392.369L145.372 390.568L141.647 393.903ZM384.236 135.183L381.173 139.135L382.988 140.542L385.239 140.082L384.236 135.183ZM400.572 129.123C317.066 58.315 193.627 65.7192 124.319 146.428L131.906 152.943C197.424 76.6474 314.545 69.2884 394.104 136.75L400.572 129.123ZM124.319 146.428C58.748 222.785 65.3604 337.135 136.224 410.074L143.396 403.105C75.9076 333.64 69.9162 225.129 131.906 152.943L124.319 146.428ZM144.776 407.171C145.257 403.065 145.857 398.923 146.575 394.751L136.72 393.055C135.972 397.4 135.347 401.719 134.844 406.008L144.776 407.171ZM131.906 152.943C71.6403 223.121 75.631 327.669 137.922 397.239L145.372 390.568C86.2108 324.494 82.7042 225.587 139.492 159.458L131.906 152.943ZM387.3 131.231C307.997 69.7558 195.577 78.7981 131.906 152.943L139.492 159.458C199.486 89.5954 305.826 80.7261 381.173 139.135L387.3 131.231ZM385.239 140.082C389.531 139.203 393.794 138.472 398.02 137.89L396.656 127.983C392.209 128.596 387.732 129.364 383.233 130.285L385.239 140.082Z" fill="#9F9DFF" mask="url(#path-3-inside-1_214_110)"/>
<mask id="path-5-inside-2_214_110" fill="white">
<path fill-rule="evenodd" clip-rule="evenodd" d="M313.969 452.608C259.965 463.136 200.968 449.22 154.974 409.724C76.6356 342.451 65.956 226.669 130.817 151.139C195.679 75.6079 311.745 68.6678 390.083 135.941C468.422 203.213 479.102 318.995 414.24 394.526C396.416 415.282 374.724 430.859 351.011 441.139C351.064 442.247 351.026 443.357 350.897 444.456C375.518 434.014 398.051 417.983 416.516 396.48C482.519 319.62 471.56 201.954 392.038 133.665C312.516 65.3757 194.544 72.324 128.541 149.184C62.5384 226.044 73.4978 343.711 153.02 412C200.16 452.481 260.811 466.523 316.138 455.237C315.335 454.408 314.612 453.528 313.969 452.608Z"/>
</mask>
<path fill-rule="evenodd" clip-rule="evenodd" d="M313.969 452.608C259.965 463.136 200.968 449.22 154.974 409.724C76.6356 342.451 65.956 226.669 130.817 151.139C195.679 75.6079 311.745 68.6678 390.083 135.941C468.422 203.213 479.102 318.995 414.24 394.526C396.416 415.282 374.724 430.859 351.011 441.139C351.064 442.247 351.026 443.357 350.897 444.456C375.518 434.014 398.051 417.983 416.516 396.48C482.519 319.62 471.56 201.954 392.038 133.665C312.516 65.3757 194.544 72.324 128.541 149.184C62.5384 226.044 73.4978 343.711 153.02 412C200.16 452.481 260.811 466.523 316.138 455.237C315.335 454.408 314.612 453.528 313.969 452.608Z" fill="#9F9DFF"/>
<path d="M313.969 452.608L316.429 450.891L315.312 449.29L313.395 449.664L313.969 452.608ZM351.011 441.139L349.818 438.386L347.915 439.211L348.014 441.282L351.011 441.139ZM350.897 444.456L347.918 444.107L347.316 449.234L352.069 447.218L350.897 444.456ZM316.138 455.237L316.738 458.176L322.104 457.082L318.293 453.149L316.138 455.237ZM153.02 412C199.721 452.104 259.654 466.253 314.543 455.553L313.395 449.664C260.276 460.018 202.214 446.336 156.929 407.448L153.02 412ZM128.541 149.184C62.5387 226.044 73.4974 343.71 153.02 412L156.929 407.448C79.7737 341.191 69.3733 227.295 133.093 153.093L128.541 149.184ZM392.038 133.665C312.515 65.3754 194.544 72.3244 128.541 149.184L133.093 153.093C196.813 78.8914 310.974 71.9603 388.129 138.217L392.038 133.665ZM416.516 396.48C482.519 319.62 471.56 201.954 392.038 133.665L388.129 138.217C465.284 204.473 475.684 318.37 411.964 392.571L416.516 396.48ZM352.204 443.891C376.322 433.436 398.388 417.591 416.516 396.48L411.964 392.571C394.444 412.974 373.126 428.282 349.818 438.386L352.204 443.891ZM348.014 441.282C348.059 442.227 348.027 443.172 347.918 444.107L353.877 444.806C354.025 443.541 354.068 442.267 354.008 440.996L348.014 441.282ZM352.069 447.218C377.103 436.601 400.017 420.298 418.792 398.435L414.24 394.526C396.084 415.668 373.933 431.428 349.726 441.695L352.069 447.218ZM418.792 398.435C485.937 320.245 474.698 200.694 393.992 131.389L390.083 135.941C468.422 203.213 479.102 318.995 414.24 394.526L418.792 398.435ZM393.992 131.389C313.287 62.0836 193.41 69.0401 126.265 147.23L130.817 151.139C195.679 75.6079 311.745 68.6678 390.083 135.941L393.992 131.389ZM126.265 147.23C59.1208 225.419 70.36 344.971 151.065 414.276L154.974 409.724C76.6356 342.451 65.956 226.669 130.817 151.139L126.265 147.23ZM151.065 414.276C198.92 455.371 260.518 469.645 316.738 458.176L315.539 452.297C261.104 463.402 201.399 449.591 154.974 409.724L151.065 414.276ZM318.293 453.149C317.602 452.436 316.98 451.68 316.429 450.891L311.51 454.325C312.243 455.376 313.069 456.38 313.984 457.325L318.293 453.149Z" fill="#9F9DFF" mask="url(#path-5-inside-2_214_110)"/>
<mask id="path-7-inside-3_214_110" fill="white">
<path fill-rule="evenodd" clip-rule="evenodd" d="M197.135 449.878C192.527 451.341 187.911 452.657 183.295 453.825C237.1 484.768 306.464 485.167 373.861 458.861C369.255 457.117 364.696 455.249 360.187 453.254C349.65 456.928 339.1 459.921 328.609 462.219C281.172 472.608 235.319 468.752 197.135 449.878ZM244.476 14.8515C245.008 13.8495 245.545 12.8488 246.086 11.8495C244.79 12.7877 243.497 13.7364 242.208 14.6957C242.965 14.7431 243.721 14.795 244.476 14.8515Z"/>
</mask>
<path fill-rule="evenodd" clip-rule="evenodd" d="M197.135 449.878C192.527 451.341 187.911 452.657 183.295 453.825C237.1 484.768 306.464 485.167 373.861 458.861C369.255 457.117 364.696 455.249 360.187 453.254C349.65 456.928 339.1 459.921 328.609 462.219C281.172 472.608 235.319 468.752 197.135 449.878ZM244.476 14.8515C245.008 13.8495 245.545 12.8488 246.086 11.8495C244.79 12.7877 243.497 13.7364 242.208 14.6957C242.965 14.7431 243.721 14.795 244.476 14.8515Z" fill="#9F9DFF"/>
<path d="M197.135 449.878L198.464 447.188L197.379 446.652L196.226 447.018L197.135 449.878ZM183.295 453.825L182.56 450.917L175.379 452.733L181.8 456.426L183.295 453.825ZM373.861 458.861L374.952 461.655L382.222 458.818L374.923 456.055L373.861 458.861ZM360.187 453.254L361.4 450.51L360.317 450.031L359.199 450.421L360.187 453.254ZM328.609 462.219L327.967 459.288L327.967 459.288L328.609 462.219ZM244.476 14.8515L244.252 17.8431L246.206 17.9892L247.125 16.2586L244.476 14.8515ZM246.086 11.8495L248.724 13.2785L244.327 9.41912L246.086 11.8495ZM242.208 14.6957L240.417 12.289L233.847 17.1779L242.02 17.6898L242.208 14.6957ZM196.226 447.018C191.675 448.464 187.117 449.764 182.56 450.917L184.031 456.733C188.706 455.551 193.379 454.218 198.043 452.737L196.226 447.018ZM181.8 456.426C236.589 487.934 306.944 488.2 374.952 461.655L372.77 456.066C305.985 482.134 237.612 481.601 184.791 451.224L181.8 456.426ZM374.923 456.055C370.368 454.331 365.859 452.483 361.4 450.51L358.973 455.997C363.532 458.014 368.142 459.904 372.799 461.666L374.923 456.055ZM359.199 450.421C348.772 454.057 338.337 457.017 327.967 459.288L329.25 465.149C339.863 462.825 350.529 459.799 361.174 456.086L359.199 450.421ZM327.967 459.288C281.063 469.56 235.927 465.706 198.464 447.188L195.805 452.567C234.712 471.798 281.281 475.655 329.25 465.149L327.967 459.288ZM247.125 16.2586C247.654 15.264 248.186 14.2706 248.724 13.2785L243.448 10.4204C242.903 11.427 242.362 12.435 241.826 13.4443L247.125 16.2586ZM244.327 9.41912C243.02 10.3651 241.717 11.3217 240.417 12.289L243.999 17.1024C245.277 16.1511 246.559 15.2102 247.845 14.2798L244.327 9.41912ZM242.02 17.6898C242.765 17.7365 243.509 17.7876 244.252 17.8431L244.699 11.8598C243.932 11.8025 243.164 11.7497 242.395 11.7016L242.02 17.6898Z" fill="#9F9DFF" mask="url(#path-7-inside-3_214_110)"/>
<mask id="path-9-inside-4_214_110" fill="white">
<path fill-rule="evenodd" clip-rule="evenodd" d="M147.658 423.545C148.725 423.587 149.795 423.618 150.868 423.638C177.907 446.189 208.97 460.67 240.975 467.269C240.794 467.915 240.647 468.566 240.536 469.219C207.46 462.392 175.388 447.233 147.658 423.545ZM275.619 473.337C275.756 472.675 275.858 472.011 275.923 471.346C332.48 472.964 388.505 450.605 427.42 405.289C446.942 382.555 460.102 356.439 467.09 329.027C467.799 328.988 468.513 328.897 469.224 328.755C462.216 356.731 448.854 383.399 428.937 406.592C389.542 452.468 332.828 475.046 275.619 473.337ZM474.229 299.304C476.391 275.79 474.313 251.9 468.106 228.837C467.449 228.961 466.78 229.045 466.104 229.09C472.287 251.942 474.373 275.615 472.254 298.916C472.924 298.995 473.584 299.124 474.229 299.304ZM455.817 195.237C446.58 175.517 434.053 156.946 418.319 140.397C418.339 141.38 418.351 142.365 418.356 143.354C433.18 159.274 445.048 177.025 453.89 195.834C454.516 195.594 455.16 195.395 455.817 195.237Z"/>
</mask>
<path fill-rule="evenodd" clip-rule="evenodd" d="M147.658 423.545C148.725 423.587 149.795 423.618 150.868 423.638C177.907 446.189 208.97 460.67 240.975 467.269C240.794 467.915 240.647 468.566 240.536 469.219C207.46 462.392 175.388 447.233 147.658 423.545ZM275.619 473.337C275.756 472.675 275.858 472.011 275.923 471.346C332.48 472.964 388.505 450.605 427.42 405.289C446.942 382.555 460.102 356.439 467.09 329.027C467.799 328.988 468.513 328.897 469.224 328.755C462.216 356.731 448.854 383.399 428.937 406.592C389.542 452.468 332.828 475.046 275.619 473.337ZM474.229 299.304C476.391 275.79 474.313 251.9 468.106 228.837C467.449 228.961 466.78 229.045 466.104 229.09C472.287 251.942 474.373 275.615 472.254 298.916C472.924 298.995 473.584 299.124 474.229 299.304ZM455.817 195.237C446.58 175.517 434.053 156.946 418.319 140.397C418.339 141.38 418.351 142.365 418.356 143.354C433.18 159.274 445.048 177.025 453.89 195.834C454.516 195.594 455.16 195.395 455.817 195.237Z" fill="#9F9DFF"/>
<path d="M150.868 423.638L151.509 422.87L151.239 422.645L150.887 422.638L150.868 423.638ZM147.658 423.545L147.697 422.546L144.816 422.433L147.008 424.305L147.658 423.545ZM240.975 467.269L241.938 467.54L242.228 466.507L241.177 466.29L240.975 467.269ZM240.536 469.219L240.334 470.198L241.347 470.408L241.522 469.387L240.536 469.219ZM275.923 471.346L275.952 470.346L275.019 470.32L274.928 471.248L275.923 471.346ZM275.619 473.337L274.64 473.134L274.397 474.301L275.589 474.337L275.619 473.337ZM467.09 329.027L467.036 328.028L466.302 328.068L466.121 328.78L467.09 329.027ZM469.224 328.755L470.194 328.998L470.579 327.464L469.028 327.774L469.224 328.755ZM474.229 299.304L473.961 300.267L475.115 300.589L475.225 299.395L474.229 299.304ZM468.106 228.837L469.071 228.578L468.83 227.683L467.92 227.855L468.106 228.837ZM466.104 229.09L466.038 228.092L464.819 228.172L465.138 229.351L466.104 229.09ZM472.254 298.916L471.258 298.826L471.17 299.795L472.137 299.909L472.254 298.916ZM418.319 140.397L419.044 139.708L417.267 137.839L417.319 140.417L418.319 140.397ZM455.817 195.237L456.051 196.209L457.243 195.923L456.723 194.813L455.817 195.237ZM418.356 143.354L417.356 143.358L417.357 143.749L417.624 144.035L418.356 143.354ZM453.89 195.834L452.985 196.26L453.381 197.102L454.249 196.768L453.89 195.834ZM150.887 422.638C149.82 422.618 148.757 422.587 147.697 422.546L147.619 424.544C148.692 424.586 149.769 424.618 150.85 424.638L150.887 422.638ZM241.177 466.29C209.331 459.723 178.419 445.314 151.509 422.87L150.228 424.406C177.395 447.065 208.609 461.617 240.773 468.249L241.177 466.29ZM241.522 469.387C241.627 468.769 241.766 468.152 241.938 467.54L240.012 466.999C239.821 467.678 239.667 468.363 239.55 469.051L241.522 469.387ZM147.008 424.305C174.869 448.105 207.095 463.338 240.334 470.198L240.738 468.24C207.824 461.446 175.907 446.361 148.307 422.785L147.008 424.305ZM274.928 471.248C274.866 471.877 274.77 472.507 274.64 473.134L276.598 473.541C276.743 472.844 276.85 472.144 276.918 471.444L274.928 471.248ZM426.661 404.637C387.956 449.71 332.228 471.957 275.952 470.346L275.895 472.346C332.733 473.972 389.054 451.5 428.179 405.94L426.661 404.637ZM466.121 328.78C459.17 356.047 446.08 382.024 426.661 404.637L428.179 405.94C447.804 383.087 461.034 356.831 468.059 329.274L466.121 328.78ZM469.028 327.774C468.362 327.908 467.696 327.992 467.036 328.028L467.144 330.025C467.903 329.984 468.663 329.887 469.421 329.736L469.028 327.774ZM429.696 407.243C449.717 383.929 463.149 357.12 470.194 328.998L468.254 328.512C461.282 356.341 447.991 382.869 428.179 405.94L429.696 407.243ZM275.589 474.337C333.08 476.054 390.091 453.363 429.696 407.243L428.179 405.94C388.993 451.572 332.577 474.038 275.649 472.338L275.589 474.337ZM475.225 299.395C477.398 275.762 475.309 251.754 469.071 228.578L467.14 229.097C473.317 252.047 475.384 275.818 473.233 299.212L475.225 299.395ZM467.92 227.855C467.304 227.971 466.676 228.05 466.038 228.092L466.169 230.088C466.885 230.041 467.594 229.952 468.291 229.82L467.92 227.855ZM465.138 229.351C471.291 252.09 473.366 275.644 471.258 298.826L473.25 299.007C475.38 275.586 473.283 251.794 467.069 228.829L465.138 229.351ZM472.137 299.909C472.757 299.982 473.367 300.102 473.961 300.267L474.497 298.34C473.802 298.147 473.091 298.008 472.371 297.923L472.137 299.909ZM417.595 141.086C433.254 157.556 445.719 176.037 454.912 195.661L456.723 194.813C447.44 174.996 434.853 156.336 419.044 139.708L417.595 141.086ZM419.356 143.349C419.351 142.356 419.339 141.365 419.319 140.377L417.319 140.417C417.339 141.395 417.351 142.375 417.356 143.358L419.356 143.349ZM454.795 195.409C445.909 176.507 433.983 158.669 419.087 142.672L417.624 144.035C432.377 159.879 444.187 177.543 452.985 196.26L454.795 195.409ZM455.584 194.264C454.884 194.433 454.199 194.645 453.532 194.901L454.249 196.768C454.833 196.544 455.435 196.357 456.051 196.209L455.584 194.264Z" fill="#9F9DFF" mask="url(#path-9-inside-4_214_110)"/>
</svg>
