<svg width="349" height="342" viewBox="0 0 349 342" fill="none" xmlns="http://www.w3.org/2000/svg">
<path d="M82.043 5.51953L70.3881 14.1194H8V296.388L22.0545 310.535H172.883H292.517L302.801 298.113H335.709" stroke="#9A9DFF" stroke-width="5"/>
<path d="M344.741 336.679L331.987 336.679L344.742 326.338L344.741 336.679Z" fill="#D9D9D9"/>
<path d="M6.81723 313.362L5.96187 300.636L17.135 312.669L6.81723 313.362Z" fill="#D9D9D9"/>
<path d="M337.064 8.83026L337.166 20.9421L324.483 8.71075L337.064 8.83026Z" fill="#D9D9D9"/>
<path d="M109.809 322.957L125.577 333.999H327.824L342.564 322.547V3.4502H212.303L196.535 11.8068" stroke="#9A9DFF" stroke-width="5"/>
<path d="M115.487 181.765C113.687 181.765 111.947 181.435 110.267 180.775C108.587 180.115 107.072 179.125 105.722 177.805C104.402 176.485 103.352 174.85 102.572 172.9C101.822 170.95 101.447 168.67 101.447 166.06C101.447 163.54 101.837 161.305 102.617 159.355C103.397 157.405 104.447 155.77 105.767 154.45C107.087 153.1 108.587 152.095 110.267 151.435C111.947 150.745 113.687 150.4 115.487 150.4C117.287 150.4 119.012 150.73 120.662 151.39C122.342 152.05 123.842 153.04 125.162 154.36C126.482 155.65 127.532 157.285 128.312 159.265C129.092 161.215 129.482 163.48 129.482 166.06C129.482 168.58 129.092 170.815 128.312 172.765C127.562 174.715 126.512 176.365 125.162 177.715C123.842 179.035 122.342 180.04 120.662 180.73C119.012 181.42 117.287 181.765 115.487 181.765ZM115.487 179.335C117.287 179.335 118.742 178.72 119.852 177.49C120.962 176.26 121.772 174.64 122.282 172.63C122.822 170.62 123.092 168.43 123.092 166.06C123.092 163.69 122.822 161.5 122.282 159.49C121.772 157.48 120.962 155.86 119.852 154.63C118.742 153.4 117.287 152.785 115.487 152.785C113.687 152.785 112.217 153.4 111.077 154.63C109.937 155.86 109.097 157.48 108.557 159.49C108.047 161.5 107.792 163.69 107.792 166.06C107.792 168.43 108.047 170.62 108.557 172.63C109.097 174.64 109.937 176.26 111.077 177.49C112.217 178.72 113.687 179.335 115.487 179.335ZM157.611 161.335V159.445H165.846V161.335L163.371 161.785L156.666 181.18H154.146L148.656 165.925L143.076 181.18H140.601L133.446 161.695L131.106 161.335V159.445H142.131V161.335L139.071 161.785L143.211 174.475L147.711 161.785L144.696 161.335V159.445H155.136V161.335L152.211 161.83L156.666 174.34L160.581 161.83L157.611 161.335ZM167.753 181V179.155L170.678 178.57C170.708 177.46 170.723 176.26 170.723 174.97C170.723 173.65 170.723 172.51 170.723 171.55V169.165C170.723 167.935 170.708 166.96 170.678 166.24C170.678 165.49 170.648 164.665 170.588 163.765L167.438 163.36V161.65L174.953 158.815L175.673 159.265L175.988 162.73C178.298 160.12 180.848 158.815 183.638 158.815C185.588 158.815 187.088 159.46 188.138 160.75C189.218 162.04 189.758 164.08 189.758 166.87V171.55C189.758 172.57 189.758 173.725 189.758 175.015C189.758 176.305 189.773 177.505 189.803 178.615L192.548 179.155V181H181.433V179.155L184.313 178.57C184.343 177.46 184.358 176.275 184.358 175.015C184.358 173.725 184.358 172.57 184.358 171.55V167.275C184.358 165.505 184.118 164.29 183.638 163.63C183.158 162.94 182.348 162.595 181.208 162.595C179.618 162.595 177.938 163.33 176.168 164.8V171.55C176.168 172.54 176.168 173.68 176.168 174.97C176.168 176.26 176.183 177.475 176.213 178.615L178.868 179.155V181H167.753ZM206.017 160.975C205.297 160.975 204.577 161.215 203.857 161.695C203.167 162.145 202.567 162.895 202.057 163.945C201.577 164.995 201.277 166.42 201.157 168.22H207.322C208.402 168.22 209.122 167.995 209.482 167.545C209.842 167.095 210.022 166.465 210.022 165.655C210.022 164.275 209.632 163.15 208.852 162.28C208.072 161.41 207.127 160.975 206.017 160.975ZM206.017 181.63C203.917 181.63 202.072 181.18 200.482 180.28C198.892 179.38 197.647 178.09 196.747 176.41C195.847 174.7 195.397 172.675 195.397 170.335C195.397 167.935 195.907 165.88 196.927 164.17C197.977 162.43 199.327 161.11 200.977 160.21C202.657 159.28 204.442 158.815 206.332 158.815C208.102 158.815 209.647 159.19 210.967 159.94C212.287 160.69 213.307 161.74 214.027 163.09C214.777 164.44 215.152 166.03 215.152 167.86C215.152 168.82 215.062 169.645 214.882 170.335H201.112C201.232 172.915 201.907 174.85 203.137 176.14C204.397 177.43 205.972 178.075 207.862 178.075C209.182 178.075 210.292 177.82 211.192 177.31C212.122 176.77 212.962 176.08 213.712 175.24L215.017 176.41C214.147 178.06 212.947 179.35 211.417 180.28C209.917 181.18 208.117 181.63 206.017 181.63ZM218.467 181V179.155L221.347 178.615C221.377 177.475 221.392 176.26 221.392 174.97C221.392 173.65 221.392 172.51 221.392 171.55V169.165C221.392 167.935 221.377 166.96 221.347 166.24C221.347 165.49 221.317 164.665 221.257 163.765L218.107 163.36V161.65L225.622 158.815L226.342 159.265L226.792 164.575C227.482 162.715 228.412 161.29 229.582 160.3C230.752 159.31 231.922 158.815 233.092 158.815C233.902 158.815 234.637 159.025 235.297 159.445C235.987 159.865 236.437 160.465 236.647 161.245C236.617 162.355 236.347 163.225 235.837 163.855C235.327 164.455 234.622 164.755 233.722 164.755C232.642 164.755 231.622 164.215 230.662 163.135L230.257 162.685C228.667 164.005 227.527 165.865 226.837 168.265V171.55C226.837 172.48 226.837 173.59 226.837 174.88C226.837 176.14 226.852 177.325 226.882 178.435L230.572 179.155V181H218.467ZM245.493 181.63C244.113 181.63 242.838 181.465 241.668 181.135C240.528 180.835 239.388 180.37 238.248 179.74L238.203 174.52H241.218L242.028 178.705C243.108 179.155 244.278 179.38 245.538 179.38C247.068 179.38 248.208 179.11 248.958 178.57C249.708 178.03 250.083 177.28 250.083 176.32C250.083 175.48 249.783 174.805 249.183 174.295C248.583 173.755 247.563 173.245 246.123 172.765L243.873 172C242.193 171.46 240.858 170.665 239.868 169.615C238.908 168.565 238.428 167.245 238.428 165.655C238.428 164.395 238.758 163.255 239.418 162.235C240.078 161.185 241.038 160.36 242.298 159.76C243.588 159.13 245.148 158.815 246.978 158.815C248.268 158.815 249.438 158.98 250.488 159.31C251.568 159.61 252.633 160.06 253.683 160.66L253.458 165.385H250.488L249.678 161.605C248.838 161.245 247.908 161.065 246.888 161.065C245.688 161.065 244.758 161.32 244.098 161.83C243.438 162.34 243.108 163.03 243.108 163.9C243.108 164.71 243.378 165.37 243.918 165.88C244.488 166.36 245.538 166.855 247.068 167.365L248.868 167.905C251.058 168.655 252.618 169.585 253.548 170.695C254.478 171.805 254.943 173.14 254.943 174.7C254.943 176.71 254.118 178.375 252.468 179.695C250.848 180.985 248.523 181.63 245.493 181.63Z" fill="#F7F6F3"/>
</svg>
