<svg width="556" height="556" viewBox="0 0 556 556" fill="none" xmlns="http://www.w3.org/2000/svg">
<rect x="102" y="103" width="340" height="340" rx="170" fill="#9F9DFF"/>
<path d="M208.885 286.765C207.085 286.765 205.345 286.435 203.665 285.775C201.985 285.115 200.47 284.125 199.12 282.805C197.8 281.485 196.75 279.85 195.97 277.9C195.22 275.95 194.845 273.67 194.845 271.06C194.845 268.54 195.235 266.305 196.015 264.355C196.795 262.405 197.845 260.77 199.165 259.45C200.485 258.1 201.985 257.095 203.665 256.435C205.345 255.745 207.085 255.4 208.885 255.4C210.685 255.4 212.41 255.73 214.06 256.39C215.74 257.05 217.24 258.04 218.56 259.36C219.88 260.65 220.93 262.285 221.71 264.265C222.49 266.215 222.88 268.48 222.88 271.06C222.88 273.58 222.49 275.815 221.71 277.765C220.96 279.715 219.91 281.365 218.56 282.715C217.24 284.035 215.74 285.04 214.06 285.73C212.41 286.42 210.685 286.765 208.885 286.765ZM208.885 284.335C210.685 284.335 212.14 283.72 213.25 282.49C214.36 281.26 215.17 279.64 215.68 277.63C216.22 275.62 216.49 273.43 216.49 271.06C216.49 268.69 216.22 266.5 215.68 264.49C215.17 262.48 214.36 260.86 213.25 259.63C212.14 258.4 210.685 257.785 208.885 257.785C207.085 257.785 205.615 258.4 204.475 259.63C203.335 260.86 202.495 262.48 201.955 264.49C201.445 266.5 201.19 268.69 201.19 271.06C201.19 273.43 201.445 275.62 201.955 277.63C202.495 279.64 203.335 281.26 204.475 282.49C205.615 283.72 207.085 284.335 208.885 284.335ZM251.01 266.335V264.445H259.245V266.335L256.77 266.785L250.065 286.18H247.545L242.055 270.925L236.475 286.18H234L226.845 266.695L224.505 266.335V264.445H235.53V266.335L232.47 266.785L236.61 279.475L241.11 266.785L238.095 266.335V264.445H248.535V266.335L245.61 266.83L250.065 279.34L253.98 266.83L251.01 266.335ZM261.151 286V284.155L264.076 283.57C264.106 282.46 264.121 281.26 264.121 279.97C264.121 278.65 264.121 277.51 264.121 276.55V274.165C264.121 272.935 264.106 271.96 264.076 271.24C264.076 270.49 264.046 269.665 263.986 268.765L260.836 268.36V266.65L268.351 263.815L269.071 264.265L269.386 267.73C271.696 265.12 274.246 263.815 277.036 263.815C278.986 263.815 280.486 264.46 281.536 265.75C282.616 267.04 283.156 269.08 283.156 271.87V276.55C283.156 277.57 283.156 278.725 283.156 280.015C283.156 281.305 283.171 282.505 283.201 283.615L285.946 284.155V286H274.831V284.155L277.711 283.57C277.741 282.46 277.756 281.275 277.756 280.015C277.756 278.725 277.756 277.57 277.756 276.55V272.275C277.756 270.505 277.516 269.29 277.036 268.63C276.556 267.94 275.746 267.595 274.606 267.595C273.016 267.595 271.336 268.33 269.566 269.8V276.55C269.566 277.54 269.566 278.68 269.566 279.97C269.566 281.26 269.581 282.475 269.611 283.615L272.266 284.155V286H261.151ZM299.416 265.975C298.696 265.975 297.976 266.215 297.256 266.695C296.566 267.145 295.966 267.895 295.456 268.945C294.976 269.995 294.676 271.42 294.556 273.22H300.721C301.801 273.22 302.521 272.995 302.881 272.545C303.241 272.095 303.421 271.465 303.421 270.655C303.421 269.275 303.031 268.15 302.251 267.28C301.471 266.41 300.526 265.975 299.416 265.975ZM299.416 286.63C297.316 286.63 295.471 286.18 293.881 285.28C292.291 284.38 291.046 283.09 290.146 281.41C289.246 279.7 288.796 277.675 288.796 275.335C288.796 272.935 289.306 270.88 290.326 269.17C291.376 267.43 292.726 266.11 294.376 265.21C296.056 264.28 297.841 263.815 299.731 263.815C301.501 263.815 303.046 264.19 304.366 264.94C305.686 265.69 306.706 266.74 307.426 268.09C308.176 269.44 308.551 271.03 308.551 272.86C308.551 273.82 308.461 274.645 308.281 275.335H294.511C294.631 277.915 295.306 279.85 296.536 281.14C297.796 282.43 299.371 283.075 301.261 283.075C302.581 283.075 303.691 282.82 304.591 282.31C305.521 281.77 306.361 281.08 307.111 280.24L308.416 281.41C307.546 283.06 306.346 284.35 304.816 285.28C303.316 286.18 301.516 286.63 299.416 286.63ZM311.865 286V284.155L314.745 283.615C314.775 282.475 314.79 281.26 314.79 279.97C314.79 278.65 314.79 277.51 314.79 276.55V274.165C314.79 272.935 314.775 271.96 314.745 271.24C314.745 270.49 314.715 269.665 314.655 268.765L311.505 268.36V266.65L319.02 263.815L319.74 264.265L320.19 269.575C320.88 267.715 321.81 266.29 322.98 265.3C324.15 264.31 325.32 263.815 326.49 263.815C327.3 263.815 328.035 264.025 328.695 264.445C329.385 264.865 329.835 265.465 330.045 266.245C330.015 267.355 329.745 268.225 329.235 268.855C328.725 269.455 328.02 269.755 327.12 269.755C326.04 269.755 325.02 269.215 324.06 268.135L323.655 267.685C322.065 269.005 320.925 270.865 320.235 273.265V276.55C320.235 277.48 320.235 278.59 320.235 279.88C320.235 281.14 320.25 282.325 320.28 283.435L323.97 284.155V286H311.865ZM338.892 286.63C337.512 286.63 336.237 286.465 335.067 286.135C333.927 285.835 332.787 285.37 331.647 284.74L331.602 279.52H334.617L335.427 283.705C336.507 284.155 337.677 284.38 338.937 284.38C340.467 284.38 341.607 284.11 342.357 283.57C343.107 283.03 343.482 282.28 343.482 281.32C343.482 280.48 343.182 279.805 342.582 279.295C341.982 278.755 340.962 278.245 339.522 277.765L337.272 277C335.592 276.46 334.257 275.665 333.267 274.615C332.307 273.565 331.827 272.245 331.827 270.655C331.827 269.395 332.157 268.255 332.817 267.235C333.477 266.185 334.437 265.36 335.697 264.76C336.987 264.13 338.547 263.815 340.377 263.815C341.667 263.815 342.837 263.98 343.887 264.31C344.967 264.61 346.032 265.06 347.082 265.66L346.857 270.385H343.887L343.077 266.605C342.237 266.245 341.307 266.065 340.287 266.065C339.087 266.065 338.157 266.32 337.497 266.83C336.837 267.34 336.507 268.03 336.507 268.9C336.507 269.71 336.777 270.37 337.317 270.88C337.887 271.36 338.937 271.855 340.467 272.365L342.267 272.905C344.457 273.655 346.017 274.585 346.947 275.695C347.877 276.805 348.342 278.14 348.342 279.7C348.342 281.71 347.517 283.375 345.867 284.695C344.247 285.985 341.922 286.63 338.892 286.63Z" fill="#01061B"/>
<mask id="path-3-inside-1_215_307" fill="white">
<path fill-rule="evenodd" clip-rule="evenodd" d="M397.338 132.937C315.805 63.8017 195.525 71.1833 128.112 149.685C64.3316 223.957 70.6335 335.387 139.81 406.589C140.302 402.392 140.914 398.162 141.647 393.903C80.9204 326.082 77.1718 224.354 135.698 156.2C197.531 84.1967 306.911 75.241 384.236 135.183C388.631 134.283 393.001 133.534 397.338 132.937Z"/>
</mask>
<path d="M397.338 132.937L398.02 137.89L409.109 136.363L400.571 129.123L397.338 132.937ZM139.81 406.589L136.224 410.074L143.552 417.616L144.776 407.171L139.81 406.589ZM141.647 393.903L146.575 394.751L146.985 392.369L145.372 390.568L141.647 393.903ZM384.236 135.183L381.172 139.135L382.988 140.542L385.238 140.082L384.236 135.183ZM400.571 129.123C317.065 58.315 193.626 65.7192 124.319 146.428L131.905 152.943C197.423 76.6474 314.544 69.2884 394.104 136.75L400.571 129.123ZM124.319 146.428C58.7475 222.785 65.3599 337.135 136.224 410.074L143.396 403.105C75.9071 333.64 69.9157 225.129 131.905 152.943L124.319 146.428ZM144.776 407.171C145.257 403.065 145.857 398.923 146.575 394.751L136.719 393.055C135.972 397.4 135.346 401.719 134.844 406.008L144.776 407.171ZM131.905 152.943C71.6398 223.121 75.6305 327.669 137.922 397.239L145.372 390.568C86.2103 324.494 82.7037 225.587 139.492 159.458L131.905 152.943ZM387.299 131.231C307.996 69.7558 195.576 78.7981 131.905 152.943L139.492 159.458C199.485 89.5954 305.826 80.7261 381.172 139.135L387.299 131.231ZM385.238 140.082C389.531 139.203 393.794 138.472 398.02 137.89L396.655 127.983C392.209 128.596 387.732 129.364 383.233 130.285L385.238 140.082Z" fill="#9F9DFF" mask="url(#path-3-inside-1_215_307)"/>
<mask id="path-5-inside-2_215_307" fill="white">
<path fill-rule="evenodd" clip-rule="evenodd" d="M313.969 452.608C259.964 463.136 200.967 449.22 154.974 409.724C76.6351 342.451 65.9555 226.669 130.817 151.139C195.678 75.6079 311.744 68.6678 390.083 135.941C468.422 203.213 479.101 318.995 414.24 394.526C396.415 415.282 374.723 430.859 351.01 441.139C351.063 442.247 351.026 443.357 350.897 444.456C375.517 434.014 398.05 417.983 416.516 396.48C482.519 319.62 471.559 201.954 392.037 133.665C312.515 65.3757 194.544 72.324 128.541 149.184C62.5379 226.044 73.4973 343.711 153.019 412C200.159 452.481 260.81 466.523 316.138 455.237C315.335 454.408 314.611 453.528 313.969 452.608Z"/>
</mask>
<path fill-rule="evenodd" clip-rule="evenodd" d="M313.969 452.608C259.964 463.136 200.967 449.22 154.974 409.724C76.6351 342.451 65.9555 226.669 130.817 151.139C195.678 75.6079 311.744 68.6678 390.083 135.941C468.422 203.213 479.101 318.995 414.24 394.526C396.415 415.282 374.723 430.859 351.01 441.139C351.063 442.247 351.026 443.357 350.897 444.456C375.517 434.014 398.05 417.983 416.516 396.48C482.519 319.62 471.559 201.954 392.037 133.665C312.515 65.3757 194.544 72.324 128.541 149.184C62.5379 226.044 73.4973 343.711 153.019 412C200.159 452.481 260.81 466.523 316.138 455.237C315.335 454.408 314.611 453.528 313.969 452.608Z" fill="#9F9DFF"/>
<path d="M313.969 452.608L316.429 450.891L315.311 449.29L313.395 449.664L313.969 452.608ZM351.01 441.139L349.817 438.386L347.915 439.211L348.014 441.282L351.01 441.139ZM350.897 444.456L347.917 444.107L347.315 449.234L352.068 447.218L350.897 444.456ZM316.138 455.237L316.737 458.176L322.103 457.082L318.292 453.149L316.138 455.237ZM153.019 412C199.721 452.104 259.654 466.253 314.543 455.553L313.395 449.664C260.275 460.018 202.213 446.336 156.928 407.448L153.019 412ZM128.541 149.184C62.5382 226.044 73.4969 343.71 153.019 412L156.928 407.448C79.7733 341.191 69.3728 227.295 133.093 153.093L128.541 149.184ZM392.037 133.665C312.515 65.3754 194.544 72.3244 128.541 149.184L133.093 153.093C196.813 78.8914 310.973 71.9603 388.128 138.217L392.037 133.665ZM416.516 396.48C482.518 319.62 471.56 201.954 392.037 133.665L388.128 138.217C465.283 204.473 475.684 318.37 411.964 392.571L416.516 396.48ZM352.204 443.891C376.322 433.436 398.387 417.591 416.516 396.48L411.964 392.571C394.443 412.974 373.125 428.282 349.817 438.386L352.204 443.891ZM348.014 441.282C348.059 442.227 348.027 443.172 347.917 444.107L353.876 444.806C354.025 443.541 354.068 442.267 354.007 440.996L348.014 441.282ZM352.068 447.218C377.102 436.601 400.017 420.298 418.792 398.435L414.24 394.526C396.084 415.668 373.933 431.428 349.725 441.695L352.068 447.218ZM418.792 398.435C485.936 320.245 474.697 200.694 393.992 131.389L390.083 135.941C468.422 203.213 479.101 318.995 414.24 394.526L418.792 398.435ZM393.992 131.389C313.286 62.0836 193.409 69.0401 126.265 147.23L130.817 151.139C195.678 75.6079 311.744 68.6678 390.083 135.941L393.992 131.389ZM126.265 147.23C59.1203 225.419 70.3595 344.971 151.065 414.276L154.974 409.724C76.6351 342.451 65.9555 226.669 130.817 151.139L126.265 147.23ZM151.065 414.276C198.92 455.371 260.517 469.645 316.737 458.176L315.538 452.297C261.103 463.402 201.399 449.591 154.974 409.724L151.065 414.276ZM318.292 453.149C317.601 452.436 316.98 451.68 316.429 450.891L311.509 454.325C312.243 455.376 313.068 456.38 313.983 457.325L318.292 453.149Z" fill="#9F9DFF" mask="url(#path-5-inside-2_215_307)"/>
<mask id="path-7-inside-3_215_307" fill="white">
<path fill-rule="evenodd" clip-rule="evenodd" d="M197.135 449.878C192.527 451.341 187.911 452.657 183.295 453.825C237.1 484.768 306.464 485.167 373.861 458.861C369.255 457.117 364.696 455.249 360.187 453.254C349.65 456.928 339.1 459.921 328.609 462.219C281.172 472.608 235.319 468.752 197.135 449.878ZM244.476 14.8515C245.008 13.8495 245.545 12.8488 246.086 11.8495C244.79 12.7877 243.497 13.7364 242.208 14.6957C242.965 14.7431 243.721 14.795 244.476 14.8515Z"/>
</mask>
<path fill-rule="evenodd" clip-rule="evenodd" d="M197.135 449.878C192.527 451.341 187.911 452.657 183.295 453.825C237.1 484.768 306.464 485.167 373.861 458.861C369.255 457.117 364.696 455.249 360.187 453.254C349.65 456.928 339.1 459.921 328.609 462.219C281.172 472.608 235.319 468.752 197.135 449.878ZM244.476 14.8515C245.008 13.8495 245.545 12.8488 246.086 11.8495C244.79 12.7877 243.497 13.7364 242.208 14.6957C242.965 14.7431 243.721 14.795 244.476 14.8515Z" fill="#9F9DFF"/>
<path d="M197.135 449.878L198.464 447.188L197.379 446.652L196.226 447.018L197.135 449.878ZM183.295 453.825L182.56 450.917L175.379 452.733L181.8 456.426L183.295 453.825ZM373.861 458.861L374.952 461.655L382.222 458.818L374.923 456.055L373.861 458.861ZM360.187 453.254L361.4 450.51L360.317 450.031L359.199 450.421L360.187 453.254ZM328.609 462.219L327.967 459.288L327.967 459.288L328.609 462.219ZM244.476 14.8515L244.252 17.8431L246.206 17.9892L247.125 16.2586L244.476 14.8515ZM246.086 11.8495L248.724 13.2785L244.327 9.41912L246.086 11.8495ZM242.208 14.6957L240.417 12.289L233.847 17.1779L242.02 17.6898L242.208 14.6957ZM196.226 447.018C191.675 448.464 187.117 449.764 182.56 450.917L184.031 456.733C188.706 455.551 193.379 454.218 198.043 452.737L196.226 447.018ZM181.8 456.426C236.589 487.934 306.944 488.2 374.952 461.655L372.77 456.066C305.985 482.134 237.612 481.601 184.791 451.224L181.8 456.426ZM374.923 456.055C370.368 454.331 365.859 452.483 361.4 450.51L358.973 455.997C363.532 458.014 368.142 459.904 372.799 461.666L374.923 456.055ZM359.199 450.421C348.772 454.057 338.337 457.017 327.967 459.288L329.25 465.149C339.863 462.825 350.529 459.799 361.174 456.086L359.199 450.421ZM327.967 459.288C281.063 469.56 235.927 465.706 198.464 447.188L195.805 452.567C234.712 471.798 281.281 475.655 329.25 465.149L327.967 459.288ZM247.125 16.2586C247.654 15.264 248.186 14.2706 248.724 13.2785L243.448 10.4204C242.903 11.427 242.362 12.435 241.826 13.4443L247.125 16.2586ZM244.327 9.41912C243.02 10.3651 241.717 11.3217 240.417 12.289L243.999 17.1024C245.277 16.1511 246.559 15.2102 247.845 14.2798L244.327 9.41912ZM242.02 17.6898C242.765 17.7365 243.509 17.7876 244.252 17.8431L244.699 11.8598C243.932 11.8025 243.164 11.7497 242.395 11.7016L242.02 17.6898Z" fill="#9F9DFF" mask="url(#path-7-inside-3_215_307)"/>
<mask id="path-9-inside-4_215_307" fill="white">
<path fill-rule="evenodd" clip-rule="evenodd" d="M147.657 423.545C148.724 423.587 149.794 423.618 150.867 423.638C177.906 446.189 208.969 460.67 240.974 467.269C240.793 467.915 240.646 468.566 240.535 469.219C207.459 462.392 175.387 447.233 147.657 423.545ZM275.618 473.337C275.756 472.675 275.857 472.011 275.922 471.346C332.479 472.964 388.504 450.605 427.419 405.289C446.941 382.555 460.101 356.439 467.089 329.027C467.799 328.988 468.512 328.897 469.223 328.755C462.215 356.731 448.853 383.399 428.936 406.592C389.541 452.468 332.827 475.046 275.618 473.337ZM474.228 299.304C476.39 275.79 474.312 251.9 468.105 228.837C467.448 228.961 466.779 229.045 466.103 229.09C472.286 251.942 474.372 275.615 472.253 298.916C472.923 298.995 473.583 299.124 474.228 299.304ZM455.816 195.237C446.579 175.517 434.052 156.946 418.318 140.397C418.338 141.38 418.35 142.365 418.355 143.354C433.179 159.274 445.047 177.025 453.889 195.834C454.515 195.594 455.159 195.395 455.816 195.237Z"/>
</mask>
<path fill-rule="evenodd" clip-rule="evenodd" d="M147.657 423.545C148.724 423.587 149.794 423.618 150.867 423.638C177.906 446.189 208.969 460.67 240.974 467.269C240.793 467.915 240.646 468.566 240.535 469.219C207.459 462.392 175.387 447.233 147.657 423.545ZM275.618 473.337C275.756 472.675 275.857 472.011 275.922 471.346C332.479 472.964 388.504 450.605 427.419 405.289C446.941 382.555 460.101 356.439 467.089 329.027C467.799 328.988 468.512 328.897 469.223 328.755C462.215 356.731 448.853 383.399 428.936 406.592C389.541 452.468 332.827 475.046 275.618 473.337ZM474.228 299.304C476.39 275.79 474.312 251.9 468.105 228.837C467.448 228.961 466.779 229.045 466.103 229.09C472.286 251.942 474.372 275.615 472.253 298.916C472.923 298.995 473.583 299.124 474.228 299.304ZM455.816 195.237C446.579 175.517 434.052 156.946 418.318 140.397C418.338 141.38 418.35 142.365 418.355 143.354C433.179 159.274 445.047 177.025 453.889 195.834C454.515 195.594 455.159 195.395 455.816 195.237Z" fill="#9F9DFF"/>
<path d="M150.867 423.638L151.508 422.87L151.238 422.645L150.886 422.638L150.867 423.638ZM147.657 423.545L147.696 422.546L144.815 422.433L147.007 424.305L147.657 423.545ZM240.974 467.269L241.937 467.54L242.227 466.507L241.176 466.29L240.974 467.269ZM240.535 469.219L240.333 470.198L241.346 470.408L241.521 469.387L240.535 469.219ZM275.922 471.346L275.951 470.346L275.019 470.32L274.927 471.248L275.922 471.346ZM275.618 473.337L274.639 473.134L274.396 474.301L275.588 474.337L275.618 473.337ZM467.089 329.027L467.035 328.028L466.301 328.068L466.12 328.78L467.089 329.027ZM469.223 328.755L470.193 328.998L470.578 327.464L469.027 327.774L469.223 328.755ZM474.228 299.304L473.96 300.267L475.114 300.589L475.224 299.395L474.228 299.304ZM468.105 228.837L469.07 228.578L468.829 227.683L467.919 227.855L468.105 228.837ZM466.103 229.09L466.037 228.092L464.818 228.172L465.137 229.351L466.103 229.09ZM472.253 298.916L471.257 298.826L471.169 299.795L472.136 299.909L472.253 298.916ZM418.318 140.397L419.043 139.708L417.266 137.839L417.318 140.417L418.318 140.397ZM455.816 195.237L456.05 196.209L457.242 195.923L456.722 194.813L455.816 195.237ZM418.355 143.354L417.355 143.358L417.356 143.749L417.623 144.035L418.355 143.354ZM453.889 195.834L452.984 196.26L453.38 197.102L454.248 196.768L453.889 195.834ZM150.886 422.638C149.819 422.618 148.756 422.587 147.696 422.546L147.618 424.544C148.691 424.586 149.768 424.618 150.849 424.638L150.886 422.638ZM241.176 466.29C209.33 459.723 178.418 445.314 151.508 422.87L150.227 424.406C177.394 447.065 208.608 461.617 240.772 468.249L241.176 466.29ZM241.521 469.387C241.626 468.769 241.765 468.152 241.937 467.54L240.011 466.999C239.821 467.678 239.666 468.363 239.549 469.051L241.521 469.387ZM147.007 424.305C174.868 448.105 207.094 463.338 240.333 470.198L240.737 468.24C207.823 461.446 175.906 446.361 148.306 422.785L147.007 424.305ZM274.927 471.248C274.865 471.877 274.769 472.507 274.639 473.134L276.597 473.541C276.742 472.844 276.849 472.144 276.918 471.444L274.927 471.248ZM426.66 404.637C387.955 449.71 332.227 471.957 275.951 470.346L275.894 472.346C332.732 473.972 389.053 451.5 428.178 405.94L426.66 404.637ZM466.12 328.78C459.169 356.047 446.079 382.024 426.66 404.637L428.178 405.94C447.803 383.087 461.034 356.831 468.058 329.274L466.12 328.78ZM469.027 327.774C468.362 327.908 467.695 327.992 467.035 328.028L467.143 330.025C467.902 329.984 468.662 329.887 469.42 329.736L469.027 327.774ZM429.695 407.243C449.716 383.929 463.148 357.12 470.193 328.998L468.253 328.512C461.281 356.341 447.99 382.869 428.178 405.94L429.695 407.243ZM275.588 474.337C333.079 476.054 390.09 453.363 429.695 407.243L428.178 405.94C388.992 451.572 332.576 474.038 275.648 472.338L275.588 474.337ZM475.224 299.395C477.397 275.762 475.308 251.754 469.07 228.578L467.139 229.097C473.316 252.047 475.383 275.818 473.232 299.212L475.224 299.395ZM467.919 227.855C467.303 227.971 466.675 228.05 466.037 228.092L466.168 230.088C466.884 230.041 467.593 229.952 468.29 229.82L467.919 227.855ZM465.137 229.351C471.29 252.09 473.365 275.644 471.257 298.826L473.249 299.007C475.379 275.586 473.282 251.794 467.068 228.829L465.137 229.351ZM472.136 299.909C472.756 299.982 473.366 300.102 473.96 300.267L474.496 298.34C473.801 298.147 473.09 298.008 472.37 297.923L472.136 299.909ZM417.594 141.086C433.253 157.556 445.718 176.037 454.911 195.661L456.722 194.813C447.439 174.996 434.852 156.336 419.043 139.708L417.594 141.086ZM419.355 143.349C419.35 142.356 419.338 141.365 419.318 140.377L417.318 140.417C417.338 141.395 417.35 142.375 417.355 143.358L419.355 143.349ZM454.794 195.409C445.909 176.507 433.982 158.669 419.086 142.672L417.623 144.035C432.376 159.879 444.186 177.543 452.984 196.26L454.794 195.409ZM455.583 194.264C454.883 194.433 454.198 194.645 453.531 194.901L454.248 196.768C454.832 196.544 455.434 196.357 456.05 196.209L455.583 194.264Z" fill="#9F9DFF" mask="url(#path-9-inside-4_215_307)"/>
</svg>
