<svg width="349" height="342" viewBox="0 0 349 342" fill="none" xmlns="http://www.w3.org/2000/svg">
<path d="M81.5206 5.01953L69.8657 13.6194H7.47754V295.888L21.532 310.035H172.36H291.995L302.279 297.613H335.187" stroke="#9A9DFF" stroke-width="5"/>
<path d="M344.219 336.179L331.464 336.179L344.219 325.838L344.219 336.179Z" fill="#D9D9D9"/>
<path d="M6.29476 312.862L5.43941 300.136L16.6125 312.169L6.29476 312.862Z" fill="#D9D9D9"/>
<path d="M336.541 8.33026L336.644 20.4421L323.96 8.21075L336.541 8.33026Z" fill="#D9D9D9"/>
<path d="M109.286 322.457L125.055 333.499H327.302L342.042 322.047V2.9502H211.781L196.012 11.3068" stroke="#9A9DFF" stroke-width="5"/>
<path d="M105.216 166.1H103.191C103.191 168.32 103.191 170.42 103.191 172.4C103.221 174.35 103.251 176.27 103.281 178.16H105.396C110.466 178.16 113.001 176.18 113.001 172.22C113.001 170.15 112.371 168.62 111.111 167.63C109.851 166.61 107.886 166.1 105.216 166.1ZM105.666 152.96H103.281C103.251 154.88 103.221 156.785 103.191 158.675C103.191 160.565 103.191 162.305 103.191 163.895H105.036C107.346 163.895 109.041 163.43 110.121 162.5C111.201 161.57 111.741 160.145 111.741 158.225C111.741 156.365 111.231 155.03 110.211 154.22C109.221 153.38 107.706 152.96 105.666 152.96ZM93.5612 152.78V150.665H107.331C110.781 150.665 113.331 151.34 114.981 152.69C116.631 154.04 117.456 155.75 117.456 157.82C117.456 159.38 116.916 160.805 115.836 162.095C114.756 163.355 112.866 164.24 110.166 164.75C113.346 165.14 115.626 166.01 117.006 167.36C118.386 168.71 119.076 170.33 119.076 172.22C119.076 173.21 118.851 174.2 118.401 175.19C117.981 176.15 117.276 177.035 116.286 177.845C115.326 178.655 114.006 179.3 112.326 179.78C110.676 180.26 108.606 180.5 106.116 180.5H93.5612V178.385L97.3412 177.98C97.4012 176.09 97.4312 174.185 97.4312 172.265C97.4312 170.345 97.4312 168.41 97.4312 166.46V164.705C97.4312 162.785 97.4312 160.865 97.4312 158.945C97.4312 157.025 97.4012 155.105 97.3412 153.185L93.5612 152.78ZM137.752 180.905L137.392 176.945C135.202 179.735 132.652 181.13 129.742 181.13C127.882 181.13 126.382 180.53 125.242 179.33C124.132 178.1 123.592 176 123.622 173.03L123.802 161.915L120.877 161.285V159.53L128.752 158.585L129.292 159.08L129.067 165.38V172.85C129.067 174.53 129.322 175.715 129.832 176.405C130.372 177.065 131.137 177.395 132.127 177.395C132.967 177.395 133.822 177.155 134.692 176.675C135.592 176.195 136.447 175.58 137.257 174.83L137.392 161.915L134.557 161.285V159.62L142.252 158.585L142.837 159.08L142.702 165.38V178.07L145.447 178.655V180.5L137.752 180.905ZM148.09 180.5V178.655L151.06 178.07C151.09 176.96 151.105 175.76 151.105 174.47C151.105 173.15 151.105 172.01 151.105 171.05V168.935C151.105 167.705 151.09 166.685 151.06 165.875C151.06 165.035 151.03 164.165 150.97 163.265L147.775 162.86V161.15L155.875 158.315L156.595 158.765L156.46 165.11V171.05C156.46 172.01 156.46 173.15 156.46 174.47C156.46 175.76 156.475 176.975 156.505 178.115L159.25 178.655V180.5H148.09ZM153.76 154.13C152.8 154.13 151.99 153.83 151.33 153.23C150.67 152.63 150.34 151.865 150.34 150.935C150.34 149.975 150.67 149.195 151.33 148.595C151.99 147.995 152.8 147.695 153.76 147.695C154.72 147.695 155.515 147.995 156.145 148.595C156.805 149.195 157.135 149.975 157.135 150.935C157.135 151.865 156.805 152.63 156.145 153.23C155.515 153.83 154.72 154.13 153.76 154.13ZM161.619 180.5V178.655L164.679 178.07C164.709 176.9 164.724 175.73 164.724 174.56C164.754 173.39 164.769 172.22 164.769 171.05V151.745L161.484 151.295V149.54L169.674 147.515L170.349 147.92L170.169 154.265V171.05C170.169 172.22 170.169 173.39 170.169 174.56C170.199 175.73 170.229 176.9 170.259 178.07L173.319 178.655V180.5H161.619ZM181.804 169.835C181.804 172.565 182.314 174.605 183.334 175.955C184.384 177.275 185.704 177.935 187.294 177.935C188.074 177.935 188.779 177.785 189.409 177.485C190.069 177.155 190.684 176.69 191.254 176.09V163.175C189.934 162.035 188.629 161.465 187.339 161.465C185.839 161.465 184.534 162.14 183.424 163.49C182.344 164.84 181.804 166.955 181.804 169.835ZM191.794 180.995L191.434 178.16C190.594 179.12 189.664 179.855 188.644 180.365C187.624 180.875 186.454 181.13 185.134 181.13C183.364 181.13 181.789 180.68 180.409 179.78C179.059 178.88 177.994 177.59 177.214 175.91C176.434 174.23 176.044 172.235 176.044 169.925C176.044 167.555 176.479 165.5 177.349 163.76C178.249 162.02 179.434 160.685 180.904 159.755C182.404 158.795 184.039 158.315 185.809 158.315C186.949 158.315 187.969 158.525 188.869 158.945C189.799 159.365 190.669 160.055 191.479 161.015V151.745L187.969 151.295V149.54L196.204 147.515L196.879 147.92L196.699 154.265V178.16L199.624 178.655V180.5L191.794 180.995ZM212.768 160.475C212.048 160.475 211.328 160.715 210.608 161.195C209.918 161.645 209.318 162.395 208.808 163.445C208.328 164.495 208.028 165.92 207.908 167.72H214.073C215.153 167.72 215.873 167.495 216.233 167.045C216.593 166.595 216.773 165.965 216.773 165.155C216.773 163.775 216.383 162.65 215.603 161.78C214.823 160.91 213.878 160.475 212.768 160.475ZM212.768 181.13C210.668 181.13 208.823 180.68 207.233 179.78C205.643 178.88 204.398 177.59 203.498 175.91C202.598 174.2 202.148 172.175 202.148 169.835C202.148 167.435 202.658 165.38 203.678 163.67C204.728 161.93 206.078 160.61 207.728 159.71C209.408 158.78 211.193 158.315 213.083 158.315C214.853 158.315 216.398 158.69 217.718 159.44C219.038 160.19 220.058 161.24 220.778 162.59C221.528 163.94 221.903 165.53 221.903 167.36C221.903 168.32 221.813 169.145 221.633 169.835H207.863C207.983 172.415 208.658 174.35 209.888 175.64C211.148 176.93 212.723 177.575 214.613 177.575C215.933 177.575 217.043 177.32 217.943 176.81C218.873 176.27 219.713 175.58 220.463 174.74L221.768 175.91C220.898 177.56 219.698 178.85 218.168 179.78C216.668 180.68 214.868 181.13 212.768 181.13ZM225.217 180.5V178.655L228.097 178.115C228.127 176.975 228.142 175.76 228.142 174.47C228.142 173.15 228.142 172.01 228.142 171.05V168.665C228.142 167.435 228.127 166.46 228.097 165.74C228.097 164.99 228.067 164.165 228.007 163.265L224.857 162.86V161.15L232.372 158.315L233.092 158.765L233.542 164.075C234.232 162.215 235.162 160.79 236.332 159.8C237.502 158.81 238.672 158.315 239.842 158.315C240.652 158.315 241.387 158.525 242.047 158.945C242.737 159.365 243.187 159.965 243.397 160.745C243.367 161.855 243.097 162.725 242.587 163.355C242.077 163.955 241.372 164.255 240.472 164.255C239.392 164.255 238.372 163.715 237.412 162.635L237.007 162.185C235.417 163.505 234.277 165.365 233.587 167.765V171.05C233.587 171.98 233.587 173.09 233.587 174.38C233.587 175.64 233.602 176.825 233.632 177.935L237.322 178.655V180.5H225.217ZM252.244 181.13C250.864 181.13 249.589 180.965 248.419 180.635C247.279 180.335 246.139 179.87 244.999 179.24L244.954 174.02H247.969L248.779 178.205C249.859 178.655 251.029 178.88 252.289 178.88C253.819 178.88 254.959 178.61 255.709 178.07C256.459 177.53 256.834 176.78 256.834 175.82C256.834 174.98 256.534 174.305 255.934 173.795C255.334 173.255 254.314 172.745 252.874 172.265L250.624 171.5C248.944 170.96 247.609 170.165 246.619 169.115C245.659 168.065 245.179 166.745 245.179 165.155C245.179 163.895 245.509 162.755 246.169 161.735C246.829 160.685 247.789 159.86 249.049 159.26C250.339 158.63 251.899 158.315 253.729 158.315C255.019 158.315 256.189 158.48 257.239 158.81C258.319 159.11 259.384 159.56 260.434 160.16L260.209 164.885H257.239L256.429 161.105C255.589 160.745 254.659 160.565 253.639 160.565C252.439 160.565 251.509 160.82 250.849 161.33C250.189 161.84 249.859 162.53 249.859 163.4C249.859 164.21 250.129 164.87 250.669 165.38C251.239 165.86 252.289 166.355 253.819 166.865L255.619 167.405C257.809 168.155 259.369 169.085 260.299 170.195C261.229 171.305 261.694 172.64 261.694 174.2C261.694 176.21 260.869 177.875 259.219 179.195C257.599 180.485 255.274 181.13 252.244 181.13Z" fill="#F7F6F3"/>
</svg>
