<svg width="344" height="342" viewBox="0 0 344 342" fill="none" xmlns="http://www.w3.org/2000/svg">
<path d="M77.043 5.51953L65.3881 14.1194H3V296.388L17.0545 310.535H167.883H287.517L297.801 298.113H330.709" stroke="#9A9DFF" stroke-width="5"/>
<path d="M339.741 336.678L326.987 336.678L339.742 326.338L339.741 336.678Z" fill="#D9D9D9"/>
<path d="M333.064 8.83026L333.166 20.9421L320.483 8.71075L333.064 8.83026Z" fill="#D9D9D9"/>
<path d="M104.809 322.957L120.577 333.999H322.824L337.564 322.547V3.4502H207.303L191.535 11.8068" stroke="#9A9DFF" stroke-width="5"/>
<path d="M66.8033 152.28V150.165H80.3483V152.28L76.5683 152.685C76.5383 154.545 76.5083 156.435 76.4783 158.355C76.4783 160.245 76.4783 162.165 76.4783 164.115V166.05C76.4783 167.94 76.4783 169.845 76.4783 171.765C76.5083 173.655 76.5383 175.56 76.5683 177.48L80.3483 177.885V180H66.8033V177.885L70.5833 177.48C70.6433 175.62 70.6733 173.73 70.6733 171.81C70.6733 169.89 70.6733 167.97 70.6733 166.05V164.115C70.6733 162.225 70.6733 160.335 70.6733 158.445C70.6733 156.525 70.6433 154.605 70.5833 152.685L66.8033 152.28ZM82.9991 158.355L83.2691 150.165H108.784L109.009 158.355H105.904L104.959 152.55H99.0191C98.9891 154.44 98.9591 156.36 98.9291 158.31C98.9291 160.23 98.9291 162.165 98.9291 164.115V166.05C98.9291 167.94 98.9291 169.845 98.9291 171.765C98.9591 173.655 98.9891 175.545 99.0191 177.435L103.249 177.885V180H88.7591V177.885L92.9891 177.435C93.0491 175.575 93.0791 173.7 93.0791 171.81C93.0791 169.89 93.0791 167.97 93.0791 166.05V164.115C93.0791 162.195 93.0791 160.275 93.0791 158.355C93.0791 156.405 93.0491 154.47 92.9891 152.55H87.0941L86.1491 158.355H82.9991ZM121.164 152.28V150.165H134.889V152.28L130.929 152.73C130.899 154.59 130.869 156.48 130.839 158.4C130.839 160.29 130.839 162.195 130.839 164.115V166.86C130.839 168.45 130.839 170.16 130.839 171.99C130.869 173.82 130.899 175.68 130.929 177.57H140.019L141.279 171.36H144.429L143.979 180H121.164V177.885L124.944 177.48C125.004 175.59 125.034 173.73 125.034 171.9C125.034 170.04 125.034 168.255 125.034 166.545V164.115C125.034 162.165 125.034 160.245 125.034 158.355C125.034 156.435 125.004 154.545 124.944 152.685L121.164 152.28ZM158.193 159.975C157.473 159.975 156.753 160.215 156.033 160.695C155.343 161.145 154.743 161.895 154.233 162.945C153.753 163.995 153.453 165.42 153.333 167.22H159.498C160.578 167.22 161.298 166.995 161.658 166.545C162.018 166.095 162.198 165.465 162.198 164.655C162.198 163.275 161.808 162.15 161.028 161.28C160.248 160.41 159.303 159.975 158.193 159.975ZM158.193 180.63C156.093 180.63 154.248 180.18 152.658 179.28C151.068 178.38 149.823 177.09 148.923 175.41C148.023 173.7 147.573 171.675 147.573 169.335C147.573 166.935 148.083 164.88 149.103 163.17C150.153 161.43 151.503 160.11 153.153 159.21C154.833 158.28 156.618 157.815 158.508 157.815C160.278 157.815 161.823 158.19 163.143 158.94C164.463 159.69 165.483 160.74 166.203 162.09C166.953 163.44 167.328 165.03 167.328 166.86C167.328 167.82 167.238 168.645 167.058 169.335H153.288C153.408 171.915 154.083 173.85 155.313 175.14C156.573 176.43 158.148 177.075 160.038 177.075C161.358 177.075 162.468 176.82 163.368 176.31C164.298 175.77 165.138 175.08 165.888 174.24L167.193 175.41C166.323 177.06 165.123 178.35 163.593 179.28C162.093 180.18 160.293 180.63 158.193 180.63ZM187.478 180.54C186.278 180.54 185.303 180.24 184.553 179.64C183.803 179.04 183.293 178.215 183.023 177.165C181.913 178.305 180.908 179.175 180.008 179.775C179.108 180.345 177.938 180.63 176.498 180.63C174.818 180.63 173.393 180.15 172.223 179.19C171.083 178.2 170.513 176.79 170.513 174.96C170.513 174 170.738 173.115 171.188 172.305C171.638 171.465 172.433 170.685 173.573 169.965C174.743 169.245 176.408 168.54 178.568 167.85C179.168 167.64 179.843 167.43 180.593 167.22C181.343 167.01 182.108 166.8 182.888 166.59V165.33C182.888 163.23 182.588 161.82 181.988 161.1C181.418 160.35 180.398 159.975 178.928 159.975C178.658 159.975 178.358 159.99 178.028 160.02C177.728 160.05 177.413 160.095 177.083 160.155L176.543 162.63C176.423 163.71 176.108 164.505 175.598 165.015C175.088 165.525 174.458 165.78 173.708 165.78C172.268 165.78 171.428 165.105 171.188 163.755C171.458 161.955 172.418 160.515 174.068 159.435C175.748 158.355 177.953 157.815 180.683 157.815C183.293 157.815 185.198 158.445 186.398 159.705C187.598 160.935 188.198 163.02 188.198 165.96V175.77C188.198 177.12 188.633 177.795 189.503 177.795C190.073 177.795 190.598 177.465 191.078 176.805L192.113 177.705C191.573 178.725 190.928 179.46 190.178 179.91C189.458 180.33 188.558 180.54 187.478 180.54ZM175.778 174.015C175.778 175.185 176.078 176.04 176.678 176.58C177.308 177.09 178.073 177.345 178.973 177.345C179.483 177.345 179.993 177.225 180.503 176.985C181.013 176.745 181.808 176.25 182.888 175.5V168.39C182.258 168.6 181.658 168.795 181.088 168.975C180.548 169.155 180.083 169.32 179.693 169.47C178.193 170.07 177.158 170.76 176.588 171.54C176.048 172.32 175.778 173.145 175.778 174.015ZM199.607 169.335C199.607 172.065 200.117 174.105 201.137 175.455C202.187 176.775 203.507 177.435 205.097 177.435C205.877 177.435 206.582 177.285 207.212 176.985C207.872 176.655 208.487 176.19 209.057 175.59V162.675C207.737 161.535 206.432 160.965 205.142 160.965C203.642 160.965 202.337 161.64 201.227 162.99C200.147 164.34 199.607 166.455 199.607 169.335ZM209.597 180.495L209.237 177.66C208.397 178.62 207.467 179.355 206.447 179.865C205.427 180.375 204.257 180.63 202.937 180.63C201.167 180.63 199.592 180.18 198.212 179.28C196.862 178.38 195.797 177.09 195.017 175.41C194.237 173.73 193.847 171.735 193.847 169.425C193.847 167.055 194.282 165 195.152 163.26C196.052 161.52 197.237 160.185 198.707 159.255C200.207 158.295 201.842 157.815 203.612 157.815C204.752 157.815 205.772 158.025 206.672 158.445C207.602 158.865 208.472 159.555 209.282 160.515V151.245L205.772 150.795V149.04L214.007 147.015L214.682 147.42L214.502 153.765V177.66L217.427 178.155V180L209.597 180.495ZM230.571 159.975C229.851 159.975 229.131 160.215 228.411 160.695C227.721 161.145 227.121 161.895 226.611 162.945C226.131 163.995 225.831 165.42 225.711 167.22H231.876C232.956 167.22 233.676 166.995 234.036 166.545C234.396 166.095 234.576 165.465 234.576 164.655C234.576 163.275 234.186 162.15 233.406 161.28C232.626 160.41 231.681 159.975 230.571 159.975ZM230.571 180.63C228.471 180.63 226.626 180.18 225.036 179.28C223.446 178.38 222.201 177.09 221.301 175.41C220.401 173.7 219.951 171.675 219.951 169.335C219.951 166.935 220.461 164.88 221.481 163.17C222.531 161.43 223.881 160.11 225.531 159.21C227.211 158.28 228.996 157.815 230.886 157.815C232.656 157.815 234.201 158.19 235.521 158.94C236.841 159.69 237.861 160.74 238.581 162.09C239.331 163.44 239.706 165.03 239.706 166.86C239.706 167.82 239.616 168.645 239.436 169.335H225.666C225.786 171.915 226.461 173.85 227.691 175.14C228.951 176.43 230.526 177.075 232.416 177.075C233.736 177.075 234.846 176.82 235.746 176.31C236.676 175.77 237.516 175.08 238.266 174.24L239.571 175.41C238.701 177.06 237.501 178.35 235.971 179.28C234.471 180.18 232.671 180.63 230.571 180.63ZM243.02 180V178.155L245.9 177.615C245.93 176.475 245.945 175.26 245.945 173.97C245.945 172.65 245.945 171.51 245.945 170.55V168.165C245.945 166.935 245.93 165.96 245.9 165.24C245.9 164.49 245.87 163.665 245.81 162.765L242.66 162.36V160.65L250.175 157.815L250.895 158.265L251.345 163.575C252.035 161.715 252.965 160.29 254.135 159.3C255.305 158.31 256.475 157.815 257.645 157.815C258.455 157.815 259.19 158.025 259.85 158.445C260.54 158.865 260.99 159.465 261.2 160.245C261.17 161.355 260.9 162.225 260.39 162.855C259.88 163.455 259.175 163.755 258.275 163.755C257.195 163.755 256.175 163.215 255.215 162.135L254.81 161.685C253.22 163.005 252.08 164.865 251.39 167.265V170.55C251.39 171.48 251.39 172.59 251.39 173.88C251.39 175.14 251.405 176.325 251.435 177.435L255.125 178.155V180H243.02ZM270.047 180.63C268.667 180.63 267.392 180.465 266.222 180.135C265.082 179.835 263.942 179.37 262.802 178.74L262.757 173.52H265.772L266.582 177.705C267.662 178.155 268.832 178.38 270.092 178.38C271.622 178.38 272.762 178.11 273.512 177.57C274.262 177.03 274.637 176.28 274.637 175.32C274.637 174.48 274.337 173.805 273.737 173.295C273.137 172.755 272.117 172.245 270.677 171.765L268.427 171C266.747 170.46 265.412 169.665 264.422 168.615C263.462 167.565 262.982 166.245 262.982 164.655C262.982 163.395 263.312 162.255 263.972 161.235C264.632 160.185 265.592 159.36 266.852 158.76C268.142 158.13 269.702 157.815 271.532 157.815C272.822 157.815 273.992 157.98 275.042 158.31C276.122 158.61 277.187 159.06 278.237 159.66L278.012 164.385H275.042L274.232 160.605C273.392 160.245 272.462 160.065 271.442 160.065C270.242 160.065 269.312 160.32 268.652 160.83C267.992 161.34 267.662 162.03 267.662 162.9C267.662 163.71 267.932 164.37 268.472 164.88C269.042 165.36 270.092 165.855 271.622 166.365L273.422 166.905C275.612 167.655 277.172 168.585 278.102 169.695C279.032 170.805 279.497 172.14 279.497 173.7C279.497 175.71 278.672 177.375 277.022 178.695C275.402 179.985 273.077 180.63 270.047 180.63Z" fill="#F7F6F3"/>
</svg>
