<svg width="556" height="556" viewBox="0 0 556 556" fill="none" xmlns="http://www.w3.org/2000/svg">
<rect x="102" y="103" width="340" height="340" rx="170" fill="#9F9DFF"/>
<path d="M199.41 271.6H197.385C197.385 273.82 197.385 275.92 197.385 277.9C197.415 279.85 197.445 281.77 197.475 283.66H199.59C204.66 283.66 207.195 281.68 207.195 277.72C207.195 275.65 206.565 274.12 205.305 273.13C204.045 272.11 202.08 271.6 199.41 271.6ZM199.86 258.46H197.475C197.445 260.38 197.415 262.285 197.385 264.175C197.385 266.065 197.385 267.805 197.385 269.395H199.23C201.54 269.395 203.235 268.93 204.315 268C205.395 267.07 205.935 265.645 205.935 263.725C205.935 261.865 205.425 260.53 204.405 259.72C203.415 258.88 201.9 258.46 199.86 258.46ZM187.755 258.28V256.165H201.525C204.975 256.165 207.525 256.84 209.175 258.19C210.825 259.54 211.65 261.25 211.65 263.32C211.65 264.88 211.11 266.305 210.03 267.595C208.95 268.855 207.06 269.74 204.36 270.25C207.54 270.64 209.82 271.51 211.2 272.86C212.58 274.21 213.27 275.83 213.27 277.72C213.27 278.71 213.045 279.7 212.595 280.69C212.175 281.65 211.47 282.535 210.48 283.345C209.52 284.155 208.2 284.8 206.52 285.28C204.87 285.76 202.8 286 200.31 286H187.755V283.885L191.535 283.48C191.595 281.59 191.625 279.685 191.625 277.765C191.625 275.845 191.625 273.91 191.625 271.96V270.205C191.625 268.285 191.625 266.365 191.625 264.445C191.625 262.525 191.595 260.605 191.535 258.685L187.755 258.28ZM231.946 286.405L231.586 282.445C229.396 285.235 226.846 286.63 223.936 286.63C222.076 286.63 220.576 286.03 219.436 284.83C218.326 283.6 217.786 281.5 217.816 278.53L217.996 267.415L215.071 266.785V265.03L222.946 264.085L223.486 264.58L223.261 270.88V278.35C223.261 280.03 223.516 281.215 224.026 281.905C224.566 282.565 225.331 282.895 226.321 282.895C227.161 282.895 228.016 282.655 228.886 282.175C229.786 281.695 230.641 281.08 231.451 280.33L231.586 267.415L228.751 266.785V265.12L236.446 264.085L237.031 264.58L236.896 270.88V283.57L239.641 284.155V286L231.946 286.405ZM242.284 286V284.155L245.254 283.57C245.284 282.46 245.299 281.26 245.299 279.97C245.299 278.65 245.299 277.51 245.299 276.55V274.435C245.299 273.205 245.284 272.185 245.254 271.375C245.254 270.535 245.224 269.665 245.164 268.765L241.969 268.36V266.65L250.069 263.815L250.789 264.265L250.654 270.61V276.55C250.654 277.51 250.654 278.65 250.654 279.97C250.654 281.26 250.669 282.475 250.699 283.615L253.444 284.155V286H242.284ZM247.954 259.63C246.994 259.63 246.184 259.33 245.524 258.73C244.864 258.13 244.534 257.365 244.534 256.435C244.534 255.475 244.864 254.695 245.524 254.095C246.184 253.495 246.994 253.195 247.954 253.195C248.914 253.195 249.709 253.495 250.339 254.095C250.999 254.695 251.329 255.475 251.329 256.435C251.329 257.365 250.999 258.13 250.339 258.73C249.709 259.33 248.914 259.63 247.954 259.63ZM255.813 286V284.155L258.873 283.57C258.903 282.4 258.918 281.23 258.918 280.06C258.948 278.89 258.963 277.72 258.963 276.55V257.245L255.678 256.795V255.04L263.868 253.015L264.543 253.42L264.363 259.765V276.55C264.363 277.72 264.363 278.89 264.363 280.06C264.393 281.23 264.423 282.4 264.453 283.57L267.513 284.155V286H255.813ZM275.998 275.335C275.998 278.065 276.508 280.105 277.528 281.455C278.578 282.775 279.898 283.435 281.488 283.435C282.268 283.435 282.973 283.285 283.603 282.985C284.263 282.655 284.878 282.19 285.448 281.59V268.675C284.128 267.535 282.823 266.965 281.533 266.965C280.033 266.965 278.728 267.64 277.618 268.99C276.538 270.34 275.998 272.455 275.998 275.335ZM285.988 286.495L285.628 283.66C284.788 284.62 283.858 285.355 282.838 285.865C281.818 286.375 280.648 286.63 279.328 286.63C277.558 286.63 275.983 286.18 274.603 285.28C273.253 284.38 272.188 283.09 271.408 281.41C270.628 279.73 270.238 277.735 270.238 275.425C270.238 273.055 270.673 271 271.543 269.26C272.443 267.52 273.628 266.185 275.098 265.255C276.598 264.295 278.233 263.815 280.003 263.815C281.143 263.815 282.163 264.025 283.063 264.445C283.993 264.865 284.863 265.555 285.673 266.515V257.245L282.163 256.795V255.04L290.398 253.015L291.073 253.42L290.893 259.765V283.66L293.818 284.155V286L285.988 286.495ZM306.962 265.975C306.242 265.975 305.522 266.215 304.802 266.695C304.112 267.145 303.512 267.895 303.002 268.945C302.522 269.995 302.222 271.42 302.102 273.22H308.267C309.347 273.22 310.067 272.995 310.427 272.545C310.787 272.095 310.967 271.465 310.967 270.655C310.967 269.275 310.577 268.15 309.797 267.28C309.017 266.41 308.072 265.975 306.962 265.975ZM306.962 286.63C304.862 286.63 303.017 286.18 301.427 285.28C299.837 284.38 298.592 283.09 297.692 281.41C296.792 279.7 296.342 277.675 296.342 275.335C296.342 272.935 296.852 270.88 297.872 269.17C298.922 267.43 300.272 266.11 301.922 265.21C303.602 264.28 305.387 263.815 307.277 263.815C309.047 263.815 310.592 264.19 311.912 264.94C313.232 265.69 314.252 266.74 314.972 268.09C315.722 269.44 316.097 271.03 316.097 272.86C316.097 273.82 316.007 274.645 315.827 275.335H302.057C302.177 277.915 302.852 279.85 304.082 281.14C305.342 282.43 306.917 283.075 308.807 283.075C310.127 283.075 311.237 282.82 312.137 282.31C313.067 281.77 313.907 281.08 314.657 280.24L315.962 281.41C315.092 283.06 313.892 284.35 312.362 285.28C310.862 286.18 309.062 286.63 306.962 286.63ZM319.411 286V284.155L322.291 283.615C322.321 282.475 322.336 281.26 322.336 279.97C322.336 278.65 322.336 277.51 322.336 276.55V274.165C322.336 272.935 322.321 271.96 322.291 271.24C322.291 270.49 322.261 269.665 322.201 268.765L319.051 268.36V266.65L326.566 263.815L327.286 264.265L327.736 269.575C328.426 267.715 329.356 266.29 330.526 265.3C331.696 264.31 332.866 263.815 334.036 263.815C334.846 263.815 335.581 264.025 336.241 264.445C336.931 264.865 337.381 265.465 337.591 266.245C337.561 267.355 337.291 268.225 336.781 268.855C336.271 269.455 335.566 269.755 334.666 269.755C333.586 269.755 332.566 269.215 331.606 268.135L331.201 267.685C329.611 269.005 328.471 270.865 327.781 273.265V276.55C327.781 277.48 327.781 278.59 327.781 279.88C327.781 281.14 327.796 282.325 327.826 283.435L331.516 284.155V286H319.411ZM346.438 286.63C345.058 286.63 343.783 286.465 342.613 286.135C341.473 285.835 340.333 285.37 339.193 284.74L339.148 279.52H342.163L342.973 283.705C344.053 284.155 345.223 284.38 346.483 284.38C348.013 284.38 349.153 284.11 349.903 283.57C350.653 283.03 351.028 282.28 351.028 281.32C351.028 280.48 350.728 279.805 350.128 279.295C349.528 278.755 348.508 278.245 347.068 277.765L344.818 277C343.138 276.46 341.803 275.665 340.813 274.615C339.853 273.565 339.373 272.245 339.373 270.655C339.373 269.395 339.703 268.255 340.363 267.235C341.023 266.185 341.983 265.36 343.243 264.76C344.533 264.13 346.093 263.815 347.923 263.815C349.213 263.815 350.383 263.98 351.433 264.31C352.513 264.61 353.578 265.06 354.628 265.66L354.403 270.385H351.433L350.623 266.605C349.783 266.245 348.853 266.065 347.833 266.065C346.633 266.065 345.703 266.32 345.043 266.83C344.383 267.34 344.053 268.03 344.053 268.9C344.053 269.71 344.323 270.37 344.863 270.88C345.433 271.36 346.483 271.855 348.013 272.365L349.813 272.905C352.003 273.655 353.563 274.585 354.493 275.695C355.423 276.805 355.888 278.14 355.888 279.7C355.888 281.71 355.063 283.375 353.413 284.695C351.793 285.985 349.468 286.63 346.438 286.63Z" fill="#01061B"/>
<mask id="path-3-inside-1_214_86" fill="white">
<path fill-rule="evenodd" clip-rule="evenodd" d="M397.338 132.937C315.805 63.8017 195.525 71.1833 128.112 149.685C64.3321 223.957 70.634 335.387 139.81 406.589C140.302 402.392 140.915 398.162 141.647 393.903C80.9209 326.082 77.1722 224.354 135.699 156.2C197.531 84.1967 306.911 75.241 384.236 135.183C388.632 134.283 393.002 133.534 397.338 132.937Z"/>
</mask>
<path d="M397.338 132.937L398.02 137.89L409.11 136.363L400.572 129.123L397.338 132.937ZM139.81 406.589L136.224 410.074L143.552 417.616L144.776 407.171L139.81 406.589ZM141.647 393.903L146.575 394.751L146.985 392.369L145.372 390.568L141.647 393.903ZM384.236 135.183L381.173 139.135L382.988 140.542L385.239 140.082L384.236 135.183ZM400.572 129.123C317.066 58.315 193.627 65.7192 124.319 146.428L131.906 152.943C197.424 76.6474 314.545 69.2884 394.104 136.75L400.572 129.123ZM124.319 146.428C58.748 222.785 65.3604 337.135 136.224 410.074L143.396 403.105C75.9076 333.64 69.9162 225.129 131.906 152.943L124.319 146.428ZM144.776 407.171C145.257 403.065 145.857 398.923 146.575 394.751L136.72 393.055C135.972 397.4 135.347 401.719 134.844 406.008L144.776 407.171ZM131.906 152.943C71.6403 223.121 75.631 327.669 137.922 397.239L145.372 390.568C86.2108 324.494 82.7042 225.587 139.492 159.458L131.906 152.943ZM387.3 131.231C307.997 69.7558 195.577 78.7981 131.906 152.943L139.492 159.458C199.486 89.5954 305.826 80.7261 381.173 139.135L387.3 131.231ZM385.239 140.082C389.531 139.203 393.794 138.472 398.02 137.89L396.656 127.983C392.209 128.596 387.732 129.364 383.233 130.285L385.239 140.082Z" fill="#9F9DFF" mask="url(#path-3-inside-1_214_86)"/>
<mask id="path-5-inside-2_214_86" fill="white">
<path fill-rule="evenodd" clip-rule="evenodd" d="M313.969 452.608C259.965 463.136 200.968 449.22 154.974 409.724C76.6356 342.451 65.956 226.669 130.817 151.139C195.679 75.6079 311.745 68.6678 390.083 135.941C468.422 203.213 479.102 318.995 414.24 394.526C396.416 415.282 374.724 430.859 351.011 441.139C351.064 442.247 351.026 443.357 350.897 444.456C375.518 434.014 398.051 417.983 416.516 396.48C482.519 319.62 471.56 201.954 392.038 133.665C312.516 65.3757 194.544 72.324 128.541 149.184C62.5384 226.044 73.4978 343.711 153.02 412C200.16 452.481 260.811 466.523 316.138 455.237C315.335 454.408 314.612 453.528 313.969 452.608Z"/>
</mask>
<path fill-rule="evenodd" clip-rule="evenodd" d="M313.969 452.608C259.965 463.136 200.968 449.22 154.974 409.724C76.6356 342.451 65.956 226.669 130.817 151.139C195.679 75.6079 311.745 68.6678 390.083 135.941C468.422 203.213 479.102 318.995 414.24 394.526C396.416 415.282 374.724 430.859 351.011 441.139C351.064 442.247 351.026 443.357 350.897 444.456C375.518 434.014 398.051 417.983 416.516 396.48C482.519 319.62 471.56 201.954 392.038 133.665C312.516 65.3757 194.544 72.324 128.541 149.184C62.5384 226.044 73.4978 343.711 153.02 412C200.16 452.481 260.811 466.523 316.138 455.237C315.335 454.408 314.612 453.528 313.969 452.608Z" fill="#9F9DFF"/>
<path d="M313.969 452.608L316.429 450.891L315.312 449.29L313.395 449.664L313.969 452.608ZM351.011 441.139L349.818 438.386L347.915 439.211L348.014 441.282L351.011 441.139ZM350.897 444.456L347.918 444.107L347.316 449.234L352.069 447.218L350.897 444.456ZM316.138 455.237L316.738 458.176L322.104 457.082L318.293 453.149L316.138 455.237ZM153.02 412C199.721 452.104 259.654 466.253 314.543 455.553L313.395 449.664C260.276 460.018 202.214 446.336 156.929 407.448L153.02 412ZM128.541 149.184C62.5387 226.044 73.4974 343.71 153.02 412L156.929 407.448C79.7737 341.191 69.3733 227.295 133.093 153.093L128.541 149.184ZM392.038 133.665C312.515 65.3754 194.544 72.3244 128.541 149.184L133.093 153.093C196.813 78.8914 310.974 71.9603 388.129 138.217L392.038 133.665ZM416.516 396.48C482.519 319.62 471.56 201.954 392.038 133.665L388.129 138.217C465.284 204.473 475.684 318.37 411.964 392.571L416.516 396.48ZM352.204 443.891C376.322 433.436 398.388 417.591 416.516 396.48L411.964 392.571C394.444 412.974 373.126 428.282 349.818 438.386L352.204 443.891ZM348.014 441.282C348.059 442.227 348.027 443.172 347.918 444.107L353.877 444.806C354.025 443.541 354.068 442.267 354.008 440.996L348.014 441.282ZM352.069 447.218C377.103 436.601 400.017 420.298 418.792 398.435L414.24 394.526C396.084 415.668 373.933 431.428 349.726 441.695L352.069 447.218ZM418.792 398.435C485.937 320.245 474.698 200.694 393.992 131.389L390.083 135.941C468.422 203.213 479.102 318.995 414.24 394.526L418.792 398.435ZM393.992 131.389C313.287 62.0836 193.41 69.0401 126.265 147.23L130.817 151.139C195.679 75.6079 311.745 68.6678 390.083 135.941L393.992 131.389ZM126.265 147.23C59.1208 225.419 70.36 344.971 151.065 414.276L154.974 409.724C76.6356 342.451 65.956 226.669 130.817 151.139L126.265 147.23ZM151.065 414.276C198.92 455.371 260.518 469.645 316.738 458.176L315.539 452.297C261.104 463.402 201.399 449.591 154.974 409.724L151.065 414.276ZM318.293 453.149C317.602 452.436 316.98 451.68 316.429 450.891L311.51 454.325C312.243 455.376 313.069 456.38 313.984 457.325L318.293 453.149Z" fill="#9F9DFF" mask="url(#path-5-inside-2_214_86)"/>
<mask id="path-7-inside-3_214_86" fill="white">
<path fill-rule="evenodd" clip-rule="evenodd" d="M197.135 449.878C192.527 451.341 187.911 452.657 183.295 453.825C237.1 484.768 306.464 485.167 373.861 458.861C369.255 457.117 364.696 455.249 360.187 453.254C349.65 456.928 339.1 459.921 328.609 462.219C281.172 472.608 235.319 468.752 197.135 449.878ZM244.476 14.8515C245.008 13.8495 245.545 12.8488 246.086 11.8495C244.79 12.7877 243.497 13.7364 242.208 14.6957C242.965 14.7431 243.721 14.795 244.476 14.8515Z"/>
</mask>
<path fill-rule="evenodd" clip-rule="evenodd" d="M197.135 449.878C192.527 451.341 187.911 452.657 183.295 453.825C237.1 484.768 306.464 485.167 373.861 458.861C369.255 457.117 364.696 455.249 360.187 453.254C349.65 456.928 339.1 459.921 328.609 462.219C281.172 472.608 235.319 468.752 197.135 449.878ZM244.476 14.8515C245.008 13.8495 245.545 12.8488 246.086 11.8495C244.79 12.7877 243.497 13.7364 242.208 14.6957C242.965 14.7431 243.721 14.795 244.476 14.8515Z" fill="#9F9DFF"/>
<path d="M197.135 449.878L198.464 447.188L197.379 446.652L196.226 447.018L197.135 449.878ZM183.295 453.825L182.56 450.917L175.379 452.733L181.8 456.426L183.295 453.825ZM373.861 458.861L374.952 461.655L382.222 458.818L374.923 456.055L373.861 458.861ZM360.187 453.254L361.4 450.51L360.317 450.031L359.199 450.421L360.187 453.254ZM328.609 462.219L327.967 459.288L327.967 459.288L328.609 462.219ZM244.476 14.8515L244.252 17.8431L246.206 17.9892L247.125 16.2586L244.476 14.8515ZM246.086 11.8495L248.724 13.2785L244.327 9.41912L246.086 11.8495ZM242.208 14.6957L240.417 12.289L233.847 17.1779L242.02 17.6898L242.208 14.6957ZM196.226 447.018C191.675 448.464 187.117 449.764 182.56 450.917L184.031 456.733C188.706 455.551 193.379 454.218 198.043 452.737L196.226 447.018ZM181.8 456.426C236.589 487.934 306.944 488.2 374.952 461.655L372.77 456.066C305.985 482.134 237.612 481.601 184.791 451.224L181.8 456.426ZM374.923 456.055C370.368 454.331 365.859 452.483 361.4 450.51L358.973 455.997C363.532 458.014 368.142 459.904 372.799 461.666L374.923 456.055ZM359.199 450.421C348.772 454.057 338.337 457.017 327.967 459.288L329.25 465.149C339.863 462.825 350.529 459.799 361.174 456.086L359.199 450.421ZM327.967 459.288C281.063 469.56 235.927 465.706 198.464 447.188L195.805 452.567C234.712 471.798 281.281 475.655 329.25 465.149L327.967 459.288ZM247.125 16.2586C247.654 15.264 248.186 14.2706 248.724 13.2785L243.448 10.4204C242.903 11.427 242.362 12.435 241.826 13.4443L247.125 16.2586ZM244.327 9.41912C243.02 10.3651 241.717 11.3217 240.417 12.289L243.999 17.1024C245.277 16.1511 246.559 15.2102 247.845 14.2798L244.327 9.41912ZM242.02 17.6898C242.765 17.7365 243.509 17.7876 244.252 17.8431L244.699 11.8598C243.932 11.8025 243.164 11.7497 242.395 11.7016L242.02 17.6898Z" fill="#9F9DFF" mask="url(#path-7-inside-3_214_86)"/>
<mask id="path-9-inside-4_214_86" fill="white">
<path fill-rule="evenodd" clip-rule="evenodd" d="M147.658 423.545C148.725 423.587 149.795 423.618 150.868 423.638C177.907 446.189 208.97 460.67 240.975 467.269C240.794 467.915 240.647 468.566 240.536 469.219C207.46 462.392 175.388 447.233 147.658 423.545ZM275.619 473.337C275.756 472.675 275.858 472.011 275.923 471.346C332.48 472.964 388.505 450.605 427.42 405.289C446.942 382.555 460.102 356.439 467.09 329.027C467.799 328.988 468.513 328.897 469.224 328.755C462.216 356.731 448.854 383.399 428.937 406.592C389.542 452.468 332.828 475.046 275.619 473.337ZM474.229 299.304C476.391 275.79 474.313 251.9 468.106 228.837C467.449 228.961 466.78 229.045 466.104 229.09C472.287 251.942 474.373 275.615 472.254 298.916C472.924 298.995 473.584 299.124 474.229 299.304ZM455.817 195.237C446.58 175.517 434.053 156.946 418.319 140.397C418.339 141.38 418.351 142.365 418.356 143.354C433.18 159.274 445.048 177.025 453.89 195.834C454.516 195.594 455.16 195.395 455.817 195.237Z"/>
</mask>
<path fill-rule="evenodd" clip-rule="evenodd" d="M147.658 423.545C148.725 423.587 149.795 423.618 150.868 423.638C177.907 446.189 208.97 460.67 240.975 467.269C240.794 467.915 240.647 468.566 240.536 469.219C207.46 462.392 175.388 447.233 147.658 423.545ZM275.619 473.337C275.756 472.675 275.858 472.011 275.923 471.346C332.48 472.964 388.505 450.605 427.42 405.289C446.942 382.555 460.102 356.439 467.09 329.027C467.799 328.988 468.513 328.897 469.224 328.755C462.216 356.731 448.854 383.399 428.937 406.592C389.542 452.468 332.828 475.046 275.619 473.337ZM474.229 299.304C476.391 275.79 474.313 251.9 468.106 228.837C467.449 228.961 466.78 229.045 466.104 229.09C472.287 251.942 474.373 275.615 472.254 298.916C472.924 298.995 473.584 299.124 474.229 299.304ZM455.817 195.237C446.58 175.517 434.053 156.946 418.319 140.397C418.339 141.38 418.351 142.365 418.356 143.354C433.18 159.274 445.048 177.025 453.89 195.834C454.516 195.594 455.16 195.395 455.817 195.237Z" fill="#9F9DFF"/>
<path d="M150.868 423.638L151.509 422.87L151.239 422.645L150.887 422.638L150.868 423.638ZM147.658 423.545L147.697 422.546L144.816 422.433L147.008 424.305L147.658 423.545ZM240.975 467.269L241.938 467.54L242.228 466.507L241.177 466.29L240.975 467.269ZM240.536 469.219L240.334 470.198L241.347 470.408L241.522 469.387L240.536 469.219ZM275.923 471.346L275.952 470.346L275.019 470.32L274.928 471.248L275.923 471.346ZM275.619 473.337L274.64 473.134L274.397 474.301L275.589 474.337L275.619 473.337ZM467.09 329.027L467.036 328.028L466.302 328.068L466.121 328.78L467.09 329.027ZM469.224 328.755L470.194 328.998L470.579 327.464L469.028 327.774L469.224 328.755ZM474.229 299.304L473.961 300.267L475.115 300.589L475.225 299.395L474.229 299.304ZM468.106 228.837L469.071 228.578L468.83 227.683L467.92 227.855L468.106 228.837ZM466.104 229.09L466.038 228.092L464.819 228.172L465.138 229.351L466.104 229.09ZM472.254 298.916L471.258 298.826L471.17 299.795L472.137 299.909L472.254 298.916ZM418.319 140.397L419.044 139.708L417.267 137.839L417.319 140.417L418.319 140.397ZM455.817 195.237L456.051 196.209L457.243 195.923L456.723 194.813L455.817 195.237ZM418.356 143.354L417.356 143.358L417.357 143.749L417.624 144.035L418.356 143.354ZM453.89 195.834L452.985 196.26L453.381 197.102L454.249 196.768L453.89 195.834ZM150.887 422.638C149.82 422.618 148.757 422.587 147.697 422.546L147.619 424.544C148.692 424.586 149.769 424.618 150.85 424.638L150.887 422.638ZM241.177 466.29C209.331 459.723 178.419 445.314 151.509 422.87L150.228 424.406C177.395 447.065 208.609 461.617 240.773 468.249L241.177 466.29ZM241.522 469.387C241.627 468.769 241.766 468.152 241.938 467.54L240.012 466.999C239.821 467.678 239.667 468.363 239.55 469.051L241.522 469.387ZM147.008 424.305C174.869 448.105 207.095 463.338 240.334 470.198L240.738 468.24C207.824 461.446 175.907 446.361 148.307 422.785L147.008 424.305ZM274.928 471.248C274.866 471.877 274.77 472.507 274.64 473.134L276.598 473.541C276.743 472.844 276.85 472.144 276.918 471.444L274.928 471.248ZM426.661 404.637C387.956 449.71 332.228 471.957 275.952 470.346L275.895 472.346C332.733 473.972 389.054 451.5 428.179 405.94L426.661 404.637ZM466.121 328.78C459.17 356.047 446.08 382.024 426.661 404.637L428.179 405.94C447.804 383.087 461.034 356.831 468.059 329.274L466.121 328.78ZM469.028 327.774C468.362 327.908 467.696 327.992 467.036 328.028L467.144 330.025C467.903 329.984 468.663 329.887 469.421 329.736L469.028 327.774ZM429.696 407.243C449.717 383.929 463.149 357.12 470.194 328.998L468.254 328.512C461.282 356.341 447.991 382.869 428.179 405.94L429.696 407.243ZM275.589 474.337C333.08 476.054 390.091 453.363 429.696 407.243L428.179 405.94C388.993 451.572 332.577 474.038 275.649 472.338L275.589 474.337ZM475.225 299.395C477.398 275.762 475.309 251.754 469.071 228.578L467.14 229.097C473.317 252.047 475.384 275.818 473.233 299.212L475.225 299.395ZM467.92 227.855C467.304 227.971 466.676 228.05 466.038 228.092L466.169 230.088C466.885 230.041 467.594 229.952 468.291 229.82L467.92 227.855ZM465.138 229.351C471.291 252.09 473.366 275.644 471.258 298.826L473.25 299.007C475.38 275.586 473.283 251.794 467.069 228.829L465.138 229.351ZM472.137 299.909C472.757 299.982 473.367 300.102 473.961 300.267L474.497 298.34C473.802 298.147 473.091 298.008 472.371 297.923L472.137 299.909ZM417.595 141.086C433.254 157.556 445.719 176.037 454.912 195.661L456.723 194.813C447.44 174.996 434.853 156.336 419.044 139.708L417.595 141.086ZM419.356 143.349C419.351 142.356 419.339 141.365 419.319 140.377L417.319 140.417C417.339 141.395 417.351 142.375 417.356 143.358L419.356 143.349ZM454.795 195.409C445.909 176.507 433.983 158.669 419.087 142.672L417.624 144.035C432.377 159.879 444.187 177.543 452.985 196.26L454.795 195.409ZM455.584 194.264C454.884 194.433 454.199 194.645 453.532 194.901L454.249 196.768C454.833 196.544 455.435 196.357 456.051 196.209L455.584 194.264Z" fill="#9F9DFF" mask="url(#path-9-inside-4_214_86)"/>
</svg>
