<svg width="556" height="556" viewBox="0 0 556 556" fill="none" xmlns="http://www.w3.org/2000/svg">
<rect x="102" y="103" width="340" height="340" rx="170" fill="#9F9DFF"/>
<path d="M195.455 258.46H193.52C193.49 260.38 193.46 262.315 193.43 264.265C193.43 266.215 193.43 268.165 193.43 270.115V272.095H195.635C198.005 272.095 199.73 271.45 200.81 270.16C201.89 268.87 202.43 267.175 202.43 265.075C202.43 262.945 201.845 261.31 200.675 260.17C199.535 259.03 197.795 258.46 195.455 258.46ZM183.755 258.28V256.165H195.905C200.135 256.165 203.225 256.99 205.175 258.64C207.155 260.26 208.145 262.405 208.145 265.075C208.145 266.755 207.725 268.315 206.885 269.755C206.075 271.165 204.725 272.29 202.835 273.13C200.975 273.97 198.455 274.39 195.275 274.39H193.43C193.43 275.83 193.43 277.3 193.43 278.8C193.46 280.3 193.49 281.845 193.52 283.435L197.615 283.885V286H183.755V283.885L187.535 283.48C187.595 281.62 187.625 279.73 187.625 277.81C187.625 275.89 187.625 273.97 187.625 272.05V270.115C187.625 268.225 187.625 266.335 187.625 264.445C187.625 262.525 187.595 260.605 187.535 258.685L183.755 258.28ZM210.422 286V284.155L213.392 283.57C213.422 282.46 213.437 281.26 213.437 279.97C213.437 278.65 213.437 277.51 213.437 276.55V274.435C213.437 273.205 213.422 272.185 213.392 271.375C213.392 270.535 213.362 269.665 213.302 268.765L210.107 268.36V266.65L218.207 263.815L218.927 264.265L218.792 270.61V276.55C218.792 277.51 218.792 278.65 218.792 279.97C218.792 281.26 218.807 282.475 218.837 283.615L221.582 284.155V286H210.422ZM216.092 259.63C215.132 259.63 214.322 259.33 213.662 258.73C213.002 258.13 212.672 257.365 212.672 256.435C212.672 255.475 213.002 254.695 213.662 254.095C214.322 253.495 215.132 253.195 216.092 253.195C217.052 253.195 217.847 253.495 218.477 254.095C219.137 254.695 219.467 255.475 219.467 256.435C219.467 257.365 219.137 258.13 218.477 258.73C217.847 259.33 217.052 259.63 216.092 259.63ZM235.291 286.63C233.251 286.63 231.406 286.18 229.756 285.28C228.136 284.38 226.846 283.075 225.886 281.365C224.926 279.655 224.446 277.615 224.446 275.245C224.446 272.845 224.941 270.79 225.931 269.08C226.951 267.37 228.286 266.065 229.936 265.165C231.586 264.265 233.371 263.815 235.291 263.815C237.211 263.815 238.996 264.265 240.646 265.165C242.296 266.065 243.631 267.37 244.651 269.08C245.671 270.76 246.181 272.815 246.181 275.245C246.181 277.645 245.686 279.7 244.696 281.41C243.736 283.09 242.431 284.38 240.781 285.28C239.161 286.18 237.331 286.63 235.291 286.63ZM235.291 284.425C236.911 284.425 238.141 283.675 238.981 282.175C239.851 280.675 240.286 278.38 240.286 275.29C240.286 269.11 238.621 266.02 235.291 266.02C231.991 266.02 230.341 269.11 230.341 275.29C230.341 278.38 230.761 280.675 231.601 282.175C232.441 283.675 233.671 284.425 235.291 284.425ZM249.36 286V284.155L252.285 283.57C252.315 282.46 252.33 281.26 252.33 279.97C252.33 278.65 252.33 277.51 252.33 276.55V274.165C252.33 272.935 252.315 271.96 252.285 271.24C252.285 270.49 252.255 269.665 252.195 268.765L249.045 268.36V266.65L256.56 263.815L257.28 264.265L257.595 267.73C259.905 265.12 262.455 263.815 265.245 263.815C267.195 263.815 268.695 264.46 269.745 265.75C270.825 267.04 271.365 269.08 271.365 271.87V276.55C271.365 277.57 271.365 278.725 271.365 280.015C271.365 281.305 271.38 282.505 271.41 283.615L274.155 284.155V286H263.04V284.155L265.92 283.57C265.95 282.46 265.965 281.275 265.965 280.015C265.965 278.725 265.965 277.57 265.965 276.55V272.275C265.965 270.505 265.725 269.29 265.245 268.63C264.765 267.94 263.955 267.595 262.815 267.595C261.225 267.595 259.545 268.33 257.775 269.8V276.55C257.775 277.54 257.775 278.68 257.775 279.97C257.775 281.26 257.79 282.475 257.82 283.615L260.475 284.155V286H249.36ZM287.625 265.975C286.905 265.975 286.185 266.215 285.465 266.695C284.775 267.145 284.175 267.895 283.665 268.945C283.185 269.995 282.885 271.42 282.765 273.22H288.93C290.01 273.22 290.73 272.995 291.09 272.545C291.45 272.095 291.63 271.465 291.63 270.655C291.63 269.275 291.24 268.15 290.46 267.28C289.68 266.41 288.735 265.975 287.625 265.975ZM287.625 286.63C285.525 286.63 283.68 286.18 282.09 285.28C280.5 284.38 279.255 283.09 278.355 281.41C277.455 279.7 277.005 277.675 277.005 275.335C277.005 272.935 277.515 270.88 278.535 269.17C279.585 267.43 280.935 266.11 282.585 265.21C284.265 264.28 286.05 263.815 287.94 263.815C289.71 263.815 291.255 264.19 292.575 264.94C293.895 265.69 294.915 266.74 295.635 268.09C296.385 269.44 296.76 271.03 296.76 272.86C296.76 273.82 296.67 274.645 296.49 275.335H282.72C282.84 277.915 283.515 279.85 284.745 281.14C286.005 282.43 287.58 283.075 289.47 283.075C290.79 283.075 291.9 282.82 292.8 282.31C293.73 281.77 294.57 281.08 295.32 280.24L296.625 281.41C295.755 283.06 294.555 284.35 293.025 285.28C291.525 286.18 289.725 286.63 287.625 286.63ZM310.784 265.975C310.064 265.975 309.344 266.215 308.624 266.695C307.934 267.145 307.334 267.895 306.824 268.945C306.344 269.995 306.044 271.42 305.924 273.22H312.089C313.169 273.22 313.889 272.995 314.249 272.545C314.609 272.095 314.789 271.465 314.789 270.655C314.789 269.275 314.399 268.15 313.619 267.28C312.839 266.41 311.894 265.975 310.784 265.975ZM310.784 286.63C308.684 286.63 306.839 286.18 305.249 285.28C303.659 284.38 302.414 283.09 301.514 281.41C300.614 279.7 300.164 277.675 300.164 275.335C300.164 272.935 300.674 270.88 301.694 269.17C302.744 267.43 304.094 266.11 305.744 265.21C307.424 264.28 309.209 263.815 311.099 263.815C312.869 263.815 314.414 264.19 315.734 264.94C317.054 265.69 318.074 266.74 318.794 268.09C319.544 269.44 319.919 271.03 319.919 272.86C319.919 273.82 319.829 274.645 319.649 275.335H305.879C305.999 277.915 306.674 279.85 307.904 281.14C309.164 282.43 310.739 283.075 312.629 283.075C313.949 283.075 315.059 282.82 315.959 282.31C316.889 281.77 317.729 281.08 318.479 280.24L319.784 281.41C318.914 283.06 317.714 284.35 316.184 285.28C314.684 286.18 312.884 286.63 310.784 286.63ZM323.233 286V284.155L326.113 283.615C326.143 282.475 326.158 281.26 326.158 279.97C326.158 278.65 326.158 277.51 326.158 276.55V274.165C326.158 272.935 326.143 271.96 326.113 271.24C326.113 270.49 326.083 269.665 326.023 268.765L322.873 268.36V266.65L330.388 263.815L331.108 264.265L331.558 269.575C332.248 267.715 333.178 266.29 334.348 265.3C335.518 264.31 336.688 263.815 337.858 263.815C338.668 263.815 339.403 264.025 340.063 264.445C340.753 264.865 341.203 265.465 341.413 266.245C341.383 267.355 341.113 268.225 340.603 268.855C340.093 269.455 339.388 269.755 338.488 269.755C337.408 269.755 336.388 269.215 335.428 268.135L335.023 267.685C333.433 269.005 332.293 270.865 331.603 273.265V276.55C331.603 277.48 331.603 278.59 331.603 279.88C331.603 281.14 331.618 282.325 331.648 283.435L335.338 284.155V286H323.233ZM350.26 286.63C348.88 286.63 347.605 286.465 346.435 286.135C345.295 285.835 344.155 285.37 343.015 284.74L342.97 279.52H345.985L346.795 283.705C347.875 284.155 349.045 284.38 350.305 284.38C351.835 284.38 352.975 284.11 353.725 283.57C354.475 283.03 354.85 282.28 354.85 281.32C354.85 280.48 354.55 279.805 353.95 279.295C353.35 278.755 352.33 278.245 350.89 277.765L348.64 277C346.96 276.46 345.625 275.665 344.635 274.615C343.675 273.565 343.195 272.245 343.195 270.655C343.195 269.395 343.525 268.255 344.185 267.235C344.845 266.185 345.805 265.36 347.065 264.76C348.355 264.13 349.915 263.815 351.745 263.815C353.035 263.815 354.205 263.98 355.255 264.31C356.335 264.61 357.4 265.06 358.45 265.66L358.225 270.385H355.255L354.445 266.605C353.605 266.245 352.675 266.065 351.655 266.065C350.455 266.065 349.525 266.32 348.865 266.83C348.205 267.34 347.875 268.03 347.875 268.9C347.875 269.71 348.145 270.37 348.685 270.88C349.255 271.36 350.305 271.855 351.835 272.365L353.635 272.905C355.825 273.655 357.385 274.585 358.315 275.695C359.245 276.805 359.71 278.14 359.71 279.7C359.71 281.71 358.885 283.375 357.235 284.695C355.615 285.985 353.29 286.63 350.26 286.63Z" fill="#01061B"/>
<mask id="path-3-inside-1_214_62" fill="white">
<path fill-rule="evenodd" clip-rule="evenodd" d="M397.338 132.937C315.805 63.8017 195.525 71.1833 128.112 149.685C64.3316 223.957 70.6335 335.387 139.81 406.589C140.302 402.392 140.914 398.162 141.647 393.903C80.9204 326.082 77.1718 224.354 135.698 156.2C197.531 84.1967 306.911 75.241 384.236 135.183C388.631 134.283 393.001 133.534 397.338 132.937Z"/>
</mask>
<path d="M397.338 132.937L398.02 137.89L409.109 136.363L400.571 129.123L397.338 132.937ZM139.81 406.589L136.224 410.074L143.552 417.616L144.776 407.171L139.81 406.589ZM141.647 393.903L146.575 394.751L146.985 392.369L145.372 390.568L141.647 393.903ZM384.236 135.183L381.172 139.135L382.988 140.542L385.238 140.082L384.236 135.183ZM400.571 129.123C317.065 58.315 193.626 65.7192 124.319 146.428L131.905 152.943C197.423 76.6474 314.544 69.2884 394.104 136.75L400.571 129.123ZM124.319 146.428C58.7475 222.785 65.3599 337.135 136.224 410.074L143.396 403.105C75.9071 333.64 69.9157 225.129 131.905 152.943L124.319 146.428ZM144.776 407.171C145.257 403.065 145.857 398.923 146.575 394.751L136.719 393.055C135.972 397.4 135.346 401.719 134.844 406.008L144.776 407.171ZM131.905 152.943C71.6398 223.121 75.6305 327.669 137.922 397.239L145.372 390.568C86.2103 324.494 82.7037 225.587 139.492 159.458L131.905 152.943ZM387.299 131.231C307.996 69.7558 195.576 78.7981 131.905 152.943L139.492 159.458C199.485 89.5954 305.826 80.7261 381.172 139.135L387.299 131.231ZM385.238 140.082C389.531 139.203 393.794 138.472 398.02 137.89L396.655 127.983C392.209 128.596 387.732 129.364 383.233 130.285L385.238 140.082Z" fill="#9F9DFF" mask="url(#path-3-inside-1_214_62)"/>
<mask id="path-5-inside-2_214_62" fill="white">
<path fill-rule="evenodd" clip-rule="evenodd" d="M313.969 452.608C259.964 463.136 200.967 449.22 154.974 409.724C76.6351 342.451 65.9555 226.669 130.817 151.139C195.678 75.6079 311.744 68.6678 390.083 135.941C468.422 203.213 479.101 318.995 414.24 394.526C396.415 415.282 374.723 430.859 351.01 441.139C351.063 442.247 351.026 443.357 350.897 444.456C375.517 434.014 398.05 417.983 416.516 396.48C482.519 319.62 471.559 201.954 392.037 133.665C312.515 65.3757 194.544 72.324 128.541 149.184C62.5379 226.044 73.4973 343.711 153.019 412C200.159 452.481 260.81 466.523 316.138 455.237C315.335 454.408 314.611 453.528 313.969 452.608Z"/>
</mask>
<path fill-rule="evenodd" clip-rule="evenodd" d="M313.969 452.608C259.964 463.136 200.967 449.22 154.974 409.724C76.6351 342.451 65.9555 226.669 130.817 151.139C195.678 75.6079 311.744 68.6678 390.083 135.941C468.422 203.213 479.101 318.995 414.24 394.526C396.415 415.282 374.723 430.859 351.01 441.139C351.063 442.247 351.026 443.357 350.897 444.456C375.517 434.014 398.05 417.983 416.516 396.48C482.519 319.62 471.559 201.954 392.037 133.665C312.515 65.3757 194.544 72.324 128.541 149.184C62.5379 226.044 73.4973 343.711 153.019 412C200.159 452.481 260.81 466.523 316.138 455.237C315.335 454.408 314.611 453.528 313.969 452.608Z" fill="#9F9DFF"/>
<path d="M313.969 452.608L316.429 450.891L315.311 449.29L313.395 449.664L313.969 452.608ZM351.01 441.139L349.817 438.386L347.915 439.211L348.014 441.282L351.01 441.139ZM350.897 444.456L347.917 444.107L347.315 449.234L352.068 447.218L350.897 444.456ZM316.138 455.237L316.737 458.176L322.103 457.082L318.292 453.149L316.138 455.237ZM153.019 412C199.721 452.104 259.654 466.253 314.543 455.553L313.395 449.664C260.275 460.018 202.213 446.336 156.928 407.448L153.019 412ZM128.541 149.184C62.5382 226.044 73.4969 343.71 153.019 412L156.928 407.448C79.7733 341.191 69.3728 227.295 133.093 153.093L128.541 149.184ZM392.037 133.665C312.515 65.3754 194.544 72.3244 128.541 149.184L133.093 153.093C196.813 78.8914 310.973 71.9603 388.128 138.217L392.037 133.665ZM416.516 396.48C482.518 319.62 471.56 201.954 392.037 133.665L388.128 138.217C465.283 204.473 475.684 318.37 411.964 392.571L416.516 396.48ZM352.204 443.891C376.322 433.436 398.387 417.591 416.516 396.48L411.964 392.571C394.443 412.974 373.125 428.282 349.817 438.386L352.204 443.891ZM348.014 441.282C348.059 442.227 348.027 443.172 347.917 444.107L353.876 444.806C354.025 443.541 354.068 442.267 354.007 440.996L348.014 441.282ZM352.068 447.218C377.102 436.601 400.017 420.298 418.792 398.435L414.24 394.526C396.084 415.668 373.933 431.428 349.725 441.695L352.068 447.218ZM418.792 398.435C485.936 320.245 474.697 200.694 393.992 131.389L390.083 135.941C468.422 203.213 479.101 318.995 414.24 394.526L418.792 398.435ZM393.992 131.389C313.286 62.0836 193.409 69.0401 126.265 147.23L130.817 151.139C195.678 75.6079 311.744 68.6678 390.083 135.941L393.992 131.389ZM126.265 147.23C59.1203 225.419 70.3595 344.971 151.065 414.276L154.974 409.724C76.6351 342.451 65.9555 226.669 130.817 151.139L126.265 147.23ZM151.065 414.276C198.92 455.371 260.517 469.645 316.737 458.176L315.538 452.297C261.103 463.402 201.399 449.591 154.974 409.724L151.065 414.276ZM318.292 453.149C317.601 452.436 316.98 451.68 316.429 450.891L311.509 454.325C312.243 455.376 313.068 456.38 313.983 457.325L318.292 453.149Z" fill="#9F9DFF" mask="url(#path-5-inside-2_214_62)"/>
<mask id="path-7-inside-3_214_62" fill="white">
<path fill-rule="evenodd" clip-rule="evenodd" d="M197.135 449.878C192.527 451.341 187.911 452.657 183.295 453.825C237.1 484.768 306.464 485.167 373.861 458.861C369.255 457.117 364.696 455.249 360.187 453.254C349.65 456.928 339.1 459.921 328.609 462.219C281.172 472.608 235.319 468.752 197.135 449.878ZM244.476 14.8515C245.008 13.8495 245.545 12.8488 246.086 11.8495C244.79 12.7877 243.497 13.7364 242.208 14.6957C242.965 14.7431 243.721 14.795 244.476 14.8515Z"/>
</mask>
<path fill-rule="evenodd" clip-rule="evenodd" d="M197.135 449.878C192.527 451.341 187.911 452.657 183.295 453.825C237.1 484.768 306.464 485.167 373.861 458.861C369.255 457.117 364.696 455.249 360.187 453.254C349.65 456.928 339.1 459.921 328.609 462.219C281.172 472.608 235.319 468.752 197.135 449.878ZM244.476 14.8515C245.008 13.8495 245.545 12.8488 246.086 11.8495C244.79 12.7877 243.497 13.7364 242.208 14.6957C242.965 14.7431 243.721 14.795 244.476 14.8515Z" fill="#9F9DFF"/>
<path d="M197.135 449.878L198.464 447.188L197.379 446.652L196.226 447.018L197.135 449.878ZM183.295 453.825L182.56 450.917L175.379 452.733L181.8 456.426L183.295 453.825ZM373.861 458.861L374.952 461.655L382.222 458.818L374.923 456.055L373.861 458.861ZM360.187 453.254L361.4 450.51L360.317 450.031L359.199 450.421L360.187 453.254ZM328.609 462.219L327.967 459.288L327.967 459.288L328.609 462.219ZM244.476 14.8515L244.252 17.8431L246.206 17.9892L247.125 16.2586L244.476 14.8515ZM246.086 11.8495L248.724 13.2785L244.327 9.41912L246.086 11.8495ZM242.208 14.6957L240.417 12.289L233.847 17.1779L242.02 17.6898L242.208 14.6957ZM196.226 447.018C191.675 448.464 187.117 449.764 182.56 450.917L184.031 456.733C188.706 455.551 193.379 454.218 198.043 452.737L196.226 447.018ZM181.8 456.426C236.589 487.934 306.944 488.2 374.952 461.655L372.77 456.066C305.985 482.134 237.612 481.601 184.791 451.224L181.8 456.426ZM374.923 456.055C370.368 454.331 365.859 452.483 361.4 450.51L358.973 455.997C363.532 458.014 368.142 459.904 372.799 461.666L374.923 456.055ZM359.199 450.421C348.772 454.057 338.337 457.017 327.967 459.288L329.25 465.149C339.863 462.825 350.529 459.799 361.174 456.086L359.199 450.421ZM327.967 459.288C281.063 469.56 235.927 465.706 198.464 447.188L195.805 452.567C234.712 471.798 281.281 475.655 329.25 465.149L327.967 459.288ZM247.125 16.2586C247.654 15.264 248.186 14.2706 248.724 13.2785L243.448 10.4204C242.903 11.427 242.362 12.435 241.826 13.4443L247.125 16.2586ZM244.327 9.41912C243.02 10.3651 241.717 11.3217 240.417 12.289L243.999 17.1024C245.277 16.1511 246.559 15.2102 247.845 14.2798L244.327 9.41912ZM242.02 17.6898C242.765 17.7365 243.509 17.7876 244.252 17.8431L244.699 11.8598C243.932 11.8025 243.164 11.7497 242.395 11.7016L242.02 17.6898Z" fill="#9F9DFF" mask="url(#path-7-inside-3_214_62)"/>
<mask id="path-9-inside-4_214_62" fill="white">
<path fill-rule="evenodd" clip-rule="evenodd" d="M147.657 423.545C148.724 423.587 149.794 423.618 150.867 423.638C177.906 446.189 208.969 460.67 240.974 467.269C240.793 467.915 240.646 468.566 240.535 469.219C207.459 462.392 175.387 447.233 147.657 423.545ZM275.618 473.337C275.756 472.675 275.857 472.011 275.922 471.346C332.479 472.964 388.504 450.605 427.419 405.289C446.941 382.555 460.101 356.439 467.089 329.027C467.799 328.988 468.512 328.897 469.223 328.755C462.215 356.731 448.853 383.399 428.936 406.592C389.541 452.468 332.827 475.046 275.618 473.337ZM474.228 299.304C476.39 275.79 474.312 251.9 468.105 228.837C467.448 228.961 466.779 229.045 466.103 229.09C472.286 251.942 474.372 275.615 472.253 298.916C472.923 298.995 473.583 299.124 474.228 299.304ZM455.816 195.237C446.579 175.517 434.052 156.946 418.318 140.397C418.338 141.38 418.35 142.365 418.355 143.354C433.179 159.274 445.047 177.025 453.889 195.834C454.515 195.594 455.159 195.395 455.816 195.237Z"/>
</mask>
<path fill-rule="evenodd" clip-rule="evenodd" d="M147.657 423.545C148.724 423.587 149.794 423.618 150.867 423.638C177.906 446.189 208.969 460.67 240.974 467.269C240.793 467.915 240.646 468.566 240.535 469.219C207.459 462.392 175.387 447.233 147.657 423.545ZM275.618 473.337C275.756 472.675 275.857 472.011 275.922 471.346C332.479 472.964 388.504 450.605 427.419 405.289C446.941 382.555 460.101 356.439 467.089 329.027C467.799 328.988 468.512 328.897 469.223 328.755C462.215 356.731 448.853 383.399 428.936 406.592C389.541 452.468 332.827 475.046 275.618 473.337ZM474.228 299.304C476.39 275.79 474.312 251.9 468.105 228.837C467.448 228.961 466.779 229.045 466.103 229.09C472.286 251.942 474.372 275.615 472.253 298.916C472.923 298.995 473.583 299.124 474.228 299.304ZM455.816 195.237C446.579 175.517 434.052 156.946 418.318 140.397C418.338 141.38 418.35 142.365 418.355 143.354C433.179 159.274 445.047 177.025 453.889 195.834C454.515 195.594 455.159 195.395 455.816 195.237Z" fill="#9F9DFF"/>
<path d="M150.867 423.638L151.508 422.87L151.238 422.645L150.886 422.638L150.867 423.638ZM147.657 423.545L147.696 422.546L144.815 422.433L147.007 424.305L147.657 423.545ZM240.974 467.269L241.937 467.54L242.227 466.507L241.176 466.29L240.974 467.269ZM240.535 469.219L240.333 470.198L241.346 470.408L241.521 469.387L240.535 469.219ZM275.922 471.346L275.951 470.346L275.019 470.32L274.927 471.248L275.922 471.346ZM275.618 473.337L274.639 473.134L274.396 474.301L275.588 474.337L275.618 473.337ZM467.089 329.027L467.035 328.028L466.301 328.068L466.12 328.78L467.089 329.027ZM469.223 328.755L470.193 328.998L470.578 327.464L469.027 327.774L469.223 328.755ZM474.228 299.304L473.96 300.267L475.114 300.589L475.224 299.395L474.228 299.304ZM468.105 228.837L469.07 228.578L468.829 227.683L467.919 227.855L468.105 228.837ZM466.103 229.09L466.037 228.092L464.818 228.172L465.137 229.351L466.103 229.09ZM472.253 298.916L471.257 298.826L471.169 299.795L472.136 299.909L472.253 298.916ZM418.318 140.397L419.043 139.708L417.266 137.839L417.318 140.417L418.318 140.397ZM455.816 195.237L456.05 196.209L457.242 195.923L456.722 194.813L455.816 195.237ZM418.355 143.354L417.355 143.358L417.356 143.749L417.623 144.035L418.355 143.354ZM453.889 195.834L452.984 196.26L453.38 197.102L454.248 196.768L453.889 195.834ZM150.886 422.638C149.819 422.618 148.756 422.587 147.696 422.546L147.618 424.544C148.691 424.586 149.768 424.618 150.849 424.638L150.886 422.638ZM241.176 466.29C209.33 459.723 178.418 445.314 151.508 422.87L150.227 424.406C177.394 447.065 208.608 461.617 240.772 468.249L241.176 466.29ZM241.521 469.387C241.626 468.769 241.765 468.152 241.937 467.54L240.011 466.999C239.821 467.678 239.666 468.363 239.549 469.051L241.521 469.387ZM147.007 424.305C174.868 448.105 207.094 463.338 240.333 470.198L240.737 468.24C207.823 461.446 175.906 446.361 148.306 422.785L147.007 424.305ZM274.927 471.248C274.865 471.877 274.769 472.507 274.639 473.134L276.597 473.541C276.742 472.844 276.849 472.144 276.918 471.444L274.927 471.248ZM426.66 404.637C387.955 449.71 332.227 471.957 275.951 470.346L275.894 472.346C332.732 473.972 389.053 451.5 428.178 405.94L426.66 404.637ZM466.12 328.78C459.169 356.047 446.079 382.024 426.66 404.637L428.178 405.94C447.803 383.087 461.034 356.831 468.058 329.274L466.12 328.78ZM469.027 327.774C468.362 327.908 467.695 327.992 467.035 328.028L467.143 330.025C467.902 329.984 468.662 329.887 469.42 329.736L469.027 327.774ZM429.695 407.243C449.716 383.929 463.148 357.12 470.193 328.998L468.253 328.512C461.281 356.341 447.99 382.869 428.178 405.94L429.695 407.243ZM275.588 474.337C333.079 476.054 390.09 453.363 429.695 407.243L428.178 405.94C388.992 451.572 332.576 474.038 275.648 472.338L275.588 474.337ZM475.224 299.395C477.397 275.762 475.308 251.754 469.07 228.578L467.139 229.097C473.316 252.047 475.383 275.818 473.232 299.212L475.224 299.395ZM467.919 227.855C467.303 227.971 466.675 228.05 466.037 228.092L466.168 230.088C466.884 230.041 467.593 229.952 468.29 229.82L467.919 227.855ZM465.137 229.351C471.29 252.09 473.365 275.644 471.257 298.826L473.249 299.007C475.379 275.586 473.282 251.794 467.068 228.829L465.137 229.351ZM472.136 299.909C472.756 299.982 473.366 300.102 473.96 300.267L474.496 298.34C473.801 298.147 473.09 298.008 472.37 297.923L472.136 299.909ZM417.594 141.086C433.253 157.556 445.718 176.037 454.911 195.661L456.722 194.813C447.439 174.996 434.852 156.336 419.043 139.708L417.594 141.086ZM419.355 143.349C419.35 142.356 419.338 141.365 419.318 140.377L417.318 140.417C417.338 141.395 417.35 142.375 417.355 143.358L419.355 143.349ZM454.794 195.409C445.909 176.507 433.982 158.669 419.086 142.672L417.623 144.035C432.376 159.879 444.186 177.543 452.984 196.26L454.794 195.409ZM455.583 194.264C454.883 194.433 454.198 194.645 453.531 194.901L454.248 196.768C454.832 196.544 455.434 196.357 456.05 196.209L455.583 194.264Z" fill="#9F9DFF" mask="url(#path-9-inside-4_214_62)"/>
</svg>
