<svg width="349" height="342" viewBox="0 0 349 342" fill="none" xmlns="http://www.w3.org/2000/svg">
<path d="M82.043 5.51953L70.3881 14.1194H8V296.388L22.0545 310.535H172.883H292.517L302.801 298.113H335.709" stroke="#9A9DFF" stroke-width="5"/>
<path d="M344.741 336.679L331.987 336.679L344.742 326.338L344.741 336.679Z" fill="#D9D9D9"/>
<path d="M6.81723 313.362L5.96187 300.636L17.135 312.669L6.81723 313.362Z" fill="#D9D9D9"/>
<path d="M337.064 8.83026L337.166 20.9421L324.483 8.71075L337.064 8.83026Z" fill="#D9D9D9"/>
<path d="M109.809 322.957L125.577 333.999H327.824L342.564 322.547V3.4502H212.303L196.535 11.8068" stroke="#9A9DFF" stroke-width="5"/>
<path d="M101.872 153.46H99.9375C99.9075 155.38 99.8775 157.315 99.8475 159.265C99.8475 161.215 99.8475 163.165 99.8475 165.115V167.095H102.052C104.422 167.095 106.147 166.45 107.227 165.16C108.307 163.87 108.847 162.175 108.847 160.075C108.847 157.945 108.262 156.31 107.092 155.17C105.952 154.03 104.212 153.46 101.872 153.46ZM90.1725 153.28V151.165H102.322C106.552 151.165 109.642 151.99 111.592 153.64C113.572 155.26 114.562 157.405 114.562 160.075C114.562 161.755 114.142 163.315 113.302 164.755C112.492 166.165 111.142 167.29 109.252 168.13C107.392 168.97 104.872 169.39 101.692 169.39H99.8475C99.8475 170.83 99.8475 172.3 99.8475 173.8C99.8775 175.3 99.9075 176.845 99.9375 178.435L104.032 178.885V181H90.1725V178.885L93.9525 178.48C94.0125 176.62 94.0425 174.73 94.0425 172.81C94.0425 170.89 94.0425 168.97 94.0425 167.05V165.115C94.0425 163.225 94.0425 161.335 94.0425 159.445C94.0425 157.525 94.0125 155.605 93.9525 153.685L90.1725 153.28ZM116.84 181V179.155L119.81 178.57C119.84 177.46 119.855 176.26 119.855 174.97C119.855 173.65 119.855 172.51 119.855 171.55V169.435C119.855 168.205 119.84 167.185 119.81 166.375C119.81 165.535 119.78 164.665 119.72 163.765L116.525 163.36V161.65L124.625 158.815L125.345 159.265L125.21 165.61V171.55C125.21 172.51 125.21 173.65 125.21 174.97C125.21 176.26 125.225 177.475 125.255 178.615L128 179.155V181H116.84ZM122.51 154.63C121.55 154.63 120.74 154.33 120.08 153.73C119.42 153.13 119.09 152.365 119.09 151.435C119.09 150.475 119.42 149.695 120.08 149.095C120.74 148.495 121.55 148.195 122.51 148.195C123.47 148.195 124.265 148.495 124.895 149.095C125.555 149.695 125.885 150.475 125.885 151.435C125.885 152.365 125.555 153.13 124.895 153.73C124.265 154.33 123.47 154.63 122.51 154.63ZM141.709 181.63C139.669 181.63 137.824 181.18 136.174 180.28C134.554 179.38 133.264 178.075 132.304 176.365C131.344 174.655 130.864 172.615 130.864 170.245C130.864 167.845 131.359 165.79 132.349 164.08C133.369 162.37 134.704 161.065 136.354 160.165C138.004 159.265 139.789 158.815 141.709 158.815C143.629 158.815 145.414 159.265 147.064 160.165C148.714 161.065 150.049 162.37 151.069 164.08C152.089 165.76 152.599 167.815 152.599 170.245C152.599 172.645 152.104 174.7 151.114 176.41C150.154 178.09 148.849 179.38 147.199 180.28C145.579 181.18 143.749 181.63 141.709 181.63ZM141.709 179.425C143.329 179.425 144.559 178.675 145.399 177.175C146.269 175.675 146.704 173.38 146.704 170.29C146.704 164.11 145.039 161.02 141.709 161.02C138.409 161.02 136.759 164.11 136.759 170.29C136.759 173.38 137.179 175.675 138.019 177.175C138.859 178.675 140.089 179.425 141.709 179.425ZM155.778 181V179.155L158.703 178.57C158.733 177.46 158.748 176.26 158.748 174.97C158.748 173.65 158.748 172.51 158.748 171.55V169.165C158.748 167.935 158.733 166.96 158.703 166.24C158.703 165.49 158.673 164.665 158.613 163.765L155.463 163.36V161.65L162.978 158.815L163.698 159.265L164.013 162.73C166.323 160.12 168.873 158.815 171.663 158.815C173.613 158.815 175.113 159.46 176.163 160.75C177.243 162.04 177.783 164.08 177.783 166.87V171.55C177.783 172.57 177.783 173.725 177.783 175.015C177.783 176.305 177.798 177.505 177.828 178.615L180.573 179.155V181H169.458V179.155L172.338 178.57C172.368 177.46 172.383 176.275 172.383 175.015C172.383 173.725 172.383 172.57 172.383 171.55V167.275C172.383 165.505 172.143 164.29 171.663 163.63C171.183 162.94 170.373 162.595 169.233 162.595C167.643 162.595 165.963 163.33 164.193 164.8V171.55C164.193 172.54 164.193 173.68 164.193 174.97C164.193 176.26 164.208 177.475 164.238 178.615L166.893 179.155V181H155.778ZM194.042 160.975C193.322 160.975 192.602 161.215 191.882 161.695C191.192 162.145 190.592 162.895 190.082 163.945C189.602 164.995 189.302 166.42 189.182 168.22H195.347C196.427 168.22 197.147 167.995 197.507 167.545C197.867 167.095 198.047 166.465 198.047 165.655C198.047 164.275 197.657 163.15 196.877 162.28C196.097 161.41 195.152 160.975 194.042 160.975ZM194.042 181.63C191.942 181.63 190.097 181.18 188.507 180.28C186.917 179.38 185.672 178.09 184.772 176.41C183.872 174.7 183.422 172.675 183.422 170.335C183.422 167.935 183.932 165.88 184.952 164.17C186.002 162.43 187.352 161.11 189.002 160.21C190.682 159.28 192.467 158.815 194.357 158.815C196.127 158.815 197.672 159.19 198.992 159.94C200.312 160.69 201.332 161.74 202.052 163.09C202.802 164.44 203.177 166.03 203.177 167.86C203.177 168.82 203.087 169.645 202.907 170.335H189.137C189.257 172.915 189.932 174.85 191.162 176.14C192.422 177.43 193.997 178.075 195.887 178.075C197.207 178.075 198.317 177.82 199.217 177.31C200.147 176.77 200.987 176.08 201.737 175.24L203.042 176.41C202.172 178.06 200.972 179.35 199.442 180.28C197.942 181.18 196.142 181.63 194.042 181.63ZM217.202 160.975C216.482 160.975 215.762 161.215 215.042 161.695C214.352 162.145 213.752 162.895 213.242 163.945C212.762 164.995 212.462 166.42 212.342 168.22H218.507C219.587 168.22 220.307 167.995 220.667 167.545C221.027 167.095 221.207 166.465 221.207 165.655C221.207 164.275 220.817 163.15 220.037 162.28C219.257 161.41 218.312 160.975 217.202 160.975ZM217.202 181.63C215.102 181.63 213.257 181.18 211.667 180.28C210.077 179.38 208.832 178.09 207.932 176.41C207.032 174.7 206.582 172.675 206.582 170.335C206.582 167.935 207.092 165.88 208.112 164.17C209.162 162.43 210.512 161.11 212.162 160.21C213.842 159.28 215.627 158.815 217.517 158.815C219.287 158.815 220.832 159.19 222.152 159.94C223.472 160.69 224.492 161.74 225.212 163.09C225.962 164.44 226.337 166.03 226.337 167.86C226.337 168.82 226.247 169.645 226.067 170.335H212.297C212.417 172.915 213.092 174.85 214.322 176.14C215.582 177.43 217.157 178.075 219.047 178.075C220.367 178.075 221.477 177.82 222.377 177.31C223.307 176.77 224.147 176.08 224.897 175.24L226.202 176.41C225.332 178.06 224.132 179.35 222.602 180.28C221.102 181.18 219.302 181.63 217.202 181.63ZM229.651 181V179.155L232.531 178.615C232.561 177.475 232.576 176.26 232.576 174.97C232.576 173.65 232.576 172.51 232.576 171.55V169.165C232.576 167.935 232.561 166.96 232.531 166.24C232.531 165.49 232.501 164.665 232.441 163.765L229.291 163.36V161.65L236.806 158.815L237.526 159.265L237.976 164.575C238.666 162.715 239.596 161.29 240.766 160.3C241.936 159.31 243.106 158.815 244.276 158.815C245.086 158.815 245.821 159.025 246.481 159.445C247.171 159.865 247.621 160.465 247.831 161.245C247.801 162.355 247.531 163.225 247.021 163.855C246.511 164.455 245.806 164.755 244.906 164.755C243.826 164.755 242.806 164.215 241.846 163.135L241.441 162.685C239.851 164.005 238.711 165.865 238.021 168.265V171.55C238.021 172.48 238.021 173.59 238.021 174.88C238.021 176.14 238.036 177.325 238.066 178.435L241.756 179.155V181H229.651ZM256.677 181.63C255.297 181.63 254.022 181.465 252.852 181.135C251.712 180.835 250.572 180.37 249.432 179.74L249.387 174.52H252.402L253.212 178.705C254.292 179.155 255.462 179.38 256.722 179.38C258.252 179.38 259.392 179.11 260.142 178.57C260.892 178.03 261.267 177.28 261.267 176.32C261.267 175.48 260.967 174.805 260.367 174.295C259.767 173.755 258.747 173.245 257.307 172.765L255.057 172C253.377 171.46 252.042 170.665 251.052 169.615C250.092 168.565 249.612 167.245 249.612 165.655C249.612 164.395 249.942 163.255 250.602 162.235C251.262 161.185 252.222 160.36 253.482 159.76C254.772 159.13 256.332 158.815 258.162 158.815C259.452 158.815 260.622 158.98 261.672 159.31C262.752 159.61 263.817 160.06 264.867 160.66L264.642 165.385H261.672L260.862 161.605C260.022 161.245 259.092 161.065 258.072 161.065C256.872 161.065 255.942 161.32 255.282 161.83C254.622 162.34 254.292 163.03 254.292 163.9C254.292 164.71 254.562 165.37 255.102 165.88C255.672 166.36 256.722 166.855 258.252 167.365L260.052 167.905C262.242 168.655 263.802 169.585 264.732 170.695C265.662 171.805 266.127 173.14 266.127 174.7C266.127 176.71 265.302 178.375 263.652 179.695C262.032 180.985 259.707 181.63 256.677 181.63Z" fill="#F7F6F3"/>
</svg>
